<svg width="24" height="24" viewBox="0 0 24 24" fill="none" xmlns="http://www.w3.org/2000/svg">
<path d="M21.271 10.8999V7.4375C21.271 5.54172 19.7293 4 17.8335 4H6.8335C4.93771 4 3.396 5.54172 3.396 7.4375V10.8999C2.23154 11.0666 1.3335 12.0712 1.3335 13.2811V17.7498C1.3335 18.1296 1.64114 18.4373 2.021 18.4373H2.36475C2.36475 18.8171 2.67239 19.1248 3.05225 19.1248C3.4321 19.1248 3.73975 18.8171 3.73975 18.4373H20.9272C20.9272 18.8171 21.2349 19.1248 21.6147 19.1248C21.9946 19.1248 22.3022 18.8171 22.3022 18.4373H22.646C23.0259 18.4373 23.3335 18.1296 23.3335 17.7498V13.2811C23.3335 12.0711 22.4355 11.0675 21.271 10.8999ZM6.8335 5.375H17.8335C18.9713 5.375 19.896 6.29968 19.896 7.4375V10.875H18.521V8.8125C18.521 8.43265 18.2133 8.125 17.8335 8.125H13.7085C13.3286 8.125 13.021 8.43265 13.021 8.8125V10.875H11.646V8.8125C11.646 8.43265 11.3383 8.125 10.9585 8.125H6.8335C6.45364 8.125 6.146 8.43265 6.146 8.8125V10.875H4.771V7.4375C4.771 6.29968 5.69568 5.375 6.8335 5.375ZM17.146 10.875H14.396V9.5H17.146V10.875ZM10.271 10.875H7.521V9.5H10.271V10.875ZM2.7085 17.0625V13.2811C2.7085 12.7122 3.17085 12.2499 3.73975 12.2499H20.9272C21.4961 12.2499 21.9585 12.7122 21.9585 13.2811V17.0625H2.7085Z" fill="#B98A67"/>
</svg>
