<svg width="24" height="24" viewBox="0 0 24 24" fill="none" xmlns="http://www.w3.org/2000/svg">
<path fill-rule="evenodd" clip-rule="evenodd" d="M14.5602 2.65381C14.2948 2.65381 14.0354 2.7325 13.8147 2.87994C13.5941 3.02738 13.4221 3.23694 13.3206 3.48212C13.219 3.7273 13.1924 3.99709 13.2442 4.25737C13.296 4.51765 13.4238 4.75673 13.6114 4.94438C13.7991 5.13204 14.0382 5.25983 14.2984 5.3116C14.5587 5.36338 14.8285 5.33681 15.0737 5.23525C15.3189 5.13369 15.5284 4.96171 15.6759 4.74106C15.8233 4.5204 15.902 4.26098 15.902 3.9956C15.902 3.63973 15.7606 3.29844 15.509 3.04681C15.2574 2.79517 14.9161 2.65381 14.5602 2.65381ZM11.612 3.9956C11.612 3.41249 11.7849 2.84248 12.1088 2.35765C12.4328 1.87281 12.8933 1.49493 13.432 1.27179C13.9707 1.04864 14.5635 0.990256 15.1354 1.10401C15.7073 1.21777 16.2326 1.49857 16.6449 1.91088C17.0572 2.3232 17.338 2.84852 17.4518 3.42043C17.5656 3.99233 17.5072 4.58512 17.284 5.12384C17.0609 5.66256 16.683 6.12301 16.1982 6.44696C15.7133 6.77092 15.1433 6.94383 14.5602 6.94383C14.1725 6.9442 13.7886 6.86809 13.4303 6.71987C13.0721 6.57165 12.7466 6.35424 12.4725 6.08007C12.1984 5.80591 11.9811 5.48037 11.8329 5.1221C11.6848 4.76383 11.6088 4.37986 11.6092 3.99217L11.612 3.9956ZM11.2568 8.83139C11.0313 8.65166 10.7699 8.52216 10.4903 8.45155C10.2107 8.38093 9.91922 8.37082 9.63538 8.4219C9.35154 8.47298 9.08187 8.58408 8.84441 8.74775C8.60695 8.91142 8.40717 9.1239 8.25843 9.37099C8.10968 9.61807 8.0154 9.89406 7.98189 10.1805C7.94838 10.467 7.97642 10.7573 8.06412 11.032C8.15181 11.3068 8.29715 11.5596 8.49043 11.7737C8.6837 11.9877 8.92044 12.1581 9.18483 12.2733L12.5019 13.7207C13.1863 14.0206 13.7246 14.5787 13.9995 15.2735C14.2744 15.9683 14.2638 16.7436 13.9699 17.4306L13.154 19.3346C13.113 19.4328 13.053 19.5219 12.9774 19.5967C12.9019 19.6715 12.8122 19.7306 12.7136 19.7706C12.6151 19.8106 12.5095 19.8306 12.4032 19.8296C12.2968 19.8285 12.1917 19.8064 12.094 19.7645C11.9962 19.7226 11.9077 19.6618 11.8336 19.5855C11.7595 19.5092 11.7013 19.4189 11.6623 19.32C11.6233 19.221 11.6043 19.1153 11.6063 19.009C11.6084 18.9027 11.6315 18.7978 11.6744 18.7004L12.4903 16.7964C12.6175 16.4993 12.6221 16.164 12.5031 15.8636C12.384 15.5631 12.1509 15.322 11.8547 15.1927L8.53759 13.7453C8.06553 13.5372 7.64321 13.2309 7.29872 12.8468C6.95423 12.4627 6.69548 12.0097 6.53966 11.5179C6.38384 11.0261 6.33454 10.5067 6.39504 9.99433C6.45553 9.48196 6.62443 8.98836 6.89051 8.54634C7.15658 8.10432 7.51373 7.72402 7.93819 7.43075C8.36265 7.13748 8.8447 6.93795 9.35226 6.84544C9.85982 6.75293 10.3813 6.76956 10.8819 6.89422C11.3825 7.01889 11.8509 7.24872 12.2558 7.56845L14.5725 9.41212C14.7466 9.55058 14.9624 9.62598 15.1848 9.62604H19.3898C19.6033 9.62604 19.808 9.71084 19.959 9.8618C20.11 10.0128 20.1948 10.2175 20.1948 10.431C20.1948 10.6445 20.11 10.8492 19.959 11.0002C19.808 11.1511 19.6033 11.2359 19.3898 11.2359H15.1835C14.5967 11.236 14.0272 11.037 13.5681 10.6716L11.2568 8.83139ZM5.97742 16.6058C5.49982 16.6058 5.03294 16.7474 4.63583 17.0128C4.23871 17.2781 3.9292 17.6553 3.74643 18.0965C3.56366 18.5378 3.51583 19.0233 3.60901 19.4917C3.70219 19.9602 3.93218 20.3904 4.26989 20.7281C4.60761 21.0659 5.03789 21.2959 5.50632 21.389C5.97474 21.4822 6.46028 21.4344 6.90153 21.2516C7.34278 21.0688 7.71992 20.7593 7.98526 20.3622C8.25061 19.9651 8.39223 19.4982 8.39223 19.0206C8.39196 18.7034 8.32921 18.3894 8.20756 18.0965C8.08592 17.8036 7.90775 17.5375 7.68325 17.3135C7.45875 17.0894 7.19231 16.9118 6.89915 16.7907C6.60599 16.6696 6.29186 16.6075 5.97468 16.6079L5.97742 16.6058ZM1.95274 19.0206C1.95274 18.2246 2.18878 17.4465 2.63102 16.7846C3.07326 16.1228 3.70183 15.6069 4.43724 15.3023C5.17266 14.9977 5.98189 14.918 6.7626 15.0733C7.54331 15.2286 8.26044 15.6119 8.8233 16.1747C9.38617 16.7376 9.76948 17.4547 9.92477 18.2354C10.0801 19.0162 10.0004 19.8254 9.69574 20.5608C9.39112 21.2962 8.87527 21.9248 8.21342 22.367C7.55156 22.8093 6.77343 23.0453 5.97742 23.0453C5.44872 23.0456 4.92514 22.9417 4.43661 22.7395C3.94808 22.5374 3.50416 22.241 3.13021 21.8672C2.75627 21.4935 2.45963 21.0497 2.25724 20.5613C2.05485 20.0728 1.95068 19.5493 1.95068 19.0206H1.95274ZM18.8537 16.6079C18.3761 16.6079 17.9092 16.7495 17.5121 17.0148C17.115 17.2802 16.8054 17.6573 16.6227 18.0986C16.4399 18.5398 16.3921 19.0254 16.4852 19.4938C16.5784 19.9622 16.8084 20.3925 17.1461 20.7302C17.4838 21.0679 17.9141 21.2979 18.3826 21.3911C18.851 21.4843 19.3365 21.4364 19.7778 21.2537C20.219 21.0709 20.5962 20.7614 20.8615 20.3643C21.1268 19.9672 21.2685 19.5003 21.2685 19.0227C21.2685 18.3822 21.0141 17.768 20.5612 17.3151C20.1083 16.8623 19.4941 16.6079 18.8537 16.6079ZM14.829 19.0227C14.829 18.2267 15.065 17.4485 15.5073 16.7867C15.9495 16.1248 16.5781 15.609 17.3135 15.3044C18.0489 14.9997 18.8581 14.92 19.6388 15.0753C20.4196 15.2306 21.1367 15.6139 21.6995 16.1768C22.2624 16.7397 22.6457 17.4568 22.801 18.2375C22.9563 19.0182 22.8766 19.8274 22.572 20.5629C22.2674 21.2983 21.7515 21.9268 21.0897 22.3691C20.4278 22.8113 19.6497 23.0474 18.8537 23.0474C18.325 23.0474 17.8014 22.9432 17.313 22.7408C16.8246 22.5384 16.3808 22.2418 16.0071 21.8678C15.6333 21.4939 15.3369 21.05 15.1348 20.5614C14.9326 20.0729 14.8287 19.5493 14.829 19.0206V19.0227Z" fill="#B98A67"/>
</svg>
