<svg width="32" height="32" viewBox="0 0 32 32" fill="none" xmlns="http://www.w3.org/2000/svg">
<path fill-rule="evenodd" clip-rule="evenodd" d="M17.1767 9.2572C17.0451 9.21389 16.9718 9.06897 17.0134 8.93737C17.0584 8.80411 17.2 8.73248 17.3333 8.77746C17.3383 8.77913 19.4455 9.5204 19.3272 12.1523C19.3222 12.2923 19.2023 12.4005 19.064 12.3955C18.9258 12.3905 18.8141 12.2723 18.8208 12.1323C18.9258 9.87188 17.1817 9.2572 17.1767 9.2572ZM21.2195 5.86238C22.144 5.15108 22.2273 5.20605 23.3117 5.05616C22.4322 4.10665 21.8525 3.43037 20.4649 3.19881C19.8269 3.09054 19.1623 3.13718 18.5493 3.31375C17.9296 3.49032 17.3532 3.80347 16.9001 4.22492C16.597 4.50477 16.3404 4.83293 16.1555 5.2044C15.894 4.3615 15.4076 3.5253 14.5098 3.05388C14.2849 2.93394 14 3.02056 13.8817 3.24877C13.7618 3.47532 13.8484 3.75849 14.0766 3.87679C15.2427 4.49312 15.4792 6.05562 15.5092 7.01012C12.3326 7.29663 10.7369 10.1634 10.6252 13.1018C10.5436 15.3339 9.99721 16.425 9.45585 17.5009C7.87001 20.6659 7.53522 24.074 10.362 26.7857C13.447 29.7408 18.4409 29.7375 21.5193 26.779C25.742 22.9211 22.732 18.3735 22.4238 17.4857C21.8808 16.4146 21.3394 15.3302 21.2545 13.1015C21.1479 10.208 19.5704 7.31817 16.4387 7.01625L16.4254 6.7314C18.5526 7.5343 19.4221 7.05956 21.2194 5.86185L21.2195 5.86238ZM20.6498 5.12609C19.802 5.77905 18.7925 6.55031 16.8735 5.90067C17.0051 5.51755 17.235 5.18106 17.5315 4.90955C17.8847 4.58472 18.3278 4.3432 18.8042 4.20661C19.2856 4.06669 19.807 4.03337 20.3134 4.11666C20.7132 4.18329 21.1063 4.32821 21.4611 4.55977C21.1846 4.71468 20.9263 4.91622 20.6498 5.12609ZM21.5943 17.9043C21.0096 16.7432 20.4183 15.5689 20.3283 13.135C20.2317 10.5597 18.8191 7.92778 15.9407 7.92778C13.0689 7.92778 11.6546 10.5614 11.5599 13.135C11.4666 15.5687 10.8769 16.7514 10.2889 17.9158C8.87967 20.7259 8.50987 23.7175 11.0102 26.1149C13.7304 28.7235 18.1598 28.7185 20.8767 26.1082C24.0733 22.8683 22.2973 19.3269 21.5943 17.9043ZM17.7431 26.5264C17.6032 26.5264 17.4866 26.4131 17.4866 26.2715C17.4866 26.1316 17.6032 26.0167 17.7431 26.0167C17.7497 26.0167 20.4616 26.05 21.1929 23.1515C21.2262 23.0149 21.3661 22.9317 21.5027 22.9666C21.6376 23 21.7209 23.1399 21.6876 23.2748C20.8547 26.5647 17.7497 26.5264 17.7431 26.5264Z" fill="white"/>
</svg>
