<svg width="24" height="24" viewBox="0 0 24 24" fill="none" xmlns="http://www.w3.org/2000/svg">
<path fill-rule="evenodd" clip-rule="evenodd" d="M7.14285 4.07785C7.57824 3.15827 8.26577 2.38121 9.12547 1.83706C9.98517 1.29291 10.9817 1.00403 11.9991 1.00403C13.0166 1.00403 14.0131 1.29291 14.8728 1.83706C15.7325 2.38121 16.42 3.15827 16.8554 4.07785C16.9413 4.07419 17.0275 4.07236 17.1138 4.07236C18.421 4.07332 19.6906 4.50958 20.7223 5.3123C21.7539 6.11501 22.4889 7.23845 22.8111 8.50528C23.1333 9.77211 23.0244 11.1102 22.5016 12.3082C21.9789 13.5063 21.072 14.4962 19.9241 15.1215V18.1916C19.9438 18.9572 19.9166 19.7234 19.8425 20.4857C19.8152 21.1215 19.5503 21.724 19.1003 22.174C18.6503 22.624 18.0478 22.8889 17.412 22.9163C16.6497 22.9903 15.8835 23.0175 15.1179 22.9978H8.87425C8.10859 23.0175 7.34244 22.9903 6.58011 22.9163C5.94428 22.8889 5.34185 22.624 4.89183 22.174C4.44181 21.724 4.17695 21.1215 4.14957 20.4857C4.07554 19.7234 4.0483 18.9572 4.06801 18.1916V15.1229C2.92015 14.4975 2.01325 13.5077 1.49048 12.3096C0.96771 11.1115 0.858834 9.77348 1.18104 8.50665C1.50325 7.23982 2.23819 6.11638 3.26985 5.31367C4.30151 4.51096 5.57112 4.07469 6.87828 4.07373C6.9651 4.07373 7.05123 4.07556 7.13668 4.07922L7.14285 4.07785ZM6.68087 5.61116C5.70029 5.65701 4.76407 6.03331 4.02452 6.67884C3.28497 7.32437 2.78561 8.20114 2.60766 9.16652C2.4297 10.1319 2.58364 11.1291 3.04442 11.9959C3.50521 12.8627 4.24572 13.5481 5.1455 13.9405C5.28228 14.0003 5.39865 14.0986 5.48034 14.2236C5.56204 14.3485 5.60551 14.4945 5.60543 14.6438V18.1395C5.586 18.8544 5.60889 19.5699 5.67397 20.2821C5.66508 20.4307 5.6878 20.5795 5.74063 20.7187C5.79346 20.8578 5.8752 20.9842 5.98046 21.0895C6.08572 21.1947 6.21209 21.2765 6.35126 21.3293C6.49042 21.3821 6.63921 21.4049 6.7878 21.396C7.50005 21.461 8.21551 21.4839 8.93046 21.4645H15.0685C15.7835 21.4839 16.4989 21.461 17.2112 21.396C17.3598 21.4049 17.5085 21.3821 17.6477 21.3293C17.7869 21.2765 17.9132 21.1947 18.0185 21.0895C18.1238 20.9842 18.2055 20.8578 18.2583 20.7187C18.3112 20.5795 18.3339 20.4307 18.325 20.2821C18.39 19.5699 18.4129 18.8544 18.3935 18.1395V14.6431C18.3935 14.4938 18.4369 14.3478 18.5186 14.2229C18.6003 14.098 18.7167 13.9996 18.8535 13.9398C19.7533 13.5473 20.4939 12.8618 20.9546 11.9949C21.4153 11.128 21.5692 10.1307 21.3911 9.16522C21.2129 8.19977 20.7133 7.323 19.9736 6.67757C19.2338 6.03215 18.2974 5.65605 17.3167 5.61047C17.3525 5.86319 17.3704 6.11812 17.3702 6.37336V6.88469C17.3702 7.0882 17.2893 7.28338 17.1454 7.42728C17.0015 7.57118 16.8064 7.65203 16.6028 7.65203C16.3993 7.65203 16.2042 7.57118 16.0602 7.42728C15.9163 7.28338 15.8355 7.0882 15.8355 6.88469V6.37336C15.8523 5.85899 15.7656 5.34649 15.5804 4.86633C15.3952 4.38617 15.1153 3.94816 14.7574 3.57835C14.3995 3.20853 13.9708 2.91446 13.497 2.71363C13.0232 2.5128 12.5138 2.40931 11.9991 2.40931C11.4845 2.40931 10.9751 2.5128 10.5013 2.71363C10.0274 2.91446 9.59881 3.20853 9.24091 3.57835C8.88301 3.94816 8.60313 4.38617 8.41791 4.86633C8.2327 5.34649 8.14593 5.85899 8.16278 6.37336V6.88469C8.16278 6.98546 8.14293 7.08524 8.10437 7.17834C8.0658 7.27144 8.00928 7.35603 7.93803 7.42728C7.86678 7.49853 7.78218 7.55505 7.68908 7.59362C7.59598 7.63218 7.4962 7.65203 7.39543 7.65203C7.29467 7.65203 7.19488 7.63218 7.10179 7.59362C7.00869 7.55505 6.9241 7.49853 6.85284 7.42728C6.78159 7.35603 6.72507 7.27144 6.68651 7.17834C6.64794 7.08524 6.62809 6.98546 6.62809 6.88469V6.37336C6.62809 6.1181 6.64619 5.86317 6.68224 5.61047L6.68087 5.61116ZM8.16278 18.1388C8.16278 17.9354 8.24359 17.7403 8.38743 17.5964C8.53127 17.4526 8.72636 17.3718 8.92978 17.3718H15.0678C15.2713 17.3718 15.4665 17.4526 15.6104 17.5965C15.7543 17.7404 15.8352 17.9356 15.8352 18.1391C15.8352 18.3427 15.7543 18.5378 15.6104 18.6817C15.4665 18.8256 15.2713 18.9065 15.0678 18.9065H8.92978C8.82899 18.9065 8.7292 18.8866 8.6361 18.848C8.543 18.8094 8.45841 18.7529 8.38718 18.6816C8.31595 18.6103 8.25947 18.5257 8.22096 18.4325C8.18246 18.3394 8.16268 18.2396 8.16278 18.1388Z" fill="#B98A67"/>
</svg>
