<svg width="32" height="32" viewBox="0 0 32 32" fill="none" xmlns="http://www.w3.org/2000/svg">
<path d="M20.0604 27.4646L16.9001 29.0447L13.7388 27.4646V23.9591L16.9001 22.379L20.0604 23.9591V27.4646ZM9.67538 29.0447L6.51409 27.4646V23.9591L9.67538 22.379L12.8356 23.9591V27.4646L9.67538 29.0447ZM2.90324 18.0872L6.0635 16.5069L9.22479 18.0872V21.5925L6.0635 23.1726L2.90324 21.5925V18.0872ZM6.51512 12.2171L9.67638 10.637L12.8366 12.2171V15.7226L9.67638 17.3027L6.51512 15.7226V12.2171ZM16.4485 21.5925L13.2872 23.1726L10.127 21.5925V18.0872L13.2872 16.5069L16.4485 18.0872V21.5925ZM20.7137 23.2741L17.3518 21.5925V17.8035C17.3517 17.7195 17.3283 17.6371 17.2842 17.5657C17.2401 17.4943 17.1769 17.4366 17.1019 17.399L13.7399 15.7186V11.9294C13.7398 11.8454 13.7164 11.7633 13.6723 11.6918C13.6282 11.6204 13.5651 11.5625 13.49 11.5248L9.87814 9.71948C9.81538 9.68795 9.74611 9.67147 9.67588 9.67147C9.60565 9.67147 9.53638 9.68795 9.47362 9.71948L5.86074 11.5248C5.78586 11.5626 5.72295 11.6204 5.67901 11.6918C5.63507 11.7633 5.61182 11.8455 5.61188 11.9294V15.7186L2.24989 17.4C2.17483 17.4373 2.11168 17.4949 2.06754 17.5662C2.02339 17.6375 1.99999 17.7196 2 17.8035V21.868C2.00011 21.9518 2.02356 22.034 2.06769 22.1052C2.11182 22.1765 2.1749 22.2341 2.24989 22.2715L5.61188 23.9529V27.7421C5.61179 27.8261 5.63515 27.9084 5.67929 27.9799C5.72343 28.0513 5.78663 28.1091 5.86177 28.1466L9.47362 29.952C9.53627 29.9833 9.60536 29.9995 9.67538 29.9995C9.74541 29.9995 9.81446 29.9833 9.87711 29.952L13.2872 28.2469L16.6974 29.952C16.7608 29.9843 16.831 30.0007 16.9022 30C16.9733 30.0003 17.0435 29.9839 17.107 29.952L20.7189 28.1466C20.7939 28.1092 20.8569 28.0516 20.9011 27.9804C20.9452 27.9091 20.9686 27.8269 20.9687 27.7431V23.6786C20.9688 23.5946 20.9455 23.5123 20.9014 23.4408C20.8572 23.3694 20.794 23.3116 20.7189 23.2741" fill="white"/>
<path d="M25.4778 20.2389L22.3164 21.819L19.1552 20.2389V16.7324L22.3164 15.1523L25.4778 16.7324V20.2389ZM26.1311 16.0504L22.5192 14.245C22.4564 14.2136 22.3871 14.1973 22.3169 14.1973C22.2467 14.1973 22.1775 14.2136 22.1147 14.245L18.5028 16.0514C18.428 16.0891 18.3651 16.147 18.3211 16.2184C18.2772 16.2898 18.2539 16.372 18.254 16.4559V20.5194C18.2539 20.6034 18.2772 20.6857 18.3214 20.7572C18.3655 20.8286 18.4288 20.8864 18.5039 20.9239L22.1157 22.7303C22.1785 22.7612 22.2475 22.7773 22.3175 22.7773C22.3875 22.7773 22.4564 22.7612 22.5192 22.7303L26.1311 20.9239C26.2063 20.8864 26.2694 20.8286 26.3136 20.7572C26.3577 20.6857 26.381 20.6034 26.3809 20.5194V16.4559C26.3809 16.3719 26.3576 16.2896 26.3134 16.2181C26.2693 16.1467 26.2062 16.088 26.1311 16.0504Z" fill="white"/>
<path d="M29.0905 10.5553C29.0903 10.9227 28.9442 11.2748 28.6844 11.5346C28.4246 11.7944 28.0724 11.9406 27.705 11.9409C27.418 11.9423 27.1382 11.8509 26.9073 11.6803C26.6764 11.5098 26.5069 11.2693 26.4239 10.9946L25.0926 6.67004L28.4986 9.05394C28.681 9.18172 28.8299 9.35146 28.9327 9.54897C29.0356 9.74647 29.0893 9.96583 29.0895 10.1885L29.0905 10.5553ZM23.2206 12.8429C22.7403 12.8428 22.2664 12.7327 21.8352 12.5211C21.4041 12.3096 21.0271 12.0022 20.7332 11.6223C20.793 11.5057 20.8426 11.384 20.8816 11.2588L20.9544 11.0233C21.6706 11.3304 22.4418 11.4886 23.2211 11.4886C24.0004 11.4886 24.7716 11.3304 25.4879 11.0233L25.5606 11.2588C25.5996 11.384 25.6493 11.5056 25.7091 11.6223C25.4149 12.0022 25.0377 12.3096 24.6063 12.5211C24.175 12.7327 23.701 12.8428 23.2206 12.8429ZM18.7362 11.9399C18.3688 11.9396 18.0166 11.7934 17.7568 11.5336C17.497 11.2738 17.3509 10.9217 17.3506 10.5543V10.1865C17.3507 9.96381 17.4045 9.74448 17.5073 9.54697C17.6102 9.34945 17.7591 9.17966 17.9415 9.05194L21.3476 6.66779L20.0163 10.9926C19.9332 11.2675 19.7635 11.5081 19.5325 11.6786C19.3014 11.8491 19.0213 11.9403 18.7342 11.9386M23.2186 2.90856C23.5758 2.90856 23.9251 3.01458 24.2221 3.21307C24.5192 3.41157 24.7507 3.69354 24.8875 4.02362C25.0242 4.35371 25.06 4.71702 24.9903 5.06744C24.9206 5.41786 24.7485 5.73961 24.4959 5.99225C24.2433 6.24488 23.9214 6.41707 23.571 6.48678C23.2205 6.55648 22.8574 6.52075 22.5273 6.38402C22.1972 6.24729 21.915 6.01555 21.7165 5.71848C21.518 5.42141 21.4121 5.0722 21.4121 4.71492C21.4121 4.23582 21.6024 3.77636 21.9412 3.43759C22.2799 3.09881 22.7395 2.90856 23.2186 2.90856ZM24.7034 8.4774C23.7503 8.85913 22.6868 8.85913 21.7337 8.4774L22.1289 7.19332C22.4719 7.34524 22.8429 7.42358 23.218 7.42358C23.5931 7.42358 23.9641 7.34524 24.3071 7.19332L24.7034 8.4774ZM21.4684 9.3447C22.5928 9.79282 23.8463 9.79282 24.9707 9.3447L25.2196 10.1538C24.5878 10.4256 23.9073 10.5658 23.2196 10.5658C22.5318 10.5658 21.8513 10.4256 21.2196 10.1538L21.4684 9.3447ZM29.0157 8.31039L25.6312 5.94074C25.8421 5.52781 25.9435 5.06775 25.9257 4.60441C25.9078 4.14107 25.7713 3.69005 25.5293 3.29458C25.2872 2.89911 24.9476 2.57244 24.5431 2.34577C24.1386 2.11911 23.6827 2 23.2191 2C22.7554 2 22.2995 2.11911 21.895 2.34577C21.4905 2.57244 21.1509 2.89911 20.9089 3.29458C20.6668 3.69005 20.5302 4.14107 20.5124 4.60441C20.4945 5.06775 20.5959 5.52781 20.8068 5.94074L17.4223 8.31039C17.1211 8.52142 16.8752 8.80199 16.7053 9.12819C16.5354 9.45439 16.4466 9.81672 16.4464 10.1845V10.552C16.4472 11.1585 16.6885 11.74 17.1174 12.1689C17.5462 12.5977 18.1277 12.8391 18.7342 12.8399C19.2486 12.8398 19.7471 12.6619 20.1453 12.3361C20.5265 12.7772 20.9982 13.1309 21.5283 13.3735C22.0585 13.616 22.6345 13.7415 23.2175 13.7415C23.8005 13.7415 24.3766 13.616 24.9067 13.3735C25.4368 13.1309 25.9085 12.7772 26.2897 12.3361C26.688 12.6614 27.1865 12.839 27.7008 12.8389C28.3075 12.8384 28.8892 12.5973 29.3183 12.1684C29.7474 11.7395 29.9889 11.1577 29.9897 10.551V10.1835C29.9894 9.81558 29.9006 9.45306 29.7308 9.12669C29.5609 8.80032 29.315 8.51964 29.0137 8.30839" fill="white"/>
</svg>
