<svg width="660" height="1597" viewBox="0 0 660 1597" fill="none" xmlns="http://www.w3.org/2000/svg">
<path d="M330 0C512.254 0 660 147.746 660 330V1267C660 1449.25 512.254 1597 330 1597C147.746 1597 0 1449.25 0 1267V330C0 147.746 147.746 0 330 0ZM330 48.4873C171.963 48.4873 43.8488 176.602 43.8486 334.639C43.8486 492.676 171.963 620.79 330 620.79C488.037 620.79 616.151 492.676 616.151 334.639C616.151 176.602 488.037 48.4873 330 48.4873Z" fill="#2E2E1F"/>
<path d="M332.854 1464.59C333.533 1462.45 333.669 1460.18 333.805 1457.91C333.805 1456.04 334.076 1454.3 335.843 1453.37C337.745 1452.3 338.696 1450.56 338.561 1448.42C338.561 1448.42 338.561 1448.29 338.561 1448.16C338.561 1448.02 338.561 1447.76 338.561 1447.62C338.561 1447.09 338.561 1447.09 338.968 1446.95C340.735 1446.69 341.278 1444.95 341.55 1444.15C341.822 1443.21 342.365 1442.41 343.18 1441.88C344.268 1441.21 345.219 1440.27 346.306 1438.94C346.985 1438.14 347.665 1437.33 348.344 1436.67L348.752 1436.27C349.431 1435.46 349.567 1434.53 348.752 1433.59C348.208 1432.66 347.529 1431.86 346.985 1430.92C346.17 1429.72 345.219 1428.65 343.724 1427.71C342.909 1427.18 342.093 1426.51 341.55 1425.71C340.463 1424.37 339.919 1422.64 339.919 1420.63C339.919 1419.16 339.512 1418.09 338.561 1417.29C337.881 1416.76 337.338 1416.09 336.93 1415.02C335.843 1412.75 334.348 1411.01 332.582 1409.94C331.902 1409.54 331.631 1408.74 331.766 1407.94C331.902 1407.94 332.038 1407.94 332.31 1407.94H333.941C335.028 1408.21 335.979 1408.21 337.066 1408.34C338.425 1408.47 339.376 1409.01 340.055 1410.08C340.191 1410.34 340.327 1410.48 340.599 1410.75C341.55 1412.22 342.909 1413.02 344.675 1413.02C345.219 1413.02 345.762 1413.02 346.442 1413.28C346.713 1414.62 347.529 1415.56 349.159 1416.09C350.246 1416.36 351.062 1417.03 351.605 1417.96C352.42 1419.16 353.372 1419.96 354.594 1421.03C355.41 1421.57 356.089 1422.37 356.769 1423.04L357.176 1423.44C357.992 1424.11 358.943 1424.24 359.758 1423.57H360.03C360.709 1422.9 361.389 1422.37 362.204 1421.97C363.699 1421.03 365.057 1419.83 366.008 1418.23C366.416 1417.56 367.096 1416.89 367.775 1416.36C369.134 1415.29 370.9 1414.75 373.074 1414.75C374.433 1414.75 375.52 1414.35 376.2 1413.55C377.015 1412.62 377.966 1412.08 379.325 1411.28C381.227 1410.34 382.45 1409.14 383.401 1407.81C383.945 1406.87 384.624 1406.47 385.575 1406.6C386.798 1406.6 388.157 1406.87 389.38 1407C388.429 1438.27 363.699 1463.39 332.582 1464.86M277.686 1408.61C280.403 1408.61 281.898 1409.41 282.713 1411.15C282.713 1411.41 282.985 1411.55 283.121 1411.68C284.072 1412.75 285.295 1413.42 286.79 1413.42C287.333 1413.42 287.877 1413.42 288.42 1413.55C288.42 1413.55 288.42 1413.55 288.556 1413.55C288.828 1414.89 289.779 1415.96 291.274 1416.36C292.361 1416.76 293.176 1417.43 293.856 1418.36C294.535 1419.16 295.35 1419.96 296.166 1420.63L296.709 1421.03C297.253 1421.57 297.66 1421.97 298.204 1422.37C298.611 1422.77 299.019 1423.17 299.563 1423.57C300.378 1424.24 301.329 1424.37 302.144 1423.71L302.688 1423.3C303.231 1422.9 303.911 1422.5 304.454 1422.1C306.085 1421.17 307.308 1419.96 308.259 1418.36C308.667 1417.69 309.21 1417.16 310.025 1416.49C311.384 1415.42 313.151 1414.89 315.189 1414.89C316.684 1414.89 317.771 1414.49 318.45 1413.55C319.265 1412.48 320.352 1411.95 321.575 1411.41C323.478 1410.48 324.701 1409.28 325.652 1407.81C326.059 1407.14 326.603 1406.87 327.282 1406.74C327.282 1406.87 327.282 1407 327.282 1407.14V1408.87C327.011 1409.94 327.011 1411.01 326.875 1411.95C326.739 1413.42 326.195 1414.35 325.244 1414.89C325.108 1414.89 324.837 1415.15 324.701 1415.29H324.429C323.07 1416.49 322.255 1417.83 322.255 1419.56C322.255 1419.83 322.255 1419.96 322.255 1420.23V1420.63C322.255 1421.43 322.119 1421.43 321.711 1421.57C320.081 1421.84 319.537 1423.44 319.265 1424.24C318.994 1425.04 318.45 1425.84 317.499 1426.51C316.548 1427.18 315.732 1428.11 314.781 1429.18C314.51 1429.58 314.238 1429.85 313.966 1430.25C313.423 1430.92 313.015 1431.59 312.335 1431.99C311.52 1432.52 311.384 1433.59 312.064 1434.66L312.335 1435.06C312.879 1435.73 313.287 1436.4 313.694 1437.2C314.645 1438.67 315.732 1439.87 317.227 1440.81C317.907 1441.21 318.45 1441.74 318.994 1442.41C320.217 1443.88 320.76 1445.62 320.76 1447.76C320.76 1448.82 320.896 1450.16 321.983 1450.96C323.07 1451.76 323.614 1452.97 324.157 1454.17C325.108 1456.04 326.195 1457.24 327.69 1458.18C328.641 1458.71 329.049 1459.51 328.913 1460.45C328.913 1461.78 328.641 1463.12 328.505 1464.46C296.981 1463.52 271.843 1438.67 270.484 1407.14C272.658 1407.81 275.104 1408.21 277.822 1408.34M326.467 1352.49C326.467 1355.16 325.652 1356.77 324.021 1357.57C323.885 1357.57 323.749 1357.7 323.614 1357.84C322.391 1358.9 321.711 1360.11 321.711 1361.71C321.711 1362.24 321.711 1362.78 321.575 1363.45C321.575 1363.45 321.575 1363.45 321.575 1363.58C319.673 1363.98 318.994 1365.45 318.722 1366.52C318.45 1367.32 317.907 1367.99 317.091 1368.79C316.14 1369.46 315.325 1370.26 314.645 1371.06C314.238 1371.46 313.966 1372 313.558 1372.4C313.015 1373.2 312.471 1374 311.656 1374.54C310.841 1375.07 310.705 1376.14 311.384 1377.08L313.423 1380.28C314.102 1381.35 315.053 1382.29 316.412 1383.22C317.363 1383.89 318.042 1384.56 318.586 1385.23C319.673 1386.56 320.081 1388.3 320.081 1390.3C320.081 1391.77 320.488 1392.84 321.439 1393.64C322.119 1394.18 322.662 1394.98 323.206 1396.05C324.293 1398.19 325.652 1399.92 327.418 1400.99C327.962 1401.26 328.234 1401.79 328.234 1402.46H327.826C326.875 1402.46 325.924 1402.19 324.972 1402.19C322.527 1402.19 321.032 1401.39 319.945 1399.66C319.13 1398.32 317.771 1397.52 315.732 1397.52C315.189 1397.52 314.645 1397.52 314.102 1397.25C313.83 1395.38 312.335 1394.71 311.248 1394.44C310.433 1394.18 309.754 1393.64 308.938 1392.71C308.259 1391.77 307.308 1390.97 306.221 1389.9C305.949 1389.63 305.541 1389.37 305.134 1389.1C304.454 1388.57 303.775 1388.03 303.367 1387.36C303.096 1386.96 302.688 1386.83 302.28 1386.7C301.737 1386.7 301.193 1386.7 300.65 1387.1L300.106 1387.5C299.427 1387.9 298.747 1388.43 298.068 1388.83C296.709 1389.63 295.486 1390.84 294.535 1392.31C293.992 1393.11 293.448 1393.78 292.633 1394.31C291.274 1395.38 289.507 1395.91 287.197 1395.91C285.975 1395.91 284.887 1396.32 284.208 1397.25C283.393 1398.19 282.306 1398.85 281.355 1399.25C279.452 1400.19 277.958 1401.53 277.006 1403.13C276.599 1403.8 276.055 1404.06 275.24 1404.2C274.561 1404.2 273.745 1404.2 273.066 1404.2C272.115 1404.2 271.163 1403.93 270.212 1403.8C271.163 1372.27 296.166 1347.15 327.554 1345.94C326.875 1348.08 326.467 1350.49 326.331 1353.16M386.527 1401.53C385.711 1401.53 384.896 1401.39 384.081 1401.26C383.265 1401.26 382.45 1401.26 381.635 1400.99C380.14 1400.86 379.189 1400.32 378.645 1399.39C377.287 1397.12 375.384 1396.05 372.938 1396.18C372.938 1396.18 372.667 1396.18 372.531 1396.18C371.987 1396.18 371.851 1396.18 371.851 1395.65C371.58 1393.91 369.949 1393.38 369.134 1393.11C368.318 1392.84 367.639 1392.31 366.824 1391.37C366.144 1390.44 365.193 1389.5 364.106 1388.57C363.699 1388.3 363.427 1388.03 363.019 1387.76C362.34 1387.23 361.66 1386.7 361.253 1386.03C360.981 1385.63 360.573 1385.36 360.166 1385.36C359.622 1385.36 359.079 1385.36 358.535 1385.76L358.127 1386.03C357.448 1386.56 356.769 1386.96 355.953 1387.5C354.594 1388.3 353.372 1389.5 352.42 1390.97C351.877 1391.77 351.197 1392.44 350.518 1392.97C349.159 1394.04 347.529 1394.58 345.49 1394.58C344.132 1394.58 343.045 1394.98 342.229 1395.91C341.55 1396.58 340.735 1397.25 340.055 1397.65C337.609 1398.85 335.979 1400.32 334.892 1402.06C334.484 1402.73 333.669 1403 332.989 1402.86V1401.93C333.125 1400.59 333.261 1399.39 333.397 1398.05C333.533 1396.72 334.076 1395.78 335.028 1395.25C335.299 1395.25 335.435 1394.98 335.571 1394.85H335.707C337.066 1393.64 337.745 1392.31 337.881 1390.57C337.881 1390.17 337.881 1389.9 337.881 1389.5V1388.7C338.968 1388.7 339.783 1388.03 340.327 1387.1C340.599 1386.7 340.735 1386.16 340.87 1385.63C341.142 1384.82 341.55 1384.29 342.229 1383.89C343.588 1383.09 344.675 1381.89 345.762 1380.42C346.442 1379.61 347.121 1378.81 347.936 1378.14C348.616 1377.48 348.752 1376.27 348.208 1375.47C347.665 1374.67 346.985 1373.73 346.442 1372.93C345.626 1371.6 344.539 1370.53 343.045 1369.46C342.229 1368.92 341.55 1368.26 341.006 1367.46C339.919 1366.12 339.512 1364.38 339.376 1362.24C339.376 1360.91 338.968 1359.84 338.017 1359.17C337.066 1358.37 336.522 1357.3 335.979 1356.37C335.028 1354.36 333.669 1352.89 332.174 1351.96C331.495 1351.56 331.223 1351.02 331.223 1350.22C331.223 1349.55 331.223 1348.75 331.223 1348.08C331.223 1347.15 331.495 1346.34 331.631 1345.41C362.883 1346.48 387.885 1371.2 389.244 1402.46C388.293 1402.19 387.206 1401.79 386.119 1401.66M324.293 1448.42C324.293 1448.42 324.293 1448.42 324.293 1448.16C324.157 1446.15 323.885 1443.88 322.662 1441.74C321.711 1440.01 320.488 1438.8 319.13 1438C317.907 1437.33 317.091 1436.4 316.412 1435.06C316.276 1434.66 316.004 1434.39 315.868 1433.99L316.14 1433.59C316.548 1432.92 317.091 1432.26 317.499 1431.72C318.042 1431.05 318.722 1430.39 319.401 1429.85C321.032 1428.78 322.119 1427.31 322.662 1425.58C322.662 1425.31 322.798 1425.18 323.07 1425.18C325.244 1424.77 325.516 1422.77 325.652 1422.1C325.652 1421.43 325.788 1420.63 325.788 1419.96C325.788 1419.43 326.059 1419.03 326.467 1418.63H326.603C326.739 1418.36 327.011 1418.23 327.147 1418.09C328.913 1416.89 330 1415.15 330.272 1412.62C330.815 1413.02 331.359 1413.42 331.766 1413.95C332.31 1414.49 332.854 1415.29 333.261 1416.09C334.076 1417.56 334.892 1419.03 336.251 1420.23C336.251 1420.23 336.251 1420.23 336.251 1420.5C336.386 1422.37 336.658 1424.37 337.473 1426.24C338.425 1428.38 339.648 1429.72 341.278 1430.65C342.501 1431.46 343.452 1432.39 344.268 1433.73C344.403 1433.99 344.539 1434.26 344.811 1434.53L344.539 1434.93C344.132 1435.46 343.724 1436.13 343.18 1436.67C342.637 1437.33 341.958 1438.14 341.278 1438.54C339.512 1439.74 338.425 1441.08 337.881 1442.95C337.881 1443.21 337.881 1443.21 337.473 1443.21C335.979 1443.48 334.892 1444.82 334.756 1446.69C334.756 1447.22 334.756 1447.62 334.756 1448.16V1448.56C334.756 1448.96 334.484 1449.36 334.212 1449.63H333.941C333.805 1449.89 333.669 1450.03 333.397 1450.16C331.495 1451.36 330.408 1453.23 330.136 1455.77C329.592 1455.37 329.185 1454.97 328.777 1454.57C328.234 1454.04 327.69 1453.23 327.011 1452.16C326.195 1450.83 325.38 1449.36 324.157 1448.29M280.811 1403.66C281.355 1402.86 282.17 1402.46 283.121 1402.06H283.393C284.616 1401.26 286.11 1400.46 287.197 1399.12C287.197 1399.12 287.333 1399.12 287.469 1399.12C289.507 1398.99 291.817 1398.72 293.856 1397.52C295.622 1396.58 296.845 1395.51 297.524 1394.18C298.34 1392.84 299.427 1391.77 301.057 1390.97C301.193 1390.97 301.465 1390.7 301.601 1390.7C301.873 1390.84 302.008 1391.1 302.28 1391.24C303.911 1392.44 305.406 1393.51 306.357 1395.25C307.172 1396.58 308.531 1397.25 310.025 1397.65C310.297 1397.65 310.297 1397.78 310.433 1398.05C310.705 1399.52 311.792 1400.46 313.558 1400.72C314.238 1400.72 314.917 1400.72 315.597 1400.86C316.14 1400.86 316.548 1401.13 316.82 1401.53H316.955C317.091 1401.93 317.227 1402.06 317.363 1402.33C318.45 1404.06 320.352 1405.13 322.798 1405.53C322.798 1405.53 322.662 1405.67 322.527 1405.8C321.439 1407.14 320.488 1408.34 318.994 1408.87C317.771 1409.41 316.548 1410.21 315.461 1411.55C315.461 1411.55 315.461 1411.55 315.189 1411.55H314.645C313.151 1411.81 311.656 1411.95 310.161 1412.48C307.58 1413.42 305.813 1415.02 304.59 1417.16C304.183 1417.96 303.503 1418.63 302.688 1419.03C302.144 1419.3 301.601 1419.7 301.057 1419.96H300.786C300.242 1419.56 299.834 1419.3 299.427 1418.9L299.019 1418.49C298.204 1417.83 297.389 1417.16 296.845 1416.36C295.622 1414.75 294.399 1413.82 292.904 1413.28C292.497 1413.28 292.361 1413.02 292.361 1412.75C292.089 1411.28 290.73 1410.34 288.828 1410.21C288.149 1410.21 287.605 1410.21 286.926 1410.21C286.382 1410.21 286.11 1410.08 285.975 1409.68C284.616 1407.27 282.577 1405.94 279.724 1405.53C280.132 1405.13 280.403 1404.6 280.811 1404.2M335.843 1361.98C335.843 1361.98 335.843 1361.98 335.843 1362.24C335.979 1364.25 336.251 1366.52 337.473 1368.66C338.425 1370.39 339.512 1371.6 340.87 1372.4C342.229 1373.2 343.18 1374.27 343.996 1375.74C343.996 1376.01 344.268 1376.14 344.403 1376.41L343.86 1377.08C343.18 1378.01 342.365 1378.81 341.686 1379.75C341.414 1380.01 341.142 1380.28 340.735 1380.55C339.104 1381.62 337.881 1383.09 337.338 1384.96C337.338 1385.09 337.338 1385.23 336.93 1385.23C335.571 1385.49 334.484 1386.7 334.212 1388.43C334.212 1389.1 334.212 1389.77 334.076 1390.44C334.076 1391.24 333.669 1391.51 333.533 1391.64C331.223 1392.97 329.864 1394.98 329.456 1397.78C329.456 1397.78 329.321 1397.78 329.185 1397.65C327.962 1396.58 326.739 1395.65 326.059 1394.04C325.652 1392.71 324.701 1391.64 323.478 1390.44C323.478 1390.44 323.478 1390.3 323.478 1390.17C323.342 1388.03 323.07 1386.16 322.119 1384.29C321.168 1382.29 319.945 1380.82 318.314 1379.88C317.091 1379.21 316.276 1378.28 315.597 1376.94C315.461 1376.54 315.189 1376.27 315.053 1375.87L315.325 1375.61C315.732 1375.07 316.004 1374.67 316.412 1374.27L316.684 1373.87C317.363 1373.07 318.042 1372.27 318.858 1371.73C320.488 1370.53 321.439 1369.33 321.847 1367.72C321.847 1367.32 322.119 1367.19 322.391 1367.19C324.565 1366.65 324.837 1364.65 324.972 1363.85C324.972 1363.31 324.972 1362.91 324.972 1362.38V1361.84C324.972 1361.44 325.244 1361.04 325.516 1360.77C325.788 1360.51 326.059 1360.37 326.331 1360.24C328.098 1359.04 329.185 1357.3 329.592 1354.63C330 1354.9 330.408 1355.3 330.815 1355.7C331.223 1356.1 331.766 1356.63 332.174 1357.3L332.718 1358.24C333.533 1359.71 334.348 1361.18 335.707 1362.24M377.558 1407.81C376.064 1408.61 374.705 1409.41 373.618 1410.75C373.618 1410.75 373.618 1410.75 373.346 1410.75C371.308 1410.88 369.134 1411.15 367.231 1412.22C365.329 1413.15 363.97 1414.35 363.155 1415.82C362.476 1417.03 361.389 1417.96 360.166 1418.63C359.894 1418.76 359.622 1419.03 359.214 1419.16L358.807 1418.9C358.127 1418.36 357.448 1417.96 356.904 1417.43C356.089 1416.62 355.41 1415.96 355.002 1415.29C353.915 1413.82 352.692 1412.88 351.197 1412.35C350.654 1412.22 350.518 1412.08 350.518 1411.55C350.246 1410.21 349.159 1409.41 347.393 1409.14C346.713 1409.14 346.034 1409.14 345.219 1409.01C344.675 1409.01 344.403 1408.74 343.996 1408.34C343.724 1408.07 343.588 1407.81 343.452 1407.54C342.229 1405.67 340.463 1404.73 337.881 1404.33C338.425 1403.66 338.968 1403 339.512 1402.46C339.919 1402.06 340.463 1401.79 341.142 1401.39H341.414C342.773 1400.46 344.268 1399.66 345.355 1398.45C345.355 1398.45 345.49 1398.45 345.626 1398.45C347.665 1398.32 349.567 1398.05 351.469 1397.12C353.507 1396.18 355.002 1394.85 356.089 1393.11C356.769 1392.04 357.584 1391.1 358.807 1390.57C359.214 1390.3 359.622 1390.17 360.03 1389.9L360.573 1390.3C361.253 1390.84 362.068 1391.37 362.611 1391.91C363.291 1392.44 363.834 1393.11 364.242 1393.64C365.329 1395.25 366.688 1396.18 368.318 1396.72C368.726 1396.72 368.862 1396.98 368.862 1397.25C369.27 1399.39 371.444 1399.66 372.259 1399.79C372.803 1399.79 373.21 1399.79 373.754 1399.79H374.297C375.113 1399.79 375.248 1400.19 375.248 1400.32C376.607 1402.73 378.645 1404.06 381.499 1404.47C381.091 1405 380.548 1405.53 380.14 1406.07C379.597 1406.6 378.781 1407.14 378.102 1407.54M330 1341C294.671 1341 266 1369.73 266 1405C266 1440.27 294.671 1469 330 1469C365.329 1469 394 1440.27 394 1405C394 1369.73 365.329 1341 330 1341Z" fill="#FBF9F3"/>
<path d="M96.64 983.32V978.2H125.12V983.32H113.6V1023H108.16V983.32H96.64ZM133.878 1001.24V996.12H164.598V1001.24H133.878ZM160.95 978.2H166.39V1023H160.95V978.2ZM130.87 978.2H136.31V1023H130.87V978.2ZM179.628 1023V1017.88H202.22V1023H179.628ZM179.628 983.32V978.2H202.22V983.32H179.628ZM179.628 1001.24V996.12H200.94V1001.24H179.628ZM176.62 978.2H182.06V1023H176.62V978.2ZM121.92 1074.4V1069.28H142.72C142.72 1072.39 142.251 1075.36 141.312 1078.18C140.373 1080.95 138.987 1083.42 137.152 1085.6C135.317 1087.78 133.056 1089.5 130.368 1090.78C127.723 1092.02 124.693 1092.64 121.28 1092.64C118.037 1092.64 115.029 1092.09 112.256 1090.98C109.483 1089.82 107.072 1088.22 105.024 1086.18C102.976 1084.09 101.376 1081.63 100.224 1078.82C99.1147 1076 98.56 1072.93 98.56 1069.6C98.56 1066.27 99.1147 1063.2 100.224 1060.38C101.376 1057.57 102.976 1055.14 105.024 1053.09C107.072 1051 109.483 1049.4 112.256 1048.29C115.029 1047.14 118.037 1046.56 121.28 1046.56C124.053 1046.56 126.592 1046.92 128.896 1047.65C131.243 1048.37 133.333 1049.44 135.168 1050.85C137.045 1052.26 138.624 1054.01 139.904 1056.1L136.064 1059.62C134.656 1057.23 132.693 1055.37 130.176 1054.05C127.659 1052.68 124.693 1052 121.28 1052C118.123 1052 115.264 1052.75 112.704 1054.24C110.144 1055.73 108.096 1057.8 106.56 1060.45C105.067 1063.05 104.32 1066.1 104.32 1069.6C104.32 1073.06 105.067 1076.11 106.56 1078.75C108.096 1081.4 110.144 1083.47 112.704 1084.96C115.264 1086.45 118.123 1087.2 121.28 1087.2C123.499 1087.2 125.483 1086.88 127.232 1086.24C129.024 1085.56 130.56 1084.62 131.84 1083.42C133.12 1082.23 134.165 1080.86 134.976 1079.33C135.829 1077.79 136.448 1076.15 136.832 1074.4H121.92ZM153.945 1069.6C153.945 1072.97 154.67 1075.98 156.121 1078.62C157.614 1081.27 159.641 1083.36 162.201 1084.9C164.761 1086.43 167.662 1087.2 170.905 1087.2C174.19 1087.2 177.092 1086.43 179.609 1084.9C182.169 1083.36 184.174 1081.27 185.625 1078.62C187.118 1075.98 187.865 1072.97 187.865 1069.6C187.865 1066.23 187.118 1063.22 185.625 1060.58C184.174 1057.93 182.169 1055.84 179.609 1054.3C177.092 1052.77 174.19 1052 170.905 1052C167.662 1052 164.761 1052.77 162.201 1054.3C159.641 1055.84 157.614 1057.93 156.121 1060.58C154.67 1063.22 153.945 1066.23 153.945 1069.6ZM148.185 1069.6C148.185 1066.31 148.74 1063.29 149.849 1060.51C151.001 1057.7 152.601 1055.26 154.649 1053.22C156.697 1051.13 159.108 1049.5 161.881 1048.35C164.654 1047.16 167.662 1046.56 170.905 1046.56C174.19 1046.56 177.198 1047.16 179.929 1048.35C182.702 1049.5 185.113 1051.13 187.161 1053.22C189.209 1055.26 190.788 1057.7 191.897 1060.51C193.049 1063.29 193.625 1066.31 193.625 1069.6C193.625 1072.84 193.049 1075.87 191.897 1078.69C190.788 1081.5 189.209 1083.96 187.161 1086.05C185.113 1088.1 182.702 1089.72 179.929 1090.91C177.198 1092.06 174.19 1092.64 170.905 1092.64C167.662 1092.64 164.654 1092.06 161.881 1090.91C159.108 1089.72 156.697 1088.1 154.649 1086.05C152.601 1083.96 151.001 1081.5 149.849 1078.69C148.74 1075.87 148.185 1072.84 148.185 1069.6ZM204.508 1069.6C204.508 1072.97 205.233 1075.98 206.684 1078.62C208.177 1081.27 210.204 1083.36 212.764 1084.9C215.324 1086.43 218.225 1087.2 221.468 1087.2C224.753 1087.2 227.654 1086.43 230.172 1084.9C232.732 1083.36 234.737 1081.27 236.188 1078.62C237.681 1075.98 238.428 1072.97 238.428 1069.6C238.428 1066.23 237.681 1063.22 236.188 1060.58C234.737 1057.93 232.732 1055.84 230.172 1054.3C227.654 1052.77 224.753 1052 221.468 1052C218.225 1052 215.324 1052.77 212.764 1054.3C210.204 1055.84 208.177 1057.93 206.684 1060.58C205.233 1063.22 204.508 1066.23 204.508 1069.6ZM198.748 1069.6C198.748 1066.31 199.302 1063.29 200.411 1060.51C201.564 1057.7 203.164 1055.26 205.212 1053.22C207.26 1051.13 209.67 1049.5 212.444 1048.35C215.217 1047.16 218.225 1046.56 221.468 1046.56C224.753 1046.56 227.761 1047.16 230.492 1048.35C233.265 1049.5 235.676 1051.13 237.724 1053.22C239.772 1055.26 241.35 1057.7 242.46 1060.51C243.612 1063.29 244.188 1066.31 244.188 1069.6C244.188 1072.84 243.612 1075.87 242.46 1078.69C241.35 1081.5 239.772 1083.96 237.724 1086.05C235.676 1088.1 233.265 1089.72 230.492 1090.91C227.761 1092.06 224.753 1092.64 221.468 1092.64C218.225 1092.64 215.217 1092.06 212.444 1090.91C209.67 1089.72 207.26 1088.1 205.212 1086.05C203.164 1083.96 201.564 1081.5 200.411 1078.69C199.302 1075.87 198.748 1072.84 198.748 1069.6ZM251.87 1047.2H257.31V1092H251.87V1047.2ZM265.31 1092H254.878V1086.56H265.31C267.827 1086.56 270.131 1086.18 272.222 1085.41C274.313 1084.6 276.105 1083.47 277.598 1082.02C279.091 1080.52 280.243 1078.73 281.054 1076.64C281.865 1074.55 282.27 1072.2 282.27 1069.6C282.27 1067 281.865 1064.65 281.054 1062.56C280.243 1060.47 279.091 1058.7 277.598 1057.25C276.105 1055.75 274.313 1054.62 272.222 1053.86C270.131 1053.05 267.827 1052.64 265.31 1052.64H254.878V1047.2H265.31C269.662 1047.2 273.523 1048.14 276.894 1050.02C280.265 1051.89 282.91 1054.52 284.83 1057.89C286.75 1061.22 287.71 1065.12 287.71 1069.6C287.71 1074.08 286.75 1078.01 284.83 1081.38C282.91 1084.7 280.265 1087.31 276.894 1089.18C273.523 1091.06 269.662 1092 265.31 1092ZM101.12 1116.2H106.56V1155.88H124.16V1161H101.12V1116.2ZM129.933 1116.2H135.373V1161H129.933V1116.2ZM148.628 1121.32V1116.2H168.66V1121.32H148.628ZM148.628 1139.24V1134.12H168.02V1139.24H148.628ZM145.62 1116.2H151.06V1161H145.62V1116.2ZM180.628 1161V1155.88H203.22V1161H180.628ZM180.628 1121.32V1116.2H203.22V1121.32H180.628ZM180.628 1139.24V1134.12H201.94V1139.24H180.628ZM177.62 1116.2H183.06V1161H177.62V1116.2Z" fill="#FBF9F3"/>
<path d="M179.88 321.8H182.94V347H179.88V321.8ZM187.44 347H181.572V343.94H187.44C188.856 343.94 190.152 343.724 191.328 343.292C192.504 342.836 193.512 342.2 194.352 341.384C195.192 340.544 195.84 339.536 196.296 338.36C196.752 337.184 196.98 335.864 196.98 334.4C196.98 332.936 196.752 331.616 196.296 330.44C195.84 329.264 195.192 328.268 194.352 327.452C193.512 326.612 192.504 325.976 191.328 325.544C190.152 325.088 188.856 324.86 187.44 324.86H181.572V321.8H187.44C189.888 321.8 192.06 322.328 193.956 323.384C195.852 324.44 197.34 325.916 198.42 327.812C199.5 329.684 200.04 331.88 200.04 334.4C200.04 336.92 199.5 339.128 198.42 341.024C197.34 342.896 195.852 344.36 193.956 345.416C192.06 346.472 189.888 347 187.44 347ZM205.671 339.44L206.751 336.56H217.911L218.991 339.44H205.671ZM212.259 327.488L208.011 337.496L207.723 338.144L203.979 347H200.559L212.259 320.54L223.959 347H220.539L216.867 338.36L216.579 337.64L212.259 327.488ZM227.961 339.368C228.537 340.376 229.137 341.264 229.761 342.032C230.409 342.8 231.129 343.4 231.921 343.832C232.713 344.264 233.613 344.48 234.621 344.48C235.965 344.48 237.045 344.108 237.861 343.364C238.677 342.62 239.085 341.672 239.085 340.52C239.085 339.392 238.821 338.492 238.293 337.82C237.765 337.148 237.069 336.608 236.205 336.2C235.365 335.768 234.465 335.384 233.505 335.048C232.881 334.832 232.185 334.556 231.417 334.22C230.649 333.86 229.917 333.416 229.221 332.888C228.525 332.336 227.949 331.664 227.493 330.872C227.061 330.08 226.845 329.108 226.845 327.956C226.845 326.708 227.157 325.592 227.781 324.608C228.405 323.624 229.269 322.856 230.373 322.304C231.477 321.728 232.737 321.44 234.153 321.44C235.521 321.44 236.709 321.704 237.717 322.232C238.749 322.736 239.625 323.396 240.345 324.212C241.065 325.004 241.629 325.844 242.037 326.732L239.409 328.244C239.097 327.62 238.701 327.008 238.221 326.408C237.741 325.808 237.153 325.316 236.457 324.932C235.785 324.548 234.957 324.356 233.973 324.356C232.605 324.356 231.609 324.692 230.985 325.364C230.361 326.012 230.049 326.744 230.049 327.56C230.049 328.256 230.229 328.904 230.589 329.504C230.949 330.08 231.549 330.632 232.389 331.16C233.253 331.664 234.417 332.168 235.881 332.672C236.553 332.912 237.261 333.224 238.005 333.608C238.749 333.992 239.433 334.484 240.057 335.084C240.705 335.66 241.233 336.368 241.641 337.208C242.049 338.024 242.253 339.008 242.253 340.16C242.253 341.264 242.037 342.26 241.605 343.148C241.197 344.036 240.621 344.792 239.877 345.416C239.157 346.04 238.329 346.52 237.393 346.856C236.481 347.192 235.521 347.36 234.513 347.36C233.145 347.36 231.873 347.072 230.697 346.496C229.545 345.896 228.525 345.116 227.637 344.156C226.773 343.172 226.065 342.128 225.513 341.024L227.961 339.368ZM276.62 321.8H279.68V348.26L260.6 328.244V347H257.54V320.54L276.62 340.556V321.8ZM287.146 347V344.12H299.854V347H287.146ZM287.146 324.68V321.8H299.854V324.68H287.146ZM287.146 334.76V331.88H299.134V334.76H287.146ZM285.454 321.8H288.514V347H285.454V321.8ZM324.327 321.8H327.387V348.26L308.307 328.244V347H305.247V320.54L324.327 340.556V321.8ZM352.241 321.8H355.301V348.26L336.221 328.244V347H333.161V320.54L352.241 340.556V321.8ZM362.767 347V344.12H375.475V347H362.767ZM362.767 324.68V321.8H375.475V324.68H362.767ZM362.767 334.76V331.88H374.755V334.76H362.767ZM361.075 321.8H364.135V347H361.075V321.8ZM399.948 321.8H403.008V348.26L383.928 328.244V347H380.868V320.54L399.948 340.556V321.8ZM442.003 340.34L448.555 321.8H451.975L442.075 348.26L434.515 328.676L426.955 348.26L417.055 321.8H420.475L427.171 340.34L434.515 320.54L442.003 340.34ZM455.224 321.8H458.284V347H455.224V321.8ZM468.548 334.58H471.968L480.968 347H477.188L468.548 334.58ZM464.048 321.8H467.108V347H464.048V321.8ZM465.74 324.5V321.8H470.888C472.52 321.8 473.972 322.112 475.244 322.736C476.54 323.336 477.56 324.2 478.304 325.328C479.072 326.456 479.456 327.8 479.456 329.36C479.456 330.896 479.072 332.24 478.304 333.392C477.56 334.52 476.54 335.396 475.244 336.02C473.972 336.62 472.52 336.92 470.888 336.92H465.74V334.22H470.888C471.968 334.22 472.916 334.028 473.732 333.644C474.572 333.26 475.22 332.708 475.676 331.988C476.156 331.268 476.396 330.392 476.396 329.36C476.396 328.328 476.156 327.452 475.676 326.732C475.22 326.012 474.572 325.46 473.732 325.076C472.916 324.692 471.968 324.5 470.888 324.5H465.74Z" fill="#2E2E1F"/>
</svg>
