<svg width="32" height="32" viewBox="0 0 32 32" fill="none" xmlns="http://www.w3.org/2000/svg">
<path d="M6.9657 18.6097H7.00292C7.03277 18.6059 7.0631 18.6059 7.09295 18.6097H7.10856C7.82871 18.8315 8.38864 18.8315 8.77392 18.6097C8.91913 18.5168 9.04183 18.3987 9.13464 18.2624C9.22745 18.1261 9.28848 17.9746 9.31405 17.8167C9.31542 17.7783 9.32563 17.7406 9.34409 17.7059C9.36254 17.6711 9.38884 17.6402 9.4213 17.6149C9.45376 17.5896 9.49166 17.5706 9.53272 17.5591C9.57379 17.5475 9.61707 17.5435 9.6599 17.5476C9.70273 17.5516 9.74419 17.5634 9.78165 17.5824C9.81911 17.6014 9.85177 17.6271 9.87762 17.6578C9.90348 17.6885 9.92196 17.7236 9.93191 17.761C9.94185 17.7984 9.94304 17.8373 9.93542 17.8751C9.87818 18.2409 9.69717 18.5823 9.41661 18.8537C9.61172 18.937 9.8234 18.985 10.0394 18.9951C10.2554 19.0051 10.4714 18.9769 10.6751 18.9121C11.5108 18.6046 11.828 17.5864 11.831 17.5781C11.8416 17.5429 11.8598 17.51 11.8847 17.4811C11.9095 17.4523 11.9406 17.428 11.9759 17.4099C12.0113 17.3917 12.0503 17.3799 12.0907 17.3751C12.1312 17.3704 12.1724 17.3729 12.2118 17.3823C12.2512 17.3918 12.288 17.4081 12.3204 17.4303C12.3527 17.4525 12.3799 17.4802 12.4002 17.5117C12.4206 17.5433 12.4339 17.5781 12.4391 17.6142C12.4444 17.6503 12.4417 17.687 12.4311 17.7222C12.2743 18.2001 11.9934 18.6381 11.611 19.0007C12.2046 19.253 12.7174 19.2954 13.1336 19.1229C14.1124 18.7372 14.3542 17.3122 14.3578 17.3122C14.3639 17.2758 14.3781 17.2408 14.3994 17.2093C14.4207 17.1777 14.4488 17.1502 14.482 17.1283C14.5152 17.1064 14.5529 17.0907 14.593 17.0818C14.6331 17.073 14.6747 17.0712 14.7155 17.0767C14.7563 17.0822 14.7955 17.0949 14.8308 17.1139C14.8661 17.1329 14.8969 17.158 14.9214 17.1876C14.9459 17.2173 14.9637 17.2509 14.9736 17.2867C14.9835 17.3224 14.9854 17.3596 14.9792 17.396C14.878 17.9176 14.6671 18.4174 14.3575 18.869C15.6811 18.9884 16.6569 18.7991 17.2657 18.3143C17.4857 18.1216 17.6587 17.8903 17.7736 17.635C17.8886 17.3797 17.943 17.1059 17.9336 16.8309C17.9296 16.7941 17.9338 16.757 17.9461 16.7217C17.9583 16.6865 17.9783 16.6537 18.0048 16.6254C18.0314 16.5971 18.064 16.5738 18.1007 16.5568C18.1375 16.5399 18.1776 16.5296 18.2189 16.5266C18.2601 16.5237 18.3016 16.528 18.3409 16.5395C18.3802 16.551 18.4166 16.5694 18.4479 16.5935C18.4792 16.6177 18.5048 16.6472 18.5232 16.6802C18.5416 16.7133 18.5524 16.7493 18.5551 16.7861C18.5754 17.1456 18.5093 17.5049 18.3614 17.8398C18.2135 18.1746 17.9872 18.4774 17.6975 18.7278C17.0761 19.2297 16.2158 19.4826 15.0843 19.4826C14.6816 19.4794 14.2797 19.4506 13.8816 19.3966C13.7371 19.5089 13.5754 19.6023 13.4015 19.674C13.1448 19.7813 12.8646 19.8362 12.5811 19.8347C12.0409 19.8134 11.5157 19.669 11.0556 19.4153C11.0085 19.4376 10.9617 19.4574 10.9158 19.4764C10.6775 19.565 10.4219 19.6105 10.1638 19.6103C9.68727 19.5955 9.22203 19.4764 8.80901 19.2637C8.57678 19.3422 8.33026 19.3817 8.08193 19.3802C7.93498 19.3789 7.78836 19.3678 7.64326 19.347C8.3112 20.4202 9.08208 21.6347 12.45 22.6358C12.509 22.6538 12.5607 22.6872 12.5981 22.7318C12.6356 22.7763 12.6571 22.8299 12.66 22.8855C12.6849 23.3957 13.232 23.5898 13.5552 23.6594C13.7751 23.7044 14.0005 23.7241 14.226 23.7178C14.6079 23.71 14.9849 23.6394 15.3381 23.5097H15.363C15.7719 23.3663 16.1176 23.1084 16.3481 22.7746C16.3729 22.7342 16.4088 22.7 16.4523 22.6752C16.4959 22.6504 16.5457 22.6359 16.5973 22.6328C16.6488 22.6298 16.7003 22.6384 16.7471 22.6578C16.794 22.6772 16.8345 22.7069 16.8651 22.744C17.0949 22.8715 18.3655 22.9379 19.888 22.6883C20.4009 22.6051 20.9065 22.4893 21.4009 22.3418C22.5691 21.9896 24.0514 21.3158 24.4552 20.1071C25.4214 17.1842 25.5355 16.3995 22.9576 11.2997C22.8676 11.0999 22.7743 10.9003 22.6842 10.7089C22.1312 9.52752 21.6091 8.41286 22.1831 7.49211C22.7083 6.66026 24.0817 6.10563 26.508 5.76443C26.8279 5.72978 27.1354 5.63314 27.4091 5.48132C27.6828 5.32949 27.9162 5.12608 28.0926 4.8854C27.347 4.97431 25.9958 4.93522 24.2677 4.05357C23.742 3.75019 23.1433 3.56238 22.5206 3.50544C21.8979 3.44851 21.2689 3.5241 20.6853 3.72605C20.159 3.94521 19.6995 4.27405 19.3454 4.68486C18.9914 5.09567 18.7532 5.57641 18.6508 6.08659C18.4054 7.06519 18.775 8.49696 19.1309 9.88023C19.5693 11.5747 19.9453 13.0362 19.2509 13.7459C19.0795 13.902 18.8676 14.0181 18.6341 14.0839C18.4006 14.1498 18.1525 14.1634 17.9117 14.1235C17.2518 14.0644 16.5962 13.9717 15.9481 13.846C13.9659 13.4856 12.5304 13.2247 9.02234 15.3965C6.9312 16.6887 5.27158 17.1799 4.09474 16.8526L3.93928 16.8028C4.39598 17.69 5.30936 18.8186 6.96241 18.6135M17.5267 24.2982C18.2694 24.2178 18.8906 23.6969 19.2728 23.2831H19.1981C18.8593 23.3193 17.4209 23.4578 16.7124 23.2248C16.5135 23.4475 16.2701 23.6356 15.9946 23.7794C16.1949 23.957 16.4347 24.095 16.6986 24.1844C16.9626 24.2738 17.2449 24.3125 17.5267 24.2982ZM3.15616 15.6348C3.2308 15.6137 3.3116 15.6184 3.38245 15.6482C3.4533 15.678 3.50894 15.7306 3.53812 15.7955C3.61422 15.9288 3.72161 16.0458 3.85299 16.1386C3.98436 16.2315 4.13658 16.298 4.29935 16.3336C4.97989 16.5138 6.28879 16.4195 8.671 14.9471C12.399 12.6425 14.0184 12.9358 16.0754 13.3115C16.7017 13.4363 17.3356 13.5289 17.9738 13.5889C18.1142 13.6145 18.2594 13.6103 18.3976 13.5766C18.5357 13.5429 18.6631 13.4806 18.7693 13.3948C19.2548 12.8986 18.8788 11.4344 18.5115 10.0203C18.1443 8.60621 17.7533 7.08074 18.0315 5.98001C18.1545 5.38476 18.4361 4.82461 18.8525 4.34682C19.2689 3.86903 19.8078 3.48759 20.4239 3.23462C21.6916 2.73808 23.2016 2.85966 24.5648 3.56723C26.9323 4.78232 28.4796 4.24403 28.5015 4.23841C28.5546 4.21833 28.6129 4.21178 28.6699 4.21958C28.7269 4.22738 28.7803 4.24919 28.8242 4.28255C28.8681 4.3159 28.9006 4.35952 28.9183 4.40848C28.936 4.45743 28.9382 4.50982 28.9244 4.55978C28.9244 4.62084 28.5643 6.03276 26.6061 6.32361C24.4123 6.63106 23.1445 7.10564 22.725 7.77411C22.3055 8.44258 22.7251 9.4078 23.2577 10.5083C23.3477 10.7024 23.444 10.9019 23.5277 11.0974C26.0849 16.1501 26.1005 17.1094 25.0532 20.23C24.4132 22.1158 21.7783 22.8645 20.1622 23.1583C19.9044 23.5191 18.9971 24.6528 17.6984 24.8389V26.3226L21.0318 27.4319C21.1049 27.4602 21.1629 27.5124 21.194 27.5778C21.2251 27.6432 21.2269 27.7169 21.199 27.7834C21.1711 27.85 21.1156 27.9044 21.044 27.9355C20.9724 27.9666 20.8902 27.9719 20.8143 27.9504L17.2783 26.775C17.2188 26.7551 17.1676 26.7195 17.1314 26.6728C17.0953 26.6262 17.0761 26.5708 17.0764 26.5141V24.8504C16.4281 24.7565 15.8327 24.474 15.3828 24.047C15.1076 24.1345 14.8219 24.1931 14.5315 24.2216V26.9421L17.5267 28.4119C17.5972 28.4496 17.6484 28.5103 17.6693 28.5812C17.6902 28.6521 17.6792 28.7276 17.6386 28.7913C17.598 28.8551 17.5311 28.9021 17.4522 28.9224C17.3732 28.9427 17.2886 28.9345 17.2162 28.8998L14.0499 27.3551C14.0008 27.3311 13.9599 27.2958 13.9314 27.2528C13.9029 27.2098 13.888 27.1607 13.8882 27.1108V24.2296C13.7177 24.2208 13.5482 24.1994 13.3817 24.1656C12.6423 24.0076 12.1388 23.611 12.0359 23.0729C8.59294 22.0051 7.7543 20.6462 7.07705 19.5645C6.99634 19.437 6.91861 19.3093 6.83699 19.1869C4.44158 19.3562 3.24858 17.1737 2.94041 15.9618C2.92383 15.8936 2.93668 15.8223 2.97646 15.7622C3.01623 15.702 3.07996 15.6575 3.15491 15.6375" fill="white"/>
</svg>
