<svg width="32" height="32" viewBox="0 0 32 32" fill="none" xmlns="http://www.w3.org/2000/svg">
<path d="M16 0C24.8366 0 32 7.16467 32 16.0027C32 23.9901 26.149 30.6096 18.5 31.8101V20.6285H22.2281L22.9375 16.0027H18.5V13.0022C18.5 11.7364 19.1188 10.5018 21.1063 10.5018H23.125V6.56362C23.125 6.56362 21.2938 6.25107 19.5438 6.25107C15.8875 6.25107 13.5 8.46707 13.5 12.4771V16.0027H9.4375V20.6285H13.5V31.8101C5.85101 30.6096 0 23.9901 0 16.0027C0 7.16467 7.16344 0 16 0ZM13.5 31.8117V31.8101C13.5206 31.8134 13.5411 31.8171 13.5617 31.8203C13.5412 31.8171 13.5205 31.8149 13.5 31.8117ZM18.5 31.8101V31.8117C18.4792 31.8149 18.4583 31.8171 18.4375 31.8203C18.4584 31.8171 18.4792 31.8134 18.5 31.8101Z" fill="#2E2E1F"/>
</svg>
