<svg width="32" height="32" viewBox="0 0 32 32" fill="none" xmlns="http://www.w3.org/2000/svg">
<path fill-rule="evenodd" clip-rule="evenodd" d="M26.1988 15.4573C26.1988 15.8346 25.9024 16.1381 25.5391 16.1381C25.1746 16.1381 24.8793 15.8346 24.8793 15.4573C24.8793 15.0823 25.1746 14.7764 25.5391 14.7764C25.9012 14.7764 26.1988 15.0823 26.1988 15.4573Z" fill="white"/>
<path fill-rule="evenodd" clip-rule="evenodd" d="M12.0427 20.7661C12.4318 20.9829 12.829 21.1797 13.2392 21.3344C12.6333 21.5805 12.0462 21.6918 11.5083 21.7387C11.7919 21.4715 11.9384 21.0965 12.0427 20.7661ZM13.9634 14.8084C13.5802 14.847 13.4911 15.3662 13.8403 15.5267C15.5782 16.3459 16.7102 16.9095 17.7238 17.2775C18.7398 17.6455 19.6387 17.8072 20.8222 17.8072C21.3355 17.8165 21.3355 17.0419 20.8222 17.0501C19.7042 17.0501 18.9332 16.9119 17.9816 16.5662C17.4296 16.3669 16.5179 15.9205 15.7597 15.5666H19.0678C20.0546 15.5666 20.419 15.6181 20.9803 16.1712C21.3413 16.5497 21.8956 15.9814 21.5088 15.6298C20.8209 14.9537 20.1026 14.8107 19.0678 14.8107L14.0017 14.8083L13.9634 14.8084ZM11.5071 11.5705C12.1024 11.6209 12.7552 11.7486 13.4314 12.0545C12.9591 12.2197 12.4974 12.3966 12.0509 12.5853C12.0005 12.3298 11.902 12.0908 11.7638 11.8716C11.697 11.7662 11.5892 11.6724 11.5071 11.5705ZM18.6756 9.88531C18.8666 10.0248 19.1338 10.2497 19.3858 10.5626C19.5229 10.7326 19.6448 10.9142 19.7432 11.0771C19.4245 11.0548 19.0987 11.0443 18.7717 11.0443C18.0065 11.0443 17.2131 11.1251 16.4139 11.2681L18.6756 9.88531ZM18.5162 9.09547L14.3081 11.6666C12.9933 10.8908 11.6339 10.6388 10.6004 10.7513C10.2899 10.7865 10.1528 11.1626 10.3696 11.3888C10.686 11.717 10.9567 12.0122 11.1243 12.2783C11.2696 12.5091 11.334 12.7037 11.3293 12.9087C10.1797 13.4455 9.16724 14.0396 8.41019 14.608C8.28715 14.7005 8.18519 14.7521 8.1184 14.799C7.9848 14.8963 7.9098 14.8353 7.83246 14.7849C7.72816 14.7193 7.56996 14.5822 7.34496 14.3959L4.28766 11.8822C3.88923 11.5529 3.30915 11.5716 2.99274 11.9244C2.67516 12.2771 2.6904 12.8654 3.06071 13.3939C3.37478 13.8404 3.85757 14.8482 4.07789 15.9837C4.29703 17.1205 4.26539 18.3755 3.66188 19.416C3.39118 19.8848 3.52477 20.425 3.83883 20.6934C4.1529 20.9641 4.68258 21.0309 5.02125 20.6852L7.37673 18.2676C7.65681 17.9816 7.79859 17.8996 7.86657 17.8926C7.93571 17.8867 8.10798 17.9406 8.46189 18.209C9.33024 18.8617 10.2877 19.6598 11.3283 20.3336C11.3529 20.5656 11.2861 20.7766 11.1256 21.0332C10.9568 21.2992 10.6861 21.5945 10.3709 21.9203C10.1541 22.1476 10.2912 22.525 10.6017 22.559C11.6318 22.6715 12.9853 22.4219 14.2944 21.6531C15.5601 21.9695 17.0132 22.1383 18.7734 22.1383C20.543 22.1383 22.7472 21.6625 24.675 20.9148C26.6016 20.1672 28.2633 19.1875 28.8855 17.9336C29.1387 17.473 28.4203 17.118 28.2082 17.6008C27.832 18.359 26.6402 19.2203 25.1332 19.9035C24.2988 19.4605 23.6332 18.7023 23.3016 17.7484C23.0848 17.1238 23.0273 16.4652 23.1176 15.8324C23.1539 15.591 22.9594 15.3789 22.7168 15.3965C22.5363 15.4106 22.3922 15.5477 22.3699 15.727C22.2621 16.477 22.3313 17.2575 22.5891 17.9981C22.9137 18.9321 23.5102 19.7125 24.2731 20.2586C22.4567 20.9477 20.3683 21.3836 18.7747 21.3836C16.7872 21.3836 15.2344 21.161 13.915 20.766C12.163 20.2422 10.4497 18.7575 8.92057 17.6079C8.52331 17.3079 8.19517 17.1075 7.80613 17.1404C7.41589 17.1755 7.1452 17.4251 6.83698 17.7392L4.4815 20.1579C4.45221 20.1872 4.40533 20.1826 4.33385 20.1216C4.26236 20.0595 4.19791 20.0056 4.31744 19.797C5.04518 18.5396 5.06276 17.0935 4.81901 15.8418C4.5776 14.5926 4.08659 13.5332 3.68345 12.9578C3.43853 12.611 3.51822 12.4715 3.55689 12.4305C3.59439 12.3871 3.65884 12.3414 3.81001 12.4668L6.86731 14.9805C7.17787 15.236 7.36771 15.4738 7.7263 15.5758C7.90677 15.6274 8.11888 15.6121 8.30287 15.5453C8.48803 15.4762 8.6638 15.3684 8.86771 15.2149C10.9267 13.6668 15.3117 11.8 18.7737 11.8C21.2628 11.8 23.5842 12.4937 25.3362 13.4406C26.9265 14.3008 27.9331 15.3672 28.2987 16.2168L26.9815 16.7781C26.5163 16.9738 26.8116 17.6722 27.2768 17.4742L28.9972 16.7429C29.1706 16.6703 29.262 16.4793 29.2163 16.2964C28.8776 15.0379 27.5581 13.7828 25.6973 12.775C24.2875 12.0145 22.5497 11.4145 20.6465 11.1661C20.5176 10.8098 20.2692 10.4512 19.9785 10.0879C19.6399 9.6684 19.2754 9.28518 18.8899 9.08478C18.7481 9.00978 18.6252 9.02867 18.5162 9.09547Z" fill="white"/>
</svg>
