<svg width="32" height="32" viewBox="0 0 32 32" fill="none" xmlns="http://www.w3.org/2000/svg">
<path fill-rule="evenodd" clip-rule="evenodd" d="M2.42858 17.1847C2.42037 17.2269 2.41334 17.2784 2.411 17.3405C2.3735 18.0648 2.49654 21.7514 5.7332 23.234C7.63868 24.1059 12.0905 25.3563 16.907 25.3446C20.3558 25.3364 25.2332 24.4727 27.9026 21.6192C28.7944 20.6664 29.2561 19.2719 29.4448 17.8494C29.7167 15.8056 29.4354 13.7127 29.2116 12.9063C29.1448 12.5746 29.0545 12.2489 28.942 11.9301C27.7233 8.48132 23.8771 5.94872 19.54 6.77732C15.9868 7.45583 14.6473 8.50232 13.5916 9.52067C12.6295 10.4488 11.9358 11.3734 9.74804 11.9359C8.67227 12.2125 7.49687 12.332 6.40454 12.6496C5.21744 12.9941 4.12523 13.5625 3.31784 14.7238C2.88308 15.3496 2.49635 16.239 2.4272 17.1859L2.42858 17.1847ZM28.5427 17.5187C28.2157 18.1562 27.7833 18.7855 27.2349 19.3948C24.8724 22.021 21.3522 23.0734 17.7567 23.2702C12.4587 23.5597 7.01396 21.9976 5.06516 21.1058C4.71008 20.9429 4.39952 20.766 4.12649 20.5773C4.54133 21.2828 5.17064 21.9449 6.12218 22.3808C7.95968 23.2222 12.2569 24.4175 16.9045 24.4058C20.1331 24.3976 24.7186 23.6488 27.2194 20.9768C27.987 20.1565 28.3549 18.9471 28.5178 17.7224C28.5272 17.6544 28.5354 17.5853 28.5436 17.5173L28.5427 17.5187ZM9.98138 12.8417C11.9361 12.3389 12.8267 11.5842 13.6552 10.7721C14.7813 9.66706 15.7821 8.44714 19.7161 7.69594C23.5597 6.96118 26.9794 9.18421 28.0597 12.2403C28.7745 14.2642 28.4452 16.6488 26.5386 18.7689C24.3413 21.2123 21.0507 22.1532 17.7063 22.3362C12.5934 22.6163 7.33649 21.1163 5.45549 20.255C4.30823 19.73 3.70823 19.0339 3.47384 18.2898C3.12227 17.1718 3.57813 15.9882 4.08674 15.2571C4.7594 14.2902 5.67815 13.8344 6.66605 13.5473C7.74887 13.2332 8.91491 13.1159 9.98138 12.8417ZM11.2247 16.1522L11.2212 16.219C11.2704 18.8111 13.2814 20.9416 15.8676 21.1396C19.4664 21.4232 23.4708 20.8771 25.8894 18.1876C27.5828 16.3056 27.8488 14.182 27.2136 12.3844C26.268 9.70785 23.2854 7.74132 19.9209 8.38482C17.2784 8.8899 15.9999 9.90825 14.9649 10.9301C14.3309 11.5571 13.8001 12.1899 13.0618 12.6844L13.0606 12.6856C11.9087 13.4638 11.222 14.7645 11.2255 16.1521L11.2247 16.1522ZM12.1599 16.2565C12.1622 16.2377 12.1622 16.2201 12.1622 16.2002C12.1411 15.1045 12.6767 14.0733 13.5837 13.4604C14.3712 12.933 14.9454 12.265 15.6228 11.5947C16.5568 10.6725 17.7122 9.7584 20.0958 9.30255C22.9669 8.75412 25.524 10.4111 26.3301 12.6952C26.8633 14.2046 26.6137 15.9811 25.1922 17.5609C22.9645 20.0383 19.2555 20.4672 15.939 20.2047H15.9378C13.8519 20.0453 12.2253 18.3403 12.1584 16.2555L12.1599 16.2565ZM7.94819 15.2475C7.14311 15.2475 6.43295 15.5404 5.99 15.9729C5.65016 16.3045 5.45915 16.7194 5.45915 17.1623C5.45915 17.6053 5.65016 18.019 5.99 18.3517C6.43298 18.7842 7.14194 19.0771 7.94819 19.0771C8.75327 19.0771 9.46343 18.7842 9.90638 18.3517C10.2462 18.0201 10.4372 17.6053 10.4372 17.1623C10.4372 16.7194 10.2462 16.3057 9.90638 15.9729C9.4634 15.5404 8.75444 15.2475 7.94819 15.2475ZM16.4889 12.9729C16.7338 13.4615 16.7795 14.0029 16.8018 14.5479C16.8276 15.1865 16.817 15.8334 16.9448 16.4393C17.1241 17.2865 17.6268 17.958 18.2209 18.5639C18.4014 18.7479 18.6991 18.7514 18.883 18.5697C19.067 18.3893 19.0705 18.0916 18.8889 17.9076C18.4201 17.4307 18.0018 16.9139 17.8611 16.2459C17.744 15.6904 17.7604 15.0963 17.7369 14.5103C17.71 13.8307 17.6315 13.1627 17.3268 12.5533C17.2107 12.3225 16.9295 12.2287 16.6986 12.3436C16.4678 12.4596 16.374 12.7408 16.4889 12.9717L16.4889 12.9729ZM13.7643 15.1303C13.7561 15.3529 13.7549 15.5744 13.7701 15.7971C13.8369 16.7135 14.1873 17.5315 14.8377 18.183C15.0205 18.3658 15.317 18.3658 15.4998 18.183C15.6826 18.0002 15.6826 17.7037 15.4998 17.5209C15.0112 17.0323 14.7533 16.4158 14.703 15.7279C14.6889 15.5381 14.7205 14.9287 14.6912 14.8385C14.6092 14.5936 14.3444 14.4612 14.0994 14.542C14.0057 14.5737 13.9037 14.6358 13.8334 14.7635C13.8112 14.8034 13.7865 14.8619 13.7737 14.9358C13.7655 14.9873 13.7631 15.0963 13.7631 15.1303L13.7643 15.1303ZM7.94939 16.1838C8.39939 16.1838 8.80955 16.3092 9.10604 16.5201C9.33924 16.6877 9.50213 16.9069 9.50213 17.1623C9.50213 17.4166 9.33923 17.6369 9.10604 17.8045C8.81072 18.0154 8.40056 18.1408 7.94939 18.1408C7.49939 18.1408 7.08923 18.0154 6.79274 17.8045C6.55953 17.6369 6.39665 17.4178 6.39665 17.1623C6.39665 16.908 6.55954 16.6877 6.79274 16.5201C7.08805 16.3092 7.49822 16.1838 7.94939 16.1838ZM19.005 11.8128C19.346 12.2089 19.5991 12.5616 19.7069 13.0972C19.8323 13.7218 19.8112 14.3991 19.8733 15.053C19.9448 15.8171 20.1229 16.5483 20.6409 17.1647C20.8073 17.3628 21.1026 17.3886 21.3007 17.2222C21.4987 17.0558 21.5245 16.7604 21.3581 16.5624C20.969 16.0983 20.86 15.5405 20.8062 14.9651C20.7417 14.2796 20.7581 13.5683 20.6257 12.912C20.4839 12.203 20.1675 11.7261 19.7151 11.2011C19.5464 11.0054 19.2511 10.9831 19.0554 11.1519C18.8597 11.3206 18.8374 11.6159 19.0061 11.8116L19.005 11.8128ZM21.4214 10.8565C21.9522 11.0651 22.4503 11.5702 22.5698 11.787C22.7878 12.1855 22.8265 12.6296 22.8605 13.0761C22.9026 13.6339 22.9331 14.1952 23.1276 14.7155C23.2788 15.1222 23.5108 15.5007 23.7874 15.8323C23.9351 16.0105 24.1401 16.1499 24.2105 16.3784C24.2866 16.6257 24.5491 16.764 24.7964 16.6866C25.0437 16.6105 25.1819 16.348 25.1057 16.1007C24.9979 15.7526 24.7331 15.5042 24.5069 15.2323C24.2972 14.9804 24.1202 14.6944 24.0053 14.3863C23.8425 13.948 23.8307 13.4722 23.7944 13.0034C23.7499 12.4234 23.6737 11.8515 23.3901 11.3347C23.2202 11.0241 22.5241 10.2823 21.7647 9.98352C21.5245 9.88859 21.2526 10.007 21.1577 10.2472C21.0628 10.4874 21.1811 10.7593 21.4214 10.8542L21.4214 10.8565Z" fill="white"/>
</svg>
