<svg width="32" height="32" viewBox="0 0 32 32" fill="none" xmlns="http://www.w3.org/2000/svg">
<path d="M18.2175 26.8189C16.987 26.8189 15.5772 26.5189 14.0175 25.7994C7.83809 22.8896 5.76749 17.58 7.35779 14.0994C8.91755 10.68 9.24803 7.94939 8.37731 6.20909C7.62731 4.76885 6.27731 4.46885 6.21755 4.46885C4.41755 4.10909 3.63824 3.20909 3.30779 2.69933C3.21755 2.51887 3.21755 2.33957 3.30779 2.15909C3.39802 2.00909 3.60779 1.91886 3.78827 1.94933C5.40779 2.21886 6.99797 1.70909 7.23827 1.64933C7.41757 1.55909 7.59803 1.49933 7.80779 1.49933C8.91755 1.5298 12.5772 2.09933 12.7272 8.42993V12.7493C12.7272 13.5896 13.2967 14.3091 14.1077 14.5189C16.4174 15.1189 20.7383 16.6188 23.7077 20.0688C24.3674 20.0091 26.5881 19.9188 28.7174 21.3286L29.1674 21.6286L28.7479 21.8993C28.6881 21.9298 27.3978 22.7396 24.8784 22.9188C24.398 23.6688 22.2381 26.8189 18.2175 26.8189ZM4.17719 2.69951C4.53695 3.08975 5.19671 3.56903 6.33695 3.83975C6.39671 3.83975 8.04671 4.17023 8.94671 5.90927C9.96623 7.85927 9.63695 10.7093 7.95647 14.3996C6.54671 17.4899 8.55647 22.4996 14.2871 25.169C21.1274 28.3787 24.2177 22.6495 24.3677 22.4092L24.4579 22.2287H24.6384C26.1688 22.1385 27.2189 21.8092 27.819 21.569C25.6885 20.4287 23.6496 20.7592 23.619 20.7592L23.4385 20.7897L23.319 20.6397C20.4385 17.2191 16.2081 15.7494 13.9275 15.18C12.8177 14.9105 12.0372 13.8898 12.0372 12.7495L12.0384 8.43011C11.9177 2.88011 9.0384 2.21921 7.7775 2.18981C7.71774 2.18981 7.6275 2.22028 7.56774 2.24958C7.56774 2.24958 7.53727 2.24958 7.53727 2.28005C7.5068 2.31052 7.44703 2.33981 7.41774 2.39958C7.23727 2.63981 7.1482 2.8191 7.0275 3.1191C6.96773 3.29957 6.75796 3.38863 6.5775 3.29957C6.39703 3.2398 6.30796 3.03004 6.39703 2.84957C6.4275 2.75933 6.48726 2.6691 6.51656 2.58004C5.91773 2.6691 5.07719 2.75928 4.17719 2.69951Z" fill="white"/>
<path d="M8.46751 3.03002C8.46751 3.54917 7.6882 3.54917 7.6882 3.03002C7.6882 2.5097 8.46751 2.5097 8.46751 3.03002Z" fill="white"/>
<path d="M18.4272 23.4301C17.9772 23.4301 17.6175 23.2802 17.5577 23.2497C12.3674 20.9692 11.648 16.5303 11.6174 16.3497C11.5869 16.1692 11.7076 15.9899 11.9174 15.9594C12.0979 15.929 12.2772 16.0497 12.3076 16.2594C12.3076 16.2899 13.0272 20.5191 17.827 22.6497C17.8575 22.6497 18.7868 23.04 19.0575 22.4095C19.1173 22.229 19.3271 22.14 19.5075 22.229C19.688 22.2888 19.7771 22.4986 19.688 22.679C19.5685 23.0095 19.3282 23.2486 19.0282 23.3693C18.8173 23.3997 18.6077 23.4301 18.4272 23.4301Z" fill="white"/>
<path d="M21.4578 23.3092H21.2773C18.4871 22.919 15.937 20.3092 15.8176 20.1898C15.6981 20.0398 15.6981 19.8301 15.8176 19.7094C15.9676 19.5898 16.1774 19.5898 16.2981 19.7094C16.3286 19.7398 18.8176 22.2594 21.3384 22.6191C21.458 22.6191 21.7287 22.6191 21.7884 22.5289C21.8189 22.4984 21.8189 22.4094 21.7884 22.2594C21.7287 22.0789 21.8482 21.8996 22.0287 21.8398C22.2091 21.7801 22.3884 21.8996 22.4482 22.0801C22.5677 22.5301 22.4482 22.8301 22.3286 22.9801C22.0884 23.2801 21.698 23.3092 21.4578 23.3092Z" fill="white"/>
<path d="M15.6675 31.4995C14.9175 31.4995 14.498 31.3495 14.348 31.0495C14.2882 30.93 14.198 30.6593 14.4382 30.33C14.5577 30.1496 14.7382 29.9995 14.9785 29.88L16.1187 29.3105C16.2992 29.2203 16.4785 29.28 16.5687 29.4605C16.6589 29.641 16.5992 29.8203 16.4187 29.9105L15.2785 30.48C15.1589 30.5398 15.0687 30.63 15.0089 30.7203L14.9785 30.7507C15.0687 30.7812 15.248 30.841 15.6687 30.841H15.7285C16.7785 30.841 17.6187 29.9714 17.6187 28.891V26.491C17.6187 26.3105 17.7687 26.1605 17.9492 26.1605C18.1297 26.1605 18.2797 26.3105 18.2797 26.491V28.891C18.2797 30.3312 17.1394 31.5007 15.6992 31.5007L15.6675 31.4995Z" fill="white"/>
<path d="M15.9384 28.5899C15.758 28.5899 15.6079 28.4398 15.6079 28.2594V26.2191C15.6079 26.0387 15.7579 25.8886 15.9384 25.8886C16.1189 25.8886 16.2689 26.0387 16.2689 26.2191V28.2594C16.2677 28.4398 16.1177 28.5899 15.9384 28.5899Z" fill="white"/>
<path d="M13.9578 30.3899C13.8981 30.3899 13.8676 30.3899 13.8078 30.3594C13.7773 30.3289 13.7176 30.3289 13.6883 30.2996C13.4785 30.1496 13.3285 29.8801 13.3285 29.5801C13.3285 29.2801 13.4785 28.9801 13.7188 28.7996C14.4383 28.2301 15.8188 27.9594 15.8785 27.9301C16.059 27.8996 16.2383 28.0203 16.2688 28.1996C16.2992 28.3801 16.1785 28.5594 15.9992 28.5899C15.6395 28.6496 14.6188 28.9203 14.1395 29.3094C14.0797 29.3692 14.0199 29.4594 14.0199 29.5496C14.0199 29.6094 14.0504 29.6692 14.1102 29.7301C14.2906 29.8203 14.3504 30.0301 14.2602 30.1801C14.1981 30.2996 14.0773 30.3899 13.9578 30.3899Z" fill="white"/>
</svg>
