<svg width="32" height="32" viewBox="0 0 32 32" fill="none" xmlns="http://www.w3.org/2000/svg">
<path d="M29.2827 6.01784L27.0742 4.68011C26.8878 4.02711 26.2968 2.34742 24.7727 2.06836C22.9651 1.72944 21.1642 2.6895 20.9156 4.0904C20.7379 4.70245 20.6029 5.32617 20.5113 5.95688C20.4492 6.26757 20.3872 6.60981 20.2934 6.98376C20.1209 8.54594 19.3384 9.97698 18.1163 10.9652C17.0258 11.105 15.9176 10.9435 14.9121 10.4985C13.5124 9.6275 12.3308 8.81866 11.3039 8.16565C9.69405 7.00468 7.98733 5.98392 6.20283 5.11508C6.00438 5.00325 5.78155 4.94214 5.55382 4.93662C5.3261 4.93111 5.10045 4.98155 4.89682 5.08363C4.33194 5.42256 4.3059 6.17271 4.27539 6.73194C4.27539 6.91835 4.24395 7.19855 4.24395 7.26069C4.17672 7.30333 4.10298 7.335 4.02578 7.35447C3.7496 7.45418 3.50712 7.62941 3.32574 7.86032C3.14437 8.09123 3.03145 8.36854 3 8.66048C3.12299 9.78639 3.60224 10.8435 4.36807 11.678C4.42267 11.7662 4.4851 11.8493 4.55452 11.9265C5.1607 12.8575 5.71109 13.8236 6.20283 14.8198C7.63311 17.5889 9.25322 20.7295 13.3565 22.6264C14.2064 23.0614 14.9497 23.6787 15.5336 24.4341C15.6752 24.6489 15.8579 24.8337 16.0711 24.9777C16.2844 25.1218 16.5242 25.2222 16.7764 25.2734C16.8672 25.3006 16.9622 25.3111 17.0566 25.304V27.202C17.0544 27.2656 17.065 27.3291 17.0881 27.3884L15.4081 26.5794C15.3386 26.5468 15.2635 26.5281 15.1869 26.5245C15.1102 26.521 15.0337 26.5327 14.9615 26.5588C14.8893 26.5848 14.823 26.6246 14.7662 26.6762C14.7095 26.7279 14.6634 26.7902 14.6308 26.8597C14.5982 26.9291 14.5795 27.0042 14.5759 27.0809C14.5723 27.1575 14.5841 27.2343 14.6101 27.3065C14.6361 27.3787 14.676 27.4448 14.7276 27.5015C14.7793 27.5582 14.8416 27.6043 14.911 27.6369L19.7318 29.9384C19.8104 29.9735 19.8945 29.9945 19.9803 30.0004C20.0888 30.0035 20.1957 29.976 20.2893 29.921C20.3828 29.8661 20.459 29.7861 20.5091 29.6899C20.5738 29.5495 20.5808 29.389 20.5284 29.2436C20.476 29.0981 20.3683 28.9794 20.2289 28.9126L17.896 27.7613H20.6649C20.8004 27.743 20.9247 27.6762 21.0147 27.5732C21.1046 27.4703 21.1542 27.3381 21.1542 27.2014C21.1542 27.0647 21.1046 26.9325 21.0147 26.8296C20.9247 26.7267 20.8004 26.6601 20.6649 26.6418H18.1795V25.3358C18.5727 25.2825 18.9524 25.156 19.2991 24.9629C19.8248 24.512 20.1856 23.8992 20.3248 23.2208C20.3813 22.9059 20.5089 22.608 20.6978 22.3497L20.8842 22.2877C24.3673 20.5456 27.0423 17.2793 27.353 14.325C27.4311 13.1316 27.2615 11.9349 26.8549 10.8102C26.746 10.4983 26.6733 10.1752 26.6381 9.84678C26.7319 8.97573 26.8244 8.44694 26.8549 8.16676L29.1563 7.14098C29.2553 7.10034 29.3399 7.03157 29.4002 6.94322C29.4604 6.85486 29.4934 6.7506 29.495 6.64368C29.5328 6.53042 29.532 6.40798 29.4926 6.29531C29.4531 6.18265 29.3773 6.0861 29.2772 6.02115M26.167 7.14098C26.0845 7.17554 26.0124 7.23085 25.9579 7.30178C25.9034 7.37272 25.8683 7.45671 25.8561 7.54533C25.8561 7.54533 25.7623 8.1101 25.5759 9.59799C25.583 10.0749 25.6672 10.5476 25.8247 10.9978C26.1835 11.9929 26.3215 13.0544 26.2291 14.1082C25.9489 16.6897 23.5177 19.5817 20.3544 21.1996L20.1058 21.324C19.6571 21.7059 19.3592 22.2356 19.2662 22.8175C19.1893 23.2372 18.9932 23.6258 18.7014 23.9371C18.1953 24.2035 17.6109 24.2806 17.0531 24.155C16.8315 24.1289 16.6288 24.0176 16.4882 23.8444C16.0371 23.0209 15.3416 22.3578 14.4976 21.9465C14.2587 21.803 14.0092 21.6782 13.7509 21.5736C9.98883 19.8631 8.55383 17.032 7.15744 14.2958C6.59256 13.2067 6.06845 12.2111 5.44708 11.2452C5.39745 11.1359 5.32262 11.0402 5.22891 10.9652C4.6718 10.3332 4.27694 9.57512 4.07791 8.75646C4.10841 8.53842 4.13986 8.50783 4.45054 8.38355C4.77396 8.26964 5.04144 8.03602 5.19746 7.73068C5.29808 7.41772 5.36071 7.09378 5.38392 6.76586C5.38392 6.51732 5.41536 6.11271 5.41536 6.01894C5.50161 6.0223 5.5862 6.04365 5.66388 6.08128C7.3786 6.92101 9.02228 7.89872 10.5784 9.00498C11.6359 9.68961 12.8176 10.4669 14.2173 11.3685C15.4915 11.9488 16.9047 12.1538 18.2912 11.9593C18.3821 11.9562 18.4697 11.9233 18.54 11.8655C20.0616 10.6991 21.0576 8.97604 21.309 7.07534C21.3711 6.73641 21.4331 6.39066 21.5269 6.01784C21.6285 5.40835 21.7637 4.80506 21.9315 4.21039C22.0558 3.37097 23.2997 2.81056 24.4826 3.05911C25.5705 3.27716 25.9444 5.01799 25.9444 5.01799C25.9528 5.09973 25.9833 5.17764 26.0327 5.24333C26.082 5.30903 26.1485 5.3601 26.2246 5.3909L27.6865 6.26194L26.167 7.14098Z" fill="white"/>
<path d="M16.2815 17.6524C14.4522 17.6461 12.6996 16.9168 11.406 15.6234C10.1125 14.3301 9.38283 12.5773 9.37628 10.748C9.37704 10.6736 9.36303 10.6001 9.33491 10.5312C9.30679 10.4624 9.26533 10.3996 9.21272 10.347C9.16012 10.2944 9.09735 10.2532 9.02847 10.2251C8.9596 10.197 8.88579 10.1824 8.8114 10.1831C8.73914 10.1789 8.66683 10.1895 8.59874 10.214C8.53066 10.2386 8.46845 10.2771 8.4156 10.3266C8.36275 10.376 8.32051 10.4357 8.29148 10.502C8.26245 10.5683 8.24701 10.6398 8.24652 10.7122C8.24652 12.8396 9.09167 14.8799 10.596 16.3841C12.1002 17.8884 14.1406 18.7336 16.2679 18.7336C16.3424 18.7347 16.4163 18.7208 16.4853 18.6928C16.5543 18.6648 16.6171 18.623 16.6698 18.5703C16.7225 18.5176 16.764 18.4551 16.792 18.3861C16.82 18.317 16.8339 18.2432 16.8328 18.1687C16.8323 18.0963 16.8172 18.0248 16.7881 17.9585C16.7591 17.8922 16.7169 17.832 16.664 17.7826C16.6112 17.7331 16.5487 17.6952 16.4806 17.6706C16.4125 17.646 16.3402 17.6354 16.2679 17.6397" fill="white"/>
</svg>
