<svg width="32" height="32" viewBox="0 0 32 32" fill="none" xmlns="http://www.w3.org/2000/svg">
<path d="M16.538 21.9132C17.2973 21.0519 18.0837 20.1601 17.8423 18.8205C17.5388 17.1436 16.545 16.7217 15.8196 16.4135C15.3591 16.2178 15.1645 16.1159 15.1048 15.8967C14.9981 15.5088 15.1704 15.2768 15.536 14.8315C15.9966 14.2713 16.6282 13.5025 16.2368 12.1045C15.945 11.0639 15.0907 10.6362 14.336 10.2588C13.361 9.77133 12.5911 9.38577 12.7763 7.82484C12.9837 6.08694 12.4142 4.30584 11.3583 3.39294C10.6165 2.75076 9.68955 2.55738 8.67471 2.83161C7.66455 3.11168 6.96729 3.75153 6.65556 4.68201C6.21258 6.00507 6.62977 7.82721 7.69383 9.21831C8.65007 10.4664 8.18367 11.1906 7.59304 12.107C7.13602 12.816 6.61921 13.6199 6.89812 14.664C7.27429 16.0667 8.20828 16.4054 8.8903 16.6527C9.43288 16.8495 9.69889 16.9609 9.80437 17.3488C9.86414 17.5679 9.7493 17.7554 9.4528 18.1585C8.98522 18.7937 8.34538 19.6632 8.93953 21.2605C9.41413 22.5379 10.545 22.9035 11.6372 23.2574C12.045 23.3886 12.4657 23.5257 12.8466 23.7085L13.2368 22.8976C12.8009 22.6879 12.3497 22.5414 11.9137 22.4008C10.9024 22.0738 10.1044 21.8148 9.78208 20.9464C9.35785 19.805 9.7563 19.2648 10.177 18.6918C10.4934 18.2605 10.8532 17.773 10.6715 17.1109C10.4383 16.2554 9.74926 16.0058 9.19612 15.8054C8.56564 15.5769 8.02072 15.3789 7.76644 14.4297C7.58949 13.7711 7.94105 13.225 8.34886 12.5933C8.97229 11.6254 9.74809 10.4207 8.40746 8.66994C7.53089 7.52502 7.1606 6.00276 7.50746 4.96674C7.72308 4.32456 8.19653 3.89682 8.91137 3.69876C9.63206 3.50422 10.2555 3.63079 10.7688 4.07376C11.595 4.7886 12.052 6.28626 11.8821 7.71816C11.6207 9.90723 12.9027 10.5482 13.9328 11.0638C14.6055 11.4001 15.1856 11.6907 15.3696 12.3469C15.6344 13.2926 15.2664 13.7403 14.8399 14.2594C14.466 14.7141 14.0008 15.2801 14.2352 16.1356C14.4168 16.7965 14.9746 17.0333 15.4668 17.243C16.1208 17.5208 16.7395 17.7833 16.9551 18.9821C17.1204 19.8927 16.5649 20.5231 15.8618 21.3188C15.4399 21.7981 14.9747 22.3302 14.6629 22.9747C14.4743 22.2927 14.2598 21.5169 14.0254 20.6719C13.0879 17.2876 11.8036 12.6529 10.6351 8.28405L9.76562 8.51608C10.2508 10.3325 10.757 12.1935 11.2492 13.9923L9.45506 13.1813L9.08474 14.0017L11.5586 15.1208C12.1398 17.2372 12.6918 19.2293 13.1582 20.9135C13.7605 23.0873 14.2363 24.8054 14.4578 25.6421V25.6433L14.4589 25.6468C15.0085 27.7269 15.7316 28.5577 16.4886 29.2912L17.1156 28.6455C16.5261 28.0737 15.8593 27.4268 15.3285 25.4124C15.3285 25.4124 15.3273 25.4101 15.3273 25.4077C15.1585 24.7901 15.1585 24.2382 15.3273 23.7191C15.5511 23.0323 16.0528 22.4628 16.538 21.9132Z" fill="white"/>
<path d="M26.1824 12.3975C26.8644 11.4026 27.0496 10.1112 26.6535 9.10683C26.3253 8.27364 25.6363 7.70175 24.7105 7.49667C23.7788 7.29628 22.8871 7.5494 22.1992 8.20917C21.3707 9.00486 20.9675 10.2787 21.1703 11.454C21.3707 12.6141 20.9699 12.879 20.3628 13.2809C19.8999 13.5868 19.3234 13.9676 19.1371 14.802C18.8839 15.9317 19.273 16.4168 19.5566 16.7707C19.7453 17.0063 19.8156 17.0942 19.7546 17.3766C19.7125 17.57 19.5894 17.6824 19.3375 17.8969C18.9132 18.2602 18.332 18.7582 18.1668 20.0602C18.0273 21.1535 18.7175 21.8578 19.3269 22.4789C19.7336 22.8949 20.1191 23.2875 20.3113 23.7891C20.4554 24.1629 20.4765 24.5707 20.3757 25.0348L20.3746 25.0395C20.0511 26.5875 19.573 27.1043 19.1511 27.559L19.8109 28.1707C20.3746 27.5625 20.9101 26.8805 21.2558 25.227V25.2258L21.257 25.2223V25.2211C21.523 24.0118 22.3351 23.7012 23.275 23.3414C24.0882 23.0309 25.0082 22.6782 25.3386 21.6258C25.7336 20.366 25.3961 19.7027 25.15 19.2199C25.0058 18.9375 24.9437 18.8039 24.9847 18.6188C25.0492 18.3235 25.1746 18.2531 25.4476 18.1008C25.8543 17.8735 26.4121 17.5617 26.65 16.4414C26.8258 15.6141 26.4801 15.0258 26.1742 14.5067C25.7886 13.8528 25.5097 13.3795 26.1824 12.3975ZM25.7699 16.2564C25.6164 16.9771 25.348 17.1271 25.0082 17.317C24.673 17.5045 24.2546 17.7377 24.1046 18.4291C23.9945 18.9353 24.182 19.3045 24.3472 19.6303C24.5617 20.0509 24.7644 20.4494 24.4785 21.3599C24.2886 21.9658 23.7753 22.1884 22.9527 22.5037C22.5578 22.6549 22.1254 22.8224 21.7234 23.0755C21.8289 22.5986 21.9449 22.0759 22.0703 21.5076C22.0785 21.4724 22.0867 21.4337 22.0937 21.3986L23.2984 20.8396L22.9187 20.0228L22.3386 20.2923C22.7921 18.2451 23.3136 15.8778 23.8304 13.4754L22.9503 13.2856C22.3293 16.1754 21.6976 19.0231 21.1914 21.3118C21.066 21.879 20.9499 22.4016 20.8445 22.8786C20.5867 22.4837 20.2656 22.152 19.9691 21.8497C19.3527 21.2204 18.9789 20.8032 19.0597 20.1739C19.1816 19.2165 19.559 18.8931 19.9234 18.5802C20.2047 18.3387 20.5246 18.0645 20.6336 17.5688C20.7883 16.8657 20.4812 16.4848 20.2586 16.2059C20.0336 15.9258 19.8566 15.7044 20.0148 14.9977C20.1226 14.5173 20.4472 14.3028 20.8586 14.0309C21.5265 13.5903 22.3574 13.0407 22.0562 11.3004C21.9051 10.4239 22.2121 9.44185 22.8215 8.85709C23.0886 8.60045 23.5105 8.32741 24.0918 8.32741C24.2254 8.32741 24.3672 8.34147 24.5184 8.37429C25.1488 8.51491 25.5977 8.88171 25.8156 9.43485C26.1051 10.1696 25.9574 11.1317 25.4394 11.8864C24.4422 13.3407 24.9719 14.2396 25.3973 14.9626C25.6644 15.415 25.873 15.7713 25.7699 16.2564Z" fill="white"/>
<path d="M24.0134 12.6261L23.1333 12.4386L23.3067 11.6242L24.1868 11.8117L24.0134 12.6261Z" fill="white"/>
<path d="M18.1493 9.63783H19.0493V10.6316H18.1493V9.63783Z" fill="white"/>
<path d="M5.14038 18.0378H6.04038V19.0316H5.14038V18.0378Z" fill="white"/>
<path d="M10.9727 24.6354H11.8727V25.6292H10.9727V24.6354Z" fill="white"/>
<path d="M23.2961 25.1862H24.1961V26.18H23.2961V25.1862Z" fill="white"/>
</svg>
