<svg width="32" height="32" viewBox="0 0 32 32" fill="none" xmlns="http://www.w3.org/2000/svg">
<path d="M12.1198 1.88236C11.4706 1.88236 10.9339 2.41792 10.9339 3.06712V4.60228C10.9339 5.17534 11.3534 5.65696 11.8984 5.76244V6.21712C11.8984 7.24135 11.3499 8.18704 10.4616 8.70268C10.4604 8.70268 10.4628 8.7062 10.4616 8.7062V8.70503C10.4593 8.7062 10.4569 8.70737 10.4558 8.70854C9.2956 9.38003 8.57959 10.6199 8.57959 11.9593V27.9367C8.57959 29.1367 9.56395 30.1188 10.7652 30.1188H21.2358C22.4369 30.1188 23.4213 29.1367 23.4213 27.9367L23.4201 11.9581C23.4201 10.6187 22.7053 9.38 21.544 8.70734V8.70852C21.5428 8.70734 21.5405 8.70617 21.5381 8.705C21.5369 8.705 21.5393 8.70148 21.5381 8.70148C20.6498 8.18584 20.1014 7.24132 20.1014 6.21592V5.76124C20.6463 5.65695 21.0647 5.17414 21.0647 4.60108V3.06592C21.0647 2.41669 20.5291 1.88116 19.8799 1.88116L12.1198 1.88236ZM12.1198 2.76478H19.8811C20.0581 2.76478 20.1835 2.89252 20.1835 3.06712V4.60228C20.1835 4.77689 20.0581 4.90111 19.8811 4.90111H12.1198C11.9429 4.90111 11.8175 4.77689 11.8175 4.60228V3.06712C11.8175 2.89252 11.9429 2.76478 12.1198 2.76478ZM12.7808 5.78338H19.2191V6.2158C19.2191 7.55524 19.9351 8.79394 21.0952 9.4666C21.0976 9.46778 21.0999 9.46895 21.1011 9.47012C21.9917 9.98456 22.5378 10.9338 22.5378 11.9592V27.9366C22.5378 28.6585 21.9613 29.2362 21.2347 29.2362L10.7653 29.235C10.0399 29.235 9.46215 28.6573 9.46215 27.9354V11.958C9.46215 10.9326 10.0082 9.98459 10.8989 9.46895V9.47012C10.9001 9.46895 10.9024 9.46778 10.9047 9.4666C12.0649 8.79511 12.7809 7.55527 12.7809 6.2158L12.7808 5.78338Z" fill="white"/>
</svg>
