<svg width="118" height="240" viewBox="0 0 118 240" fill="none" xmlns="http://www.w3.org/2000/svg">
<g clip-path="url(#clip0_9_2137)">
<path d="M64.7065 238.317C64.0893 239.008 62.6502 239.648 61.7611 239.872C59.6536 240.406 57.3606 239.213 55.8959 237.801C54.5942 236.547 54.4631 234.716 53.6188 233.279C52.394 231.192 51.2171 229.279 50.5071 226.817C49.7236 224.094 49.5285 220.945 50.1106 217.907C50.9485 213.52 52.3492 209.343 53.8907 205.051L61.7995 183.013L63.5169 177.713L65.5092 172.41C66.5678 169.591 67.4025 166.8 68.2468 163.9L71.0515 154.28C72.5866 149.015 73.2166 143.718 74.9595 138.476C76.3347 134.338 76.9008 131.029 77.4316 126.798L78.244 120.349C73.3925 114.124 78.2344 111.813 77.4253 109.515C77.179 108.814 76.3827 108.821 75.6119 108.478C73.5972 107.582 71.4545 105.899 70.4599 103.825C69.2446 101.293 69.6412 98.4099 69.7755 95.7631C70.0921 89.5319 72.0781 86.978 72.8616 82.1101C73.3829 78.8841 74.6429 76.0325 75.4329 72.9089C76.9615 66.8633 79.1874 61.4097 81.7075 55.7546C83.0986 52.631 83.9109 49.5042 85.526 46.4605C86.1816 45.222 86.5813 43.5706 87.0035 42.2328C88.2987 38.1074 90.9723 32.1642 92.9423 28.2853L96.9654 20.3611L100.624 12.504C102.482 8.51309 104.845 3.00516 108.757 0.85767C110.823 -0.278482 113.666 -0.291284 115.658 0.982486C118.588 2.85794 116.64 7.76099 116.41 10.0845C116.179 12.408 115.335 14.4307 114.635 16.6198L112.243 24.1216L111.242 27.9653C110.612 30.3912 109.444 32.6059 108.773 35.0254L107.308 40.3029L106.189 45.2444C103.608 56.6411 102.412 72.7905 100.087 84.7985C99.8693 85.9154 99.6998 86.8787 99.5367 88.0693L98.072 98.6147C97.5379 102.455 97.5411 111.122 92.2675 112.441C91.2633 112.69 90.4894 113.964 90.8539 114.927C91.7366 117.267 90.0256 118.541 89.5075 120.41C88.8775 122.679 87.803 124.919 87.3776 127.249C85.8202 135.772 84.4162 144.067 83.3673 152.696C82.5997 159.02 82.6029 165.12 81.1542 171.348C80.6649 173.45 80.9047 175.55 80.9751 177.675C81.1382 182.546 79.0083 189.072 78.7588 194.522C78.5606 198.897 78.2823 203.045 77.5692 207.432C77.4284 208.3 77.3549 209.535 77.4508 210.335C77.6843 212.297 77.2973 213.958 77.1246 215.894C76.8816 218.644 76.7185 221.236 75.7655 223.895C75.0363 225.928 74.9499 228.229 73.8754 230.143C73.1079 231.509 71.5856 233.164 70.3127 234.025C68.266 235.407 66.4911 236.345 64.7065 238.333V238.317ZM83.137 108.875C84.058 109.755 85.0494 110.405 86.3638 110.347C88.6153 110.245 91.0714 109.563 92.9327 108.194C93.8761 107.499 93.8665 106.027 94.3078 105.089C95.2961 102.993 95.1777 100.913 95.4016 98.6979L95.8909 93.8013L97.2725 83.8639C97.5283 82.0205 97.7586 80.4075 98.1199 78.6184C98.7308 75.6004 99.1209 72.5664 99.5303 69.4844L100.953 58.731C101.254 56.4491 101.571 54.3816 101.977 52.0965L103.797 41.9159C104.81 36.2416 107.302 31.2457 108.993 25.7666L110.947 19.4393C111.561 17.4519 111.916 15.4708 112.799 13.525C113.682 11.5791 115.469 5.51749 114.251 3.51722C113.771 2.72992 112.006 2.21465 111.155 2.53789C109.866 3.02756 108.571 3.85967 107.753 4.93501C103.758 10.1837 101.641 16.655 98.734 22.7742L94.682 31.2937C93.988 32.7563 93.3932 34.0205 92.7536 35.5055L88.7624 44.7419C88.2123 46.0189 87.835 47.2158 87.2913 48.5152L86.0025 51.5876C84.6273 54.8681 83.5687 58.1773 82.0273 61.4097C81.2437 63.0516 80.748 64.703 80.2076 66.4056L78.0425 73.2417C76.7728 77.2455 75.6471 81.1148 74.6461 85.1601L73.2997 90.5912C72.6313 93.2892 70.866 101.255 73.3253 103.166C75.3369 104.728 77.3965 106.158 79.6799 107.31C80.7832 107.867 82.1552 107.928 83.1434 108.872L83.137 108.875ZM87.739 117.526C88.3658 116.704 88.4906 114.902 87.4384 114.361C85.5803 113.404 83.476 112.738 81.3653 112.437C80.2843 112.284 79.552 113.686 78.9859 114.367C78.9283 115.647 79.4144 116.812 80.5466 117.35C81.6787 117.888 82.782 117.564 83.9045 117.644C85.1838 117.734 86.3574 118.221 87.7422 117.526H87.739ZM52.5923 226.849C53.1263 227.822 53.5037 228.622 53.7883 229.579C54.1433 230.77 55.4481 231.423 55.9758 232.495C56.5866 233.73 56.9224 235.074 57.7603 236.153C58.8669 237.577 60.4179 237.638 61.9146 236.963C63.1203 236.419 63.7983 235.359 64.8089 234.694C67.9334 232.636 71.3457 229.989 72.1324 225.96C72.9192 221.93 73.6355 217.645 74.1248 213.401C74.3103 211.801 73.3093 206.677 73.594 204.648L74.8508 195.668C75.2698 192.682 75.5288 189.708 76.0437 186.678C77.3005 179.246 78.0297 175.195 77.6235 167.235C76.1108 168.102 76.1108 169.77 75.9317 171.229C75.791 172.381 75.1866 173.389 75.0875 174.516L74.6333 179.742C74.547 180.741 74.3583 181.531 74.192 182.539L72.254 194.275L71.6527 199.108C71.4417 200.817 70.6901 202.398 70.8212 204.219C70.9715 206.319 70.0697 208.191 69.7659 210.185C68.9919 215.273 67.9654 220.16 66.4303 225.06C66.0913 226.142 67.524 226.449 67.9941 226.904C68.7521 227.637 68.2852 228.738 67.6136 229.275C67.1307 229.663 66.1169 230.552 65.3941 229.819C64.7449 229.16 63.7151 228.222 63.5616 227.361C63.4081 226.501 64.7961 225.8 64.7193 225.016C64.5658 223.428 65.0423 222.228 65.3078 220.781L66.8492 212.374L70.2424 192.422L72.2732 180.434C73.4501 173.492 74.3999 166.733 76.9327 160.114C77.5372 158.533 78.4742 151.236 79.9293 147.101C81.0199 144.003 81.3461 138.87 82.9835 133.819C83.7159 131.566 84.0708 129.32 84.5154 127.025C85.0654 124.183 87.3904 121.459 86.5301 120.49C85.7722 119.638 82.3119 120.304 81.8706 120.541C80.828 121.104 81.1414 122.592 81.0135 123.549C80.3355 128.577 81.7075 126.484 79.8782 133.487L79.0723 136.575C77.9497 140.87 77.438 145.123 76.2452 149.431C75.225 153.108 74.8636 156.878 73.4948 160.466C72.868 162.111 72.5002 163.763 72.1836 165.545L70.1624 176.939C69.6923 179.585 68.912 182.072 68.1445 184.633L66.3823 190.525L65.3366 194.586C64.8217 196.586 64.4571 198.5 63.8431 200.439L62.4039 204.99C61.7611 207.023 61.3614 209.017 60.7121 211.039L58.6846 217.354C58.2273 218.775 58.3456 220.237 58.1473 221.585C57.6548 224.897 59.5225 223.783 61.8922 227.79L62.3272 232.149C62.4071 232.962 61.211 234.342 60.3316 234.284C59.0396 234.198 57.8179 232.415 58.3904 231.346C58.9628 230.277 59.8743 229.362 59.1355 227.995C58.9404 227.637 58.5087 227.381 58.1473 227.336C57.0791 227.208 56.9096 228.546 55.9918 228.51C55.6432 228.498 55.1283 228.347 54.8629 227.976C53.3086 225.809 56.1837 223.098 55.7743 221.975C55.0484 219.991 56.0334 218.743 56.4107 217.059C56.9704 214.582 57.8339 212.377 58.5503 209.932L60.8784 201.963L62.8836 195.312L66.0209 184.962L68.5282 176.241C68.9855 174.65 69.8778 173.108 69.3373 171.284C67.6104 172.669 67.1147 174.618 66.4943 176.481L63.9582 184.127L62.7269 188.06L57.4149 202.696L56.0014 206.712L53.9163 213.539C52.992 216.566 52.0262 219.296 52.4196 222.497C52.5827 223.828 51.8727 225.524 52.6018 226.859L52.5923 226.849Z" fill="#2E2E1F"/>
<path d="M55.8191 8.20586L52.6498 26.7619C52.8193 25.7666 48.2748 45.7661 48.358 45.4492C47.4081 49.0721 46.631 52.535 46.1001 56.2539C45.9466 57.3356 45.1183 58.3565 45.4701 59.4767C45.6364 60.0016 46.2249 59.7167 46.4903 59.6015C47.7823 59.0542 51.9686 40.1141 52.5219 37.3361L53.6923 31.4698L55.867 21.8493L57.0343 15.9189C57.5332 13.3745 58.176 10.9006 59.7975 8.76273C59.9893 8.5099 61.9594 6.64725 63.1362 7.28414C64.5338 8.04264 63.197 12.36 63.213 13.461C63.2993 19.5418 59.4041 36.5168 59.305 40.3093L59.1035 48.0928C59.0331 50.8035 58.4447 53.4535 57.7571 56.0906L55.5216 64.6774L53.0751 78.6793C52.8513 79.9626 52.4995 81.2588 52.1349 82.5038L50.91 86.6963C49.9218 90.0728 47.389 92.8603 44.6866 95.1198C39.8703 99.1492 44.1717 99.8501 41.9299 104.19C39.349 109.183 37.6956 114.415 36.9345 120C36.701 121.715 35.4698 125.873 35.2075 128.033C35.038 129.432 34.9421 130.593 34.5423 131.976C33.4678 135.692 33.6309 138.886 33.2023 142.121L32.6331 146.407L31.6353 156.51C31.5873 156.987 31.8463 164.345 31.5105 167.738L31.0756 172.113L30.8549 175.716C30.5511 180.658 31.2163 182.136 31.146 186.585L30.9669 197.985L30.7686 201.636C30.5383 205.858 30.1258 209.897 29.7996 214.173C29.6397 216.253 28.8338 218.557 27.6537 220.196C27.0652 221.015 25.9555 221.598 25.1112 222.138L20.6435 225.019C19.7481 225.598 18.8654 226.507 18.2801 227.384C17.2024 228.994 15.7952 230.053 14.3817 231.205C11.7721 233.33 8.79467 233.215 6.28739 231.061C4.9474 229.909 3.84726 228.936 3.66817 226.92C3.07333 220.279 0.511679 218.516 0.0991279 214.301C-0.617239 206.981 2.91982 201.915 6.18505 196.081L8.81386 191.379C10.0643 189.142 11.0973 187.171 11.8264 184.716C12.4149 182.732 13.3295 180.917 13.5758 178.792C13.6302 178.318 15.9136 171.376 16.4476 169.021L17.2696 165.404L19.0988 157.605L20.5891 150.663C21.523 146.311 22.217 142.07 22.879 137.634C23.6849 132.219 24.3181 126.993 25.4822 121.648C26.4192 117.35 27.481 113.292 26.9725 108.862C26.3105 103.095 25.2168 105.524 24.6635 100.548C24.1998 96.352 27.7624 96.6048 27.5929 94.8318C27.2859 91.6346 22.1082 91.2633 19.9655 87.8133C18.6703 85.7234 18.0883 82.859 18.261 80.4267C18.4273 78.0936 18.1906 75.7701 18.7471 73.5746L21.2703 63.6404C21.9707 60.8849 22.8214 58.3021 23.3939 55.4826C23.5761 54.58 23.7744 53.6007 24.0271 52.6822L28.0534 38.069C28.4436 36.6576 29.0512 35.4543 29.4766 34.0301L31.5042 27.2644C32.5531 23.7631 32.9561 20.2299 34.2545 16.735L37.7788 7.23293C38.3 5.82794 39.042 4.60538 39.4418 3.13638C39.6656 2.31707 41.2615 2.47069 41.8307 2.86115C44.4052 4.64058 41.2679 5.46629 41.0824 9.66525C41.0728 9.91169 40.8425 10.2061 40.7594 10.3661C40.4012 11.0638 40.1421 8.10345 37.1072 15.8773C35.6041 19.7338 34.9165 23.5775 34.069 27.6196C33.391 30.8585 32.3996 33.9501 31.4146 37.0865C30.6023 39.6693 29.5725 42.1016 28.9201 44.7259L27.1356 51.9013L24.1294 63.7045L22.1274 70.9374C21.088 74.6915 19.3259 84.6641 23.2787 87.3044C27.2827 89.9768 29.9531 90.9273 29.3135 95.7311C29.2015 96.5696 30.2665 97.2321 31.0372 97.1553C37.1232 96.5472 39.1379 99.6324 39.9854 96.7809C40.4747 95.139 40.6474 92.7899 42.0962 91.5834C43.6696 90.2712 46.0905 89.4263 46.8996 87.154C47.6192 85.1409 48.4155 82.9902 48.8697 80.8363L51.4409 68.6491C51.8087 66.9049 52.3715 65.3687 52.7777 63.6084L53.7947 59.2015L55.1858 51.562C55.7775 48.3168 56.3979 45.1324 56.6026 41.8199C56.8169 38.3379 57.9874 33.7197 58.6653 30.0328L60.0053 22.755C60.4563 20.3099 61.0479 18.028 61.1215 15.522C61.163 14.0402 61.8282 12.5744 60.9008 11.099C59.6695 12.0272 59.7335 13.477 59.4329 14.8435L56.2636 29.2711L54.639 37.8738L53.6444 42.5976C52.1637 49.629 52.3971 48.4448 50.4207 54.7625L48.358 61.3521C48.0446 62.3507 46.906 63.01 46.0266 63.0836C45.2079 63.154 43.7144 62.5587 43.7208 61.4898C43.7432 57.4828 45.0736 53.8183 45.8443 49.9746L47.229 43.0617C48.1309 38.5523 49.3877 34.4366 50.1329 29.9592L53.59 9.17239C53.6412 8.85554 52.9184 8.44909 52.7073 8.37868C52.4963 8.30827 52.1029 8.71473 52.0837 9.09238C52.0134 10.5006 51.4729 11.6847 51.2298 13.0417L48.8025 26.6659C48.4475 28.663 48.3164 30.6793 47.6672 32.5835C46.7973 35.1374 46.0426 37.493 45.63 40.1717C45.8731 38.5843 42.5375 53.8119 42.7709 52.9158L41.383 58.2445C41.1271 59.2303 40.7881 60.2192 40.0654 60.5904C38.994 61.1409 37.9738 60.7953 37.2895 60.0656C36.087 58.7854 37.7564 52.3717 38.105 50.5411L39.1443 45.0844L41.7859 32.7563L42.8669 26.9732C43.2187 25.0913 43.4681 23.3631 43.7368 21.4396L44.4659 16.2453C44.5938 15.3332 44.354 14.4691 44.1909 13.5986C43.8167 13.541 43.4905 13.7106 43.2603 13.4962L44.1141 7.06331C44.2676 5.91115 43.7144 4.66619 45.0991 4.0165C45.598 3.78287 46.244 3.78607 46.7142 4.16692C47.034 4.42295 47.2418 5.04064 47.0851 5.64872C46.3528 8.44269 46.3784 14.4851 46.0522 17.0262L45.4317 21.8589C45.1631 23.9584 44.9456 25.885 44.4755 27.9429L43.5737 31.9082L42.6174 36.056C42.061 38.4755 41.738 40.8086 41.1303 43.2249L39.7744 48.6144L38.8085 53.4247C38.7798 53.5623 37.5805 56.9132 38.719 57.2652C40.2349 57.7357 42.5599 44.8059 43.0364 42.9273L46.34 29.94L48.4315 17.2919C49.0392 13.6242 49.9666 10.1645 51.2874 6.74006C51.5496 6.05517 52.0965 5.58151 52.6913 5.37988C54.0665 4.91902 56.0813 6.62805 55.8127 8.19946L55.8191 8.20586ZM39.6368 101.566C39.0356 100.269 36.0198 100.055 34.069 99.9205L28.047 99.498C26.9917 99.4244 26.9085 101.162 26.9053 101.857C26.8989 102.705 27.7976 103.422 28.2485 104.03C29.1088 105.188 29.5981 105.105 30.8869 105.076L35.9303 104.955C38.4088 104.894 40.2541 102.897 39.6368 101.566ZM19.3323 209.775C19.0221 206.54 19.5913 203.502 19.6713 200.407L19.7992 195.562L20.7938 183.452C21.0529 180.286 21.7884 177.332 22.3129 174.215L25.9619 152.612L28.466 142.717L31.3187 127.217L32.2493 121.12C32.5435 119.2 33.1576 111.756 34.5263 110.805C35.5753 112.041 34.0082 114.447 34.667 115.804C35.5497 114.879 35.3706 113.66 35.8599 112.444C36.378 111.164 37.6732 108.622 36.1541 108.066L33.5925 107.121C32.9945 106.901 32.0862 106.843 31.6864 107.198C31.3858 107.467 30.9221 108.152 31.0276 108.718C31.3379 110.411 31.0596 111.935 30.9637 113.638C30.8773 115.145 30.7078 116.473 29.096 116.95C27.8456 119.914 26.1122 131.794 26.4416 133.813C26.6719 135.24 27.1228 135.909 26.6783 137.5C25.6165 141.305 25.4086 145.347 24.5484 149.242C24.0303 151.598 23.1476 153.896 22.8054 156.302L21.4079 166.115C20.7842 170.493 20.0103 174.375 19.2619 178.661L16.1342 196.583C15.5778 199.774 14.6599 202.885 13.1281 205.621L11.3947 208.716C10.7423 209.878 12.8786 213.372 13.3167 213.6C13.7549 213.827 14.4297 213.6 14.9222 213.27C16.6044 212.147 18.2386 213.468 19.3227 211.987C19.7417 211.414 19.4314 210.748 19.3387 209.775H19.3323ZM16.6715 184.556L19.2747 173.105C19.2939 173.015 21.5326 162.614 19.876 164.886C19.7672 165.036 19.4762 165.232 19.3931 165.548L17.6789 172.199C17.148 174.263 16.55 176.18 16.0543 178.273C15.7505 179.557 15.613 180.93 15.2068 182.149C14.6343 183.868 14.2058 185.439 13.7677 187.203C13.2752 189.184 12.3221 191.033 11.561 192.909C11.0013 194.288 10.0163 195.386 9.30636 196.708L7.70733 199.691L6.22023 202.334C4.69475 205.048 3.07013 207.551 2.66718 210.86C2.26422 214.169 6.2618 222.465 7.11889 227.65C7.31077 228.811 8.57401 230.047 9.69013 230.024C14.9797 229.912 15.5266 223.764 21.5198 221.806C24.5548 220.813 25.9939 218.096 26.6719 215.264C28.4244 207.906 27.3882 205.058 27.4362 197.466C27.4522 194.868 27.6249 192.429 27.2795 189.865C26.8446 186.668 27.0365 183.605 27.1452 180.411L27.5833 167.405C27.6857 164.393 27.5034 161.599 28.2133 158.623C29.1568 154.67 29.8188 150.782 29.9915 146.698C30.0426 145.514 30.7942 144.202 29.7228 143.225L28.4276 148.01C27.1772 152.632 27.1516 154.014 26.5408 158.533L24.9929 169.994L23.0229 183.8L22.5847 190.179L21.9995 202.718C21.9419 203.944 21.5997 205.103 21.7884 206.296C22.1242 208.447 21.5933 210.466 21.443 212.614C21.3631 213.769 22.783 214.393 23.4354 215.184C23.9919 215.859 24.1774 217.629 23.4834 218.215C21.168 220.167 18.5008 215.395 17.8388 215.065C16.8634 214.576 15.6417 215.232 14.7559 215.638C11.8584 216.97 16.2046 219.636 13.9468 224.481C13.547 225.342 12.4053 225.531 11.6058 225.166C9.5782 224.238 8.62198 222.346 8.12628 220.308C7.266 216.758 10.8254 217.367 11.3116 215.465C11.5162 214.669 10.8958 211.999 9.5814 211.875C8.26699 211.75 7.68175 214.784 6.65197 214.029C5.06253 212.86 4.65318 210.246 5.31518 208.54C5.83326 207.205 6.71913 206.389 8.16146 206.821C11.5738 207.842 10.7423 204.222 12.5364 199.915C14.2218 195.869 15.6641 188.969 16.6683 184.559L16.6715 184.556ZM12.7859 220.564C12.885 219.92 12.5812 218.586 11.6985 218.669C10.4065 218.791 10.0995 220.599 10.7391 221.466C11.1101 221.972 11.6953 221.924 12.1367 221.828C12.626 221.722 12.6867 221.22 12.7891 220.567L12.7859 220.564Z" fill="#2E2E1F"/>
<path d="M38.4024 36.5585C38.8821 39.7813 36.5187 50.0355 35.3642 53.4695C34.1234 57.1564 35.0764 59.0671 32.2557 59.5535C31.4306 59.6976 29.7037 59.5151 29.4894 58.3726C29.742 53.2487 31.178 48.2944 32.5403 43.3242L33.9251 38.2771C35.3898 32.9356 36.4963 27.6581 37.4334 22.1757C37.6732 20.7772 38.332 19.4778 38.3128 18.044C38.2937 16.6102 39.1092 15.5701 39.704 14.3443C40.2093 13.3042 39.9439 12.0048 40.5643 10.8846C41.6452 11.816 40.5931 12.7313 40.4268 13.7394L37.2895 32.7308C36.8545 35.3615 35.9271 37.6402 35.2843 40.2102L32.7098 50.4963C30.3688 59.848 33.3526 56.7724 33.4166 56.3051C33.6469 54.6889 33.9987 53.2071 34.4688 51.6229C35.7192 47.4047 36.6914 43.2858 37.4941 38.9876C37.6317 38.2483 38.3001 37.7522 38.4024 36.5553V36.5585Z" fill="#2E2E1F"/>
<path d="M39.3042 34.3629C39.4321 30.2472 40.7785 26.7011 41.1111 22.7518C41.1815 21.9165 41.7219 21.2028 41.9682 20.4667C41.3701 24.6336 41.3797 30.9833 39.3042 34.3661V34.3629Z" fill="#2E2E1F"/>
<path d="M28.1782 130.213C27.7944 128.334 29.1344 122.762 29.79 119.83C30.3817 120.608 30.1866 121.549 30.0459 122.41L29.1344 127.976C29.0097 128.728 28.8754 129.461 28.1782 130.209V130.213Z" fill="#2E2E1F"/>
</g>
<defs>
<clipPath id="clip0_9_2137">
<rect width="117.257" height="240" fill="white"/>
</clipPath>
</defs>
</svg>
