<svg width="240" height="200" viewBox="0 0 240 200" fill="none" xmlns="http://www.w3.org/2000/svg">
<g clip-path="url(#clip0_9_2136)">
<path d="M79.797 103.054C81.5805 102.452 84.2418 104.358 87.7226 103.509C88.8032 103.245 89.8005 103.248 90.8811 103.057C93.6563 102.565 96.3482 101.802 99.2261 102.118C100.071 102.21 100.723 101.636 101.479 101.622L112.005 101.411C114.613 101.358 117.13 100.778 119.775 101.014C121.555 101.172 123.125 100.586 124.839 100.559L139.465 100.312C140.443 100.295 141.479 100.17 142.332 99.8786L142.857 98.8405C143.018 98.5241 143.815 98.8572 144.235 98.8544L155.613 98.7906L159.536 98.1744C160.975 97.9496 162.433 97.6748 163.945 97.8774C165.456 98.08 166.72 97.5527 168.125 97.4167C170.72 97.1696 173.262 97.3251 175.862 97.3362C176.682 97.8996 178.357 98.81 178.065 99.6565C177.609 100.98 173.356 99.898 171.609 100.617C171.151 100.806 172.031 102.13 172.503 101.996C173.74 101.649 174.673 102.016 175.806 102.352C177.287 102.79 181.546 104.097 182.754 103.925C184.413 103.689 184.982 101.866 185.249 100.542L185.807 97.7553C186.179 95.8984 191.108 83.7165 192.874 81.7569C191.902 80.8438 190.819 80.9354 189.666 80.7633L186.018 80.222C184.579 80.0083 183.176 79.0369 181.724 79.2173C181.146 79.2894 180.651 80 179.762 79.8779L174.545 79.159C173.529 79.0202 172.59 78.5456 171.459 78.726C170.059 78.9508 165.514 77.8434 164.392 77.7879L159.575 77.5436C158.122 77.4687 153.513 76.3668 150.621 76.6582C149.063 76.8136 147.671 76.3696 146.171 76.228L140.34 75.6784L134.24 75.1316C132.895 75.0123 131.639 74.7042 130.306 74.6487L125.436 74.4461C123.836 74.3795 122.269 73.8077 120.625 74.027C121.014 73.9742 103.607 72.4976 101.976 72.4532L96.2093 72.2922C96.112 72.2922 87.9281 71.3208 87.2531 71.2125L82.0055 70.3632C78.0775 69.7276 74.1216 69.8636 70.4575 68.115C67.5295 72.0147 68.6407 70.0746 68.8796 71.8676C69.049 73.1305 67.8267 73.7133 66.9767 74.2657C64.4348 75.9171 62.5569 78.132 60.5373 80.3136L58.2594 82.7756C55.3675 85.9008 52.7257 89.0678 50.2533 92.5539C49.6588 93.3921 48.8615 94.1359 48.1587 94.8881L45.3391 97.8968L40.2193 103.606L37.9469 106.351L33.2521 111.339C32.8826 111.733 32.5021 111.888 32.5437 112.466C32.6437 113.834 36.7913 116.035 38.1663 117.023C39.5414 118.011 43.914 121.22 45.4391 120.776C46.9642 120.332 49.4421 116.574 51.17 115.641C51.2006 116.471 50.4144 116.707 49.9949 117.259C48.6476 119.036 47.242 120.837 45.2807 122.008C44.1334 122.694 41.9333 120.001 40.8332 121.17C39.5192 122.566 38.3386 123.979 37.1802 125.561C36.1995 126.902 34.4133 128.062 33.8577 129.541C33.4382 130.662 33.3105 131.273 32.4048 132.233C31.5187 133.172 32.2715 135.292 32.1715 136.372C31.977 138.451 30.1297 138.279 28.7296 138.539C27.3295 138.8 26.3878 139.286 24.8904 138.626C23.5959 138.051 21.8652 138.984 18.6039 137.97C17.2205 137.54 15.6092 138.081 14.2508 137.848C12.1701 137.49 10.8783 139.05 9.11711 139.308L4.47235 139.991C3.37505 140.152 2.06385 139.919 1.26657 141.029C1.13878 141.207 0.660971 141.176 0.499849 141.137C0.283167 141.085 -0.0613014 140.702 0.00536986 140.294C0.213718 139.047 1.60826 138.44 2.80001 138.62C4.51679 138.878 9.53381 137.787 10.4978 137.238C12.3785 136.166 14.3869 136.288 16.4148 136.275C20.4596 136.244 20.3762 138.378 26.3016 137.368C27.6295 137.143 29.2741 136.141 30.0741 135.128C30.8742 134.115 30.1769 132.267 30.2575 131.162C29.3824 131.209 28.6546 131.92 28.1045 131.406C27.5989 130.934 27.8045 129.552 28.1018 128.967C28.9157 127.357 31.0492 127.962 32.2743 127.454C35.1134 126.274 39.8331 120.379 38.1497 118.403C37.0524 117.115 33.9077 116.402 31.7715 113.953C30.6353 112.649 29.4074 112.074 27.749 110.914C31.2131 110.592 34.2883 106.304 36.3051 104.122L46.8086 92.7731L52.934 84.9599L57.5344 79.5587C59.9651 76.7054 63.3653 72.0341 66.2739 70.2661C67.4323 69.5611 67.4601 67.8236 68.3434 67.0242C69.5491 65.9306 71.6242 67.1769 72.9077 67.46L75.8884 68.1178L79.722 68.2954L83.05 68.8866C84.0556 69.0643 88.4587 69.983 89.2227 69.8275C90.2561 69.6194 91.1423 70.2161 92.1006 70.2578L98.8261 70.5381C100.465 70.6075 111.73 71.4013 111.933 71.3874C113.666 71.2681 115.28 71.665 116.997 71.8593C118.844 72.0702 120.605 71.8731 122.417 72.209C124.87 72.6614 127.356 72.2562 129.848 72.5698C130.934 72.7058 131.978 73.1277 133.109 72.9556C134.562 72.7336 135.893 73.4136 137.268 73.4052C139.39 73.3941 141.324 73.7716 143.393 73.9187C146.502 74.1408 149.474 73.9992 152.577 74.5127C154.216 74.7847 155.902 74.3628 157.533 75.0151C157.825 74.6542 157.647 74.5238 157.602 74.3711C157.525 74.1019 157.044 74.0048 156.786 73.9132C155.497 73.458 155.027 72.2534 154.088 71.3097C152.88 70.0912 152.16 67.5932 153.674 66.2998C155.188 65.0064 156.663 63.9461 157.619 62.1587C159.564 58.5227 165.711 56.2245 166.52 55.736L173.056 51.7947C174.265 51.0675 175.384 50.5096 176.054 49.219C176.804 47.7701 177.962 46.7182 179.004 45.4886L182.704 41.1171L187.449 35.8213C192.249 30.4617 194.199 26.2928 198.433 21.6104C201.105 18.6544 206.447 14.8658 208.456 12.4483C209.267 11.4713 210.114 10.3305 211.267 9.66993C212.053 9.22029 213.442 9.1509 213.54 7.91299C213.637 6.67509 211.001 7.07477 210.912 5.87018C210.884 5.48437 211.053 4.94314 211.553 4.71277C214.592 3.32498 217.765 2.09818 221.16 1.6874C222.879 1.47923 224.465 1.57915 225.927 0.457823C226.66 -0.105617 227.793 0.0997751 228.649 0.0165081C230.096 -0.12227 230.833 0.505008 231.483 1.61523C232.058 2.60056 236.7 4.05496 239.275 7.62989C239.547 8.00736 240.219 14.3967 239.725 12.2734C240.364 15.0212 239.783 17.3222 239.141 20.0145C239.225 19.6647 238.027 29.815 238.019 29.9538C237.816 33.3649 237.288 36.4541 236.411 39.7376C235.883 41.7111 236.552 43.9343 236.205 45.9938C236.091 46.6765 235.73 47.376 235.783 48.0144C235.894 49.3577 235.43 50.5374 235.38 51.8197C235.291 54.2039 235.072 56.4021 234.847 58.778C234.63 61.0679 237.13 64.7954 236.016 67.1713C235.297 67.0048 234.858 66.4913 234.283 66.5885L234.085 70.8601C234.066 71.2958 232.963 80.2803 232.874 80.4968C232.369 81.7264 229.935 81.3045 228.935 81.0436C228.207 80.8521 227.607 81.0963 226.963 81.2185C225.49 81.496 223.99 80.3719 222.624 80.5385C220.893 80.7466 219.526 81.1213 217.779 80.4774C215.448 79.6197 212.323 82.6118 209.531 82.2982C208.364 82.1677 206.7 81.7597 205.95 82.9032C205.731 83.2363 205.986 83.9246 205.667 84.2105C205.406 84.4464 204.889 84.5769 204.333 84.4464L201.875 83.8608C202.164 83.9302 196.586 81.5099 196.786 83.4833C196.886 84.4659 196.269 84.9461 195.925 85.6732C195.049 87.5135 194.613 89.5452 193.308 91.155C192.285 92.4151 192.133 94.0138 191.852 95.5876C191.696 96.4647 191.363 97.2363 191.377 98.1744C191.405 99.8703 190.571 101.336 190.107 102.857C189.838 103.742 189.294 104.25 188.902 104.972C188.418 105.86 188.41 106.654 187.346 107.184C186.227 107.742 186.188 109.477 181.829 108.258L175.268 106.421C173.253 105.857 171.248 105.793 169.145 105.299C166.678 104.719 163.958 105.666 161.455 105.08L154.761 103.515C152.677 103.026 150.632 102.915 148.51 102.993L139.954 103.312C136.837 103.429 133.776 103.431 130.626 103.423C127.681 103.417 124.917 103.745 122.019 103.967C118.305 104.253 114.73 104.303 111.046 104.433L102.612 104.73C101.404 104.772 100.268 105.352 98.9456 105.138C97.1121 104.844 94.1841 106.029 92.8507 106.129L88.6615 106.437C87.7365 106.504 84.6807 105.802 84.2473 106.096C83.9501 106.298 83.739 106.815 83.5389 107.3C81.9166 106.396 80.3026 105.896 78.5636 106.401C78.8692 107.489 80.3443 107.803 80.3332 108.599C80.3137 109.762 78.9636 108.916 78.9775 112.338L79.0164 122.322C79.0275 125.386 79.372 128.181 79.397 131.223L79.5831 153.411C78.0247 154.471 76.5857 153.98 74.9495 153.916L69.2352 153.691C68.2434 153.652 67.4156 153.033 66.3211 153.414L68.2657 164.077L68.6268 168.854C68.7101 169.937 69.0213 170.864 69.0185 172.032C69.0074 175.56 68.3046 176.284 70.5686 177.952C70.313 179.362 68.9463 179.926 67.9518 180.761C66.2544 182.188 64.4487 183.004 62.4264 183.826C60.9707 184.42 59.7206 185.46 58.19 185.954C56.3926 186.535 53.7091 189.191 51.3312 190.468C49.8838 191.245 45.9058 191.567 45.9808 192.732C46.0391 193.607 46.8642 193.204 48.5865 193.881C49.1504 194.104 48.7254 194.87 49.0088 195.275C49.9394 196.61 51.8423 197.09 53.3952 196.626L58.3955 195.13L64.7849 194.947C65.7099 194.92 66.7711 194.556 67.6156 194.256C69.3407 193.646 70.8464 194.303 72.6048 194.401C74.6494 194.514 76.7885 194.017 78.8831 193.845C79.9804 192.807 77.6608 189.016 78.8747 188.452C80.6054 187.653 80.8471 189.821 81.3999 190.642C82.4027 192.127 84.1612 193.102 83.5862 195.269C80.7749 195.597 76.4579 197.129 73.7271 196.393C71.702 195.849 69.9963 196.107 68.0518 196.552C66.3211 196.948 60.3012 196.341 58.2122 197.207L54.9842 198.544C53.6452 199.1 51.3006 199.205 49.856 199.027C48.2337 198.05 47.1836 197.959 45.2641 198.63C43.025 199.41 37.2746 197.57 38.083 195.094C38.7192 193.143 41.0249 196.64 42.6639 194.001C41.686 193.823 40.8276 194.409 40.1776 193.782C38.8831 192.53 45.2168 191.972 46.2364 190.109C46.1419 189.76 45.6446 189.663 45.2807 189.665C44.9529 189.582 45.0029 189.288 45.328 189.224C51.8756 188.991 52.4479 187.328 56.5899 185.261C58.9372 184.089 61.1374 183.182 63.1236 181.433C63.9681 180.689 65.2349 180.165 65.7155 179.024C66.2905 177.658 67.2239 176.254 67.3962 174.733C67.7517 171.616 67.3739 168.271 66.8795 165.074L66.285 161.238C66.11 160.108 65.9655 159.056 65.7933 157.871L65.3071 154.529C64.9599 152.143 62.7208 152.598 60.7762 151.882C58.465 151.03 56.926 152.617 54.8925 150.813C55.0842 149.964 55.5314 150.522 56.7149 149.686C57.0177 149.472 56.726 149.117 56.7287 148.679C56.7454 146.955 56.9899 145.298 57.1593 143.574C57.5399 139.727 57.4038 135.95 57.4371 132.047C57.4538 130.11 57.5816 128.27 57.7038 126.374L58.2539 117.728L58.6622 112.061C58.765 110.631 59.2234 109.249 58.7761 107.778L56.5093 109.865C56.1898 109.149 56.7982 108.78 57.2538 108.438C60.0401 106.343 57.5844 104.53 59.2345 103.684C59.6123 103.49 60.604 102.904 60.754 103.528C61.468 106.526 60.9068 109.604 60.6235 112.602C60.4734 114.201 60.7679 115.744 60.4429 117.284C60.1929 118.478 59.8817 119.638 60.0651 120.92C60.2484 122.202 59.7984 123.363 59.6289 124.589C59.3261 126.785 59.8845 129.008 59.4928 131.195L59.0345 133.763L58.9067 147.008C58.9011 147.577 58.3428 149.026 59.1456 149.356C61.3596 150.269 64.2821 150.613 66.7989 151.013L70.6103 151.618C72.5021 151.918 74.4189 151.657 76.3579 151.676L76.5662 142.422C76.6412 139.092 76.6162 135.825 76.5662 132.48L76.3829 120.382C76.3634 119.055 76.0356 117.939 76.2607 116.571C76.9746 112.244 76.1106 112.63 74.6133 108.366C74.4522 107.911 73.5938 107.753 73.716 107.162C73.8049 106.726 73.9049 106.224 74.4466 105.893C76.1245 104.872 77.7885 103.734 79.8026 103.051L79.797 103.054ZM222.804 3.164C220.176 2.92808 217.568 3.35829 215.379 4.96534C218.101 6.02561 220.712 5.1291 222.804 3.164ZM206.628 64.5651C207.325 64.5706 208.548 65.0369 208.295 65.7253C207.878 66.3054 206.175 66.7217 205.4 66.4969C202.758 65.728 200.244 65.8085 197.6 65.3866C195.541 65.0591 192.691 64.5012 190.63 64.8954C188.218 65.3561 185.654 64.665 183.271 65.2978C181.468 65.778 179.718 65.3422 177.859 65.6226C174.459 66.136 173.151 65.8918 171.809 71.1432C171.509 72.3228 170.842 74.188 171.617 75.09C173.078 76.7942 176.934 76.0226 180.301 76.8997C182.574 77.4909 184.538 78.7177 186.893 79.1534C188.746 79.4948 190.774 79.3894 192.594 80.1249C193.613 80.5384 194.561 80.5412 195.552 79.7918C197.502 82.5979 197.116 80.7577 200.717 81.9262C201.905 82.312 203.197 81.9512 203.914 81.0852C202.775 80.222 200.094 81.5404 200.044 80.5745C200 79.728 203.414 79.3533 203.425 79.3533L218.001 79.3977C220.126 79.4032 222.074 79.2284 224.276 79.5087C225.36 79.6475 226.718 79.2506 227.874 79.2173C229.21 79.1812 229.549 77.3216 229.56 76.3029C229.577 74.8152 230.719 73.5357 230.599 72.1007C230.335 68.9255 230.83 66.0694 230.944 62.9469L231.233 54.9033C231.271 53.8458 231.677 52.916 231.677 51.7919L231.683 26.8535C231.683 23.4062 229.66 18.6739 229.588 15.7234L229.335 5.118C226.566 3.07241 223.985 7.97961 218.729 9.86699C218.326 10.0113 217.295 9.0482 216.99 9.85589C216.732 10.5304 216.54 11.1021 215.915 11.4685C215.337 11.8071 214.659 11.0577 213.995 11.166C213.181 11.5379 212.431 12.6065 211.87 13.3392C210.023 15.7567 207.911 17.7496 205.356 19.4233C203.564 20.5973 202.169 22.296 200.533 23.6727C199.464 24.5719 198.997 25.6849 198.436 26.8979C197.736 28.4133 196.325 29.4125 195.361 30.7004L192.635 34.3419C192.008 35.1802 191.424 35.8935 190.749 36.7039L188.105 39.882C187.516 40.5897 185.379 41.9109 181.793 46.3435L177.207 52.014C176.154 53.3157 175.223 54.5342 173.637 55.1809L169.675 56.7907C166.211 58.1979 163.106 60.5877 160.489 63.3521L156.841 67.2019C156.275 67.7986 155.674 68.9699 155.063 69.6666C154.638 71.504 161.169 74.8929 162.064 75.0178C163.247 75.1816 164.35 75.1428 165.514 75.523C166.42 75.8172 167.439 75.7034 168.142 75.2843C167.1 74.7153 166.039 75.1094 165.128 74.7847C163.119 74.0714 161.772 72.6198 160.586 70.9628C160.166 70.3771 158.711 69.7609 159.147 68.8894C159.583 68.0179 160.855 67.571 161.694 67.0409C163.283 66.0361 164.831 64.4568 166.75 64.0793C168.67 63.7019 170.634 64.7344 172.548 64.4874C173.676 64.3402 174.64 64.9203 175.626 64.912C177.004 64.9009 178.334 64.4013 179.801 64.5456C181.762 64.7372 190.235 63.5548 193.138 64.0377L195.744 64.4707L206.642 64.5651H206.628ZM235.369 33.7702C235.633 31.7301 235.963 29.7678 235.769 27.6806C235.613 26.018 236.105 24.5386 236.177 22.9455L236.55 14.9296C236.647 12.8479 237.633 8.25716 234.188 7.15804C233.827 7.04147 233.597 6.78056 233.288 7.13306C233.06 7.39396 233.472 7.55772 233.497 7.91854C233.697 10.7663 233.852 13.7 233.385 16.5506C232.747 20.4336 233.633 21.9962 233.813 26.7036L234.263 38.5081C234.833 39.1187 235.352 33.9173 235.372 33.7674L235.369 33.7702ZM169.073 73.4996C169.828 72.2534 169.512 70.8628 169.945 69.7165L171.417 65.8113C169.959 65.6337 168.656 64.8288 167.217 64.9897C165.861 65.1396 164.025 66.3359 163.297 67.4572C162.825 68.1844 163.192 69.1059 162.139 69.5111C160.591 70.1079 163.631 72.5531 166.639 72.5476C167.453 72.5476 168.092 73.4302 169.07 73.4996H169.073ZM47.342 195.63C45.4446 195.369 43.789 195.5 41.9694 195.536C41.461 195.547 40.486 196.454 40.9888 196.843C42.1694 197.756 47.4142 196.532 47.3392 195.63H47.342Z" fill="#2E2E1F"/>
<path d="M54.6843 111.497C55.6427 111.844 52.4231 114.842 51.9619 114.498C52.6842 113.301 53.6259 112.377 54.6843 111.497Z" fill="#2E2E1F"/>
</g>
<defs>
<clipPath id="clip0_9_2136">
<rect width="240" height="199.1" fill="white"/>
</clipPath>
</defs>
</svg>
