<svg width="268" height="155" viewBox="0 0 268 155" fill="none" xmlns="http://www.w3.org/2000/svg">
<path fill-rule="evenodd" clip-rule="evenodd" d="M184.081 42.3061C189.813 41.2595 190.09 41.6373 193.916 43.9047C194.403 44.1954 195.415 43.4031 196.041 43.8246C196.413 44.0798 198.368 46.1365 198.208 47.4008C198.091 48.2799 196.84 48.4543 196.019 48.8031C194.615 52.5097 193.945 56.7254 193.393 60.7299C193.022 63.4115 192.338 65.7153 192.367 68.7094C194.578 66.9217 196.884 66.3836 199.729 66.7905C199.059 63.701 199.38 53.1784 202.864 52.7133C203.773 52.5898 204.836 52.9312 205.148 53.9848C206.742 59.4429 207.112 64.2694 204.508 69.6039C209.556 71.7407 212.358 76.0213 213.667 81.0434C214.976 86.0652 215.485 90.3967 214.496 95.3822C213.332 101.262 210.91 107.999 204.094 108.217C204.959 108.697 205.658 108.769 205.891 109.489C206.138 110.237 205.737 110.725 205.155 111.481L217.354 112.549C221.93 112.949 226.324 113.508 230.922 113.603C231.678 113.617 232.151 114.002 232.238 114.598C232.326 115.194 231.802 115.855 231.002 115.928C229.758 116.052 228.761 116.727 227.583 116.836L225.117 117.062C224.084 117.156 223.262 117.658 222.055 117.746C222.695 118.312 223.604 118.516 224.433 118.523C225.633 118.523 225.75 119.388 226.44 119.889C227.328 120.536 228.426 120.631 229.212 121.677C232.194 125.638 234.414 130.69 235.476 135.494C235.591 136.148 234.123 137.768 235.309 138.03C240.059 139.076 244.875 138.066 249.625 138.742C250.956 138.931 252.105 139.673 253.589 139.832L265.745 141.14C266.582 141.227 267.2 141.926 267.302 142.427C267.476 143.314 267.076 144.091 266.036 144.229L249.014 146.431C248.766 146.46 248.861 147.245 249.225 147.274L255.117 147.783C255.655 147.826 255.997 148.372 256.048 148.677C256.36 150.639 250.818 150.101 249.29 149.949L241.208 149.135C230.638 148.067 226.877 150.21 218.432 150.225C217.246 150.225 216.628 149.658 216.147 148.648C211.223 148.997 197.008 150.465 192.92 149.615C191.691 149.36 190.795 149.04 189.442 149.077L175.446 149.411L120.641 150.05L113.438 150.952L90.3418 153.147L74.1709 154.251L69.7119 154.571L42.2646 154.651C41.13 154.651 40.0972 153.975 38.9189 154.302C37.4568 154.716 36.1468 153.822 34.8301 153.83C28.5742 153.866 23.8531 154.804 17.6191 153.903C16.7826 153.779 16.0262 153.837 15.8516 152.943C15.6844 152.114 16.0476 151.395 17.0947 151.228L33.1211 148.641C31.1861 148.481 29.4037 148.779 27.5342 148.903L27.5264 148.873C22.9722 149.186 8.67876 149.375 4.45215 149.055C3.88474 149.011 3.56473 148.481 3.46289 148.139C2.89068 146.25 7.72787 146.595 7.74023 146.598L33.6592 144.207L37.4785 143.997L64.6924 141.41C63.1721 140.552 61.5279 141.293 59.8477 141.402C54.6246 141.729 49.401 140.959 44.2725 141.794C42.3449 142.107 41.1521 142.986 39.0645 142.078C37.0931 141.22 34.4299 142.099 32.3203 142.078C30.6691 142.056 29.1921 141.693 27.5264 141.773C23.191 141.976 19.0156 141.685 14.6875 141.467C11.9378 141.329 9.29689 141.664 6.59082 141.104C5.29596 140.835 3.9716 141.561 2.8877 140.733L28.9014 140.399C28.9377 138.815 29.0541 137.644 29.7451 136.242C27.0682 136.859 24.7337 135.456 24.4209 132.811C23.9991 129.301 24.7774 125.602 25.8467 122.215C26.0504 121.583 26.9084 121.394 27.2939 121.365C27.745 121.328 28.2397 122.07 28.7344 122.135C29.2725 122.2 29.8325 121.735 30.1816 121.88C32.2621 122.745 30.1815 129.141 30.9453 132.194C33.4841 131.489 36.0669 131.118 38.6348 130.595C38.7875 127.376 38.4234 124.468 39.2236 121.466C40.5039 124.548 39.7117 127.404 39.6826 130.42C42.0686 130.275 44.4182 129.795 46.8623 129.548L69.2461 127.302C70.7591 127.15 72.0903 126.627 73.6543 126.62C74.9055 126.612 76.1063 126.423 77.4375 125.813L77.9102 101.581C77.925 100.702 79.1679 100.004 78.4551 98.849L69.4131 101.117C68.6784 101.298 67.9581 101.712 67.4707 101.058C67.0564 100.498 67.166 99.5682 67.8496 99.1977L72.0977 96.894C73.2251 96.2835 73.7559 94.9679 74.6797 93.936C83.4964 90.4983 92.3065 87.2647 101.509 84.8227C102.862 84.4666 103.916 84.2192 105.116 84.8803C109.757 81.8933 115.599 81.5231 120.247 84.4301C121.076 84.9461 121.295 85.6798 122.299 85.2729C124.685 84.3135 122.656 80.5923 128.09 77.7143C130.178 76.61 133.472 78.7319 134.192 80.9047C134.934 81.2245 136.543 80.8103 137.176 80.1635C137.649 75.0834 138.936 67.9759 144.784 66.5004C147.003 65.9408 148.648 67.7652 149.099 69.9819C151.536 68.7823 169.299 58.6369 170.07 59.3998L171.118 60.4389C171.947 61.2601 173.817 60.7658 174.501 61.7104C176.734 64.7919 173.512 67.176 172.98 71.1733C172.944 71.4203 172.443 71.8633 172.573 72.016C173.17 72.7065 178.538 71.1152 180.742 71.4858C181.892 62.5683 179.956 60.6278 179.563 52.5317C178.48 52.0378 176.61 53.3887 175.963 51.7172C175.665 50.9469 176.029 50.1327 176.814 49.7621C177.382 49.4935 177.949 49.5657 178.538 49.1225C177.607 48.3232 177.032 47.5895 176.967 46.6957C176.705 43.28 181.659 42.7494 184.081 42.3061ZM179.578 145.312C176.501 143.866 169.175 145.494 165.909 145.675C168.244 145.879 170.507 145.741 172.9 145.624L172.907 145.632L179.578 145.312ZM223.08 143.575C221.982 143.429 221.043 142.899 220.235 143.509C223.196 144.178 226.906 144.142 229.481 143.844C227.343 143.314 225.342 143.88 223.08 143.575ZM85.1846 141.86C83.577 141.656 80.4708 142.201 78.8994 142.405C79.7147 142.492 85.7445 142.957 85.1846 141.86ZM98.0898 90.9858C97.4498 92.1702 96.6128 92.9767 95.7109 93.4418C95.6818 95.1206 96.7359 97.3733 95.8633 98.9213C94.6558 99.212 93.7469 100.157 92.874 101.429L92.4004 94.5317C91.0692 94.9677 89.9637 95.2663 88.9453 95.8041C88.7636 97.0177 89.6222 98.1154 89.3604 99.3363C89.0984 100.557 87.8108 101.799 86.5889 101.923C84.5156 102.134 85.6425 97.7221 85.2715 97.0317C84.2096 97.3368 82.6899 97.3812 82.0859 98.0278C81.0821 99.7284 82.7115 101.443 83.9336 102.504C83.9772 109.467 84.4061 116.982 84.748 124.156L85.0684 130.834C85.112 131.728 85.0171 132.586 84.5225 133.233C83.9842 132.79 83.395 132.376 82.8203 132.732C82.464 135.886 83.1688 134.759 80.2373 138C79.7061 138.582 77.7939 137.702 77.7139 136.968C77.4885 134.933 78.0988 132.869 77.3496 130.965C76.5711 130.449 74.8325 131.017 74.3379 131.714C76.2292 133.887 75.9962 136.773 74.5195 139.404L82.5293 139.265C82.6675 138.437 82.646 137.971 82.8643 137.208C84.9823 136.67 98.3431 132.979 98.1182 136.111C97.9654 138.233 95.405 135.595 94.4375 140.196C93.7606 141.467 89.2872 140.617 88.1016 141.627C89.0253 142.238 90.0728 141.555 91.1348 141.54L102.949 141.395C100.781 140.283 100.017 138.495 99.3838 136.431C98.7437 134.331 98.3805 132.615 99.5879 130.515C100.795 128.415 103.262 126.678 106.092 126.961L106.084 126.947C108.514 127.187 110.267 128.741 110.726 130.951C111.344 133.945 110.354 139.199 107.408 141.438C111.445 141.569 114.762 141.758 118.821 141.38C114.064 138.946 112.406 133.88 114.988 129.447C115.912 127.862 117.593 127.833 119.135 127.251C121.23 126.459 123.121 125.9 125.397 127.063C126.809 127.782 127.994 129.345 128.686 131.286C129.748 125.355 134.506 119.657 140.646 121.656C141.351 121.888 142.115 121.939 142.726 121.772C140.922 120.718 138.855 118.915 136.993 119.482C133.574 120.507 130.25 121.22 126.838 122.048C127.092 122.717 127.1 123.792 126.278 123.778C118.342 123.625 116.334 125.093 110.15 124.264C107.401 123.894 104.818 124.875 102.047 124.65L102.796 125.326C100.759 125.071 98.9623 125.165 96.8965 125.478C97.0783 126.11 102.287 124.882 101.931 126.917C101.843 127.412 101.247 127.855 100.606 127.84C97.0419 127.746 93.8117 128.334 90.4727 129.534C89.6214 129.839 87.8468 130.035 87.5195 128.93C86.9747 127.077 93.281 126.299 95.4414 125.493C93.4701 124.701 91.3023 125.348 89.3164 124.73C88.5381 124.49 87.8469 123.451 86.8213 123.233C86.6394 118.93 86.5007 114.446 87.2354 110.136C87.4318 108.988 88.0869 108.123 87.4541 106.851C90.2693 106.175 92.7354 105.027 95.5215 104.83C96.9254 104.729 96.6275 107.134 97.1875 108.122C97.7112 103.856 97.7402 99.4159 97.6602 94.9028C97.6311 93.5002 98.5332 92.5335 98.0898 90.9858ZM128.81 134.206C128.373 137.317 127.442 139.491 125.34 141.591C129.912 141.809 130.561 142.258 133.96 140.489C131.455 138.891 130.067 137.031 128.81 134.206ZM156.038 115.391C154.11 115.282 152.422 115.783 150.538 115.957L149.985 121.867C149.818 123.647 149.23 125.275 149.324 127.164C149.346 127.659 149.2 128.197 148.851 128.524C148.632 128.727 148.153 128.691 147.724 128.887C147.302 134.277 148.224 135.129 145.008 140.267L151.608 139.883C150.91 138.488 149.752 137.484 149.614 135.9C149.076 129.541 149.52 126.358 155.456 122.164L156.038 115.391ZM45.1602 135.209C45.7348 136.896 45.7343 138.314 45.1523 140.029L53.5254 139.934H53.5186C52.3401 137.841 52.6162 136.06 54.0273 134.185L45.1602 135.209ZM67.0488 132.513C65.5724 132.47 64.234 132.608 62.7939 132.87C63.7105 135.319 63.4628 137.557 61.957 139.592C63.6954 139.759 64.8883 139.657 66.5176 139.512C64.532 137.078 65.0994 134.512 67.0488 132.513ZM166.244 139.476L173.293 139.17C172.791 138.182 172.173 137.63 172.027 136.583C173.038 137.419 173.795 138.51 175.104 139.142C174.85 137.645 174.152 136.656 174.508 135.69L174.516 135.682C175.243 137.121 175.491 138.611 176.749 139.047C177.731 139.389 179.847 139.541 180.793 139.011C182.466 138.059 183.034 135.871 183.659 134.149C177.476 133.182 173.228 133.698 167.103 132.673L166.244 139.476ZM185.66 139.157C186.561 139.244 187.07 139.446 188.071 139.055C187.143 137.459 186.772 136.232 186.278 134.766L185.66 139.157ZM39.2383 134.287C37.8127 133.865 36.7139 134.251 35.5137 134.788C36.6848 135.857 36.4669 137.048 36.8887 138.495C37.2597 136.729 37.9362 135.507 39.2383 134.287ZM206.363 120.427C209.236 124.177 209.302 132.244 211.28 133.08C216.045 135.094 221.014 135.907 225.902 137.346C227.706 137.877 229.373 138.742 231.228 137.877C229.889 135.392 229.067 133.073 228.114 130.704L224.316 121.27C217.733 121.517 213.048 120.602 206.363 120.427ZM59.5195 137.172C59.5268 136.213 57.9049 135.421 57.4902 135.908C56.7921 136.736 57.1488 137.898 57.8398 138.102C58.3782 138.262 59.5128 138.32 59.5273 137.164L59.5195 137.172ZM206.072 131.867C205.352 133.952 204.632 135.617 204.319 138.03L214.423 137.957C211.36 135.799 207.687 136.482 207.091 133.676C206.945 132.986 206.669 132.281 206.072 131.867ZM71.8066 135.566C71.5156 134.912 70.3375 134.505 69.7119 135.101C69.2028 135.581 69.3768 136.496 69.6895 136.917C69.9513 137.266 70.6284 137.856 71.334 137.71C72.1341 137.543 72.0758 136.169 71.8066 135.566ZM221.901 125.682C221.938 125.21 223.058 124.49 223.531 124.751C225.022 126.975 225.611 129.774 226.375 132.39H226.368C226.717 133.575 227.837 135.711 226.637 136.271C226.142 136.503 225.255 136.219 225.044 135.522C224.171 132.629 221.785 127.296 221.901 125.682ZM140.703 128.567C139.379 127.601 137.583 128.683 136.862 129.984C135.997 131.554 135.982 133.291 136.331 135.042C138.637 135.762 140.733 134.374 141.097 131.845L141.089 131.852C141.242 130.769 141.598 129.228 140.703 128.567ZM198.427 129.614C196.113 130.028 194.404 131.14 193.407 132.986C194.571 134.228 196.077 134.767 197.706 134.658C198.426 132.783 198.943 131.234 198.427 129.614ZM216.816 123.247C218.264 124.483 218.199 125.914 218.628 127.295C219.232 129.207 220.723 133.371 218.999 134.105C218.526 134.308 217.827 134.483 217.435 133.684C216.94 132.681 216.969 131.554 216.605 130.486C215.798 128.095 215.522 125.537 216.816 123.247ZM157.675 126.772C156.082 126.917 153.143 130.202 153.885 132.201C154.627 134.199 157.566 134.265 158.934 132.964C160.301 131.663 160.709 130.042 159.385 127.986C158.941 127.295 158.453 126.699 157.675 126.772ZM115.454 133.422C115.41 132.209 118.763 127.477 117.425 128.204C115.57 129.308 114.909 131.467 115.454 133.422ZM210.647 124.454C210.902 124.156 211.536 123.123 211.979 123.668L211.972 123.676C213.507 125.573 215.667 131.395 214.074 133.226C213.834 133.502 213.092 133.08 212.903 132.629C212.27 131.103 209.906 125.312 210.647 124.454ZM194.972 125.871C193.248 127.368 191.967 129.665 192.629 132.107L195.852 128.545H195.858C196.535 127.797 195.517 126.379 194.972 125.871ZM183.339 51.4047C185.769 57.793 186.002 64.3123 185.675 71.0131C185.617 72.1687 184.983 73.0266 184.045 73.4408C187.711 76.8494 175.694 76.4713 171.3 78.7533C165.306 81.864 163.538 93.1006 162.789 99.3363C162.324 91.9377 161.516 86.3553 166.674 79.8071C162.556 80.4321 159.028 81.7916 155.136 82.6274L143.926 85.0473C137.626 89.1391 136.739 97.461 138.041 104.518C134.993 98.762 135.182 92.2064 138.594 86.4213C135.626 87.2425 133.276 87.075 130.701 87.3656C127.537 87.7218 124.699 89.1034 121.491 89.7865C119.447 92.7298 117.352 95.9565 117.469 99.641L117.891 112.955C137.423 110.455 154.94 105.993 174.646 104.198C174.705 101.138 175.395 98.231 176.741 95.433C177.832 93.1727 178.597 89.5246 180.75 90.186C183.804 91.1236 178.626 94.1839 177.709 102.672H177.724C177.433 105.404 179.528 103.871 179.39 105.673C179.353 106.138 178.953 106.494 178.393 106.596C177.331 106.785 177.767 108.152 177.207 108.639C176.465 109.279 175.679 109.605 175.687 110.703C175.046 109.358 175.17 108.086 174.436 106.953C173.163 106.502 167.758 108.653 169.802 108.137C166.375 108.995 162.963 109.111 159.639 110.172C161.319 110.063 162.644 110.659 164.019 110.666L170.412 110.717C171.387 110.724 172.493 110.274 173.185 111.321C172.719 111.873 171.933 111.75 171.147 111.88L171.7 116.553C172.202 120.812 171.823 124.933 171.787 129.432L182.619 130.631C182.372 127.826 182.386 125.158 181.921 122.44C181.688 121.081 181.28 119.838 181.2 118.371L180.546 106.262C180.393 103.508 181.543 94.7432 183.688 95.2592C185.136 95.6081 182.874 97.5846 183.368 99.685C184.663 97.6863 185.886 96.0004 187.93 94.4887C184.794 85.9563 188.839 76.2022 188.89 73.644C189.057 65.5478 189.661 57.8946 191.821 49.7621L183.339 51.4047ZM197.35 124.722C196.906 124.744 196.149 124.773 195.873 125.26C195.611 125.718 196.142 126.43 196.164 126.954C196.222 128.189 196.753 128.4 197.721 128.284C198.688 128.167 198.718 127.47 198.623 126.191H198.616C198.543 125.195 198.099 124.678 197.35 124.722ZM71.1152 105.048C72.832 104.547 73.9673 104.939 75.1748 106.56C74.5419 106.451 74.3596 107.411 73.7559 107.687C67.2741 110.696 51.9758 112.935 45.2324 115.704C51.5831 114.962 56.974 113.072 63.0264 111.938C61.8189 113.29 52.6032 115.913 52.2236 116.372C52.0781 116.546 52.7624 116.815 52.7842 117.04C53.0606 120.187 52.8712 123.327 52.1729 126.409C52.0783 126.83 51.6134 126.489 51.4385 126.423C50.4912 126.084 51.3265 118.038 51.8867 116.429C48.5363 117.356 30.7194 124.007 30.3711 120.005C30.2259 118.341 32.3426 118.945 35.7539 117.462C38.249 116.379 41.9884 115.645 41.3994 114.199C41.1521 113.588 38.6131 115.303 37.7256 113.508C41.0064 111.466 44.6072 110.761 48.1426 109.562C51.9835 108.254 55.7009 106.582 59.8037 106.291C61.5932 106.168 63.2299 105.666 64.9248 105.709C65.6376 105.731 66.2343 106.487 67.1289 106.226L71.1152 105.048ZM185.951 125.42C186.81 122.862 187.937 120.907 189.777 119.352C188.599 119.083 187.566 119.519 186.656 118.85C185.827 118.24 186.147 116.823 187.049 116.263V116.27C188.649 115.274 190.156 115.608 191.669 115.252C190.018 114.794 188.322 115.666 186.838 115.158L184.925 114.504L185.951 125.42ZM66.1074 112.774C66.2182 112.459 67.3187 112.283 67.3838 112.672C67.5002 113.414 68.1037 125.071 66.3506 125.413C65.3262 124.308 66.179 112.791 66.1074 112.774ZM168.914 112.055C168.092 111.99 167.546 112.549 167.233 112.919C166.724 113.522 167.037 114.227 167.146 114.961L168.688 125.289C169.547 123.189 168.929 121.56 169.285 119.794C168.871 117.2 168.732 114.773 168.914 112.055ZM88.1016 107.193L88.8438 122.324C91.6588 122.534 94.2193 122.324 96.998 121.859H96.9912L94.6562 106.568L88.1016 107.193ZM98.249 118.392C97.6019 117.556 98.0163 116.502 97.4053 115.398C97.2307 117.549 97.0496 119.584 97.2969 121.946L103.443 121.437C103.938 121.393 104.069 121.241 104.142 121.103C105.131 119.163 101.698 121.008 100.505 120.928C99.4793 116.422 100.127 112.011 99.7119 107.294L98.249 118.392ZM163.778 113.922C162.076 114.017 160.723 114.445 159.086 114.845L158.366 120.71C160.49 120.456 162.323 120.507 164.396 121.314L164.403 121.306C163.952 118.45 163.633 116.509 163.778 113.922ZM146.399 117.222C144.159 117.658 142.18 118.072 139.809 118.901C141.998 119.758 143.948 120.892 146.56 121.219C146.858 119.817 146.567 118.697 146.399 117.222ZM212.721 119.308C211.622 118.087 210.022 118.32 208.531 118.371L197.655 118.77C198.514 120.471 199.998 119.148 202.9 120.877C203.73 119.584 204.625 119.483 206.218 119.664H206.21C208.392 119.912 210.48 119.257 212.721 119.308ZM235.127 114.925C237.498 113.821 240.386 114.162 242.408 115.681C243.194 116.27 243.208 117.506 242.932 118.334C242.706 119.01 242.051 120.035 240.822 120.42V120.427C238.589 121.125 235.985 120.485 234.355 118.886C233.33 117.883 233.832 115.528 235.127 114.925ZM102.439 94.7426C102.294 97.359 102.069 99.9101 102.062 102.614L102.018 119.831C103.32 119.395 104.426 119.221 105.444 118.4C103.953 118.691 101.923 117.586 102.526 116.183L102.52 116.175C107.212 115.187 109.984 114.555 114.581 113.487C113.759 107.469 113.911 101.443 116.108 95.7817C116.763 94.0885 118.057 92.8458 118.188 90.7602L102.439 94.7426ZM187.944 95.4555C185.427 98.7768 183.943 102.817 183.71 106.902C183.652 107.868 184.947 109.053 184.271 110.288C189.076 109.875 191.847 108.176 197.498 107.919C191.262 104.593 191.099 101.193 187.944 95.4555ZM105.364 101.306C106.579 100.594 110.566 98.5727 111.795 99.5756C112.951 100.52 107.299 102.061 106.571 102.185C106.251 102.243 106.135 101.263 105.364 101.306ZM199.357 75.7299C196.666 75.6283 194.608 77.0021 194.004 79.8071C192.469 86.9876 193.939 94.5833 197.547 101.044C200.355 101.444 202.748 100.23 204.61 98.0932V98.0863C206.931 92.2504 208.421 85.4332 206.697 79.5463C205.119 76.9444 202.34 75.8462 199.357 75.7299ZM117.563 87.1186C112.697 84.4658 101.384 86.0505 101.552 92.686C103.108 92.2063 104.236 91.6608 105.393 91.0649L103.88 90.6869C108.463 88.8264 112.428 88.623 117.563 87.1186ZM129.974 79.6039C128.119 79.9455 126.365 81.6388 126.234 83.601C128.387 83.2812 130.082 82.613 131.894 81.7846C131.486 80.9997 130.81 79.5168 129.974 79.6039ZM142.246 73.0844C141.271 75.2066 140.652 76.9875 140.507 79.226C142.34 78.9426 143.533 78.616 145.09 78.1C144.326 76.1668 143.89 74.2909 142.246 73.0844ZM197.161 71.5219C193.902 71.958 191.436 74.611 190.716 77.5834C192.578 74.9816 194.484 72.8955 197.161 71.5219ZM153.434 69.8432C154.918 70.2429 155.82 69.2179 157.151 69.3705C154.649 70.7877 152.11 71.7621 149.287 72.7651C149.193 74.2185 148.902 75.5921 149.513 77.1401C151.63 76.3333 153.529 76.3769 155.158 75.6283C155.558 75.1556 155.158 73.6371 156.133 73.3901L166.069 70.8608C163.836 69.4363 163.146 67.372 163.611 64.7485L153.434 69.8432ZM94.0742 65.3305C97.7186 63.1066 101.414 61.9725 105.764 62.2631C108.193 62.423 110.616 62.0446 112.85 63.2074C114.057 63.8325 115.133 64.5383 115.417 65.7084H115.402C116.893 71.9222 102.993 78.2663 96.2275 74.1313C93.6306 74.8798 90.5894 74.7565 88.7344 72.6635C86.9812 70.6867 88.1087 67.837 90.0801 66.478C91.3022 65.635 92.9613 66.0064 94.0742 65.3305ZM112.675 66.6088C112.011 64.3196 97.4055 62.4162 93.9648 66.5658C93.332 65.7373 92.8369 66.2896 92.0439 66.6166C90.3564 67.3072 88.604 69.3198 89.9131 71.1293C90.9679 72.5829 93.5286 72.3873 94.9326 71.8422C95.0199 70.2942 95.3691 69.1897 96.2783 68.4194C97.1876 67.649 98.4676 67.1472 99.8643 67.6196V67.6117C100.985 67.9897 101.545 68.6372 101.64 69.4584C101.734 70.345 101.334 70.992 100.636 71.726C104.455 73.1574 113.38 69.0434 112.675 66.6088ZM75 61.3617C80.3612 54.7701 87.6861 56.4416 88.1084 58.8471C88.2684 59.77 88.029 60.8169 87.2363 61.3403C85.7087 62.3359 85.4169 63.8764 84.9805 65.4535C84.253 68.0626 81.5691 69.3633 78.9648 69.3197C76.848 69.2834 74.7677 68.5787 73.7783 66.7182C72.7235 64.7268 73.7561 62.888 75 61.3617ZM168.921 64.0873C168.113 64.9812 167.001 66.2099 167.357 67.2709C167.634 68.0917 169.321 67.8955 169.823 67.2416C169.94 65.8753 169.823 64.8577 168.921 64.0873ZM82.9004 61.6957C81.4455 60.6493 79.7937 60.9913 78.5498 61.769C77.306 62.5466 76.4043 63.7603 76.7607 65.5844C78.7321 66.3911 81.4668 66.1945 82.8926 64.2758L82.9004 64.2836C83.5114 63.4696 83.5769 62.1754 82.9004 61.6957ZM86.7051 59.3197C85.6795 58.2006 83.9771 58.5563 82.5732 59.1957C83.8171 59.5229 84.6753 60.5919 85.7373 61.4858C86.4574 61.2532 87.2139 59.8795 86.7051 59.3197ZM148.669 17.0942C150.975 16.9997 153.34 16.7883 155.173 18.518C157.406 20.6183 157.842 23.671 157.42 26.8832C159.777 26.2582 162.091 25.9674 163.938 27.3627C167.161 29.7829 166.935 36.1789 165.029 39.7983C163.669 42.3783 161.604 44.0213 159.465 45.9545C152.438 52.3137 143.359 55.9467 133.822 55.1547C131.08 54.9294 128.511 54.3921 126.198 52.7133L126.184 52.7055C118.793 58.4615 110.122 62.1397 100.73 59.2983C97.2896 58.259 94.2343 55.4165 94.6562 51.6518C94.9909 48.6866 95.6667 45.5322 97.0488 42.9086C99.1584 38.8896 102.658 35.2194 106.805 33.686L113.301 31.2729C118.145 29.4778 123.049 28.3589 128.09 30.1176C129.814 27.4795 132.185 25.8586 134.295 23.7582C138.252 19.8192 143.024 17.3122 148.669 17.0942ZM153.855 22.7338C152.481 17.8718 145.869 19.8922 142.813 21.5492C138.027 24.1438 133.523 27.0292 130.075 31.4262C132.92 33.7155 133.945 37.3492 132.25 40.3871C131.552 41.6442 129.835 41.9644 128.628 41.5649C127.58 41.216 126.416 40.5249 125.863 39.2748C125.034 37.3999 125.587 35.365 126.184 33.352C121.477 31.0699 115.504 32.7634 111.22 35.5033C106.935 38.2432 102.941 40.7292 99.7402 44.6537C97.5657 47.3139 98.0391 52.255 100.665 54.4643C103.575 56.9208 107.685 56.2239 110.907 55.0756C112.908 54.3634 114.29 53.2152 116.472 52.7572C114.486 54.8791 111.897 55.7879 109.431 57.5756C114.806 57.0813 120.742 54.5007 124.678 50.7143L124.671 50.7074C123.9 46.8847 125.391 42.6988 129.639 42.5024C130.628 42.4588 131.858 42.9162 132.272 43.7084C132.716 44.5442 132.6 45.613 131.981 46.3979L128.729 50.518C132.505 52.5311 136.477 52.3719 140.412 51.4926C147.33 49.9373 153.776 46.986 158.904 42.1166C161.21 39.9218 163.029 37.3269 162.992 34.1C162.978 32.8719 162.847 31.5788 161.923 30.9975C161.123 30.4887 160.228 29.8703 159.122 30.1537C155.507 31.0769 153.215 34.3617 151.848 32.1596C150.648 30.2266 153.681 28.1409 150.524 28.0463C151.026 27.538 151.965 28.126 152.532 27.7045C154.205 26.4545 154.379 24.5796 153.855 22.7338ZM128.686 34.391C127.893 34.8272 127.828 35.9317 127.799 36.811C127.77 37.6904 128.032 38.5554 129.596 39.0278H129.603C130.461 37.4434 130.126 35.6411 128.686 34.391ZM183.492 20.3422C187.544 16.6504 195.087 17.6609 198.645 20.5824C202.704 23.911 200.187 29.1579 197.248 32.1449C200.405 31.9269 202.093 29.7106 204.486 27.9809C202.988 31.055 200.267 33.1988 196.979 34.2963V34.2895C189.021 36.9568 175.264 40.4889 168.55 34.1586C166.622 32.3345 166.441 30.2049 166.972 27.8285C168.696 20.1538 176.952 18.9323 183.492 20.3422ZM197.052 22.392C193.866 20.5751 189.756 20.1681 186.358 21.8832C187.26 23.1405 187.871 24.1146 187.689 25.4809C187.573 26.353 187.107 27.5374 185.979 28.017C184.692 28.5692 183.296 28.2788 182.394 27.4213C181.492 26.5637 181.448 25.1026 181.39 23.6781C178.058 22.4936 170.1 23.5407 170.173 28.4028C170.246 33.2646 179.717 35.0012 183.528 34.478L183.536 34.4711L194.84 32.9155C197.626 30.7278 200.813 24.536 197.052 22.392Z" fill="#012E4E"/>
</svg>
