<svg width="151" height="257" viewBox="0 0 151 257" fill="none" xmlns="http://www.w3.org/2000/svg">
<path fill-rule="evenodd" clip-rule="evenodd" d="M66.4912 245.109C68.9715 244.15 71.2143 245.032 73.5918 245.412L85.7227 247.338L104.871 249.612C107.962 249.979 110.866 249.496 112.723 246.347C114.425 247.216 113.237 248.369 112.723 249.303C110.654 253.051 107.473 255.712 102.969 255.151L89.0391 253.419H89.0322C82.581 252.62 76.5661 252.581 70.2627 251.01C72.3317 249.702 74.5361 251.061 76.7979 251.1C81.8161 251.19 86.5389 251.802 91.5186 252.395C97.34 253.084 108.135 256.047 109.838 249.838C105.025 251.261 100.624 250.224 95.8047 249.554L87.9141 248.459C80.5826 247.441 73.495 246.72 66.4912 245.109ZM58.1514 248.948C61.5696 248.259 64.7185 248.756 67.7705 250.411C64.2944 250.411 61.364 249.547 58.1514 248.948ZM94.6221 239.905C97.4172 239.699 116.539 240.601 113.076 245.541C111.528 247.75 108.052 245.426 105.27 246.952V246.945C102.423 245.503 99.9107 246.533 97.1992 245.754C99.7632 244.479 109.985 247.016 111.425 244.099C109.24 242.289 106.51 241.973 103.728 241.49L94.6221 239.905ZM5.21094 240.201C6.5088 241.534 7.31208 242.784 8.9375 243.886C7.84518 245.393 6.66297 244.536 5.74414 243.809C4.82536 243.081 4.00944 241.676 5.21094 240.201ZM76.6699 242.463C81.386 242.566 85.3441 243.957 89.6426 244.523C85.0164 245.219 80.7243 243.931 76.6699 242.463ZM30.0068 241.232C34.646 240.614 39.2084 242.115 44.1367 242.282C49.3864 242.463 54.1998 243.106 60.0342 243.821L60.0273 243.828C56.8853 244.749 53.5439 243.886 49.9648 243.558C43.1924 242.939 36.7472 242.643 30.0068 241.232ZM141.124 111.006C141.934 115.373 140.366 119.167 140.25 123.398L135.861 156.513L128.53 202.321L121.012 239.873H121.006C120.691 241.451 120.106 242.868 119.053 243.377C120.01 231.848 122.74 221.329 124.591 209.98L134.03 152.133C136.318 138.111 137.59 124.545 141.124 111.006ZM7.59473 239.307C11.874 238.585 15.6073 239.713 20.3428 240.711C16.1214 241.233 11.9703 239.854 7.59473 239.307ZM0 233.87C0.713234 233.29 1.73525 231.345 3.0332 232.105C4.20875 232.795 4.45331 234.566 6.10449 234.965C6.86894 235.152 6.74026 236.389 6.12988 236.659C5.30735 237.02 3.25125 234.83 2.46094 235.674C2.67946 236.872 3.64901 237.355 3.49512 238.243C1.34953 237.457 1.19531 235.57 0.00683594 234.521L0 234.515V233.87ZM16.5264 155.392C15.8774 166.87 14.194 177.575 12.8125 188.911C11.3282 201.053 8.46899 212.544 3.97754 223.758C3.27722 225.497 3.10316 226.824 3.61719 229.284H3.60449C2.56353 229.071 0.765012 227.467 0.694336 226.153C5.70615 215.184 8.81621 203.996 10.6475 191.932L16.5264 155.392ZM74.7803 72.8555C75.455 71.7991 76.9719 71.1031 78.6875 71.3994C83.0243 72.1464 84.6239 70.4726 86.4551 72.2178C89.8221 75.4255 82.6263 74.35 82.2793 79.3418C82.2516 79.7061 77.634 88.7261 78.0127 91.2959C80.9425 88.3137 82.4009 84.3524 85.7549 81.8662C86.8087 81.5635 87.2328 84.005 86.5195 84.9776C78.8539 95.4314 73.3923 106.961 70.8799 119.921L63.375 158.689C61.6144 167.791 59.7189 176.429 58.9414 185.652L56.6992 212.131H56.7051C56.3774 216.008 55.497 219.448 54.0898 222.662C50.9413 229.863 41.952 224.022 37.0879 221.11C34.8648 219.777 33.4902 217.368 33.9141 214.566C35.4626 204.254 37.7696 194.457 41.1494 184.512L54.9766 143.823L67.9561 104.983C70.07 98.6519 71.7924 92.5203 73.4502 86.0986C74.9409 80.3146 69.1452 75.5609 74.2275 76.8233C74.2854 75.4385 74.0029 74.0793 74.7803 72.8555ZM68.3418 116.288C66.3758 119.167 65.5724 122.427 64.4736 125.911C60.702 137.872 57.4378 149.543 52.0791 160.976C45.7371 174.508 40.0759 187.855 37.4414 202.656C36.7346 206.611 35.1801 211.906 36.96 215.636C39.0164 219.938 45.4865 221.407 49.7529 222.463V222.456C54.951 217.142 55.6771 198.18 56.9365 190.837L62.4814 158.612L68.3418 116.288ZM88.5693 182.934C89.7645 189.162 85.6784 207.668 90.5811 212.408C94.6741 216.363 101.594 216.054 106.677 214.379L106.683 214.386C108.398 213.819 108.874 215.501 108.849 216.241C108.706 220.917 94.4803 220.531 88.3506 215.842C82.6898 211.513 86.5389 189.858 88.5693 182.934ZM50.9355 188.898C51.4174 193.562 51.2625 198.367 50.999 203.269C50.607 210.592 45.0489 216.196 42.8643 214.837C41.7978 214.173 41.0336 212.28 42.2539 211.378L42.248 211.371C42.6208 211.166 43.5202 212.569 43.957 212.279C47.8059 209.761 49.4895 205.407 50.3184 200.827C51.0251 196.917 49.9011 193.111 50.9355 188.898ZM112.344 194.812C113.044 194.721 113.956 195.178 114.207 196.209C115.049 199.591 117.992 209.581 115.197 211.011C114.645 211.294 113.339 211.332 112.967 210.476C112.222 208.769 112.967 206.875 112.466 205.065C111.791 202.618 109.054 195.25 112.344 194.812ZM105.334 145.176C105.662 144.964 106.587 145.267 106.657 146.026C107.917 158.986 109.754 192.813 103.792 203.776L104.203 186.309L104.909 162.573C104.986 159.99 105.179 157.614 103.766 155.34C104.543 152.519 103.901 146.11 105.334 145.176ZM56.416 153.962C56.7693 153.679 57.3347 153.517 57.7588 153.826C58.0351 154.026 58.2149 154.664 58.0479 155.295L51.8477 178.599H51.8408C50.2409 184.615 49.0529 199.455 49.5605 198.534C45.6602 205.684 49.4055 181.149 50.0352 178.676L56.0244 155.05C56.1464 154.574 56.2299 154.11 56.416 153.962ZM117.587 3.7422C118.384 2.33164 120.311 0.316025 122.053 0.927748C126.332 2.43497 123.846 11.6907 124.495 18.6729C125.08 24.9786 124.276 30.9172 124.199 37.2744C124.058 49.944 122.804 62.2143 119.649 74.4072C120.671 76.0562 120.896 78.073 120.723 80.0762L117.355 119.746C116.276 132.467 114.67 144.596 113.841 157.407L111.927 186.959C111.837 188.337 112.363 189.722 110.814 190.18C110.191 179.307 110.648 168.918 111.085 158.084C111.49 148.191 111.798 138.967 113.225 129.08C116.335 107.58 117.954 86.5812 119.952 64.9649C121.199 51.445 122.194 38.627 122.316 25.0235C122.349 21.3646 124.449 9.26829 119.405 7.70314L119.399 7.70997C112.158 28.9075 107.429 52.1147 110.995 74.7422C114.034 74.6652 117.445 77.3712 116.058 79.9346C113.687 84.3015 111.63 88.2562 110.737 93.2285C109.195 101.795 106.047 109.782 104.44 118.323L99.7051 143.431C98.555 140.139 99.512 136.874 99.5635 133.686C96.6336 138.877 96.2733 144.133 94.2686 149.176C94.2493 141.382 96.5628 134.626 98.6768 127.309C102.641 113.602 104.684 99.8564 107.325 85.8535C109.369 75.026 104.724 76.4104 104.936 64.8809C105.148 53.3514 107.358 41.5772 109.562 29.8223C111.277 20.6631 112.993 11.8773 117.587 3.7422ZM36.9209 76.9844C37.1649 84.0761 31.427 97.6085 28.7861 104.14C30.5339 94.5426 33.7403 85.8859 36.9209 76.9844ZM87.7344 78.8516H87.7275C87.7293 78.8505 87.7307 78.8487 87.7324 78.8477C87.7329 78.849 87.7339 78.8502 87.7344 78.8516ZM99.2871 13.5068C108.585 21.0107 102.507 55.5284 99.1846 65.5059C96.6601 70.567 93.2873 75.4984 87.7324 78.8477C86.3416 74.7307 98.0536 66.9649 98.6895 57.957C98.2268 57.3388 97.3402 57.0807 96.46 56.3272C99.3578 52.849 99.6726 48.6625 100.54 44.3213C102.615 33.8996 101.979 23.9801 99.2871 13.5068ZM149.503 50.0088C149.439 56.7462 148.584 62.8396 147.434 69.2871C146.579 62.6721 147.999 56.3339 149.503 50.0088ZM82.8057 17.5518C83.5188 17.4874 84.8682 18.1252 84.9648 19.336L85.6523 28.2383L85.8193 52.1406C87.3228 51.0585 86.372 49.326 87.5029 48.1279C87.7471 49.1327 86.9311 59.0771 84.0527 57.3389L84.0459 57.3457C85.4081 55.2459 84.823 53.3324 84.7588 51.1231L84.0391 27.4004C82.4264 29.6483 83.4093 32.2248 83.2295 34.7432C81.9444 42.8203 80.5571 50.7949 76.6953 57.8994C80.6598 45.1977 83.1977 33.1076 81.4629 19.9551C81.3472 19.0792 82.1888 17.6099 82.8057 17.5518ZM94.333 38.4727C95.5924 42.5756 96.7557 54.6717 91.5449 57.5254C90.549 58.0729 89.8231 57.2357 89.6816 56.7783C89.3797 55.8252 90.272 55.387 91.165 54.8203C95.4958 52.07 93.382 42.7753 94.333 38.4727ZM49.8232 30.5244C52.0401 25.4939 63.2979 29.9386 67.3652 31.2783C62.4691 31.8966 58.5496 30.0348 53.1523 29.9639L44.9727 50.8652C45.2554 45.3777 47.2983 40.7274 49.0781 35.7744C49.6821 34.0933 49.0908 32.1798 49.8232 30.5244ZM126.621 43.4063C129.506 42.1825 144.433 45.6479 147.254 46.627C139.961 46.4273 133.355 44.8813 126.621 43.4063ZM96.9229 16.625C97.8094 16.6122 98.2914 17.4424 98.9531 18.3955C98.7154 24.1087 99.7626 29.5195 98.7539 35.5547C96.8714 30.6596 97.9509 26.0157 96.8779 21.0176C95.0017 22.4926 95.875 24.676 94.9883 27.0205C94.2109 25.9055 94.1985 16.6508 96.9229 16.625ZM88.2998 17.9776C88.5311 17.1724 90.0478 16.1414 90.4141 16.9336C91.153 18.5439 91.0301 20.5345 90.5996 22.4024C89.6809 21.0755 90.7095 19.703 89.6943 18.6983L88.2744 25.584C86.938 22.9433 87.7279 20.438 88.2998 17.9776Z" fill="#012E4E"/>
</svg>
