<svg width="192" height="240" viewBox="0 0 192 240" fill="none" xmlns="http://www.w3.org/2000/svg">
<g clip-path="url(#clip0_9_2135)">
<path d="M95.2889 83.0208C95.0831 83.1106 91.4413 83.8726 92.8446 83.4525C92.6852 83.4989 92.8707 83.8437 92.7722 84.0783C91.8588 83.3569 91.0673 82.4182 89.8959 81.9865C89.5798 81.8706 88.8665 82.4414 88.5824 81.8793C88.1591 81.0449 87.3704 80.7755 86.7035 80.2858C86.2251 79.9352 86.8137 79.1066 86.7934 78.6721C86.7267 77.3016 84.7493 79.208 82.7428 77.8289C82.1687 77.4349 81.4902 78.0868 80.9828 77.9912C79.9912 77.8 79.1011 78.0057 78.1384 77.9535C77.1091 77.8985 76.3089 77.3857 75.207 77.8463C74.5924 78.1013 74.2908 77.406 74.1487 76.9714C73.7138 75.6589 75.929 76.2326 75.9493 74.0451C75.958 73.1064 77.2019 72.921 77.5527 72.3995C77.8369 71.9765 77.9616 71.8027 78.4226 71.4521C80.5073 69.8789 82.0817 67.7059 84.3926 66.4051C84.9957 66.0661 88.275 64.0293 88.6549 63.7251C89.7915 62.8067 91.4732 62.6473 92.5199 61.6333C93.0505 61.1205 92.5634 60.0253 92.5721 59.2807C92.6069 56.0763 92.9867 52.9792 92.4938 49.8588C92.1633 47.7612 92.4996 45.7447 92.5402 43.6384C92.5721 42.0391 91.9081 40.492 91.8994 38.9188L91.8733 33.6516C91.8472 28.3873 91.4906 23.2041 91.7138 17.9658L91.1339 11.0559C90.96 8.99593 91.4964 11.1022 91.3311 7.75301C92.7461 6.58832 91.8269 6.65785 91.8153 3.73741C91.8095 2.52346 91.8095 0.582303 93.2158 0.0231326C93.7899 -0.202853 93.6391 1.06035 93.845 1.34138C94.4162 2.12364 94.3002 3.25068 94.1523 4.25023C93.8218 6.48691 94.3205 8.65406 94.2335 10.8241C93.065 11.6759 93.8334 12.7971 93.9349 13.8401C94.2625 17.2386 93.8885 20.5473 94.0189 23.9371C94.1059 26.1767 94.2654 28.367 94.0131 30.4907C93.8711 31.6757 94.0334 32.7737 94.0276 33.9993C94.0276 34.1876 93.6217 34.3701 93.5782 34.515C93.5289 34.6859 94.0914 34.7467 94.1117 34.8887C94.3901 36.6734 94.4945 38.5161 94.3959 40.3819C94.2567 43.1111 95.083 48.6043 94.9468 52.6228C94.8772 54.6886 94.8482 56.8963 95.6253 58.765C95.7876 59.1532 95.6629 60.1006 95.489 60.486C95.1845 61.1581 95.3527 62.1982 95.2831 62.8617C95.2396 63.2644 94.0189 63.8178 94.5466 64.3799C95.2483 65.1274 99.2728 65.6865 97.5882 66.6513C98.1217 67.3785 98.748 66.7325 99.1423 66.6803C100.853 66.4601 101.737 68.2622 102.941 69.0763L105.167 70.58C106.362 71.3883 107.244 72.4458 108.577 73.173C109.004 73.4077 109.221 74.1494 109.325 74.5058C109.392 74.7318 107.774 77.0525 107.873 76.9279C107.661 77.1973 107.151 76.9279 106.716 77.0872C97.681 80.4162 102.039 75.8849 96.6894 77.9043C97.0141 78.2056 97.4635 78.2664 97.5563 78.5851C97.9854 80.0251 95.7644 80.0859 95.3614 81.3143C95.2222 81.7402 95.9152 82.7398 95.2976 83.0092L95.2889 83.0208ZM102.77 73.5207C103.842 73.1788 104.648 73.9843 105.53 73.344C104.422 72.9094 103.663 72.64 103.039 72.0924L101.378 70.6322C100.366 69.7427 99.1916 69.6036 98.6871 68.1811C98.6291 68.0159 95.4107 65.9821 95.028 67.8595C94.9845 68.0652 95.3498 68.3433 95.1584 68.5143C95.0657 68.5983 94.9323 68.8619 94.7322 68.6302C94.6771 68.5664 94.5408 68.3781 94.48 68.4476C93.8537 69.1575 92.6678 69.2299 92.2299 68.6968C90.7628 66.9092 93.1317 65.8865 92.72 65.3476C92.143 64.5943 89.9886 65.9183 89.9597 65.9386C89.2638 66.5065 88.4954 66.6919 87.7328 67.1352C86.6339 67.7755 85.8424 68.8359 84.4245 68.7345C84.4477 69.1662 84.6391 69.3834 84.497 69.4559L83.7866 69.8151C83.7518 69.8325 80.8379 73.0977 80.6059 73.6163C81.1887 74.0393 81.5859 73.6482 82.0121 73.57C82.9951 74.6304 84.5057 74.3522 85.796 74.1378C86.0076 74.1031 86.4571 74.7752 86.863 74.642C87.0196 74.5898 86.8978 74.4797 87.2138 73.9611C87.9938 75.3576 89.2203 74.3349 90.2496 74.3899L92.3024 74.4971C93.8537 74.5782 95.4542 75.4329 96.9793 74.9317C100.073 73.9176 104.872 75.2678 102.764 73.5236L102.77 73.5207Z" fill="#2E2E1F"/>
<path d="M27.9917 128.545C27.5103 128.829 26.8319 129.212 26.365 129.394C25.4488 130.321 25.9881 131.727 24.4862 131.558C23.5438 131.454 24.1179 131.04 23.3322 130.058C23.28 129.994 23.3583 129.858 23.4685 129.797C23.538 129.759 23.8019 129.936 23.9643 129.901C24.2658 128.971 25.0081 127.244 24.5065 126.648C24.2774 126.372 24.0599 126.245 23.5003 126.48C23.2075 126.604 23.1872 126.917 23.0103 127.357C22.9291 127.563 22.3608 127.554 22.3087 127.804C22.2652 128.012 22.7088 128.189 22.7378 128.618C22.2855 128.96 22.1231 128.215 21.4533 128.386C21.8186 127.508 21.9665 126.558 21.8041 125.413C21.201 125.396 21.1663 125.784 20.5487 125.857C20.0789 124.62 18.203 124.66 17.655 123.875C16.8489 122.719 16.0834 121.992 15.0251 121.311C13.4797 120.314 14.2191 118.66 14.5525 117.643C14.9063 116.565 15.1904 115.876 16.0805 115.015C16.4343 114.56 15.7732 113.21 16.472 112.677L16.6546 116.047L18.2813 111L19.3396 112.503C20.1659 111.428 21.0938 110.675 21.9259 109.725C23.538 107.888 23.0161 106.648 25.7793 106.239C26.0664 106.196 26.2462 106.659 26.4462 106.975C27.9656 105.863 28.1163 107.204 30.9056 107.332C30.8187 107.804 30.4562 107.656 30.0764 107.795C30.1982 108.664 30.8593 109.238 31.6189 109.594C31.8828 109.209 31.9727 108.951 32.0219 108.653C32.0857 108.262 31.761 108.085 31.4044 107.523C36.3364 106.68 34.5967 104.347 36.1247 104.327C38.9778 104.287 35.3013 105.15 39.5896 106.15L40.3319 108.186C40.6943 108.183 40.7349 107.899 41.1321 107.633C41.4221 108.337 42.3122 108.56 42.7211 109.163C43.7417 110.663 38.8502 112.025 41.4743 114.992C42.1992 114.752 43.301 113.659 44.281 114.552C44.5448 114.792 44.6144 115.259 44.3738 115.49C44.1331 115.722 43.7678 115.858 43.2372 116.18C43.9012 116.988 44.0983 117.927 43.3155 118.68C42.8573 119.121 42.521 119.573 42.3441 120.126C41.2829 118.686 41.5323 120.743 40.4479 120.885C39.9463 120.952 37.8499 119.599 37.5803 120.74C37.3686 121.635 37.0903 122.203 36.5828 122.951C36.203 123.51 36.1711 124.446 35.3013 124.672C33.5877 125.121 32.6163 124.197 32.6308 124.272C32.6018 124.136 33.0107 123.997 33.0832 123.687C32.5728 123.493 32.5352 124.136 32.0306 124.298C31.8683 123.965 31.9553 123.739 31.8393 123.6C31.6334 123.356 31.3319 123.611 31.0709 123.808C30.5896 123.249 30.6302 122.363 29.6444 122.16C30.6273 126.349 28.7194 124.298 32.5323 127.166C32.4859 126.312 32.0828 125.674 32.5207 124.892C33.5123 125.46 33.5732 126.387 33.4137 127.204C33.0774 127.187 32.9034 126.914 32.4685 127.134L34.0951 129.189C32.5091 129.386 30.8361 130.64 30.2765 129.548C29.4849 129.866 28.7049 129.258 27.9917 128.545ZM34.7678 118.729C34.7794 118.556 35.3941 118.935 35.4984 118.541C35.5332 118.405 34.6431 118.014 34.5967 118.066C33.5297 119.283 33.4833 120.917 33.0281 122.328C37.2816 117.643 34.7098 119.642 34.7678 118.729Z" fill="#2E2E1F"/>
<path d="M12.8738 165.949C12.3664 163.651 10.763 154.957 12.3809 153.23C12.8129 152.937 13.474 153.72 13.4624 154.166C13.4305 155.354 12.5345 154.893 12.578 156.156C12.5838 156.316 12.5896 156.597 12.9492 156.542C13.1144 156.518 13.2304 156.136 13.3203 156.095C13.8306 156.597 13.4189 157.098 13.3754 157.399C13.6451 158.066 14.3554 158.83 14.3438 159.827C14.9411 159.595 14.6454 159.19 14.6541 158.642L15.1586 159.279C15.3268 158.688 15.1267 158.251 15.5355 157.831C16.4779 158.914 16.3271 160.195 16.617 161.339C17.1969 163.637 18.0494 165.758 18.4814 168.136C18.9743 170.871 19.0381 173.627 19.3252 176.466C19.4527 177.729 19.0178 178.984 19.2237 180.383L20.0007 185.668C20.2936 187.67 20.6995 189.559 20.3284 191.633C20.0297 193.293 20.6995 194.855 21.1808 196.393C22.1927 199.635 21.1663 199.916 22.5726 202.576C23.2221 203.807 22.9379 205.32 23.1061 206.693C23.7034 207.139 27.0755 209.506 27.7047 209.046L27.5829 205.384C27.4901 202.579 25.0284 191.462 24.4457 185.007L23.512 174.644L22.2362 164.741C22.0333 163.173 21.9579 161.676 21.9115 160.097L21.7607 155.22C21.7317 154.27 21.7143 153.276 22.6045 152.648C23.1206 153.592 22.9524 154.69 23.0945 155.797L23.3496 157.802C23.6744 157.645 23.6193 157.399 23.9788 157.115C24.2601 157.399 24.5239 158.074 24.1209 158.286C23.9846 158.355 23.6773 158.442 23.6222 158.518C23.57 158.59 23.657 158.717 23.744 158.804C23.8107 158.871 23.9469 158.738 24.2079 158.729C25.1676 160.476 24.2514 162.472 26.1824 162.86C26.5101 167.485 27.2901 170.335 27.7424 175.174L28.1193 179.207L28.4875 184.697C28.618 186.638 28.9196 188.38 29.1428 190.231C29.311 191.642 29.1283 192.804 29.7488 194.232C29.8358 194.429 31.1116 201.446 30.1316 202.188C32.0916 204.651 30.1084 203.602 31.4247 208.194C31.6741 209.06 31.1551 210.263 31.8017 211.036C32.4888 211.862 33.6457 211.349 34.2952 210.758C35.0404 210.077 36.1364 209.95 36.8584 209.141C37.2556 208.698 36.2553 207.635 35.7624 207.765C35.3158 207.881 35.4318 208.191 35.11 207.829C34.8316 207.516 34.8374 207.472 35.0926 207.102C34.6635 206.832 33.9734 206.563 34.1299 205.928C35.3564 200.962 31.935 204.158 33.6138 199.89C32.8919 199.117 33.1354 198.135 33.5269 197.193C33.7037 196.773 32.5033 195.823 33.3935 195.437C33.321 196.156 33.2949 196.527 33.9763 196.121L33.3442 189.924C33.3268 189.75 33.1644 189.446 33.06 189.376C32.9441 189.301 32.8194 189.596 32.6106 189.704C32.1989 189.188 32.1467 188.498 32.4801 187.91C32.5729 188.8 32.8136 188.976 33.0136 188.293C32.8223 186.598 32.5062 185.12 32.3729 183.544L31.8741 177.752C31.8654 177.639 31.1203 177.732 31.1406 177.631C31.1725 177.477 31.0594 177.051 31.2913 176.93C31.4305 176.857 31.6248 177.382 32.0423 177.46C31.8017 175.768 31.7727 174.102 31.8365 172.259C32.0017 167.383 31.3145 162.663 30.7897 157.782C30.6419 156.42 30.0098 155.235 30.3432 153.815C30.9144 153.778 30.6042 154.453 31.1696 154.85C31.1029 154.111 30.8564 152.764 31.7524 152.37C32.2946 152.132 32.2134 153.314 32.3091 153.528C33.9879 154.302 32.5004 155.951 34.4692 155.959C35.5536 157.585 34.6403 159.097 35.2926 160.224C36.2466 161.873 35.9247 163.527 36.09 165.32C36.3655 168.31 36.4061 171.164 36.3597 174.119L36.2756 179.65C36.2292 182.695 37.5426 185.5 37.7369 188.527C37.7717 189.078 37.7021 189.73 38.137 190.251C38.0849 190.431 37.7746 190.364 37.6731 190.422C37.5311 190.503 37.534 190.729 37.5629 190.964L38.3429 197.903C38.6851 200.957 38.3893 201.916 38.5169 203.312L39.033 208.924C40.4421 209.214 42.005 208.794 43.4518 209.321C43.9679 209.509 44.0201 210.781 45.0059 210.654C44.9624 211.485 45.09 212.088 44.8697 212.824C44.4579 212.714 44.2492 212.215 43.9766 212.357C43.6084 212.548 43.5214 213.116 43.1677 213.119C41.6802 213.125 41.6802 211.184 40.3117 210.894C39.3635 210.694 37.8529 211.488 37.6006 212.354C37.8529 212.745 38.63 213.108 38.5836 213.551C38.5517 213.878 38.5662 214.623 38.2327 214.695C37.7166 214.154 37.6586 214.982 37.2034 215.217C35.4579 214.62 32.8832 214.774 31.7379 214.698C30.9173 214.643 27.2582 212.899 26.7536 212.56C25.6199 211.792 24.6167 211.891 23.3989 211.526C21.4679 210.946 19.4788 210.222 17.6898 209.419C16.6692 208.962 16.0574 208.162 14.8338 207.887C13.7001 207.632 12.8042 206.316 11.6647 205.902C10.9021 205.624 9.406 205.798 9.3915 204.879C9.3799 204.187 9.83802 205.525 9.60026 203.674C9.57127 203.442 9.69305 203.086 10.0149 203.063L13.848 202.788C13.4189 202.066 12.7491 202.483 12.2069 202.156C11.3284 200.661 10.5049 198.986 10.6934 197.193C10.8528 195.669 10.0903 194.464 9.89601 193.09L9.16534 187.901C8.46366 182.91 6.70947 178.341 5.76713 173.433L4.2652 165.59C3.92886 163.834 3.58382 162.101 3.41275 160.337L3.1112 157.217C3.03002 156.376 4.08253 155.487 4.38118 154.757C4.98717 155.971 4.29129 156.936 5.11765 157.889C5.65405 156.857 5.14374 155.924 5.3902 154.861C6.31514 154.316 7.99684 160.123 7.33866 158.964C8.2636 160.592 7.93595 162.417 8.46076 164.048C9.22913 166.436 9.61766 168.6 9.88151 171.115C9.98009 172.053 12.1025 177.341 12.4186 180.881C12.3896 180.571 13.3029 189.582 13.0652 188.301C13.4508 190.39 14.3583 192.074 14.1351 194.365C14.0481 195.258 14.222 196.987 14.6077 197.729C16.0226 199.062 16.1009 202.194 14.9266 203.164C15.6863 203.883 16.7939 203.949 17.9479 204.204C18.1074 203.016 18.406 201.687 18.0146 200.484C16.1038 194.617 16.8084 190.608 16.0168 186.175C15.695 184.367 15.6109 182.808 15.4079 180.971L14.9208 176.599C14.512 172.937 13.6624 169.466 12.8854 165.937L12.8738 165.949ZM15.3152 164.109C14.9382 167.296 17.1215 168.951 16.4286 172.059C16.3967 172.204 16.9882 172.39 17.0346 172.268C17.5536 170.834 16.1328 165.691 15.3181 164.109H15.3152ZM17.7913 181.53C17.4753 181.643 17.3477 181.835 17.2085 182.064C18.1712 183.784 16.8229 184.596 18.0001 185.01C19.5426 185.552 17.4231 182.501 17.7942 181.53H17.7913Z" fill="#2E2E1F"/>
<path d="M27.3596 148.716C23.6976 145.604 24.7588 148.893 18.7916 148.655C18.0755 148.626 17.9827 148.687 17.484 149.113C16.3822 150.058 14.6541 149.217 13.4653 149.643C11.8879 150.208 10.5629 150.614 8.81159 150.524C7.99683 150.483 7.13278 151.153 6.25134 150.779C5.50327 149.035 4.85088 152.361 2.96621 150.837C2.59508 150.536 2.06737 151.312 1.60925 151.243C0.82349 151.127 -0.295714 149.881 0.0696221 148.864C0.490048 147.696 1.67884 146.056 3.0329 145.619C4.27678 145.216 5.96429 145.193 7.39373 145.066L17.5159 144.173L20.8851 144.246C22.2507 144.275 26.1157 144.483 26.9943 144.362C28.3831 144.167 29.282 144.066 30.5317 144.492C30.0475 144.327 33.9676 144.695 33.2514 146.494L36.1451 148.142C36.4031 148.29 36.6264 148.742 36.5858 148.942C36.3712 149.994 31.4682 149.165 30.2997 148.986C29.2994 148.829 28.415 148.957 27.8525 149.895L26.5188 148.954C26.8116 148.794 27.0726 148.762 27.3596 148.713V148.716Z" fill="#2E2E1F"/>
<path d="M8.45211 187.664C7.86351 186.033 7.60546 184.439 7.14154 182.631C8.17956 184.063 8.38832 185.853 8.45211 187.664Z" fill="#2E2E1F"/>
<path d="M59.915 166.644C59.628 170.205 61.0081 174.435 59.0713 176.063C58.7465 175.962 58.6653 175.356 58.5291 175.235C58.271 175.003 58.013 175.834 57.7317 175.774C54.5017 175.075 55.4556 165.662 55.3541 163.046C54.6872 162.041 53.539 160.963 52.9881 159.775C52.4372 158.587 51.4601 157.787 50.7352 156.828C49.1753 154.763 49.2362 152.532 47.3979 149.634C47.1979 149.322 46.2526 149.296 46.2236 148.817C46.1048 146.839 44.7275 145.515 44.078 143.828C43.617 142.635 44.1476 141.05 42.8776 140.317C43.675 139.262 45.4727 140.778 45.3625 140.543C45.4031 140.63 45.3625 140.778 45.2436 140.847C45.1624 140.893 45.0609 140.862 44.8 140.847C44.7188 141.25 44.9537 141.571 45.1943 141.838C45.4524 141.195 46.0845 141.137 45.8496 141.641C46.6296 141.679 46.9862 141.757 47.7024 141.907C47.5139 142.412 46.9833 141.994 46.6702 142.53C47.5951 142.939 48.3809 143.182 48.7143 144.02C48.4707 144.078 48.3432 144.159 48.2011 144.182C47.4095 144.318 48.9521 144.767 48.9695 144.764C49.1869 144.698 49.3464 144.573 49.5465 144.205C49.5928 144.121 49.7755 144.437 49.8712 144.454C50.2104 144.512 49.5638 144.99 49.6508 145.115C50.28 146.007 50.7642 147.05 51.318 148.082C51.4543 148.334 51.8283 147.827 51.982 147.809C52.1705 147.789 52.3358 148.122 52.3937 148.31C52.4459 148.484 52.4024 148.673 51.9878 148.983C53.5361 150.93 54.4988 153.152 55.2758 155.585C55.3483 155.817 55.5484 156.026 55.6586 156.101C55.8383 156.226 56.0094 156.052 56.1515 155.913C55.6296 156.417 56.6299 151.729 57.7114 150.107L60.8487 145.399C61.3909 144.585 61.9534 144.634 62.7536 144.318C63.8235 143.898 64.9746 142.855 66.2765 143.536C66.4853 143.646 66.5433 144.315 66.9492 144.098C67.1377 143.996 67.3493 143.414 67.6625 143.31C68.2395 143.695 68.1293 144.547 68.4308 145.239C69.8371 145.323 71.0607 141.774 71.4898 140.723C71.6783 140.262 73.6586 138.468 73.6702 138.521C73.6296 138.344 73.1831 138.034 73.1454 137.704C74.3545 136.924 75.5085 135.768 76.3059 134.502L78.7211 130.669C78.1499 130.901 77.4859 131.144 77.051 130.788C75.9579 129.89 75.1634 130.907 74.311 130.869C73.1309 130.817 72.1074 130.756 70.994 130.857C69.6544 130.979 68.2685 129.924 66.9347 130.866C66.5752 130.374 66.3693 130.11 65.9141 129.919C65.2327 130.718 65.9721 131.645 65.8329 132.46C65.2704 135.76 63.2146 138.393 61.4054 141.082C61.1038 141.531 59.1206 146.265 58.3232 144.854C56.5023 141.626 59.1844 140.404 57.8477 137.127L59.9092 133.601C60.263 132.996 60.7269 132.604 61.0864 132.077C61.6054 131.309 61.6286 130.298 62.5014 129.762C59.5642 129.956 60.5471 128.664 59.4279 128.771C58.3087 128.879 58.8248 130.75 57.8042 130.762C57.494 130.765 57.1547 130.669 56.5168 130.452C56.1776 132.46 55.1251 134.082 54.1972 135.829C54.5423 135.18 52.8809 140.285 51.9443 140.462C51.3557 140.572 51.1847 139.459 51.0658 139.019C49.8915 134.69 53.4173 128.963 53.8203 127.749L54.4814 125.752C54.8061 124.773 54.5481 124.168 55.8731 124.034C58.2565 123.794 56.7923 127.082 59.5613 126.523C59.4917 126.752 59.138 126.81 59.1235 127.03C64.2208 131.556 62.3506 127.917 64.7775 129.047C65.5516 129.406 66.4302 129.539 66.9579 130.292C67.619 129.785 66.581 129.038 66.8332 128.789L68.2859 127.352C68.8658 126.778 76.9582 125.477 78.379 125.993C78.2514 126.596 77.9673 127.134 78.2398 127.67C78.6283 127.384 78.84 127.204 79.1357 127.105C79.3706 127.027 79.7504 127.543 79.9621 127.485C80.571 127.32 80.9943 127.265 81.6293 127.337C82.4238 127.43 83.3168 126.752 84.2041 127.187C84.7289 127.444 84.8796 128.293 85.3349 128.815C83.8822 130.695 82.734 132.567 81.609 134.621C81.293 135.197 80.426 135.418 80.2057 136.148C79.8316 137.373 79.0923 138.387 78.1818 139.239C77.0916 140.259 74.3168 145.642 73.7978 146.184L71.7971 148.281L71.8609 150.22C71.8725 150.553 72.1277 150.993 71.8725 151.106L70.8838 151.544C71.5623 152.213 73.2295 152.332 74.2008 151.749C74.6154 149.475 75.5955 147.409 76.6857 145.294C77.0742 144.541 76.8944 142.991 78.0629 142.811C78.5964 142.73 79.2459 143.061 79.7939 142.924C78.7182 143.794 76.445 146.584 77.7411 147.696C77.9615 147.296 77.9412 147.131 77.9673 147.015C78.0397 146.702 78.3819 146.702 78.5443 146.815C79.1213 147.215 77.9789 150.452 77.6918 150.982C77.1699 151.938 76.3435 152.645 76.2421 153.856C75.8941 153.853 75.81 153.72 75.5607 153.592C74.9518 154.041 74.4879 154.655 74.2878 155.397C77.3149 157.837 74.456 158.509 74.7169 162.012C74.7807 162.892 74.8967 163.295 74.6531 164.15L72.8931 170.341C72.8497 170.492 72.2727 170.811 72.2031 170.683C72.1335 170.556 71.8464 170.092 71.9682 169.95C72.609 169.2 72.4089 168.406 72.638 167.693C73.0149 166.505 73.389 165.364 72.6206 164.08C71.8029 165.569 72.7743 167.612 71.2462 168.07C72.5278 169.127 70.5214 170.842 70.4286 170.854C70.1009 170.886 69.3964 170.254 69.492 169.802C69.8893 167.913 70.3097 166.047 70.4547 164.037C70.5156 163.176 71.2375 158.712 72.2872 158.315C70.533 156.353 69.3645 155.197 68.9788 152.679C68.9382 152.425 68.541 152.074 68.5439 151.862C68.5468 151.651 68.8223 151.24 69.002 151.312C69.2949 151.509 69.5906 151.854 69.8342 151.918C70.0632 151.978 70.7794 151.303 70.5359 151.124C65.9808 147.716 69.408 145.471 67.2768 145.801C66.9579 146.847 65.8358 146.934 64.9282 147.259C63.4669 147.783 63.032 149.487 62.3013 150.692C60.9501 152.917 59.425 155.133 59.1467 157.793C59.251 156.797 59.28 163.692 59.1873 162.973C59.3583 164.266 60.0107 165.341 59.9063 166.638L59.915 166.644ZM58.3638 171.856C58.7204 169.959 57.9202 169.04 58.0043 167.606C57.665 169.029 57.6679 170.498 58.3638 171.856Z" fill="#2E2E1F"/>
<path d="M81.5163 141.447C82.5572 139.5 84.8333 138.063 85.0507 136.327C85.0942 135.994 84.5839 135.733 84.3694 135.76C83.6126 135.855 83.2154 137.182 82.908 137.144C82.6761 137.115 82.2208 136.95 82.2353 136.771L83.8069 135.012C85.9496 132.613 87.5501 133.43 86.2482 132.129C86.6368 131.863 87.1297 131.703 87.5153 131.521C88.4489 132.393 88.333 133.219 87.7676 134.021L86.312 136.093C85.6741 137 85.4132 137.704 84.5491 138.437C84.8565 138.176 81.6757 142.284 81.5134 141.444L81.5163 141.447Z" fill="#2E2E1F"/>
<path d="M57.9348 235.448C55.7022 230.659 55.6268 229.694 56.1226 224.294C56.3198 222.135 56.0095 220.047 56.7489 218.062C57.0157 219.157 56.8185 220.203 56.7431 221.298C56.4677 221.834 56.92 221.878 57.2012 221.475C57.2505 221.237 57.4506 212.714 58.8626 215.437C58.9322 214.982 59.2077 214.443 59.0859 213.913C58.8278 213.896 58.7612 214.087 58.6655 214.142C58.4074 214.287 58.1262 214.02 58.1639 213.739L59.3266 205.334C59.8195 205.16 59.8079 205.763 59.9963 206.183C60.3559 205.273 60.324 204.28 60.8198 203.283C61.1503 202.62 62.5653 202.165 63.2525 202.536C64.0759 204.338 63.4409 211.662 63.1597 213.861L62.6233 218.059L62.3391 223.859C62.2173 226.331 61.6316 228.706 61.7041 231.16C61.7389 232.299 60.9068 233.032 60.4139 233.794C59.9905 234.449 60.2515 235.48 59.718 236.219C59.4512 236.587 59.0511 236.384 58.8017 236.318C57.8797 236.08 59.4628 231.966 57.9261 235.443L57.9348 235.448Z" fill="#2E2E1F"/>
<path d="M82.5457 225.461C83.201 224.981 83.1575 224.184 82.8327 223.604C82.2268 222.529 82.508 221.608 82.5022 220.577C82.4964 219.763 82.0122 218.864 82.6791 217.874C83.1198 217.219 83.2358 216.431 82.5196 215.869L83.0589 215.535C83.1314 215.489 82.969 215.225 82.9255 215.237L82.421 215.35C81.7744 215.495 81.6527 212.786 81.2351 211.511C80.0898 208.032 79.9797 205.424 79.104 201.487C78.6981 199.659 78.6836 197.819 78.1066 196.017C77.7644 194.945 78.037 193.887 77.9268 192.864C77.8456 192.091 77.3411 191.433 77.4484 190.538C77.5789 189.46 76.6568 188.449 76.9468 187.562C77.6514 185.407 74.288 185.3 73.5486 183.906C75.3637 183.932 76.4133 185.34 77.7731 186.183C78.8228 186.835 79.507 187.302 79.8173 188.605L82.853 201.397C83.1691 202.724 83.4156 203.967 83.5808 205.326L83.9954 208.767C84.0737 209.408 86.5789 218.282 86.4281 220.753C86.3179 222.582 86.8109 224.43 86.9036 226.2C87.1066 230.068 89.3131 229.9 88.8144 231.346C88.7042 231.667 88.3012 232.053 87.7503 232.16C87.3328 232.241 86.8746 231.841 86.3962 231.439C86.1121 231.201 85.5409 231.618 85.4191 231.421C83.9288 229.014 86.6282 227.976 82.5457 225.459V225.461Z" fill="#2E2E1F"/>
<path d="M70.1416 183.408C69.8604 183.466 69.9764 184.092 69.8575 184.335C69.6081 184.155 69.4255 183.796 69.15 183.367C69.901 182.356 71.3565 182.484 72.5656 183.477C71.8437 183.712 71.1362 183.463 70.1416 183.408Z" fill="#2E2E1F"/>
<path d="M114.773 209.463C114.773 207.693 114.657 206.088 114.536 204.326L113.663 205.911C113.393 206.398 112.578 205.827 112.013 206.006L111.021 206.316C110.714 206.412 110.685 205.731 110.442 205.441C110.175 206.117 107.826 204.932 107.881 204.199C107.383 204.039 107.348 204.763 107.394 205.311C107.069 205.181 107.046 204.923 106.864 204.795C106.852 204.787 103.915 205.1 103.61 205.398C103.071 204.555 104.498 199.632 106.278 200.11C106.11 200.557 105.365 201.026 105.77 201.481C106.026 201.768 106.852 201.345 107.22 201.716C107.751 202.249 108.484 202.883 109.186 202.848C109.601 202.298 109.421 201.881 108.777 202.437C108.299 202.112 108.473 201.629 108.832 201.345C109.235 201.026 109.601 201.182 110.007 201.562C110.816 202.324 110.578 203.326 110.558 204.436C111.007 204.448 111.413 204.233 111.662 204.404C111.993 204.63 111.935 205.102 111.854 205.549C112.251 205.624 112.468 205.389 112.697 205.233C112.515 205.357 113.587 202.347 113.414 202.06C113.701 202.017 113.912 202.075 114.051 202.072C114.298 202.063 114.524 201.565 114.434 201.252C114.031 199.856 114.481 198.598 114.457 197.242L114.344 191.129C114.315 189.62 114.843 188.684 115.997 187.783C117.281 186.783 118.415 185.401 120.155 184.993C120.799 184.842 121.883 185.981 121.813 186.482C120.674 187.652 119.117 188.356 118.212 189.727C117.038 191.509 117.873 193.986 118.911 195.66C117.235 196.75 120.097 197.749 119.563 199.728C119.349 200.519 119.546 201.249 119.413 201.889C119.218 202.819 118.914 203.59 119.041 204.798C118.093 204.74 118.928 204.161 118.447 203.773C117.771 204.317 118.395 204.943 118.253 205.546C118.195 205.783 117.806 205.975 117.705 206.151C117.542 206.435 117.867 206.742 117.916 207.104C118.067 208.205 117.467 209.289 117.693 210.384C117.786 210.839 118.409 211.25 118.061 211.711C120.955 212.598 117.296 215.837 118.757 220.594C119.001 221.388 118.624 222.008 118.711 222.724C119.073 225.682 118.824 228.808 117.69 231.58C116.913 231.67 115.939 231.552 115.153 232.334C114.289 231.441 115.026 228.515 113.886 228.321C113.77 228.48 113.764 228.802 113.796 228.901C113.883 229.161 113.573 229.364 113.376 229.289C113.234 229.234 112.944 228.993 112.935 228.718L112.839 225.302C112.744 221.947 114.773 211.558 114.773 209.474V209.463Z" fill="#2E2E1F"/>
<path d="M130.677 150.153C128.978 149.403 128.549 147.974 127.836 146.563C127.218 145.344 126.073 144.138 126.714 142.554C126.969 142.157 127.783 141.505 128.276 141.372C128.769 141.238 129.091 142.012 129.166 142.348C129.912 145.726 132.527 146.94 130.677 150.15V150.153Z" fill="#2E2E1F"/>
<path d="M172.54 224.523C173.215 225.207 171.316 225.372 172.83 227.13C172.38 227.452 171.789 228.058 171.461 228.932C170.693 227.455 171.331 226.087 170.852 224.697C170.475 223.602 169.655 220.907 170.76 220.386C170.951 220.296 171.499 220.646 171.369 220.817C170.951 221.368 171.2 221.684 171.168 222.054C171.099 222.837 172.07 222.553 172.36 222.912C172.285 223.706 171.36 224.204 171.902 224.917C172.059 224.885 172.479 224.456 172.543 224.523H172.54Z" fill="#2E2E1F"/>
<path d="M102.526 202.86C102.657 202.973 102.674 206.134 102.668 206.157C102.506 206.699 101.65 206.815 101.297 207.287C100.14 207.151 100.47 200.455 100.87 200.055C101.482 200.942 100.818 201.718 100.943 202.475C101.018 202.941 101.697 203.341 101.578 204.074C102.074 203.674 101.63 203.205 101.888 202.718C102.016 202.478 102.393 202.744 102.529 202.86H102.526Z" fill="#2E2E1F"/>
<path d="M111.027 185.575L110.404 184.917C111.248 182.431 112.173 184.306 113.611 182.44C114.092 183.046 113.495 183.228 113.28 183.616C113.011 184.109 111.833 187.029 110.914 186.305C110.772 186.192 110.688 185.972 111.027 185.575Z" fill="#2E2E1F"/>
<path d="M111.114 194.591C112.048 194.56 111.784 195.342 111.804 196.034C112.251 195.695 112.842 194.699 112.144 194.142L113.332 193.07C113.025 194.884 112.66 196.663 111.465 198.349C110.708 197.118 111.164 196.06 111.114 194.591Z" fill="#2E2E1F"/>
<path d="M109.717 198.676C109.044 197.816 109.264 196.793 109.134 195.765C109.586 195.206 109.691 194.594 110.436 194.223L109.717 198.676Z" fill="#2E2E1F"/>
<path d="M133.281 149.064C133.278 147.624 133.751 146.323 134.557 144.961C134.615 146.424 133.954 147.676 133.281 149.064Z" fill="#2E2E1F"/>
<path d="M118.678 179.229L118.014 181.12L118.849 181.413L119.513 179.521L118.678 179.229Z" fill="#2E2E1F"/>
<path d="M113.393 178.285C112.81 178.083 113.124 177.515 112.776 176.875C112.135 177.981 110.966 178.691 110.549 179.83L107.693 187.603C107.171 189.023 106.017 190.109 105.454 191.488L103.428 196.483C103.231 196.97 101.833 197.147 101.529 196.75C100.725 195.623 101.691 194.003 101.821 192.885C102.822 184.257 105.249 183.764 108.6 176.417C106.994 176.339 101.189 178.01 100.209 177.897C98.8262 177.735 97.5359 177.216 96.2109 178.343C95.9093 178.598 95.4483 177.813 95.2221 177.912C94.0652 178.422 89.0607 177.57 88.2721 177.697C87.35 177.845 86.0423 177.483 85.3378 177.709C83.7054 178.233 82.3107 177.289 81.1074 177.031C79.9041 176.773 79.0401 177.144 77.9035 176.159C77.3265 175.661 75.7462 175.637 75.8187 174.215C75.7636 173.832 74.685 173.485 74.8242 172.937C75.0417 172.08 75.5201 171.239 76.2363 170.837L77.1844 171.61C76.6944 171.717 76.4827 171.686 76.416 171.793C76.3638 171.88 76.5842 172.335 76.7669 172.274L80.0665 171.19C80.3101 171.364 80.1796 171.868 79.9679 171.912C79.6664 171.978 79.3909 171.955 79.0256 172.152C79.6925 173.276 81.3742 172.873 80.1187 173.722C81.3626 173.508 82.4557 173.766 83.6242 173.659C87.5617 173.296 88.3445 174.942 88.994 172.83C89.397 173.401 89.8929 174.058 90.4496 173.615C90.6351 173.25 89.9219 172.937 89.6957 172.592C90.5597 172.645 91.0962 172.847 91.7456 172.955C91.4818 173.195 91.0788 173.146 91.0324 173.276C90.928 173.575 91.1889 173.693 91.3078 173.757C90.5337 173.343 99.8062 174.739 100.151 174.122C97.9013 173.154 95.7643 173.43 93.4389 173.36C93.3607 173.195 93.3056 172.946 93.4447 172.888C95.6628 171.993 96.2399 172.59 96.5008 172.61C97.994 172.737 99.177 173.172 100.548 173.789C99.09 174.215 107.4 172.033 104.443 172.529C107.733 171.978 109.282 170.063 111.161 171.744C112.839 171.645 112.932 169.93 113.738 168.412C115.266 165.538 113.761 164.718 115.434 163.089C115.292 162.939 115.116 162.916 115.095 162.846C114.501 160.992 116.545 164.541 117.073 163.44C117.374 162.814 117.911 158.292 117.084 157.098C116.4 157.964 113.208 161.777 112.639 162.203C109.546 164.541 109.766 166.195 106.811 166.03C104.312 165.888 105.599 164.622 104.173 163.75C103.831 163.541 103.207 163.707 102.912 164.054L101.068 166.221L97.9998 168.093C97.504 168.394 97.0082 167.78 96.6603 167.757C93.9695 167.592 92.4473 165.952 91.3571 163.666C89.226 159.195 89.2695 154.07 91.7543 149.774C92.4763 149.994 92.9257 149.733 93.2853 149.093C94.4132 147.082 96.9183 149.797 97.8433 150.292C98.5189 149.154 99.4989 149.078 100.551 148.919C101.018 148.849 101.772 148.18 102.335 148.308C102.749 148.403 103.297 148.777 103.776 149.232C106.904 152.21 107.867 158.628 105.849 162.049C106.234 162.336 106.62 162.782 106.846 163.04C107.069 163.11 110.12 159.81 109.334 159.758C110.012 158.938 111.346 158.717 112.274 158.031C115.046 155.982 113.956 155.093 117.308 151.434C117.458 151.269 119.537 148.557 120.071 148.707C120.201 148.809 120.213 149.281 120.343 149.264C120.52 149.241 120.799 149.142 120.909 149.07C121.483 148.696 119.123 147.566 119.233 147.58C117.708 147.38 115.936 146.022 115.922 145.712C115.904 145.303 116.168 144.744 116.693 144.454C117.38 144.075 118.189 144.564 118.969 144.793C120.703 145.306 122.724 145.41 124.197 146.532C125.429 147.473 126.516 148.444 127.952 149.168C129.387 149.892 130.494 150.985 132.069 151.468L133.194 149.382C132.927 150.808 132.176 151.828 132.24 153.152C131.622 152.37 130.958 152.193 130.144 151.807C129.416 152.506 129.54 157.24 130.767 158.364L131.35 156.33C131.666 156.869 131.3 157.544 131.944 157.521L133.211 151.13C133.33 150.533 137.05 140.54 137.207 140.334C137.279 140.242 137.537 140.462 137.616 140.517C137.758 140.618 137.929 140.082 138.068 140.053C139.526 139.749 140.677 138.758 142.034 138.251L145.667 136.895C145.082 138.147 143.345 137.171 142.281 139.523C143.238 139.425 143.673 138.692 144.47 138.315C145.067 138.031 146.471 138.202 146.804 137.481C147.155 128.586 142.614 132.17 143.899 129.409C142.997 129.916 142.652 128.902 142.243 128.363C139.97 128.511 137.871 127.427 136.496 125.561C136.003 124.892 135.113 124.941 134.936 123.713C134.739 122.348 134.713 120.711 134.194 119.335C133.429 117.304 132.704 115.308 132.826 113.007C132.944 110.753 134.667 108.983 135.893 107.143C136.633 106.037 136.444 104.368 137.752 103.646C137.842 103.869 137.726 104.066 137.691 104.156C137.589 104.423 137.908 104.553 138.016 104.463C138.143 104.353 138.251 103.945 138.297 103.736C137.903 103.307 137.056 103.423 136.441 102.925C136.479 102.311 137.282 102.392 137.546 101.896C137.946 101.149 138.349 100.425 139.329 100.361C139.532 100.645 139.442 100.929 139.599 100.998C140.019 101.181 140.321 100.587 140.55 100.514L145.157 99.0455C146.198 98.7124 147.033 97.9156 148.155 98.1706C148.068 98.4053 148.01 98.892 148.21 98.9992C149.231 98.6515 149.805 98.8196 150.515 99.1325C151.316 99.483 151.391 100.184 151.861 100.853L153.867 103.725C154.003 103.922 154.549 103.661 154.679 103.812C154.868 104.029 154.975 104.408 155.001 104.742C155.056 105.515 155.665 105.599 156.422 105.631C155.36 106.886 157.428 106.066 157.851 107.074C158.069 107.59 160.394 110.003 161.238 112.373C162.783 116.719 161.815 119.509 163.128 122.371C163.627 123.455 163.563 125.002 164.508 125.909C165.004 126.384 165.926 126.584 165.735 127.534C165.543 128.485 166.503 128.221 166.764 128.551C168.808 131.136 167.689 128.383 169.922 132.373C171.856 135.829 171.876 135.734 172.981 139.787C175.402 138.892 177.884 138.663 180.473 138.903L189.502 139.74C190.166 139.801 191.526 140.427 191.288 141.247C190.833 142.823 189.276 144.214 187.588 144.385C187.649 145.79 187.904 147.456 187.316 148.945L185.405 153.781C184.764 155.4 184.608 157.133 184.115 158.836C183.86 159.72 182.969 160.407 182.851 161.305C182.662 162.736 182.076 163.84 181.734 165.181L180.311 170.738C179.528 173.801 176.643 184.092 176.712 186.902C176.822 191.442 171.374 197.089 177.362 194.991C177.692 195.234 177.863 195.6 178.049 195.999L174.694 196.063C174.158 196.072 173.848 196.637 173.7 197.103L172.218 201.727C172.073 202.182 171.29 202.982 171.946 203.393C172.427 203.692 173.044 204.146 173.537 204.358C173.793 204.468 174.268 203.802 174.541 203.834C175.686 203.973 174.773 204.535 176.738 204.624L177.576 207.16C175.086 208.55 175.976 207.345 173.137 207.609C172.308 209.327 170.91 210.619 169.081 211.306C167.135 212.036 165.387 213.392 163.349 213.844C160.896 214.391 157.987 213.429 156.201 214.391C154.902 215.092 152.867 213.702 151.507 214.125C149.811 214.652 148.538 214.501 146.807 214.437C144.856 214.365 143.02 214.779 141.002 214.339C140.437 214.214 135.421 213.89 134.925 212.638C134.586 211.781 134.02 211.468 133.342 210.88C132.884 210.483 133.681 209.379 134.096 209.078C133.707 208.504 133.011 208.611 132.44 208.33C132.278 206.621 136.108 209.251 134.064 206.844C136.14 205.957 138.12 207.901 140.222 208.139L142.574 208.405C143.655 208.527 146.131 208.84 146.682 207.855C146.943 206.212 147.651 205.389 148.579 204.112C149.585 202.73 148.668 200.128 149.434 198.589C150.199 197.051 150.417 195.739 150.37 193.98C150.292 190.993 151.51 188.174 151.881 185.279C151.985 184.462 151.936 183.55 151.948 182.692L151.994 179.531C152.014 178.123 152.171 176.901 152.354 175.591L153.055 170.547L153.638 166.899L155.636 156.446C155.801 155.577 156.538 154.354 155.952 153.633C155.45 153.016 154.537 153.972 154.015 154.125C152.635 154.531 151.11 153.914 150.802 152.401C150.599 151.413 149.68 150.657 149.44 149.823C148.851 147.786 148.616 145.781 147.92 143.762C147.39 142.22 147.691 140.421 146.9 138.9C143.751 140.54 145.189 139.262 143.18 141.14C142.469 141.803 141.217 141.479 140.312 142.067C140.915 144.918 139.561 146.653 138.326 150.185C137.659 152.094 136.317 153.954 136.183 156.043C136.088 157.588 136.549 159.178 135.687 160.647C135.168 161.531 135.771 162.229 135.679 162.945C135.134 167.177 133.417 170.46 132.895 173.172C132.597 174.725 132.524 176.394 132.063 177.929L131.416 180.093C130.955 181.632 130.071 182.707 130.312 184.489C130.349 184.775 130.242 188.733 128.618 188.33C129.146 190.185 129.801 192.236 131.127 193.78C131.819 194.588 135.357 194.081 135.047 194.183C135.49 194.041 135.992 190.941 136.09 190.46C136.435 188.817 137.082 187.325 137.343 185.645C137.459 184.909 137.798 184.242 138.398 183.825L137.572 189.683C138.494 188.643 137.961 187.131 138.578 185.949C139.868 183.474 141.083 177.187 141.791 177.608C142.029 177.75 141.895 178.054 141.826 178.314L139.779 185.731C139.399 187.105 139.019 194.31 137.326 195.075C136.995 195.226 136.673 194.881 136.279 194.788C133.861 194.212 130.344 195.159 129.813 194.226C129.372 193.453 127.983 193.516 126.905 191.071L124.782 186.262C124.058 184.616 123.315 181.675 121.465 179.893C120.509 178.972 120.082 177.515 119.036 176.646C117.795 175.62 117.395 174.337 117.16 172.801C116.902 173.667 116.522 174.096 115.742 174.253C117.383 175.979 114.501 175.09 113.385 178.291L113.393 178.285ZM143.876 127.836C143.067 126.456 142.388 125.819 141.974 124.718C140.779 123.577 140.822 121.864 140.619 120.343C139.915 119.9 138.874 120.309 138.251 119.958C137.323 119.436 137.833 117.924 136.459 117.405C136.177 118.246 138.219 121.734 136.905 122.009C137.36 123.979 137.714 126.251 139.935 126.729C141.339 127.03 142.536 127.838 143.873 127.838L143.876 127.836ZM144.664 127.607C144.844 127.717 145.514 127.636 145.395 127.418C144.632 125.99 144.105 124.643 143.652 123.049C143.612 122.907 143 123.316 143.064 123.458C143.122 123.591 143.513 123.826 143.516 124.003C143.531 125.176 144.815 127.699 144.661 127.607H144.664ZM174.477 140.859C176.103 139.581 177.811 140.056 179.861 139.578C179.4 138.773 173.764 139.535 173.848 140.502C173.862 140.685 174.262 141.03 174.48 140.859H174.477ZM167.791 195.46C168.733 195.4 169.89 195.403 170.281 194.777C170.707 194.096 171.131 192.708 171.073 191.877C170.899 189.454 171.319 187.389 171.902 185.074L173.465 178.853L176.147 167.514C176.237 167.134 176.08 166.627 176.567 166.491C176.756 166.439 176.976 166.717 177.368 166.534C177.136 166.158 176.741 166.036 176.712 165.714C176.712 165.714 178.095 161.438 178.304 160.803L180.334 154.592C180.557 153.908 180.276 153.175 180.69 152.509C183.607 147.821 180.073 150.718 182.613 146.085C182.558 146.618 182.769 146.943 182.787 147.201C182.801 147.392 183.465 147.476 183.541 147.282L184.352 145.208C184.593 144.593 183.025 144.411 182.529 144.712C181.83 145.135 181.114 145.005 180.424 144.802C179.551 144.544 179.084 145.639 178.646 145.657L178.058 145.683C177.974 145.686 177.887 146.077 178.058 146.149C179.281 146.676 178.69 148.809 178.13 149.298C177.832 149.217 177.687 148.739 177.527 148.939C177.304 149.217 177.356 149.388 177.327 149.516C177.298 149.643 178.09 149.69 178.087 149.829C177.994 153.297 177.417 156.776 176.419 160.137C175.877 161.959 175.616 163.188 175.17 164.668C174.642 166.415 173.798 168.073 173.903 169.967C173.987 171.506 172.897 172.494 172.601 173.806L171.832 177.208L169.829 187.38C169.667 188.203 168.84 188.805 169.266 189.999C168.463 189.782 168.895 189.22 168.486 188.834C167.909 189.353 168.53 189.996 168.539 190.622C168.559 192.271 167.588 193.702 167.788 195.452L167.791 195.46ZM156.251 149.536C157.361 148.948 158.222 148.586 158.695 147.717C158.066 147.485 157.906 148.157 157.483 148.287C157.1 148.403 156.596 148.174 156.456 148.618C156.372 148.89 155.856 149.156 156.248 149.536H156.251ZM162.905 196.599C163.038 196.683 163.25 197.074 163.346 196.686L163.931 194.261C164.36 192.476 164.268 190.471 164.914 188.814C165.471 187.392 165.549 186.036 165.854 184.558C166.393 181.956 167.057 179.47 167.382 176.819C167.608 174.977 168.344 173.23 168.475 171.387C168.568 170.054 169.861 165.598 170.319 163.26L171.995 154.728C172.331 153.013 173.729 153.247 171.244 150.011C173.265 149.635 170.484 149.837 169.838 147.522C169.127 148.056 169.229 149.003 169.774 149.249L171.232 149.913C170.499 150.2 170.041 149.472 169.403 149.365C169.037 150.391 169.281 151.616 168.855 152.483C167.411 152.32 167.228 161.395 167.118 161.942L166.384 165.549C166.147 166.717 165.961 167.942 165.694 169.133L164.94 172.494C164.372 175.026 164.16 177.468 164.288 180.105C164.358 181.551 164.024 182.985 163.995 184.439C163.955 186.583 163.792 188.608 163.143 190.637C162.676 192.091 163.122 196.735 162.911 196.599H162.905ZM99.4351 164.39C96.9473 163.585 98.1854 165.419 94.1203 163.052C93.9434 165.561 95.6252 166.076 97.5852 166.714L103.86 161.221C104.869 160.337 103.219 153.418 102.712 152.086C102.297 150.99 100.914 149.826 99.8526 150.475C99.438 150.73 99.8874 151.761 100.056 152.005C100.418 151.518 100.285 151.132 100.363 150.657C101.833 151.176 100.621 152.694 101.859 153.227L102.088 155.229C102.169 155.951 102.326 156.179 102.175 156.852L101.27 160.902C100.662 161.464 99.1973 161.806 99.3655 162.936C99.4061 163.205 100.021 163.478 99.9744 163.709C99.9396 163.88 99.7424 164.492 99.4293 164.39H99.4351ZM98.8581 158.917C99.5743 158.1 99.6236 157.437 99.5192 156.71C98.919 156.385 98.2782 156.652 97.7012 156.02C98.5275 155.507 99.293 155.704 100.085 155.351C100.754 153.928 99.6033 152.312 98.7682 150.599C98.0984 151.014 98.2608 151.631 97.8723 152.051C97.0517 151.75 96.3239 151.431 95.602 151.874C94.4741 152.564 93.9869 154.974 94.3784 156.09C94.8423 155.956 94.8307 155.507 94.9177 155.018C96.1906 155.081 96.7762 156.087 97.4547 157.066C97.9042 157.715 98.6783 158.071 98.861 158.914L98.8581 158.917ZM157.074 180.815C156.575 182.463 156.436 186.021 156.367 187.962C156.338 188.759 155.795 189.437 156.007 190.344C156.068 190.605 155.659 191.019 155.54 191.251C155.439 191.448 154.923 191.036 154.699 191.135L153.743 192.647C154.647 192.801 154.694 192.01 155.262 191.54C155.856 193.119 154.293 194.096 153.754 194.93L154.224 200.907C155.54 200.542 156.723 200.061 157.877 199.259C158.124 195.843 158.463 192.627 159.382 189.414C159.768 188.07 159.469 186.89 159.446 185.563C159.42 184.063 159.846 182.542 159.611 180.971C159.359 179.279 160.472 177.017 160.391 174.887C160.31 172.758 160.82 171.039 161.197 169.046C161.47 167.606 161.641 166.256 161.992 164.805C162.4 163.118 164.001 152.378 161.47 152.422C161.316 152.798 161.359 153.433 160.933 153.621C160.249 153.925 159.472 153.627 158.976 154.227C159.658 154.447 160.066 153.914 160.774 154.059C160.687 155.977 160.588 157.825 160.33 159.731C160.252 160.317 159.327 160.212 158.944 160.656C159.202 161.128 160.061 160.815 159.898 161.684C159.165 161.363 158.002 161.012 157.46 161.586C156.277 162.84 156.059 164.503 157.219 165.706C157.654 165.352 157.405 164.628 157.848 164.483C158.231 164.358 158.182 166.03 158.266 165.937L157.831 166.421C158.39 166.656 158.753 166.563 159.043 166.978C158.332 167.438 158.077 168.171 157.796 168.959C157.764 169.246 158.425 169.376 158.927 169.29C158.28 170.527 158.622 171.68 158.347 172.795L157.947 174.406C157.222 177.332 157.637 178.932 157.068 180.812L157.074 180.815ZM126.76 183.805L128.015 177.382C128.172 176.576 128.517 175.811 128.111 174.951C128.74 173.824 128.714 172.529 129.085 171.274C129.198 170.889 129.593 170.475 129.462 170.202C129.367 170.002 128.792 169.562 128.868 169.327C129.3 167.992 129.538 166.778 129.506 165.413C129.488 164.689 129.92 163.918 128.926 163.509C125.838 162.24 123.495 156.466 121.99 153.534C121.251 153.074 120.256 154.418 120.155 155.119C119.842 157.298 120.598 158.723 121.277 160.598C122.619 164.303 119.746 174.287 120.996 175.956L123.272 178.99C123.814 179.711 124.391 180.389 124.927 181.09C125.617 181.991 125.809 183.222 126.757 183.808L126.76 183.805ZM95.9818 162.325C96.9154 162.099 97.4054 162.519 97.794 163.562L99.0582 161.548C99.3771 161.038 99.2495 160.696 99.0813 160.221C98.9132 159.746 98.1448 160.25 97.8955 160.024C97.0053 159.219 96.3326 158.202 95.3468 157.454C95.2511 157.382 95.4222 156.889 95.3091 156.768C95.1641 156.614 94.88 156.507 95.0337 157.04C93.9058 157.634 93.5027 158.92 94.3059 159.943C94.9931 159.056 94.4277 158.717 94.5523 158.126C94.938 159.271 94.4277 160.053 95.1235 160.685L95.3091 159.813C95.8049 159.821 95.5904 160.56 95.5295 160.919C95.4947 161.116 95.2511 161.024 94.8481 161.229C95.283 161.667 95.5469 162.058 95.9847 162.327L95.9818 162.325ZM163.847 166.021C164.198 166.076 165.158 166.007 165.41 165.584C166.002 164.59 166.112 163.336 165.964 162.183C164.865 163.11 165.312 164.425 164.778 165.506C164.482 165.115 164.129 164.935 163.96 165.193C163.873 165.326 163.679 165.865 163.85 166.021H163.847ZM116.183 172.216L116.658 169.608C117.041 170.501 116.235 171.425 116.934 172.311C117.058 171.807 117.232 165.175 116.185 166.285C115.414 167.105 115.64 168.296 115.469 169.347C115.411 169.701 114.507 169.707 114.472 169.979L114.295 171.321C114.185 172.155 113.356 172.691 113.124 173.583L114.011 174.502C114.188 173.073 116.017 173.134 116.185 172.219L116.183 172.216ZM164.001 171.019C165.117 170.118 164.874 168.904 164.175 168.157C163.667 169.104 163.662 169.988 164.001 171.019ZM162.244 178.477C162.308 178.891 162.67 178.995 163.343 179.366C163.868 178.552 163.293 177.718 163.485 176.817C163.601 176.272 163.63 175.84 163.198 175.49C162.885 175.235 162.612 174.823 161.899 175.272C162.108 175.438 162.354 175.568 162.409 175.858C162.45 176.072 162.09 176.263 162.081 176.643C162.073 177.022 162.685 176.73 162.995 176.666C163.169 177.949 162.145 177.839 162.244 178.474V178.477ZM154.38 203.828C153.905 204.12 154.247 205.074 153.821 205.288C152.794 205.807 151.806 206.195 151.237 207.316C152.351 207.076 153.464 206.98 154.467 206.58C156.187 205.893 157.883 206.282 159.608 206.047C160.806 205.885 161.525 205.384 162.948 205.74C164.372 206.096 166.46 205.233 167.564 204.39C167.77 203.506 167.924 202.095 167.976 201.298C167.588 201.154 167.396 200.357 167.086 200.203C165.889 199.606 166.776 202.092 164.456 203.434C163.804 203.81 162.928 203.471 162.4 203.26C161.809 203.022 161.916 202.208 161.6 201.385C159.875 202.959 158.489 200.704 157.987 201.745C157.874 201.979 157.695 202.675 158.173 202.724C158.544 202.764 158.753 201.979 159.257 202.512C157.544 203.842 157.793 202.159 156.575 202.932C155.616 203.541 155.865 204.639 155.198 204.32C155.021 204.236 154.757 203.599 154.38 203.831V203.828Z" fill="#2E2E1F"/>
<path d="M170.565 190.665C170.504 191.329 171.119 191.992 170.441 192.543C169.832 189.796 169.948 187.122 171.119 184.648L170.565 190.663V190.665Z" fill="#2E2E1F"/>
<path d="M142.527 223.092C141.663 224.511 141.753 226.533 142.005 228.176C142.461 228.11 142.774 228.06 142.974 227.997C143.258 227.904 143.267 228.078 143.368 228.327C143.47 228.576 142.927 228.947 142.997 229.225C143.336 230.552 143.136 232.322 142.727 233.956C142.229 235.952 142.026 238.143 140.848 239.878C140.503 239.667 139.926 239.817 139.555 240.003L138.358 238.259C137.468 236.964 138.775 236.048 138.859 235.156C139.077 232.783 139.123 230.685 139.732 228.408C140.089 227.072 140.158 225.557 140.24 224.204L140.416 221.24C140.445 220.73 140.585 215.756 140.466 215.877C140.698 215.637 141.281 215.492 141.321 216.014C141.344 216.306 141.078 216.561 141.066 216.767C141.017 217.503 142.226 217.268 142.643 218.047C142.797 218.331 142.492 218.638 142.521 219.151L143.415 218.633C143.162 219.363 143.148 219.864 143.04 220.69C142.452 220.484 143.125 219.858 142.481 219.722C142.472 220.69 142.617 221.147 142.33 221.878C142.156 222.324 143.339 223.161 143.739 222.871C144.148 222.098 144.363 222.518 144.221 223.196C143.649 223.289 143.197 223.564 143.142 224.213C142.571 224.039 142.817 223.645 142.533 223.092H142.527Z" fill="#2E2E1F"/>
<path d="M133.594 205.78C133.858 205.534 134.304 205.253 134.316 204.717C133.304 204.685 132.005 204.717 131.176 204.132C130.906 203.868 130.863 202.866 131.112 202.57C131.532 202.066 132.199 201.698 132.857 201.388C133.951 202.226 135.134 202.388 136.322 202.747C139.903 203.831 139.329 200.98 141.753 200.954C141.837 201.521 141.353 201.814 141.324 202.333C142.324 202.773 143.154 202.538 144.11 203.355C142.304 203.506 141.91 206.734 137.839 205.366C137.111 205.123 135.899 205.401 134.997 205.355C134.528 205.328 134.18 206.534 133.594 205.78Z" fill="#2E2E1F"/>
<path d="M142.588 224.468C143.49 225.824 143.954 226.168 143.42 227.206C143.287 227.466 142.452 227.831 142.356 227.487C142.078 226.507 142.321 225.479 142.588 224.465V224.468Z" fill="#2E2E1F"/>
</g>
<defs>
<clipPath id="clip0_9_2135">
<rect width="191.329" height="240" fill="white"/>
</clipPath>
</defs>
</svg>
