<svg width="240" height="192" viewBox="0 0 240 192" fill="none" xmlns="http://www.w3.org/2000/svg">
<g clip-path="url(#clip0_9_2138)">
<path d="M74.4168 92.5107C73.1876 91.9004 72.7287 90.8355 72.8466 89.476L73.4359 82.6363C72.0341 81.8281 69.3232 82.8846 68.4223 81.8955C68.0687 81.5083 68.2119 80.6833 68.6707 80.1613L76.088 71.7264C77.3382 70.3038 77.877 69.9544 79.704 69.9039C83.522 69.7987 87.3654 68.9274 91.3476 69.3567C94.7574 69.7271 93.1493 66.2252 96.277 65.8253L106.473 64.5163C102.208 61.974 98.0451 60.0168 93.6629 58.4342C93.3598 58.3248 92.5937 59.6885 92.3958 59.4823L91.3771 58.4174C89.8659 56.839 86.2625 57.6051 83.9472 56.2287C83.3789 57.382 84.2587 57.5419 84.9028 58.2027C83.682 58.1186 82.5707 57.2473 81.5141 56.4854C79.3125 54.8986 76.9551 54.3893 74.4967 53.7454C73.579 53.5054 73.1918 52.9498 71.9415 53.2782C70.6281 53.6191 69.0538 53.1603 67.7151 53.7832C66.9321 54.1494 66.9827 53.215 66.6291 53.0467C65.6103 52.5626 63.3203 52.4111 62.3269 53.2066C61.2661 54.0568 60.3736 54.141 59.195 54.5409C58.2731 54.8565 58.2141 56.7211 56.7955 56.7801L55.4737 54.625C54.8339 55.0502 54.8296 55.7531 54.5139 56.5317C50.6411 57.6261 47.5429 62.597 45.556 62.1761C45.9222 60.9134 49.1215 58.6489 48.2417 57.1757C47.9302 56.6496 47.2608 56.9232 46.2969 56.0856C49.7277 56.3718 53.3184 51.1652 53.3226 51.1357L54.1309 45.9376C54.2277 45.3146 54.9938 46.4637 54.8886 46.8846C56.202 46.7794 56.7113 46.0428 56.5598 44.7548C56.4756 44.0309 55.5284 42.6671 54.5602 43.2606C54.1056 43.5384 53.5373 44.9779 52.8764 44.3971C52.3881 43.5384 51.7314 42.2967 50.4222 42.6798C49.1131 43.0628 47.9681 44.2708 46.6757 44.8011C46.3979 43.8499 45.5602 43.4837 44.7351 43.7194C43.1944 44.1571 42.7566 42.9912 41.8305 42.3515C40.7444 41.6022 38.8922 41.9811 37.5746 41.7622C36.1097 41.5139 35.8235 40.3816 34.9437 39.5777C33.7692 38.5044 31.7696 39.241 30.4436 39.927C34.8763 43.7657 37.3642 41.9726 41.5148 44.0014C41.8726 44.1782 41.4432 44.6917 41.3254 44.8474C42.2683 43.6226 32.6663 45.1378 30.4015 43.2227C30.069 42.9407 30.4268 41.6401 30.1742 41.2908C29.8627 40.8615 28.9955 40.6552 28.3599 41.0382C28.5662 42.4441 27.6864 44.6791 28.4736 45.7439L29.3197 46.8846C29.6985 47.3981 28.1747 49.0565 28.2715 50.2476C28.3262 50.9085 29.1092 50.9505 30.1995 50.9211C29.8585 53.0677 30.0648 55.1891 30.0816 57.5167C32.7799 57.2389 35.091 56.6496 37.802 56.014C38.7659 53.9558 37.0526 46.7541 39.0185 46.4679C40.6518 46.228 40.4371 50.3697 40.816 51.4683C42.1715 55.3827 48.5027 50.7064 47.1388 53.4718C46.8146 54.1242 42.0831 54.7261 40.4961 57.1378L46.7978 56.4307C45.295 57.765 43.1607 57.2262 41.4727 58.1775C40.3193 58.8257 39.0522 59.8737 37.7009 59.7601C37.4947 59.5959 37.3642 58.952 37.1579 58.8636C36.8337 58.7247 36.337 59.0403 35.8908 59.1961L30.8646 60.947C30.8646 62.7022 30.4436 64.449 29.4923 65.8843C28.7177 65.5349 28.764 64.8236 28.2462 64.2427C25.8173 64.2511 23.7083 64.6215 21.2626 65.2024C22.0034 65.758 22.0287 65.96 21.3047 66.1915C20.206 65.9768 19.6587 66.3641 18.8757 66.9491C16.8173 68.4812 14.2831 69.0663 12.0226 70.249C10.0862 71.2592 8.81908 73.0438 6.46594 73.6247C5.80082 71.3771 12.7382 69.9712 14.6157 67.993C15.4744 68.014 15.2387 67.1554 14.4936 67.1975L8.30131 70.3206L0.513609 74.3234C0.0758139 74.5507 0.143167 72.7029 0.947194 72.6735C2.15113 72.6229 2.43738 71.2213 3.27087 70.7836C5.55667 69.584 8.18344 68.4518 9.4421 66.0147C9.49261 60.383 8.04873 61.8646 8.30973 57.0032C6.55434 56.5275 2.26058 59.638 0.454675 58.6447C-0.833452 57.9334 1.0398 56.818 1.28396 56.1656C3.30876 50.7485 6.65958 51.4514 9.93462 48.8586C11.0838 47.9495 11.2943 46.0807 12.7887 45.3483C14.8177 44.3508 15.4828 42.0989 14.923 39.9397C14.3841 37.8646 15.1082 36.6229 16.5647 35.3223C17.4066 34.5731 17.7855 33.5251 19.1788 33.5714C22.0413 33.6724 20.0334 29.6443 21.8772 30.0189C23.2326 30.2925 21.7298 32.296 22.4497 32.7506C24.7902 34.2238 26.453 35.7938 27.438 35.1161C27.9263 34.7794 27.8463 34.1354 27.6443 33.4535C27.3959 32.6286 26.2846 32.4602 25.9646 31.8709C25.1396 30.343 24.1419 30.3767 22.1971 30.2841C23.2116 28.8194 24.5923 30.4441 25.5858 29.6443C26.0699 29.0635 24.9712 28.2764 24.5081 27.9523C27.0802 26.5507 24.988 31.7489 29.4754 32.1782C29.446 32.9316 28.8777 32.9106 28.5241 33.3273C28.9577 36.5808 26.2004 36.8797 27.3496 40.1585C29.5807 38.1298 34.1144 37.4353 36.1602 39.6829C39.0269 42.8271 40.6602 38.7317 43.6869 42.5072C44.853 42.6082 47.0883 42.5914 48.1701 42.1957C49.6603 40.6805 50.8895 40.6594 52.8638 41.4633C53.7183 41.8085 54.897 40.8236 55.9073 41.4423C56.6776 41.9095 57.3512 43.0712 57.8858 43.8667C58.9466 44.0309 61.2619 42.4356 62.0112 44.0393C64.4864 49.3469 64.5537 45.4998 63.8592 51.5566C64.4275 50.2729 65.2567 49.469 66.7764 49.3343L71.2554 48.947C71.4827 46.9141 71.289 44.8137 71.8826 42.6419C74.985 43.0207 71.8994 48.2105 74.8756 47.3097C74.2989 49.3216 77.8518 50.7275 77.7255 50.7275C78.0875 50.7275 78.761 50.2855 79.0557 49.8267C78.7105 49.4732 78.058 49.128 77.9065 48.4798C77.7676 47.899 78.3948 46.611 78.9462 46.8846C79.6619 47.1077 81.3204 50.9842 81.1436 51.3925C81.0173 51.6913 80.588 51.7966 80.1123 52.369C87.4832 54.8608 84.3387 51.5272 87.9673 53.417C88.2494 53.0172 85.5258 44.6201 87.8621 46.7331C88.7798 47.5665 88.9313 48.7871 89.9122 49.4311C90.3668 48.7113 90.6825 47.2255 90.1563 46.6026C88.6198 46.5689 87.8242 45.7397 86.9234 44.8558C85.4711 43.4374 85.3869 42.3136 85.3364 40.3522C85.2859 38.2266 85.5974 36.7071 87.3485 35.4486C89.0997 34.1901 90.6488 34.7962 92.1727 36.0716C93.1577 35.7096 95.1489 34.0765 96.4244 34.7752C97.5062 35.3686 98.3271 38.0077 97.9566 39.2368C97.4347 40.9625 96.2855 42.1284 96.256 43.9088C96.2265 45.6892 94.6143 46.3711 93.3009 47.0488C92.7747 46.8846 93.3303 58.5773 93.7429 56.5654C93.6839 56.8516 93.2546 57.1463 93.162 57.3693C93.8523 58.4469 95.2457 58.2785 96.2223 58.5858C100.39 59.899 103.964 62.214 107.824 64.1459C109.478 64.9751 111.436 64.47 113.195 64.3437L124.515 63.5103C128.737 63.1989 133.073 63.2578 137.059 64.8025C138.495 65.779 139.122 67.9593 140.132 69.2894C141.517 71.1161 142.978 72.7029 143.891 74.8579C144.136 75.4346 143.256 76.2427 142.641 76.0744C140.747 75.5524 138.886 75.1189 136.908 75.8218C136.685 77.4128 136.765 78.9534 136.861 80.5444C137.847 80.8011 138.756 80.6496 139.434 81.5167L136.819 83.8022C137.223 84.2399 138.326 84.0842 138.566 84.7366C138.979 85.8436 137.876 86.8243 137.278 87.6998C139.013 88.6215 141.862 87.8513 143.399 88.4321C143.681 88.5374 143.862 89.3202 143.508 89.4044L136.201 91.1428C135.056 91.4163 133.961 92.9695 132.799 92.3002C133.3 90.1789 131.642 90.8439 127.129 89.88C124.325 89.2782 121.589 89.4634 118.786 89.0635C116.782 88.7815 114.568 89.0635 112.48 89.2782L105.227 90.0147C105.749 90.6377 106.355 90.5282 106.409 91.1049C102.823 92.1445 105.374 93.2136 103.273 93.4914C102.941 93.1421 103.054 91.269 102.309 91.6058L97.4599 93.8029C96.416 94.2743 95.4856 92.3971 94.5932 91.631C92.9346 92.6412 95.713 95.0067 95.3088 95.8359C95.132 96.1978 94.3996 96.8039 93.8818 96.5724C92.299 95.8695 90.7962 96.2778 89.1544 95.9327L88.3462 95.7643C88.0305 95.697 88.0137 96.0758 88.2494 96.16C88.3925 96.2105 88.8472 96.5135 88.784 96.6987C88.443 97.7468 87.1002 97.5826 86.1194 97.4227C85.0164 97.2417 84.0861 99.2662 84.4187 99.9944C84.9575 100.213 85.1932 99.9439 85.3532 100.062C85.5553 100.209 85.509 100.803 85.45 100.992C85.3616 101.274 84.7723 100.967 84.5702 101.097C81.2615 103.223 79.4346 106.624 77.1951 109.772C73.9495 114.326 74.101 115.442 73.4612 121.856C73.3181 123.308 73.798 124.714 72.9855 125.956C71.6427 124.554 73.2844 122.685 72.4088 120.867C72.1688 120.37 71.2554 120.808 70.5313 120.774C70.6913 116.645 72.9813 113.346 74.7072 109.823C77.8896 103.324 79.0473 103.092 82.1624 97.9109C82.4444 97.4395 82.5538 96.9513 83.1642 97.1196C83.4968 97.2122 83.6736 97.6079 84.0356 98.3024C87.4327 93.2431 87.0707 94.4595 92.8715 94.026C92.8126 93.5419 92.6568 92.1108 92.198 92.1445C90.973 92.3508 90.0974 91.5005 89.2934 91.3406C86.4224 90.7597 85.2438 96.6524 84.9533 92.0814C70.4261 91.8878 82.3307 93.6934 70.8723 95.6212C70.2072 95.5581 70.2703 94.4679 70.4303 94.0133C70.5608 93.6429 70.6281 92.7127 71.4153 92.9569C72.0468 93.1505 72.5014 93.4914 73.1328 93.5419C73.638 93.584 74.1473 93.2136 74.4378 92.5065L74.4168 92.5107ZM94.1091 42.785C95.8308 41.8927 95.7971 40.4826 96.6769 39.3041C96.0708 39.0263 95.5151 38.8074 95.5109 38.3865C95.5025 37.7299 95.5067 37.2796 95.6288 36.5135C94.8247 36.442 94.0123 36.0968 93.162 36.1978C92.6273 36.261 92.5221 36.7871 92.6358 37.0691C92.7326 37.309 92.9767 37.3974 93.3388 37.4648C96.1802 37.9993 93.4524 42.2546 94.1133 42.7808L94.1091 42.785ZM20.1428 60.5514C22.0287 60.3999 23.8767 59.638 25.1901 58.51C26.2467 57.6008 25.1985 55.7825 25.2911 55.0081C26.0825 54.0358 27.358 52.9793 26.373 51.645C25.8468 52.3858 24.9249 53.4002 24.2934 52.7815C23.1611 51.6661 25.8215 51.2031 25.6321 49.8057C25.5858 49.469 25.0512 49.2164 24.5334 49.2711L20.4164 49.7131C18.8757 49.8772 20.6438 47.4697 15.0114 48.2399C14.763 47.2045 15.2176 46.2911 14.4178 45.1252C13.0202 46.2532 11.9426 47.4655 11.3911 49.3006C12.5403 49.57 13.5212 49.8183 14.7041 49.7636C14.8177 50.3276 14.9398 51.6619 14.3547 51.805C13.5212 52.0028 12.5193 51.2157 11.8079 52.1165C12.2667 52.7226 13.0076 52.4911 13.517 52.912C13.3612 53.9053 12.2667 53.9684 11.8752 54.5619C10.5871 56.5107 11.3701 58.8088 11.2943 60.9386C11.2354 62.6685 10.1788 64.2133 10.4777 66.1326C13.3023 64.5205 17.213 63.4262 19.1073 61.7636C18.5053 61.229 17.7097 61.3132 17.7728 60.7113C17.8276 60.1936 19.3893 59.6549 19.6461 59.8106C19.785 59.8948 19.5619 60.6019 20.1344 60.5556L20.1428 60.5514ZM61.7796 51.3125C61.2997 49.8015 60.3189 49.1617 59.5023 48.4125C59.296 49.692 59.3633 50.5212 58.9424 51.8092C59.7633 51.986 61.5186 52.1122 61.7796 51.3167V51.3125ZM7.97296 54.7976C10.545 52.2764 2.86255 56.1656 3.8981 55.7489C5.42196 56.073 6.96266 55.7867 7.97296 54.7976ZM16.4089 65.5265C18.7242 65.8043 20.2438 64.3564 21.4857 63.0389C19.4104 63.8134 17.9791 64.4532 16.4089 65.5265ZM125.054 76.2469C122.768 75.5861 120.924 76.3942 118.765 76.3732L108.055 76.268C107.369 76.2596 107.062 76.8741 106.931 77.2403C106.814 77.5728 106.898 78.5451 107.352 78.4904L120.911 76.9288C122.258 76.7731 123.753 77.1813 125.054 76.2469ZM134.496 80.5191L134.58 76.1249C133.22 76.0407 131.528 75.9986 130.316 76.3564C130.084 78.8776 128.484 77.779 128.236 79.2312C128.152 79.7194 128.013 80.7085 128.678 80.7127C130.703 80.7296 132.458 80.8053 134.491 80.5191H134.496ZM92.9094 86.3024C92.219 85.006 91.6044 84.9723 90.3542 84.8124C91.436 83.6549 93.6587 85.7047 95.1447 83.8358C95.4478 83.4528 95.3846 78.2631 94.7448 77.4381L90.7583 82.0428C90.3584 82.5016 89.588 82.51 89.4239 83.1414C89.3186 83.5581 89.7733 84.0547 89.7985 84.7282C89.849 86.1592 89.2344 88.6552 90.7625 89.5517C92.0591 90.3094 93.9197 89.2866 95.292 89.3581C95.2583 88.1838 95.3341 87.4009 95.1825 86.4539C94.4122 86.1382 93.2882 86.8664 92.9052 86.3024H92.9094ZM106.969 80.7043C107.719 81.1421 108.67 81.9081 109.52 81.8618L125.462 80.9863C126.119 79.9341 125.635 78.3725 124.944 77.8927C124.149 79.1385 122.852 79.0333 121.838 78.5072C121.736 78.1452 121.951 77.758 121.766 77.7243C121.501 77.678 120.806 77.6696 120.785 77.8885C120.764 78.0779 121.177 78.7976 120.987 78.8944C117.986 79.3574 116.378 78.2126 114.58 78.6461C112.387 79.1764 110.08 78.806 107.769 79.0923C107.037 79.1849 106.165 80.2287 106.969 80.7001V80.7043Z" fill="#2E2E1F"/>
<path d="M200.396 70.3207C200.704 70.5564 199.559 71.6339 200.064 71.8696L205.317 73.2796C206.113 70.3754 206.324 71.6591 206.723 70.3838C206.892 69.8493 205.856 69.9208 205.89 69.3652C205.919 68.8727 206.808 68.9611 207.043 68.7507C207.574 68.2793 207.814 63.6325 207.637 62.374C208.285 61.2291 209.759 62.0835 210.453 62.5423C211.623 63.3168 211.24 64.0618 211.261 65.4382C211.274 66.5199 211.767 67.7658 211.569 68.8433C211.245 70.6111 212.432 71.2509 213.21 72.3578C214.515 74.2225 214.195 78.9913 216.418 77.4424C215.787 76.4112 216.713 75.039 216.645 74.0162C216.578 72.9934 216.178 71.979 216.3 70.7963C216.692 67.0797 216.342 63.3968 215.698 59.6507C215.517 58.5942 216.145 57.7061 216.115 56.6749L215.9 49.2123C215.526 49.1028 214.915 49.0481 214.814 48.8798C214.734 48.7451 215.26 48.4547 215.159 48.1811C214.284 46.1481 211.901 44.6412 209.607 44.7465C208.513 44.797 207.549 45.5883 206.37 44.8433L208.727 43.5848C207.818 43.0923 205.915 42.9913 205.452 43.8036C205.368 44.414 205.465 45.5841 204.875 46.0176C205.911 46.7205 207.321 46.6111 208.218 47.4108C209.228 48.3115 208.803 49.5827 208.466 50.9464C209.615 51.4557 210.836 50.9969 211.969 51.7377C211.943 52.8363 208.071 53.1014 207.22 51.0769C206.976 50.4918 207.241 49.5995 207.788 48.6272C206.9 47.3687 204.766 48.0253 203.949 46.7121C203.356 45.7566 202.383 45.1042 201.794 44.3087C199.971 41.8464 201.68 38.4034 204.328 37.4269C204.732 37.2754 204.888 37.0523 205.065 36.9597C205.019 36.985 205.183 33.6767 206.176 32.4392C207.014 31.3954 208.782 31.9762 210.028 31.6269C209.733 28.3059 211.11 25.1828 213.93 23.4066C216.086 22.0471 218.19 22.9394 220.232 24.0337C221.141 24.5178 222.383 23.7602 223.217 24.6988C225.439 27.2032 224.463 29.1267 225.384 30.3221C225.906 31.0039 227.464 30.5957 227.797 31.589C227.927 31.9804 227.611 32.5823 227.784 32.8096C228.083 33.2095 231.745 33.3273 231.126 34.7921C227.902 42.4399 231.472 44.9822 227.906 46.2028L222.732 47.979C222.998 46.7668 228.386 44.7296 227.902 45.159C228.285 44.818 228.807 42.7598 228.298 41.9306C228.138 41.6697 227.329 42.0695 227.131 41.7075C227.232 41.0593 227.973 40.9878 228.049 40.6932C228.205 40.1039 228.091 39.5188 227.771 39.321C225.991 38.2224 224.383 40.9752 223.381 43.0081C224.399 42.8356 225.233 42.0527 226.231 42.7977C223.852 43.871 222.164 45.3189 221.735 47.6044C222.152 47.7812 222.543 47.7096 222.842 48.0674C222.855 48.4041 222.16 48.884 221.811 48.8671C221.373 48.8419 221.091 48.2947 220.708 47.7391C217.908 48.0295 219.504 59.5455 219.84 61.9068C220.131 63.9271 221.179 65.918 220.152 67.8542C219.066 67.5595 219.988 66.5662 219.146 65.9685L219.116 78.1453C219.116 78.6546 219.394 78.9408 219.542 79.1218C219.777 79.4122 220.859 79.5006 220.775 78.9282C220.417 76.5627 220.127 74.4161 220.169 72.0758C220.194 70.7163 219.083 69.3526 220.202 67.8794C220.96 70.5059 219.954 73.3933 221.028 75.9103L222.989 80.4939C225.582 80.5487 227.557 81.3989 229.88 82.0134C232.204 82.6279 234.709 82.952 236.83 84.362C234.031 84.4967 231.72 83.2214 229.131 82.7963C225.814 82.2533 222.724 81.7061 219.563 80.5613C219.23 80.4434 218.443 81.0159 218.102 81.0201C217.546 81.0285 217.567 79.9089 217.134 79.6858L211.08 76.6132C201.179 71.5876 196.482 74.092 187.578 71.3856C182.952 69.9797 178.776 67.3028 174.158 66.2042C172.437 65.7959 171.022 66.5788 169.566 64.8657C168.753 63.9061 166.337 64.5332 165.116 64.1207C159.614 62.2561 157.202 62.6307 151.679 59.3603C148.072 57.2221 144.485 55.7153 140.667 54.0485C137.266 52.5669 134.256 50.4161 130.977 48.6356C126.182 46.0344 121.981 43.0039 117.594 39.7209L112.273 35.7349C109.874 33.9418 110.135 31.4206 102.764 28.7647C99.8384 27.7082 97.8473 25.0481 95.3215 23.3435C89.2766 19.2649 78.2896 21.6935 66.5028 12.5725C58.8035 6.6167 56.5767 7.46271 54.0594 5.79172L48.7763 2.28137C45.0972 -0.159875 31.0583 1.01024 26.1373 1.60793L21.9277 2.11722C22.0203 1.19123 31.2267 0.160013 32.1107 0.109504C36.5728 -0.155666 40.9213 0.109504 45.354 0.231567C50.2707 0.366256 51.5462 3.89344 57.0145 5.77489C67.349 9.33574 67.3616 14.2477 79.081 17.6276C86.8898 19.8794 93.2336 19.3954 98.525 24.3242C104.469 29.8633 107.024 27.0264 113.056 34.7837L133.755 28.971C142.199 26.5971 153.75 26.858 162.249 28.3186C165.133 28.8152 168.092 28.8952 170.934 28.3396L171.338 24.0843C171.372 23.7349 171.586 23.4487 171.704 23.3224C173.872 21.0411 172.171 27.5567 173.531 28.3775C176.242 30.0106 181.432 26.7528 181.601 26.2477C181.719 25.8984 180.986 25.3722 181.045 24.783C181.112 24.1432 182.611 23.4361 182.346 22.7331C181.87 21.4704 181.453 20.4308 182.464 19.2354C183.264 18.2842 182.569 16.8531 183.933 15.7209C185.006 17.6149 185.495 19.7616 185.255 21.7524L186.783 23.9832L191.607 21.6346C192.251 21.3189 191.178 19.9468 191.363 19.4333C192.285 18.6167 193.809 18.0864 195.012 17.6318C195.311 18.6335 194.823 19.3196 194.482 19.8542C195.699 20.4392 196.347 19.4038 197.319 18.9534C198.544 18.3852 200.249 18.5199 200.843 17.0046C201.289 15.8556 200.839 14.3487 201.104 13.1828C202.72 12.3999 202.577 14.2856 203.2 15.0432C204.429 16.5332 206.862 15.3294 208.071 14.3193C209.068 13.4859 210.605 13.6037 211.299 12.4589C211.8 11.6339 211.602 10.3207 212.739 10.0092C213.316 9.85345 213.88 9.88713 214.183 10.1523C214.793 10.6868 214.132 11.2214 213.539 11.9538C215.408 12.602 217.041 12.0716 218.746 11.4445L235.664 5.25717C236.944 4.78997 238.548 4.8068 240 4.98779C237.685 6.03164 235.576 6.03164 233.471 6.83136L220.362 11.8359C219.676 12.0969 213.021 13.9404 212.444 15.3841C213.21 15.885 214.208 15.2284 214.966 15.8682C211.522 17.2866 208.02 17.3792 204.593 18.5241L195.501 21.5588C194.124 22.0176 193.139 23.0615 191.556 23.4318C186.227 24.6777 184.606 27.2074 182.207 27.6577C181.049 27.8724 179.976 29.1435 178.747 29.5686C175.278 30.764 172.411 32.8012 169.549 34.9394L163.5 39.4599C161.795 40.7353 159.951 41.4634 158.196 42.5157C150.109 47.3813 145.138 45.2937 138.196 47.7812C136.798 48.2821 135.131 48.0043 134.289 49.4901L142.208 53.6823C146.329 55.8626 150.185 58.1691 154.449 59.878L158.427 61.4732C163.504 63.5104 163.55 62.3024 167.89 63.6199C168.475 62.8749 168.042 62.1761 168.336 61.4227C168.989 59.7517 171.132 58.7752 170.871 52.1502C170.837 51.3378 170.74 49.5658 172.066 49.7005C173.089 49.8015 173.906 52.0913 173.426 52.8994C172.239 54.8903 174.415 55.429 174.655 56.4729C175.084 58.3459 173.632 60.7198 175.766 62.3529C175.286 62.6265 174.743 62.6897 174.55 63.1063C175.051 63.8303 175.295 65.2319 176.057 65.7202C177.033 66.0401 178.583 66.8019 179.441 66.7135C181.272 66.5283 179.816 64.3396 180.165 63.5567C181.15 61.3554 181.643 58.8384 181.866 56.3424L182.173 52.9078C182.199 52.6216 182.973 52.6006 183.163 52.7268C184.025 53.2951 183.449 55.5764 185.011 57.6977C185.082 58.4175 184.042 59.4655 184.463 60.0674L185.979 62.2267C186.564 63.0601 183.39 67.488 183.718 67.4122L182.072 67.791C183.247 68.9233 184.362 66.865 185.65 68.0225C185.924 68.2666 185.621 68.9611 185.831 69.3863C186.871 69.9797 188.711 70.7921 189.818 70.3585C190.369 69.6346 190.719 68.5108 192.424 68.898L192.807 64.4322C192.445 64.1123 190.971 63.9271 191.417 63.1358C191.506 62.9843 193.973 58.5816 193.876 59.3687C194.04 58.0218 192.887 57.1085 193.834 56.1278C194.15 55.7994 195.017 55.3617 195.48 55.9215C196.768 57.4789 195.896 59.4529 196.141 61.1028C196.385 62.7528 197.433 64.0618 196.848 65.7075C197.858 65.9938 198.414 66.2042 199.058 66.8735L197.547 69.0074C198.229 69.723 199.395 69.5588 200.392 70.3333L200.396 70.3207ZM213.678 41.7623C213.922 42.4483 215.273 42.5999 215.82 43.0208C216.511 41.1267 215.989 39.5104 216.258 37.831C216.86 34.0723 220.152 32.1025 224.012 32.2666C223.671 30.019 223.781 27.4347 222.202 25.8984C221.326 25.0439 219.558 25.6332 218.552 25.0439C217.412 24.3747 216.511 24.1221 215.479 24.2694C212.688 24.6567 209.822 30.3094 212.541 33.3862C210.836 35.7433 210.23 31.126 207.17 33.1548C206.416 33.6556 205.831 35.516 206.665 36.2989C207.679 37.2544 208.925 36.6693 210.297 37.0944C209.931 37.4269 209.258 37.8941 209.582 38.2098C209.851 38.4708 210.63 39.3168 211.16 38.9675C211.994 38.4203 212.065 36.724 213.223 36.3536C213.758 36.1811 214.031 36.8293 213.884 37.0397C212.958 38.3613 213.61 40.0492 213.682 41.7707L213.678 41.7623ZM130.77 47.3056C132.404 48.3031 133.372 48.4504 134.87 47.7391C141.151 44.7507 148.206 46.0302 154.664 43.1302C159.842 40.8068 164.539 37.81 168.543 33.9461C169.128 33.3778 169.002 32.0604 169.886 31.7489C169.288 30.9787 168.93 30.7093 168.471 29.9475L150.197 28.3396C139.724 27.4178 130.808 31.3322 121.753 33.2389C121.791 33.6935 121.939 33.9629 121.875 34.1733C121.859 34.2239 116.508 36.0632 115.561 36.8713C117.636 38.2056 118.849 39.7251 120.6 40.891L124.136 43.2481L130.779 47.3098L130.77 47.3056ZM221.975 34.1944C220.708 34.0513 219.63 34.6616 219.23 35.6213C218.889 36.442 218.569 37.6837 219.495 38.3024C219.92 38.5886 220.64 38.2687 220.75 38.0162C221.221 36.9429 220.072 36.5683 221.975 34.1944ZM227.388 38.0036C228.298 38.0499 228.819 37.4817 229.211 37.0902C229.687 36.6104 230.023 34.9689 229.438 34.6742C228.327 34.106 226.799 34.3291 225.616 34.7205C225.17 34.8678 225.174 36.3368 225.725 36.4378C226.87 36.6483 227.477 35.7728 228.234 35.3561C228.714 36.4168 227.965 36.9766 227.384 38.0078L227.388 38.0036ZM207.334 41.817C204.497 38.3024 205.25 40.6847 203.789 38.8075C202.219 39.1484 201.133 43.4543 202.657 43.9173C204.362 44.435 203.192 42.3473 207.334 41.817ZM221.23 43.0923C220.442 43.2733 219.933 43.77 219.655 42.8608C221.124 41.9054 222.135 40.9289 222.871 39.4599C221.886 38.7696 221.078 39.8261 220.249 39.9776C219.07 40.1923 218.405 40.0702 218.266 41.3961C218.161 42.3936 218.018 43.0418 219.584 43.3701C219.609 44.0646 218.898 44.7002 219.142 45.382C219.483 46.3249 220.876 45.6683 221.423 45.0411C221.815 44.595 222.059 43.429 221.225 43.0881L221.23 43.0923Z" fill="#2E2E1F"/>
<path d="M210.925 92.2918C210.449 93.967 197.538 94.6657 195.442 94.7331C192.613 94.8215 185.431 93.9376 182.628 93.3609C176.36 92.0772 170.079 92.4097 163.407 92.6075C164.48 90.6966 166.505 91.3953 168.45 91.1007C168.938 89.4718 165.251 89.5391 166.956 88.3858C168.151 87.5777 167.276 90.1578 171.169 89.8716C173.022 89.7369 174.331 90.3052 175.893 90.9028C177.349 91.4584 179.1 90.865 180.603 91.2901C184.817 92.4897 194.213 93.483 198.515 92.9905C201.638 92.6328 204.686 92.7548 207.788 92.073C208.74 91.8625 209.725 91.9593 210.929 92.2918H210.925Z" fill="#2E2E1F"/>
<path d="M150.252 93.4915C149.179 92.4266 150.547 91.4627 150.66 90.2463C149.486 88.327 147.63 87.3715 145.39 87.6956C145.272 87.7125 145.011 87.0011 144.906 87.0516C144.746 87.1316 144.54 87.8345 144.266 88.0492C143.731 90.0274 142.923 78.9113 143.736 80.132C144.477 80.0562 144.969 80.9443 145.403 81.3862C146.245 80.7928 145.643 76.8236 147.453 76.731C150.067 76.5963 148.476 83.1835 148.884 85.3554C149.844 85.6711 151.153 85.3091 151.995 86.012C152.601 86.5171 152.125 87.6199 152.66 88.3059L154.55 86.1172C155.278 86.6812 154.672 87.3926 154.142 87.9271C153.081 89.8296 152.235 91.7237 150.252 93.4915Z" fill="#2E2E1F"/>
<path d="M66.9616 94.3248L66.9532 95.5034C66.9532 95.7559 66.1028 95.9874 66.0313 95.5581C65.7577 93.925 64.1117 88.7436 64.1538 88.7647C63.8381 88.5963 63.3456 88.6384 63.0677 88.9709C62.6005 89.5307 63.1225 90.2926 62.209 90.9029C58.7824 84.3494 60.824 85.8941 60.2094 82.8678C59.9232 81.4578 59.3086 80.0056 60.5504 78.8481C61.0471 80.2918 62.369 80.6328 63.6192 80.7843L66.7722 91.0965C67.6014 90.8355 68.3928 90.5198 68.7422 90.8524C69.2221 91.3069 69.3821 92.1656 69.1716 92.818C68.2708 95.6465 72.1688 95.2466 68.4686 95.2845C67.7825 94.3332 68.4013 92.9232 67.774 91.7826C66.768 92.1403 66.97 93.1421 66.9616 94.3248Z" fill="#2E2E1F"/>
<path d="M108.805 187.016C109.31 188.414 109.003 190.043 110.148 191.158C110.299 191.31 110.097 191.886 109.933 191.958C108.889 192.4 107.441 189.247 107.445 189.277C107.277 186.705 106.005 184.773 104.94 182.538C104.38 181.364 104.246 180.164 103.315 179.032C102.566 178.123 102.937 176.309 101.846 175.627C101.329 175.303 100.575 175.256 100.558 174.246C100.491 169.157 97.0853 168.105 98.967 166.931C101.43 170.248 103.821 175.075 105.138 179.251C107.079 178.14 107.672 172.807 109.807 172.314C110.476 174.293 106.191 177.184 106.098 180.215C106.022 182.698 108.005 184.807 108.805 187.012V187.016Z" fill="#2E2E1F"/>
<path d="M157.695 91.3995C156.701 90.4988 155.409 91.2353 154.462 90.9618C153.119 90.5703 156.486 86.3486 156.655 84.4335C157.21 84.9933 157.337 85.4058 157.728 85.5405C159.366 86.1129 160.111 83.335 162.426 82.8088C163.323 82.6068 163.348 83.537 163.268 84.261C163.175 85.1491 162.506 84.6734 161.635 84.8292C160.384 85.0523 158.886 86.4707 158.667 87.7713C158.52 88.651 159.058 89.5433 158.2 90.2757C158.579 90.7134 158.928 90.7892 158.894 91.0165C158.835 91.4163 158.318 91.9677 157.695 91.4037V91.3995Z" fill="#2E2E1F"/>
<path d="M90.2489 112.133C87.8326 112.819 86.414 114.394 86.8181 112.369C87.0581 111.153 89.3607 111.683 89.6133 110.854C89.9542 109.743 88.8892 107.499 90.1353 106.674C91.7517 105.605 94.0965 105.597 95.995 104.999C96.7485 104.763 97.6451 105.714 98.3313 105.306C99.1564 104.818 98.8785 103.703 99.5857 102.861C99.8299 105.062 100.335 106.708 98.929 107.419C98.5628 107.604 98.4702 106.838 98.1797 106.43C95.9276 106.426 93.4313 106.518 91.335 107.587C89.8111 108.366 92.5726 111.472 90.2447 112.137L90.2489 112.133Z" fill="#2E2E1F"/>
<path d="M142.713 157.465C142.89 160.445 137.266 159.136 135.115 160.07C135.451 158.151 136.47 156.85 137.287 155.2C138.36 154.847 139.286 154.363 140.326 154.809L140.309 156.589C140.953 156.909 142.296 156.821 142.713 157.465Z" fill="#2E2E1F"/>
<path d="M115.254 101.484C113.856 102.095 115.031 103.829 113.945 105.121C113.536 105.609 112.614 105.828 112.337 105.087C111.932 104.014 112.564 103.202 112.673 102.267C111.714 102.204 110.842 102.84 109.946 102.284C110.619 100.399 112.215 101.838 113.275 101.543C115.043 101.051 116.454 98.4624 118.664 99.0222C119.493 99.2326 120.225 100.613 121.669 100.074C119.674 100.777 117.666 104.035 116.681 102.722C116.445 102.406 116.424 101.514 116.954 100.979C116.361 100.676 115.725 101.274 115.25 101.48L115.254 101.484Z" fill="#2E2E1F"/>
<path d="M69.5673 139.884C69.5673 141.656 66.0734 139.054 65.3073 136.546C64.9242 135.287 64.2212 134.77 62.8994 134.656C62.6805 134.639 62.7058 133.663 63.0046 133.717C63.2067 133.755 63.7539 134.008 64.1286 133.848C64.6295 131.137 60.7399 125.872 64.5159 127.13C65.181 127.353 64.5453 128.565 64.6758 129.117C65.4672 132.412 66.4396 135.616 67.6436 138.814C67.833 139.32 69.5716 138.903 69.5673 139.884Z" fill="#2E2E1F"/>
<path d="M84.726 130.19C83.1517 131.912 84.6671 134.702 83.2485 136.925C82.2592 135.628 82.8401 126.562 83.5473 125.468C84.1451 124.655 84.9997 126.103 85.3238 126.617C86.1615 127.942 85.8205 128.995 84.726 130.194V130.19Z" fill="#2E2E1F"/>
<path d="M129.827 146.748C129.6 145.153 129.533 143.785 127.727 143.272C127.584 144.042 128.215 144.497 128.223 145.28C127.491 145.477 127.255 144.964 126.973 144.749C126.62 144.471 126.287 143.293 126.881 143.12C128.598 142.628 130.379 142.864 132.45 142.99C132.568 144.627 131.339 145.839 129.823 146.748H129.827Z" fill="#2E2E1F"/>
<path d="M113.246 169.077C112.416 169.961 111.25 170.349 110.569 171.245C110.004 170.1 110.699 169.103 110.67 168.257C110.632 167.225 109.672 166.102 110.724 165.096C110.888 164.936 111.381 164.831 111.634 164.885C111.886 164.94 112.05 165.167 112.202 165.651C112.278 165.891 111.802 165.975 111.507 166.396C110.88 167.495 111.768 168.206 113.246 169.077Z" fill="#2E2E1F"/>
<path d="M55.2506 115.513C57.0607 118.721 59.2623 119.663 58.2267 120.846C57.7468 121.393 57.0481 121.789 56.5724 121.179C57.2206 118.775 52.8553 115.686 54.2824 115.143C54.5939 115.025 54.998 115.067 55.2506 115.517V115.513Z" fill="#2E2E1F"/>
<path d="M131.372 163.328C129.617 163.593 129.924 161.817 129.756 160.727C129.478 158.904 127.916 157.625 128.64 155.579L130.884 158.799C131.6 159.83 130.884 161.569 131.372 163.324V163.328Z" fill="#2E2E1F"/>
<path d="M87.8999 152.89C88.0473 155.125 88.6619 159.822 86.515 156.977C85.9551 156.232 87.0454 155.773 87.0033 155.028C86.9528 154.157 86.8475 147.203 87.9336 147.851C88.1441 149.607 87.7905 151.21 87.8999 152.885V152.89Z" fill="#2E2E1F"/>
<path d="M62.6763 102.819C60.8325 102.499 62.3101 101.644 61.4303 100.727C61.5944 100.899 58.774 100.975 57.3344 97.027C60.7567 99.9312 61.0724 96.5556 62.6805 102.819H62.6763Z" fill="#2E2E1F"/>
<path d="M160.536 89.838C160.688 88.7058 159.614 87.8682 159.736 87.2368C159.93 86.1972 161.424 85.6458 162.35 85.3091C162.279 86.6349 161.727 87.5693 162.195 88.8152C161.723 89.1982 161.407 89.556 160.54 89.8422L160.536 89.838Z" fill="#2E2E1F"/>
<path d="M97.6115 169.911C96.5759 170.336 95.3594 170.812 94.147 170.816C93.5829 168.93 94.8837 168.442 96.1297 167.575C96.7654 168.088 96.8285 168.796 97.6115 169.911Z" fill="#2E2E1F"/>
<path d="M65.2652 111.986C65.4967 110.824 60.7063 119.137 61.283 114.894C61.4093 113.964 65.8209 109.208 65.2652 111.986Z" fill="#2E2E1F"/>
<path d="M93.9912 161.989C93.7471 161.219 93.5113 159.86 92.8799 159.119C92.8967 158.538 93.9786 157.747 94.1301 157.006C94.3617 158.26 94.5132 158.807 95.3341 159.54C96.096 160.217 94.7405 162.196 93.9912 161.985V161.989Z" fill="#2E2E1F"/>
<path d="M86.1488 147.195C86.0183 147.557 84.7807 147.578 84.4566 147.393C83.9893 147.123 84.0651 146.168 84.0693 145.414C83.5473 144.922 82.617 145.364 82.2213 144.413C83.1853 143.386 84.1072 144.202 85.0628 144.648C85.7658 144.977 86.4856 146.252 86.1488 147.195Z" fill="#2E2E1F"/>
<path d="M99.9267 144.189C98.8912 142.438 100.015 140.751 100.141 139.008C100.255 137.463 99.8004 135.973 100.954 134.791C100.769 135.957 101.013 137.064 100.861 138.061L99.9309 144.189H99.9267Z" fill="#2E2E1F"/>
<path d="M76.4121 148.142C76.4247 149.202 72.1646 149.522 71.9289 147.237C71.8826 146.803 72.1225 146.479 72.8255 146.193C73.3812 147.792 74.6398 147.637 76.4121 148.142Z" fill="#2E2E1F"/>
<path d="M131.296 164.506C132.686 164.599 132.134 165.672 132.824 165.967C133.22 165.197 132.707 164.233 134.096 164.203L132.816 169.473C131.646 167.903 131.991 166.236 131.296 164.506Z" fill="#2E2E1F"/>
<path d="M103.257 160.319C102.907 159.62 103.151 158.9 102.701 158.302C102.027 158.374 101.24 158.555 101.013 158.189C100.655 157.612 100.642 156.732 101.32 156.324L103.164 157.903C103.606 158.277 103.981 158.606 104.023 159.022C104.073 159.532 104.082 160.07 103.257 160.323V160.319Z" fill="#2E2E1F"/>
<path d="M136.487 99.6325C135.683 99.5525 135.876 98.6686 135.708 98.2688C135.485 97.7469 135.018 98.3866 134.319 98.1593C134.849 97.4228 136.247 97.2544 136.979 97.7216C137.362 97.9657 137.383 99.7167 136.487 99.6283V99.6325Z" fill="#2E2E1F"/>
<path d="M50.3928 32.5359C47.223 31.934 49.1973 34.0932 45.9686 32.9189C45.3077 32.679 45.4255 30.9701 44.9962 30.7008L42.2094 29.8842C40.4246 29.3623 38.9596 29.6443 37.8525 27.7376C37.6252 27.3461 36.9054 27.0473 36.7117 26.5801C36.5602 26.2139 38.3072 21.0873 39.7973 20.1529C38.947 16.8361 40.3993 17.8253 40.5593 14.7442C41.8853 16.0028 43.8006 13.1574 43.7122 13.6162C43.7838 13.229 43.186 12.8923 42.8366 12.5387C43.8259 11.3097 44.0743 8.96522 44.5036 7.34895C47.3493 5.78318 50.0097 8.34649 51.4873 10.5184C52.8554 12.5303 54.7834 13.8435 55.6548 16.4152C55.9579 17.3076 56.5977 18.5324 57.1281 19.5931L57.9574 21.2514C58.21 21.7565 57.0103 22.1311 56.6903 22.5689C56.6019 24.4166 60.2011 24.3619 59.7086 25.3763C59.5949 25.612 58.7278 25.4605 58.5846 25.6878C55.2633 30.9491 50.3255 29.4928 50.3886 32.5317L50.3928 32.5359ZM51.2432 29.4928C52.9396 29.1939 53.7815 28.592 54.8171 27.8428C53.6973 27.5355 53.188 28.6299 52.5313 27.7418C53.571 26.2939 55.579 26.1129 56.6693 24.968C56.7914 23.7811 55.0149 22.531 53.6889 22.1606C55.6674 20.6201 55.579 18.8228 54.8802 18.4693L52.4766 17.2486C52.0472 14.1255 49.614 10.8298 46.5411 10.089C44.9078 12.6481 48.9826 13.1322 49.2604 14.1255C49.4709 14.8831 47.7871 15.5229 47.8923 16.5331C47.9218 16.7898 48.3554 17.2613 48.6374 17.2991C50.4812 17.5517 49.5551 19.3995 49.9382 20.0939C50.9948 22.0091 52.3713 23.4444 51.0453 25.8982C50.6538 26.6222 51.1758 27.6576 51.8409 28.1585C51.702 28.7309 50.9443 28.8572 51.2389 29.497L51.2432 29.4928ZM45.4845 15.7839C45.796 15.645 46.8778 15.7334 46.9873 15.4261C47.3156 14.4917 46.0064 14.1676 45.2614 14.0918C44.5163 14.0161 41.1107 16.0322 41.3507 18.2925C41.4727 19.4542 41.9063 20.5738 43.3923 21.0157C46.1917 17.4549 44.853 16.0659 45.4845 15.7839ZM50.6496 24.1978C51.5168 23.4233 50.4307 21.0199 49.4667 21.5124C48.0313 22.249 47.4882 24.1431 45.4929 24.101C46.8105 25.4226 49.0163 25.6667 50.6538 24.1978H50.6496ZM46.0738 25.8561C43.1313 25.5194 44.8236 23.1666 40.9886 24.6944C40.4709 24.3283 40.5887 23.5706 39.6795 23.4822C39.4858 24.2567 38.8965 25.612 39.4395 26.3023C41.0434 28.3437 44.6973 26.5422 46.8484 26.9715C47.143 26.6811 46.7094 25.9319 46.078 25.8603L46.0738 25.8561Z" fill="#2E2E1F"/>
<path d="M78.6432 36.7745C77.9065 37.5447 75.7807 37.9783 74.7746 37.9825C73.255 37.9909 71.8279 38.5633 70.0599 38.7485C68.8097 38.879 66.7175 36.8713 66.2923 35.6591C65.8882 34.5142 65.6441 33.9334 64.8569 33.1589C63.9771 32.2918 65.4757 30.6587 65.5936 29.7917C65.8756 27.6913 67.1174 26.7064 68.2708 25.2543C69.4243 23.8022 70.081 22.4974 72.0847 22.8888C75.8439 23.6212 74.9388 28.1207 75.1493 27.4977C74.9977 27.9397 73.7349 28.3858 73.3602 28.9246C73.1076 29.2824 73.1371 30.1494 73.5833 30.2336C74.7578 29.0803 77.5698 29.0888 77.776 29.2571C77.7929 29.2739 81.0511 34.2701 78.6432 36.7787V36.7745ZM72.4636 30.6335C72.1521 29.6275 71.5796 29.2403 71.7143 28.5668C72.1352 26.4076 74.0295 26.6896 73.1413 25.2459C72.9392 24.9176 72.5899 24.4335 71.79 24.6861C72.7372 27.5735 67.9972 27.1484 69.2811 29.2697C69.8536 30.2126 71.2007 30.7513 72.4636 30.6335ZM75.023 34.9099C74.7578 35.7054 76.3364 36.2736 76.9341 36.282C77.7087 36.2904 78.3022 35.436 78.5338 34.8972C78.9547 33.9207 78.5296 33.1757 77.8181 32.4897C77.1067 31.8036 76.9594 31.2859 75.9954 31.5258C75.465 31.6563 74.4463 31.7573 74.9135 32.8138C75.3092 33.7103 76.812 33.1084 77.515 32.7969C77.6371 34.3922 75.6923 34.0344 75.023 34.9057V34.9099ZM68.8686 36.8418C69.8663 36.3914 69.4411 35.1414 68.9023 34.8004C68.515 34.5563 67.3447 34.3585 67.4836 35.1919C67.6226 36.0253 68.5697 36.4167 68.8644 36.846L68.8686 36.8418Z" fill="#2E2E1F"/>
<path d="M190.327 55.6648C189.687 54.5914 190.731 45.2347 187.642 48.2189C188.079 48.6398 188.816 48.4967 188.833 49.3091C186.092 48.8461 183.634 47.8275 180.835 47.575C179.353 47.4403 178.233 47.0741 177.063 46.1818C176.154 45.4873 175.594 44.1909 175.981 42.9829C176.25 42.1495 177.261 40.7647 178.481 41.2488C177.842 42.5704 176.692 43.4122 177.463 44.5192C178.292 45.7061 180.014 46.3375 181.264 46.0555C180.616 45.5799 179.749 45.7777 179.53 44.9864C179.138 43.5722 180.17 42.461 180.317 41.1898C180.359 40.8279 179.445 40.5795 179.256 40.3649C179.58 40.7268 178.313 33.6809 186.236 31.6648C188.58 31.0671 190.176 31.0292 192.466 32.1909C193.299 32.6118 195.164 31.126 196.275 32.0814C197.664 33.2768 197.395 35.1751 196.684 36.8629C197.627 37.6079 198.868 37.1997 199.584 38.4497C198.165 39.0811 197.063 37.9573 195.501 38.4245C196.389 38.7612 197.244 39.9608 198.254 40.0829C198.683 40.0408 198.793 38.5886 199.811 39.1358C197.984 42.0232 201.234 46.2617 199.247 48.6988C198.607 49.4817 196.267 49.4017 195.488 48.8756C194.326 48.0885 192.769 47.0699 191.359 48.0127C189.772 49.0734 191.969 54.3137 190.31 55.6605L190.327 55.6648ZM191.157 36.4252L195.24 37.9573C195.635 36.4757 196.629 33.3694 194.865 32.9569C193.484 32.6328 193.299 35.1162 192.205 34.3165C191.918 34.106 191.965 33.6556 191.283 33.2305C191.422 34.3375 190.849 35.2635 191.161 36.4252H191.157ZM188.004 42.8398C189.308 42.1874 188.374 40.63 188.681 39.7335C189.077 38.576 190.613 38.2351 191.35 37.5701C190.757 37.246 190.302 37.1576 190.087 36.7451C189.873 36.3326 190.449 35.7223 190.31 35.2635C189.704 33.2179 187.107 32.9653 185.309 33.8913L183.36 34.8931C182.586 38.0036 181.167 40.9247 180.607 44.0688C180.435 45.0453 182.308 45.0832 182.767 45.4957C184.257 46.8384 186.139 47.6549 188.016 46.6911C187.722 44.1193 184.539 45.8998 184.678 44.3382C184.775 43.2607 187.309 43.1765 187.999 42.8314L188.004 42.8398ZM191.552 42.1074C190.635 42.7809 190.512 45.7945 191.599 46.026C191.51 45.5967 194.389 40.0366 191.552 42.1074ZM196.978 45.2937C195.715 44.8896 194.133 44.7928 193.059 45.6472C196.684 46.5395 197.05 48.9934 198.094 48.1263C199.386 47.0488 196.961 45.2894 196.978 45.2937Z" fill="#2E2E1F"/>
</g>
<defs>
<clipPath id="clip0_9_2138">
<rect width="240" height="192" fill="white"/>
</clipPath>
</defs>
</svg>
