<svg width="192" height="240" viewBox="0 0 192 240" fill="none" xmlns="http://www.w3.org/2000/svg">
<g clip-path="url(#clip0_9_2139)">
<path d="M45.7436 240H43.9626C43.0705 239.378 41.9266 239.235 40.8191 238.795C40.1091 238.513 39.6813 237.615 38.8833 237.433C37.1629 237.042 35.6488 236.207 34.0073 235.701C32.2657 235.164 29.7807 233.097 29.2011 231.301C28.746 229.887 28.1513 228.51 27.8661 226.935C28.9827 228.24 29.9476 233.122 32.2505 233.649C33.537 233.944 34.2258 234.714 35.309 235.224C37.1417 236.083 39.1989 236.326 41.0012 237.403C41.8508 237.909 43.028 237.366 43.9444 237.4C46.3869 237.488 48.7414 238.152 51.2082 237.864C52.9226 237.664 54.7067 237.63 56.3239 237.236C57.5952 236.926 58.4205 236.665 59.792 236.823C60.8934 236.951 62.4591 235.922 63.1782 235.066C64.0793 233.992 64.3615 232.424 65.5691 231.677C66.9436 230.828 67.8782 229.829 68.8339 228.534C69.5197 227.605 70.7091 226.847 70.2873 225.451C68.4031 225.066 66.6463 225.821 64.8136 226.049C62.1799 226.377 59.6069 225.858 56.9459 226.016C53.672 226.213 50.5043 226.231 47.2486 225.776C45.0033 225.46 42.8551 225.497 40.6158 225.345C34.6263 224.935 37.9518 226.052 31.4859 225.855C27.1288 225.721 22.0435 226.371 19.6222 222.714L22.7595 224.662C23.7032 225.248 25.2445 224.684 26.3187 224.626C26.4522 224.28 26.6524 224.332 26.8041 224.656C27.5202 225.093 28.5822 225.269 29.1496 224.766C28.919 224.298 28.7308 224.128 28.7157 223.892L30.6363 223.491C25.375 221.935 17.5073 221.449 12.4736 218.688C9.10864 216.843 8.88107 208.921 5.73157 207.064L7.88585 213.357C9.00244 216.616 6.36268 215.769 13.2443 220.375C14.0149 220.891 15.1164 220.554 15.9204 221.015C17.2069 221.756 18.5025 222.102 19.7587 222.69L14.8342 221.231L16.858 222.745C13.751 221.668 11.3479 220.066 8.65047 218.667C7.75235 218.2 6.28683 217.884 5.8499 216.998C5.41297 216.112 5.03977 215.954 4.12951 215.569C3.07967 215.126 2.69433 213.321 2.91582 212.219C3.80485 207.799 -0.081972 206.524 0.588587 203.011L1.69607 197.213L2.11783 192.68V185.765C2.11783 181.823 1.45334 178.134 1.30163 174.262L1.02855 167.244C0.98 165.964 1.25611 164.708 1.85385 163.649C2.34236 162.781 3.71079 157.514 4.49058 155.697C5.11562 155.882 4.83041 156.373 4.67263 156.786C4.64532 158.224 5.51007 155.257 6.56597 156.504C4.52699 158.512 3.79574 160.949 3.25262 163.588C2.79142 165.824 3.3042 167.602 3.46198 169.769L4.46327 183.507C4.5816 185.118 4.85165 186.563 4.9366 188.21L5.24609 194.254C5.3796 196.876 5.54345 199.258 4.79703 201.815C4.05062 204.373 7.13337 205.572 9.20573 209.519C10.1827 211.379 11.2174 216.743 13.7661 218.054C16.4757 219.447 19.5766 219.629 22.4106 220.572C23.4908 220.933 24.4769 220.8 25.3477 220.997C27.7265 221.537 29.9294 222.193 32.2323 222.52C36.1616 223.082 40.7736 221.607 47.2365 222.757C49.8186 223.215 52.2399 222.903 54.8493 222.772L60.9784 222.463C62.5016 222.387 64.049 221.631 65.5388 222.408C65.2172 222.699 64.759 222.593 64.5193 223.003L68.1603 222.836C67.9844 223.051 67.7113 223.012 67.5656 223.276C68.2332 223.37 69.3892 223.455 69.8959 222.966L70.8122 213.585C70.3086 213.251 69.6077 213.093 69.6562 212.593C69.6866 212.247 70.4906 210.972 70.6939 211.048C70.8031 211.088 70.879 211.236 71.0368 211.506C72.6783 210.332 68.749 205.936 67.69 204.564C68.5214 204.17 68.8188 204.947 69.4681 204.843C69.4165 204.215 68.7247 204.252 68.5942 203.593C69.3862 204.058 70.5361 204.252 70.9579 204.913C72.918 207.99 73.7888 211.273 73.3064 214.759C73.0727 216.458 73.4945 218.184 72.9119 220.011C72.7875 220.396 72.9787 220.924 73.2366 221.097C73.3974 221.206 73.722 221.112 73.9253 221.392L73.0242 221.731C72.8148 221.81 72.8725 222.584 73.0727 222.554C75.849 222.132 78.5829 221.285 80.7887 219.926C77.3419 213.855 76.8382 207.95 77.9972 201.312L79.1715 194.585C79.8997 190.416 82.054 186.724 84.5784 183.447C84.8788 183.055 91.3599 179.047 92.4401 178.826C92.5614 176.656 92.0578 173.049 92.1184 170.97C92.1488 169.875 92.7131 168.883 92.2398 167.894C92.0911 168.158 91.9728 168.3 91.906 168.376C91.8514 168.44 91.6512 168.334 91.5177 168.139L91.4418 159.705C91.4145 156.755 90.662 154.119 89.8489 151.409C89.4028 149.913 88.5684 148.921 87.8615 147.668C86.6447 145.514 85.3916 144.015 82.7458 143.478C80.5794 143.038 78.0397 142.21 76.5257 140.468C75.2483 139 73.9132 138.059 72.387 136.943C69.9778 135.18 67.8478 133.189 65.1201 131.885C63.8427 131.275 64.0854 129.545 63.4634 128.511C62.3316 126.942 57.8805 127.173 56.8852 126.302C57.6195 125.586 58.3204 126.029 59.082 126.259L63.6606 127.646C64.85 125.741 63.9034 122.819 62.8141 123.359C60.1743 124.669 58.4509 122.837 57.5376 124.958C57.5861 125.401 52.871 125.583 54.3729 124.894C54.4821 124.842 54.7006 124.794 54.8038 124.302C53.0348 124.536 51.2659 124.047 49.3634 124.005L35.8794 123.708C34.9904 123.689 33.8587 124.375 33.2427 123.453C33.0121 123.107 33.0546 122.543 32.6632 122.315C32.3294 122.118 31.8197 122.391 31.492 121.823C33.0789 121.975 34.6172 121.708 36.0615 122.175C43.1403 124.472 42.8187 122.673 48.6625 122.649C51.4055 122.637 54.2091 123.365 56.9338 122.673C62.2012 121.335 64.2796 122.248 62.3559 119.745C61.7096 118.905 61.476 116.881 60.4171 116.31C59.7465 115.949 58.9394 115.901 58.2719 115.397C57.2099 114.602 55.5289 115.403 54.3213 115.537L47.2638 116.323C42.4667 116.857 39.1989 115.015 35.8157 115.3C33.9861 115.455 32.029 116.01 30.3086 115.127C29.6199 114.775 29.3286 114.15 28.57 114.535C28.0026 114.824 27.4959 115.072 27.3806 115.855C27.6294 116.071 28.0573 115.943 28.1452 116.301C27.2987 116.635 26.0183 116.268 25.8969 115.327C25.7846 114.438 26.8284 113.161 27.7083 112.991C28.3303 112.873 28.837 113.528 29.4408 113.61C31.674 113.907 33.8526 113.143 36.0585 113.386L40.8616 113.913C43.0462 114.153 45.2824 112.76 47.5611 112.964C50.474 113.225 53.138 113.194 56.0508 112.83C62.1101 112.072 62.183 113.51 65.6116 114.754C66.798 115.185 67.3897 116.981 67.2471 118.131C67.0953 119.357 67.6445 119.818 68.1179 120.689C69.2769 122.831 66.5462 126.708 68.9523 128.562C70.4421 129.709 71.2734 131.056 72.2353 132.607C73.4884 134.627 75.934 135.453 77.7484 136.776C79.3475 137.941 80.8009 138.369 82.6578 138.939C87.1363 140.316 89.776 145.496 90.9169 149.604C91.3933 151.312 92.0001 152.893 92.2823 154.726C92.6616 157.214 92.6161 159.617 92.8072 162.126C93.0378 165.175 93.6052 167.967 93.1774 171.077C92.874 173.285 94.0876 175.613 94.0088 177.912C95.808 177.242 96.5727 176.04 97.8227 175.167C98.7725 174.502 99.0819 173.974 99.1608 172.718L99.6129 165.463C99.7555 163.151 97.6255 165.309 96.1873 163.306C94.8462 161.44 97.3767 158.303 98.4994 157.654C101.534 155.897 104.219 160.251 106.331 159.161C104.75 152.65 105.19 151.713 105.241 145.614C105.272 141.864 106.646 138.812 107.711 135.38C109.353 130.085 109.471 124.463 109.799 119.023C109.917 117.063 110.418 115.928 111.161 114.244C112.263 111.753 113.416 108.959 113.992 106.298C114.462 104.113 114.644 102.308 116.784 100.979C117.175 100.736 117.521 99.9473 117.585 99.5256C117.785 98.2088 114.544 96.1425 113.13 93.8032C112.745 93.166 112.812 91.4366 113.243 90.8298C114.035 89.7102 115.788 89.8952 117.084 90.1987C118.076 90.4323 118.741 91.5974 119.411 92.6138C120.764 94.6588 120.103 97.162 120.846 99.4133C121.389 101.061 124.333 99.6712 125.379 98.9066L128.82 96.3974C130.389 95.2535 131.606 93.069 132.188 91.1089C132.537 89.9438 131.942 88.3903 131.86 87.2373C131.515 82.4647 126.493 81.6363 125.85 78.1319C125.51 76.2872 125.501 74.2027 125.971 72.3701C127.215 67.5458 128.96 63.0401 130.662 58.3767C131.945 54.8571 137.07 59.3172 138.842 60.7827C142.004 63.3982 145.093 63.4952 144.841 66.6841C144.613 69.5726 144.173 72.3306 143.363 75.1494C146.701 75.6136 148.807 79.3729 149.504 77.076L151.819 69.4634C152.599 66.9026 153.337 64.4813 154.869 62.2512C154.016 62.2027 154.107 63.0462 153.428 63.1645C154.423 60.7918 154.283 58.2341 153.613 55.6672C152.587 51.741 151.534 47.5296 152.311 43.4184C153.033 41.8801 155.867 42.9208 156.583 44.2528C157.679 46.2856 159.007 47.8634 159.972 49.9054C160.67 51.3799 159.165 54.1016 159.73 55.4973C162.02 53.3491 163.328 50.7853 163.726 47.6571C164.672 40.1961 164.581 42.1865 161.025 35.5751C158.134 36.5946 155.151 36.4156 152.696 35.1777C152.269 34.3494 152.19 32.629 152.742 31.9736C153.488 31.0846 158.48 30.4171 160.142 31.916C161.335 27.9291 157.927 27.3344 157.979 23.4811C157.278 23.3263 156.774 23.3537 155.985 23.3415C154.623 21.3056 153.352 19.1696 153.051 16.6422C152.915 15.5013 153.84 14.8884 154.626 14.4758C156.562 13.4593 159.329 17.0639 159.296 16.9911C160.552 19.7521 157.991 23.4356 160.531 26.3787C163.762 30.1228 161.489 32.9172 164.657 37.7203C167.094 41.4159 165.916 43.6277 165.977 47.299C167.719 45.8912 168.969 44.3286 170.759 43.2788C171.654 42.7539 172.501 42.2958 173.265 41.5069L175.495 39.2131L178.114 36.7463C179.528 35.4143 180.259 33.4057 181.157 31.5853C182.462 28.9395 182.929 25.7142 182.914 22.7741C182.902 20.4105 181.673 18.3716 181.512 16.0596C181.455 15.2464 182.799 15.0159 183.357 14.9977C184.71 14.9521 185.086 16.5329 185.836 16.4328C186.376 16.36 188.03 12.719 188.051 12.1274C188.16 9.28741 187.45 6.43229 186.871 3.69854C186.673 2.76099 186.148 2.08741 186.764 1.43507C187.966 0.160735 190.894 0.934439 191.389 2.43937C192.153 4.77565 189.064 4.96073 189.647 6.67199C190.099 7.9979 189.905 9.26921 190.053 10.6164C190.19 11.8725 190.557 13.1408 189.656 14.2573C189.164 14.8672 189.225 15.8806 188.773 16.4995C186.816 19.1878 184.883 21.8275 183.8 25.0619C183.017 27.3982 182.632 29.8012 181.6 32.0434C179.288 37.0679 175.714 41.0639 171.909 44.9597C167.497 49.4806 166.733 52.721 163.334 57.3481C161.926 59.2657 160.61 61.1226 159.49 63.3041C160.846 63.5468 160.934 62.4424 161.441 61.7506C162.715 60.009 165.043 59.2475 167.227 59.384C170.756 59.6025 174.024 60.2153 177.337 61.3683C178.882 61.9054 180.113 63.6712 179.364 65.3097C178.742 66.6689 176.958 67.5549 175.426 67.5974C172.455 67.6793 169.518 67.7036 166.678 66.8662C161.401 65.3127 161.875 65.9256 157.709 69.9488C157.09 70.5466 155.585 71.1959 155.445 72.1334C154.984 75.2677 153.482 77.4947 151.977 80.2285L148.867 85.8811C148.012 87.4346 143.812 89.4947 141.87 90.7084L133.654 95.8391C132.179 96.7585 131.026 97.6171 129.539 98.8611C132.774 98.3605 135.371 99.1433 138.396 99.4619C141.973 99.8381 145.921 98.0631 148.203 95.3385C149.565 93.7122 150.624 92.1314 152.202 90.6993C151.419 89.6495 149.799 88.8697 150.132 87.6439C150.5 86.2877 151.559 85.1104 152.393 83.833C153.097 82.7559 155.867 82.2189 156.653 83.1898C157.181 83.8391 158.216 86.2361 159.187 85.0467C161.99 81.6151 164.251 77.6798 167.892 74.8884C166.79 76.7787 165.546 78.4141 164.205 80.0009C160.579 84.3033 161.356 85.3896 157.102 90.4505C156.495 91.1726 156.007 91.4609 156.577 92.5319C157.148 93.603 156.793 95.0472 155.718 95.8057C153.537 97.344 151.613 99.1797 149.307 100.539C147.917 101.355 146.337 101.747 144.753 102.417C143.512 102.942 141.145 103.048 140.019 102.423C138.493 101.574 137.41 102.18 136.017 101.98C133.296 101.586 130.756 102.602 128.186 102.529C126.177 102.472 124.578 102.262 122.609 102.83C120.233 103.519 118.938 104.065 117.861 106.495L114.805 113.398C113.598 116.128 113.267 118.914 112.42 121.729C111.78 123.85 110.87 125.631 110.594 127.955C110.202 131.275 109.104 134.345 109.162 137.744C109.247 142.589 107.702 148.606 109.089 152.705C109.787 154.771 109.074 157.168 109.034 159.465C110.412 159.741 111.832 159.398 113.246 159.871C114.174 160.181 115.846 161.461 115.718 162.454C115.576 163.558 113.877 163.291 113.012 163.424C113.643 167.408 111.392 173.841 113.84 176.104C114.678 176.878 115.928 176.477 116.92 176.729C119.138 177.293 121.317 177.861 123.374 178.777C125.622 179.775 127.154 181.575 129.014 183.119C131.229 184.961 133.648 186.617 134.989 189.242C135.999 191.217 135.899 193.559 136.515 195.653C137.956 200.553 137.647 205.38 136.752 210.369C135.844 215.43 134.385 220.06 131.736 224.48C130.392 226.726 128.371 231.043 125.434 231.334C125.379 230.042 126.569 229.875 127.221 229.153C129.597 226.531 131.317 223.403 132.865 220.248C134.418 217.074 133.223 213.915 133.086 210.605L132.941 207.165C132.904 206.33 132.792 205.08 132.898 204.227C133.96 195.841 128.447 192.118 127.658 190.286C126.287 187.103 128.095 183.756 124.694 182.272L119.614 180.061L117.369 178.031C116.246 177.017 114.308 177.488 112.997 176.65C110.961 175.352 111.935 166.119 112.463 163.643C111.249 163.485 110.257 163.591 108.964 163.664C107.742 168.218 107.095 172.797 106.886 177.594C106.813 179.254 106.504 180.761 106.737 182.439C107.581 188.568 106.021 187.892 103.821 192.361C103.169 193.687 103.087 195.204 102.225 196.439C100.563 198.824 99.9072 201.521 99.0668 204.249C98.4994 206.081 97.0672 207.562 96.8184 209.528C96.5696 211.494 95.7686 213.375 95.6351 215.345L95.3772 219.101C95.3286 219.79 94.1544 221.015 93.3625 220.791C91.8484 220.366 91.7452 218.021 92.525 216.801C94.9888 212.969 96.2359 209.07 97.0945 204.643C98.4144 197.841 102.765 188.914 103.12 186.15L106.434 160.214L101.488 160.245C100.824 160.248 100.39 160.666 100.189 161.206C99.7313 162.447 102.344 162.623 102.316 165.545C102.292 168.136 102.42 170.725 102.01 173.316C101.873 174.177 101.467 175.033 101.276 175.904C100.772 178.198 96.0993 179.845 94.0998 180.965C94.6459 185.213 93.6234 195.683 92.4249 199.758C92.1822 200.58 92.7101 201.609 92.3551 202.38C91.2749 204.728 93.1349 207.362 87.1545 216.504C86.2533 217.884 85.8771 219.55 84.4237 220.493C84.099 220.703 83.6287 220.815 83.4952 221.161C83.0553 222.299 86.3261 225.339 86.9482 226.595C84.8667 225.451 83.207 223.831 81.7748 221.71C80.4155 222.053 78.9985 222.542 78.0549 223.503C76.1009 225.497 73.631 223.88 73.0485 225.16C72.3749 226.638 72.9787 228.619 72.029 229.999L69.9627 233.003C69.1252 234.22 67.8357 235.227 66.801 236.183C65.5024 237.378 64.1188 237.697 62.5016 238.052C61.4062 238.292 60.5475 239.087 59.3005 239.008C57.8562 238.917 56.2541 238.977 54.8796 239.472C53.5051 239.967 47.6279 239.284 45.7618 240.024L45.7436 240ZM134.406 82.5405C135.307 82.9167 137.07 82.5405 137.683 81.7092C139.3 79.5155 137.604 77.0275 141.13 71.7784C141.798 70.7863 141.791 69.3056 142.052 68.1739C142.341 66.9147 141.497 66.2684 140.587 65.6889L133.717 61.338C131.894 65.5918 130.893 70.3008 129.454 74.2786C128.884 75.8624 129.639 77.5524 131.199 78.3352C131.694 77.3066 132.971 71.563 133.912 71.9423C135.684 72.6553 132.868 81.8942 134.403 82.5375L134.406 82.5405ZM135.165 91.8765L143.636 86.3726C145.02 85.4745 146.294 84.3792 146.862 82.8409C142.68 82.3736 143.515 81.7092 141.236 78.9147C140.459 80.7109 140.572 82.4586 139.558 83.8604C138.175 85.7749 134.828 84.7949 135.059 86.6457C135.277 88.3994 135.025 89.959 135.165 91.8735V91.8765ZM155.078 93.5787C154.981 93.166 154.623 92.6776 154.077 92.7322C152.951 92.8444 149.881 97.2227 149.149 98.5395C151.1 97.5018 155.494 95.3324 155.078 93.5787ZM86.8662 142.671C85.5676 140.711 83.5043 139.209 80.8191 139.807L86.8662 142.671ZM114.022 161.91C112.469 160.545 110.736 160.324 109.119 160.202C108.852 161.322 108.764 161.959 108.907 163.009C110.594 162.341 112.396 162.784 114.025 161.91H114.022ZM90.7318 201.818C91.0807 201.843 90.9381 202.252 91.1505 202.459C93.2563 200.881 91.1263 198.663 91.2628 197.607L91.994 191.954C92.3066 189.524 92.8527 187.203 92.5311 184.679C92.4067 183.708 93.1834 182.643 92.437 181.748C87.9282 186.12 88.4683 185.686 85.8164 190.601C84.3145 193.383 83.5589 196.345 83.0613 199.47L81.2833 210.605C80.8828 213.124 81.6626 215.712 82.3665 218.027C85.0032 218.045 89.0448 210.229 89.3421 208.748L90.7318 201.818ZM92.8861 193.641C94.4791 186.35 92.8679 188.623 92.88 188.705C93.0075 189.433 92.5978 190.334 92.5948 191.084C92.5887 193.42 92.2823 195.529 91.7816 197.92C92.8072 196.733 92.434 195.192 92.8861 193.641ZM6.17456 214.668C6.67824 213.403 6.19277 212.42 5.7437 211.397C5.23699 212.468 5.08832 213.749 6.17456 214.668ZM63.1721 225.26C64.3828 225.026 65.4933 225.257 66.4339 224.392C63.2389 224.034 60.1956 224.21 57.2008 225.005L63.1721 225.257V225.26Z" fill="#012E4E"/>
<path d="M123.11 230.312C123.905 230.121 125.301 230.47 124.985 231.146C121.144 234.957 111.076 234.593 105.873 235.115C101.242 235.579 97.0491 235.382 92.5949 233.82C90.0643 232.931 87.2547 232.257 85.8468 229.59C85.7406 229.39 85.6647 228.88 85.7103 228.68C85.774 228.419 86.6448 228.385 86.8693 228.549C89.2208 230.248 91.7422 230.291 94.4397 230.779C96.9125 231.228 99.1852 231.899 101.804 231.869L112.09 231.759C115.834 231.72 119.305 231.219 123.11 230.312Z" fill="#012E4E"/>
<path d="M121.043 76.354C123.061 78.927 124.624 81.5393 125.149 84.8557C123.999 83.5965 122.494 83.1778 121.471 82.128L114.135 74.6063C113.352 73.8023 112.329 72.3914 112.526 71.2233C113.385 66.1745 117.521 65.3098 119.727 61.7902C120.1 61.1924 121.553 60.5644 122.057 61.1742L124.554 64.1993C124.754 64.442 124.836 64.7666 124.742 64.9669C124.621 65.2187 124.272 65.1459 124.005 64.9699L121.42 63.2587C120.094 66.49 115.861 68.0981 116.164 70.1401L121.043 76.354Z" fill="#012E4E"/>
<path d="M62.3741 201.451L57.2402 200.398L51.815 200.071L46.9512 199.786C43.65 199.594 39.0714 199.5 36.3284 201.072C37.533 201.591 38.771 201.357 39.8148 201.925C40.461 202.277 40.9313 202.856 41.8082 202.716C41.523 202.762 49.1237 203.035 48.8233 203.578C46.9421 203.7 45.2885 203.244 43.474 203.156C40.4671 203.011 37.5664 202.468 34.9631 200.902C33.7221 201.551 32.5266 201.919 31.4464 202.665C30.3662 203.411 29.9384 204.586 28.661 205.11C32.7056 198.717 42.8429 198.912 49.3573 199.367L53.0226 199.622L55.7656 199.907C61.0512 200.456 60.3806 199.191 66.3519 201.934C65.918 202.407 65.5296 201.824 65.3446 201.976C65.029 202.234 64.9562 202.559 65.0138 202.817C65.0958 203.172 65.6389 203.199 66.0728 203.569C65.1049 203.366 64.3402 204.546 63.3996 204.64C60.6021 204.925 57.7166 204.928 54.825 204.761L49.4059 204.452L44.5026 204.124L49.6698 203.806C49.3998 203.575 49.0084 203.639 49.1176 203.26C54.0634 203.891 58.8665 203.924 63.8487 203.229C63.6848 202.665 63.2115 201.621 62.368 201.448L62.3741 201.451Z" fill="#012E4E"/>
<path d="M6.92405 155.421C7.3094 154.271 7.89197 153.594 7.14555 152.845C6.95136 150.533 8.16808 148.712 9.71552 146.986L14.3002 141.87C16.6032 139.3 19.3734 137.286 21.4367 134.394C23.2936 134.021 23.8276 132.382 24.0127 130.665C24.1523 129.369 24.6651 124.305 24.5073 123.377C24.4375 122.967 25.0656 122.194 25.2446 122.476C25.815 123.38 25.1566 124.463 25.2051 125.455C25.2962 127.331 25.6512 129.014 25.3569 130.914C25.1202 130.814 25.0747 130.568 24.7348 130.507C24.1401 133.441 18.8151 139.865 16.591 141.445C14.4883 142.938 13.3475 145.232 11.5512 146.995C9.67911 148.83 7.91624 150.614 8.08919 153.497C7.61889 154.155 7.91017 155.22 6.92102 155.421H6.92405Z" fill="#012E4E"/>
<path d="M169.815 41.1186C168.947 40.8091 169.126 39.5408 169.017 38.7914C168.781 37.1742 169.615 35.1656 171.514 35.2566C173.214 35.3386 174.185 37.5869 173.763 39.0554C173.302 40.6574 171.766 41.8104 169.818 41.1186H169.815Z" fill="#012E4E"/>
<path d="M100.308 229.799C99.0364 230.376 97.7317 229.811 96.3451 229.723C94.8189 229.626 93.3989 229.845 92.0638 229.208C94.7279 228.756 97.4192 229.717 100.308 229.802V229.799Z" fill="#012E4E"/>
</g>
<defs>
<clipPath id="clip0_9_2139">
<rect width="191.762" height="240" fill="white"/>
</clipPath>
</defs>
</svg>
