<svg width="112" height="78" viewBox="0 0 112 78" fill="none" xmlns="http://www.w3.org/2000/svg">
<path d="M46.8749 24.4346C49.1926 24.5617 51.3135 24.3848 53.5788 24.2053C54.6081 24.1231 55.281 24.6415 55.6473 25.6608C55.9414 26.4757 56.3302 28.3249 55.2984 28.8981C53.544 29.8725 51.2935 29.8401 49.3123 29.8999L44.3479 30.0519C43.0869 30.0918 41.8358 30.1516 40.6271 29.6657C40.4576 27.0813 40.5723 24.5542 40.2433 22.0147C40.1013 20.9182 40.2583 20.1381 40.4452 19.0865C41.0682 15.5451 40.8713 12.0237 40.5 8.47485C40.3081 6.64561 41.0732 4.8388 41.0159 3.02949C40.9984 2.50863 40.0689 1.51675 40.9162 1.02082C41.1205 0.901192 41.4271 1.38218 41.5841 1.44947C41.7909 1.53918 42.0925 1.11801 42.3791 1.04324C45.0033 0.35541 49.5939 0.938574 52.8461 0.751662C53.7209 0.701819 54.8623 0.347933 55.5875 1.08063C56.557 2.05755 56.7165 3.90175 56.223 5.16776C55.5601 6.87489 50.2568 5.47679 46.4363 6.39889C45.6662 6.58331 46.2045 7.93655 46.4089 8.40757C47.2637 10.3863 45.9354 11.9414 46.6531 12.8486C48.3628 13.2947 50.1571 12.6741 51.8393 12.9906C52.3377 13.0853 52.8113 13.5863 53.3844 13.205C54.2692 14.7925 53.8455 17.7482 51.924 18.0398L47.331 18.7376C46.7678 20.5518 46.865 22.4883 46.8774 24.4321L46.8749 24.4346Z" fill="#8B8C80"/>
<path d="M71.8838 17.3818C71.1486 19.1139 67.5848 19.4354 67.0191 19.712C66.4533 19.9886 65.9449 20.1307 65.4291 19.8092C64.1556 22.406 66.0521 29.252 64.9057 30.184C64.654 30.3884 61.9401 30.6202 60.9058 30.0644C59.0192 29.0501 59.8666 16.9532 59.8142 14.2567L59.6772 7.34343C59.6398 5.42197 59.2111 3.60021 59.6971 1.6962C64.9855 0.958523 68.9555 0.116175 73.7853 1.94542L73.1672 2.47375C72.8682 2.73045 74.9217 3.35598 73.5286 3.45317C73.5385 4.14848 74.0768 4.67184 74.3535 5.35967C74.7148 6.26183 73.5111 5.68365 75.5597 7.74217C75.6419 7.21384 75.3877 6.58332 75.936 6.23442C77.2867 7.09172 76.1977 10.1446 75.3528 11.2162C75.2806 11.3084 74.817 11.0617 74.7522 11.1614C74.6874 11.2611 74.4083 11.4929 74.5379 11.5651L75.2507 11.9614C74.6476 12.9084 74.1068 14.3638 73.2569 15.1588C72.4594 15.904 72.2875 16.4373 71.8838 17.3843V17.3818ZM70.7 6.63067C69.1673 5.25749 66.6976 5.42197 64.8833 6.05498L65.3369 13.7906C67.4402 15.2062 72.6912 8.41256 70.6975 6.62818L70.7 6.63067ZM70.7025 14.9146C70.7972 14.1769 70.4757 13.7582 70.3885 13.1227C69.4489 13.3894 69.09 14.0623 69.3692 14.7451C69.5685 15.2336 70.1617 15.5327 70.8395 15.7295C71.0937 15.3682 71.338 15.0915 71.5398 14.5981C71.1087 14.5906 70.9791 14.8747 70.7 14.9121L70.7025 14.9146Z" fill="#8B8C80"/>
<path d="M101.812 24.4271C103.644 25.3442 105.388 23.8689 106.116 22.239C106.462 21.4639 106.756 20.2852 107.474 19.9088C108.972 19.5724 110.46 20.2154 111.975 20.4496C111.788 21.8378 111.197 22.8471 110.574 23.976C110.402 24.2876 110.622 24.7013 110.527 24.9405C109.236 28.2351 106.071 29.6881 102.672 29.5784C101.383 29.536 100.588 29.1248 99.5441 28.6962C97.0146 27.657 95.8408 25.7928 95.467 23.0838C95.2527 21.5287 94.6471 19.9886 94.5125 18.3562C94.4278 17.317 94.5947 16.4099 94.5474 15.4279L94.4302 12.9806C94.3256 10.7676 94.1985 8.44492 95.4396 6.38391C95.5517 4.06869 96.9623 2.04755 99.2052 1.27249L101.929 0.33295C104.224 -0.459555 106.236 0.243233 108.092 1.59149C108.912 2.18711 109.715 2.45876 110.171 3.52789C110.333 3.9067 112.847 7.54276 111.232 8.33776C110.156 8.86609 109.052 9.10285 107.965 9.54645C107.723 9.22497 108.09 7.86923 107.566 8.13589C107.497 8.17078 107.409 8.34274 107.267 8.47981C106.809 7.17641 106.036 5.41695 104.464 4.79142C103.19 4.28302 101.177 5.17272 100.456 6.27674C99.2725 8.09352 99.3722 10.2168 99.3971 12.2604C99.4145 13.6411 99.6289 20.5194 100.015 21.2546C100.524 22.2166 101.02 23.5947 101.81 24.4321L101.812 24.4271Z" fill="#8B8C80"/>
<path d="M84.3595 29.2894C83.2256 29.3417 82.1465 28.8408 80.9054 29.1573C80.5316 29.252 79.9908 29.1174 79.7366 28.8533C79.3054 28.4072 79.6593 24.9331 79.9035 24.1431C80.377 23.3556 82.4231 24.5892 83.0711 23.074C83.3701 23.5824 83.4748 23.4029 83.6168 22.9917C83.0362 22.0522 83.3527 21.1799 83.3103 20.2653C83.1359 16.5146 82.9564 12.9359 83.0785 9.23252C83.1159 8.11354 82.9514 6.98709 82.7371 5.94786L78.9565 5.66375C78.4082 5.67871 78.6375 1.39967 78.812 0.881306L81.7303 0.569786C85.0498 0.2159 88.3669 0.766666 91.7238 0.397827C92.4441 1.47942 92.4142 4.35288 91.5095 5.23012C89.9893 6.70049 87.9706 5.56158 87.9607 6.2519L87.9083 9.86055C87.8734 12.3328 88.185 14.8349 87.7289 17.2797C87.5968 17.9875 87.532 18.1096 87.7538 18.7326C88.1476 19.8416 87.8136 22.593 88.4666 23.3606C88.5015 23.4029 90.6696 22.9743 91.5145 23.1089C91.8559 24.2901 92.6011 25.4789 92.3045 26.5705C91.8459 28.2676 90.4329 29.0103 88.8155 29.085L84.362 29.2919L84.3595 29.2894ZM86.5975 18.451C86.5975 19.3557 86.57 23.2733 87.0884 23.236C87.6766 23.1936 87.385 18.1146 86.5975 18.451Z" fill="#8B8C80"/>
<path d="M21.6044 20.3475C20.1166 20.1756 18.6711 20.2329 17.1958 20.2777C16.6799 23.6995 17.3179 25.7904 16.64 29.6607C15.6531 29.5461 14.2924 30.032 13.4924 29.3641C12.9043 28.6738 13.3778 27.171 13.2706 26.2963C12.7473 21.9998 13.7192 14.8349 13.5174 10.0873C14.7236 9.97516 15.7852 10.0175 17.0986 10.2119L17.3378 16.8984C18.6861 17.0977 20.0244 17.1052 21.4374 16.8809L21.3577 11.7446C21.3502 11.296 21.3801 10.3864 21.7789 10.1521C22.8629 9.51411 24.1314 9.65118 25.4648 9.77579C25.5071 10.8898 25.7339 11.8368 25.6542 13.053C25.076 12.7539 25.694 12.2306 25.2579 11.7645C24.9738 12.8187 25.3825 13.9103 25.6492 15.0268C26.1277 17.033 25.2031 21.1924 25.6367 23.039C25.8834 24.0932 26.0006 24.7761 25.7713 25.8801C25.5221 27.0913 25.8336 28.4819 25.0959 29.6657C24.1215 29.6333 23.1844 29.4937 22.0754 29.723C21.7265 28.9106 21.729 28.0433 21.8461 27.181C21.9633 26.3187 21.5321 25.5312 21.5446 24.6739L21.6069 20.3525L21.6044 20.3475Z" fill="#8B8C80"/>
<path d="M31.1171 25.7954C32.5476 26.1243 33.7363 25.6384 35.2291 25.7705C36.2584 25.8627 36.8191 28.2626 35.8297 28.8458C34.2547 29.7754 32.2585 29.3791 30.5115 29.5785C29.3975 29.7056 28.4056 29.8252 27.4063 29.2047L27.3265 23.2883C27.2916 20.674 27.8573 18.1619 27.4362 15.5078C27.2318 14.2243 27.7502 12.9882 27.7427 11.7496C27.7402 11.2337 27.2966 10.7801 27.5857 10.3291C28.59 10.4836 29.4174 10.0126 30.3894 10.0275L35.6279 10.1023C36.6198 10.1172 36.9064 12.6268 36.2808 13.2798C35.5232 14.0698 32.104 13.2249 30.5464 13.9801C30.9725 15.4031 31.0024 16.6392 30.8803 18.0298C31.2292 18.623 34.175 17.6784 34.8603 18.7202C35.3861 19.5176 34.9799 21.3818 34.0778 21.5662L31.3364 22.1269C31.0647 23.2858 31.0498 24.497 31.1221 25.7929L31.1171 25.7954Z" fill="#8B8C80"/>
<path d="M18.4393 4.61204L10.4046 4.71671C10.1878 4.53229 10.4445 4.41017 10.7062 4.14351C10.1878 3.90925 9.54235 3.92171 9.00902 4.14351C9.12366 4.42014 9.34297 4.47995 9.28316 4.70425C6.29507 4.94599 3.52628 4.9086 0.640364 4.72917C0.455944 3.55786 0.191775 2.67812 0.199252 1.5093L20.8717 1.19031L36.5224 2.20711C36.7716 3.12671 36.6819 3.70739 36.5897 4.62948C35.8022 4.26064 35.1542 4.36282 34.3493 4.51983C32.9761 4.78649 31.5655 4.25566 30.2198 4.59459C29.679 4.73166 29.2727 5.00829 28.6472 4.97091C25.213 4.75409 21.886 4.56967 18.4393 4.61453V4.61204ZM17.1683 3.93666C15.3067 3.18902 14.1404 3.65256 12.1815 3.94165C13.8363 4.10115 15.2793 4.10613 17.1683 3.93666Z" fill="#8B8C80"/>
<path d="M4.77494 29.6706C3.8653 28.4644 4.14193 22.882 4.12448 21.2471L4.05221 14.2193C2.86595 13.5763 1.48529 14.628 1.11645 13.2847C0.944493 13.6112 0.436093 13.8529 0.326438 13.4691C0.0398401 12.4772 0.142019 11.5551 0.271611 10.4935C1.57501 10.633 2.71642 10.3714 3.98492 10.3415L9.69695 10.2094C11.0128 10.1795 11.7006 11.0293 11.8028 12.2131C11.8626 12.9034 11.9947 13.7009 11.1972 13.99C10.2726 14.3264 9.12624 13.8255 8.28389 14.3289C7.82783 14.7551 7.86272 15.9588 7.87269 16.6391C7.93748 20.7637 8.21411 24.8358 7.47145 28.9778C7.30946 29.8775 5.48022 29.8999 4.77743 29.6706H4.77494Z" fill="#8B8C80"/>
<path d="M44.9983 36.9327L33.3799 36.9551C32.6223 36.9551 31.8721 37.4012 31.0971 36.8405C31.4086 36.4418 31.9419 37.01 32.2086 36.3969C30.2622 36.22 28.5576 36.3022 26.6411 36.4791C27.1495 36.9501 27.7526 36.7308 28.3408 36.99C27.6205 36.9053 26.9277 37.1271 26.1327 37.1296L10.1754 37.2193C10.462 36.6561 11.0726 36.9925 11.3442 36.6062C9.6745 36.4343 8.087 36.3221 6.45215 36.6511C7.51879 37.2367 8.60537 36.5838 9.75425 37.1221L1.69462 37.2891C1.00429 36.21 0.558196 35.238 0.0921631 33.9571L18.9378 33.7577L40.6121 33.4885L58.3239 33.3166L88.4541 33.7203L103.91 33.9596C105.301 33.982 106.734 34.1265 108.057 33.9396C108.095 34.4082 108.125 34.8493 108.67 35.0736C108.219 35.3003 107.708 35.2031 107.37 35.7788C108.035 35.8661 108.942 35.9832 109.583 35.5496C109.727 35.1384 109.042 34.5377 108.394 34.6574C108.765 34.3982 108.705 34.1814 108.845 34.0418C108.93 33.9571 111.746 33.7577 111.761 34.9465C111.766 35.405 111.252 35.8013 111.589 36.5763C109.254 35.9034 107.213 36.3794 104.917 36.3919L90.4378 36.4592C91.0584 37.1121 91.9356 36.2598 92.7231 36.9078L73.2046 36.8006L45.0008 36.9327H44.9983ZM41.9903 36.2374C45.5341 36.0081 48.8313 36.4368 52.091 36.0305L37.1032 35.9608C37.7337 36.4717 38.429 36.0355 39.0645 36.205C39.9966 36.7084 40.9236 36.3072 41.9903 36.2374Z" fill="#8B8C80"/>
<path d="M94.4179 77.019L89.623 77.1063L82.4829 65.5103L82.4156 77.044C81.192 77.1387 80.0456 77.1212 78.7472 77.0589V60.653L83.6842 60.6755L90.6074 71.8702L90.7469 60.6879C91.983 60.6007 93.1045 60.5583 94.383 60.7128L94.4154 77.0215L94.4179 77.019Z" fill="#8B8C80"/>
<path d="M42.7255 68.4435C42.9448 73.869 39.0645 77.52 33.8883 77.5549C28.8542 77.5897 25.0113 74.2029 24.8966 69.089C24.782 63.9751 28.6747 60.1646 33.8883 60.207C38.6832 60.2443 42.5212 63.4218 42.723 68.4435H42.7255ZM39.0745 68.8871C39.0745 65.9838 36.7219 63.6287 33.8161 63.6287C30.9102 63.6287 28.5576 65.9813 28.5576 68.8871C28.5576 71.793 30.9102 74.1456 33.8161 74.1456C36.7219 74.1456 39.0745 71.793 39.0745 68.8871Z" fill="#8B8C80"/>
<path d="M55.9838 70.826L53.1004 70.5943C53.0406 69.4578 53.0306 68.456 53.1079 67.3594H59.5127V75.8652C57.4791 77.2034 55.0219 77.4228 52.607 77.51C47.5205 77.6944 43.7598 74.0633 43.6601 69.074C43.5604 64.0847 47.3784 60.0898 52.6119 60.2518C54.9421 60.3241 57.3271 60.5932 59.1314 62.3452L56.567 65.1015C54.4487 63.1751 51.0768 62.9408 48.9883 65.0218C46.8999 67.1027 46.9523 70.9531 49.1653 72.9369C51.0768 74.6515 53.8804 74.4297 55.9539 73.3556C56.0337 72.4609 56.0187 71.8652 55.9813 70.8235L55.9838 70.826Z" fill="#8B8C80"/>
<path d="M10.5318 57.5528C9.50009 58.0887 8.3537 58.3528 7.22475 58.3528L0.0124512 58.3653V41.9096C3.85785 42.2286 11.2596 40.5414 12.0346 45.2441C12.3461 47.1306 11.581 48.8627 9.43031 49.7225C11.3493 50.201 12.5829 51.4271 12.8097 53.1766C13.0365 54.9261 12.3312 56.6258 10.5318 57.5504V57.5528ZM7.26213 48.2995C8.18423 48.0478 8.50073 47.2054 8.46086 46.5525C8.34871 44.631 5.09396 44.8578 3.60614 45.0323C3.56876 46.2484 3.49898 47.3026 3.67094 48.444C4.91203 48.444 6.05842 48.6284 7.26213 48.302V48.2995ZM9.22097 53.2763C9.08639 51.0259 5.29582 51.624 3.61362 51.619L3.59866 55.2725C5.45283 55.3473 9.37797 55.9005 9.22097 53.2738V53.2763Z" fill="#8B8C80"/>
<path d="M108.494 70.7613L105.655 70.6766C105.6 69.5775 105.595 68.5533 105.667 67.3496L112 67.4119L111.948 75.9924C109.635 77.2609 107.183 77.5051 104.678 77.4951C99.8109 77.4752 96.3069 73.8765 96.2122 69.0866C96.1125 64.015 99.8009 60.1896 104.947 60.2444C107.34 60.2693 109.822 60.5634 111.678 62.3528L109.137 65.0792C106.998 63.1901 103.651 62.9409 101.54 65.0119C99.4296 67.0829 99.5068 71.1202 101.864 73.0616C103.778 74.6366 106.375 74.36 108.466 73.4354C108.621 72.5108 108.578 71.7806 108.494 70.7638V70.7613Z" fill="#8B8C80"/>
<path d="M90.707 58.4226L87.2604 52.0526C87.0261 51.619 85.8971 51.6888 85.4735 51.953L85.3763 58.308C84.1801 58.4126 83.0337 58.4076 81.7826 58.3204L81.8125 41.8996C84.6785 41.9818 87.2554 41.7775 89.8173 42.0242C92.6484 42.2958 94.4652 44.2946 94.3381 47.0185C94.2384 49.1343 93.2141 50.9212 90.8391 51.452L94.9088 58.3179L90.7095 58.4251L90.707 58.4226ZM89.0622 48.5935C90.1986 48.459 90.5674 47.6017 90.5575 46.7718C90.5276 44.5886 87.1607 44.9201 85.4785 44.9849C85.3613 46.2509 85.3588 47.3624 85.471 48.6509C86.6722 48.6957 87.7912 48.748 89.0622 48.596V48.5935Z" fill="#8B8C80"/>
<path d="M28.9663 49.5057L36.687 58.2332C35.087 58.5497 33.5593 58.2756 31.8198 58.3802L25.2505 50.7891L25.1059 58.3329L21.5172 58.3628V41.9195L25.1159 41.9445L25.2106 48.5711L31.446 41.947C33.0285 41.8996 34.4764 41.8348 36.1312 41.9744L28.9638 49.5057H28.9663Z" fill="#8B8C80"/>
<path d="M104.172 49.5131L111.91 58.283C110.241 58.4674 108.646 58.3802 106.958 58.3329L100.491 50.8041L100.292 58.3179C99.143 58.4076 97.9742 58.4151 96.7007 58.3179V41.9494C97.9667 41.8821 99.128 41.8747 100.299 41.9494L100.446 48.5163L106.697 41.932C108.267 41.9719 109.695 41.7102 111.26 42.0691L104.17 49.5131H104.172Z" fill="#8B8C80"/>
<path d="M22.6587 70.3202L15.6682 70.395C15.399 71.4516 15.4264 72.5557 15.5984 73.7369L23.4238 73.8167C23.496 74.9382 23.4861 75.935 23.4088 77.0889L11.905 77.0939L11.8876 60.6905L23.4063 60.6332C23.496 61.8344 23.4861 62.8612 23.4188 64.0001L15.5486 64.0923C15.4464 65.134 15.4514 66.0387 15.5211 67.0654L22.6288 67.1078L22.6587 70.3227V70.3202Z" fill="#8B8C80"/>
<path d="M48.7167 51.6216L41.6564 51.7187C41.5817 52.7729 41.5966 53.7548 41.6514 54.9461L49.5092 55.0483C49.6214 56.252 49.6139 57.2239 49.4943 58.3628L38.0029 58.3354L38.0079 41.9495L49.4992 41.9121C49.6164 43.0635 49.6014 44.0354 49.5316 45.2067L41.6689 45.274C41.5842 46.2883 41.5867 47.2628 41.6589 48.302L48.632 48.3369C48.8214 49.3462 48.6918 50.2633 48.7167 51.6191V51.6216Z" fill="#8B8C80"/>
<path d="M72.1754 73.6646L65.8253 73.6098L64.4098 77.0589C63.1238 77.1088 61.8827 77.1661 60.4473 77.014L67.5125 60.673C68.5941 60.5858 69.4564 60.5882 70.533 60.673L77.6257 77.0041C76.1653 77.2234 74.9093 77.191 73.5635 77.0165L72.1754 73.6646ZM70.8595 70.4672L68.8932 65.575L66.9842 70.5295C68.3499 70.5544 69.4788 70.6665 70.8595 70.4672Z" fill="#8B8C80"/>
<path d="M74.9292 54.9286L68.5717 54.8912L67.1861 58.3354C65.9051 58.4002 64.6989 58.4151 63.2161 58.3129L70.2464 41.9544C71.3505 41.8871 72.1978 41.8622 73.2619 41.9544L80.3397 58.2332C78.9889 58.5098 77.688 58.3578 76.3049 58.3304L74.9292 54.9286ZM73.6233 51.7436L71.6296 46.854L69.7206 51.8184L73.6258 51.7411L73.6233 51.7436Z" fill="#8B8C80"/>
<path d="M60.7239 51.7462C59.1812 52.0203 57.6137 51.8957 55.934 51.9231L55.767 58.3504L52.2506 58.3304L52.2231 41.9719C54.815 41.8722 57.3869 41.8398 59.909 42.0093C62.8671 42.2087 64.6964 44.2921 64.5668 47.1481C64.4596 49.4683 63.246 51.2976 60.7239 51.7462ZM59.2909 48.7556C60.3575 48.5238 60.8211 47.6516 60.7837 46.7818C60.699 44.6959 57.4791 44.9002 55.8891 44.9725C55.7819 46.3182 55.8044 47.4896 55.8816 48.8578C57.0106 48.8578 58.1196 49.0073 59.2909 48.7556Z" fill="#8B8C80"/>
<path d="M10.2876 73.8142C10.4122 74.9855 10.3424 75.9275 10.32 77.0714L0 77.0839L0.00996863 60.6606C1.22116 60.5883 2.26039 60.5883 3.55631 60.673L3.63606 73.7693L10.2876 73.8142Z" fill="#8B8C80"/>
<path d="M14.6924 41.909L14.6866 58.3797L18.3177 58.3809L18.3235 41.9103L14.6924 41.909Z" fill="#8B8C80"/>
</svg>
