<svg width="199" height="40" viewBox="0 0 199 40" fill="none" xmlns="http://www.w3.org/2000/svg">
<path d="M164.414 34.5178C164.224 34.8037 164.796 35.5668 165.034 35.8049C165.272 35.9952 165.701 36.3767 165.94 36.043C169.373 32.8491 172.9 29.6986 175.522 25.7929C176.712 23.9665 177.795 22.0721 178.764 20.1195C178.86 19.738 178.192 19.4998 177.858 19.452C176.657 21.5447 175.336 23.5663 173.901 25.507C171.134 28.887 167.945 31.8991 164.413 34.47M150.73 16.3529C149.911 17.04 148.974 17.5729 147.965 17.9259C146.256 18.536 144.479 18.9361 142.673 19.1174C142.401 19.1257 142.129 19.1577 141.862 19.213H141.814V20.7383C142.434 20.8339 143.006 20.8817 143.627 20.9764C145.682 21.228 147.68 21.8244 149.536 22.7407C150.174 23.0542 150.755 23.4732 151.253 23.98C151.61 24.3433 151.861 24.7976 151.979 25.2935C152.097 25.7894 152.076 26.3081 151.92 26.7933C151.589 28.0599 150.872 29.1925 149.87 30.035C149.417 30.4404 148.856 30.7055 148.255 30.7981C147.654 30.8906 147.039 30.8067 146.485 30.5564C145.239 30.0306 144.106 29.2699 143.148 28.3159C142.014 27.1977 140.978 25.9856 140.048 24.6927C140.013 24.5946 139.946 24.5109 139.858 24.4545C139.381 24.6927 138.953 24.976 138.523 25.2176C138.905 26.2188 139.286 27.1722 139.668 28.1725C140.288 29.7709 140.627 31.4646 140.669 33.1785C140.676 33.7248 140.612 34.2696 140.479 34.7993C140.379 35.349 140.116 35.8562 139.725 36.2555C139.335 36.6548 138.833 36.928 138.286 37.0399C137.106 37.3182 135.874 37.2852 134.711 36.9443C134.064 36.7529 133.492 36.3662 133.074 35.8372C132.656 35.3081 132.411 34.6627 132.374 33.9894C132.22 32.4472 132.383 30.8899 132.852 29.4127C133.244 28.043 133.738 26.7043 134.329 25.4079C134.427 25.1992 134.476 24.9709 134.472 24.7405C134.456 24.5895 134.392 24.4477 134.289 24.3361C134.186 24.2245 134.05 24.149 133.901 24.1208C133.741 24.0695 133.569 24.0747 133.412 24.1355C133.256 24.1962 133.126 24.3089 133.043 24.4545C132.566 25.0742 132.137 25.6939 131.66 26.3135C130.554 27.7785 129.198 29.0373 127.655 30.0324C127.017 30.4406 126.304 30.7163 125.557 30.8432C125.135 30.9181 124.702 30.897 124.289 30.7814C123.876 30.6659 123.495 30.4589 123.173 30.1758C122.082 29.2876 121.312 28.0666 120.981 26.6994C120.849 26.1929 120.864 25.6593 121.024 25.1611C121.185 24.6628 121.484 24.2206 121.886 23.8862C122.752 23.0931 123.775 22.4918 124.89 22.1219C126.754 21.4727 128.692 21.0564 130.659 20.8826H131.136V19.3573C130.707 19.3095 130.23 19.2617 129.801 19.2139C127.776 18.9997 125.797 18.4689 123.937 17.6408C123.321 17.3491 122.744 16.9806 122.221 16.544C121.681 16.1532 121.279 15.6009 121.073 14.9669C120.867 14.3328 120.869 13.6498 121.076 13.0164C121.345 11.9917 121.852 11.0444 122.554 10.2509C122.929 9.76255 123.453 9.40986 124.046 9.24642C124.64 9.08297 125.271 9.11772 125.843 9.34536C126.665 9.6169 127.438 10.0192 128.131 10.5369C129.624 11.688 130.955 13.035 132.088 14.5417C132.422 14.9232 132.708 15.3525 132.994 15.7332C133.043 15.828 133.112 15.9115 133.195 15.9781C133.279 16.0448 133.375 16.0931 133.479 16.1201C133.582 16.147 133.69 16.152 133.796 16.1346C133.901 16.1172 134.002 16.0779 134.091 16.0191C134.183 15.9607 134.262 15.8843 134.324 15.7947C134.386 15.705 134.43 15.6038 134.452 15.4971C134.474 15.3904 134.475 15.2803 134.453 15.1734C134.432 15.0665 134.39 14.9648 134.329 14.8745C133.069 12.469 132.353 9.81598 132.231 7.1031C132.229 6.48768 132.325 5.87591 132.517 5.29103C132.669 4.79928 132.946 4.3559 133.323 4.00515C133.7 3.65439 134.161 3.40854 134.663 3.29213C135.761 2.95857 136.926 2.90922 138.048 3.14872C138.668 3.25928 139.238 3.56319 139.675 4.01698C140.112 4.47077 140.394 5.05118 140.481 5.67517C140.672 6.89658 140.623 8.14341 140.338 9.34622C139.95 11.2081 139.342 13.017 138.526 14.7346C138.526 14.8302 138.478 14.878 138.43 14.9727C138.86 15.2109 139.336 15.4942 139.765 15.7358C140.194 15.1639 140.623 14.639 141.052 14.0671C142.189 12.6195 143.521 11.3359 145.009 10.2527C145.713 9.74554 146.505 9.37363 147.345 9.15589C147.796 9.04931 148.267 9.05439 148.715 9.17071C149.164 9.28702 149.577 9.51106 149.92 9.82336C150.94 10.7467 151.613 11.9917 151.826 13.351C151.937 13.9273 151.885 14.5232 151.674 15.071C151.463 15.6188 151.103 16.0966 150.635 16.4502M151.591 17.6895C152.413 17.0697 153.018 16.2049 153.318 15.2196C153.618 14.2344 153.597 13.1793 153.26 12.2064C152.962 11.0779 152.407 10.0335 151.639 9.15502C151.08 8.43568 150.315 7.90366 149.446 7.62977C148.773 7.43346 148.067 7.37454 147.371 7.45651C146.675 7.53848 146.002 7.75966 145.393 8.1069C144.062 8.8134 142.855 9.73122 141.818 10.8245C141.727 10.8909 141.646 10.9713 141.58 11.0627C141.675 10.7768 141.723 10.5412 141.77 10.3474C142.206 8.78171 142.336 7.14659 142.152 5.53178C142.052 4.55318 141.642 3.63214 140.981 2.90309C140.321 2.17405 139.445 1.67513 138.481 1.47919C138.12 1.38864 137.754 1.32502 137.384 1.28886H136.192C135.807 1.32903 135.425 1.39259 135.048 1.47919C134.045 1.61024 133.109 2.05386 132.373 2.74704C131.637 3.44021 131.138 4.34768 130.947 5.34058C130.725 6.37512 130.693 7.44143 130.852 8.48756C130.947 9.29843 131.138 10.1562 131.281 10.9671C131.233 10.9671 131.185 10.8715 131.138 10.8237C130.708 10.4422 130.327 10.0606 129.898 9.67909C128.862 8.75438 127.644 8.05609 126.323 7.62889C125.474 7.35134 124.561 7.33474 123.703 7.58123C122.844 7.82772 122.08 8.32598 121.507 9.01162C120.657 9.99008 120.038 11.1469 119.695 12.3967C119.472 13.1722 119.44 13.9899 119.6 14.7807C119.887 16.0143 120.616 17.0999 121.65 17.832C122.723 18.607 123.914 19.2028 125.177 19.5963C125.559 19.7397 125.94 19.8344 126.369 19.9778C126.251 19.9807 126.136 20.0136 126.035 20.0734L123.889 20.7887C122.688 21.23 121.597 21.9299 120.696 22.8389C120.182 23.3466 119.805 23.9746 119.596 24.6658C119.388 25.357 119.357 26.0893 119.504 26.7959C119.816 28.2481 120.526 29.585 121.554 30.6573C122.252 31.4757 123.2 32.0409 124.252 32.265C125.304 32.4891 126.4 32.3596 127.371 31.8966C128.684 31.3043 129.879 30.48 130.899 29.4631C131.014 29.3386 131.142 29.2268 131.28 29.1294C131.299 29.3088 131.266 29.4897 131.185 29.6508C130.78 31.1575 130.683 32.7302 130.899 34.2753C131.003 35.2277 131.389 36.1271 132.009 36.8579C132.628 37.5887 133.452 38.1173 134.375 38.3757C135.492 38.6833 136.656 38.7802 137.808 38.6616C138.632 38.5749 139.428 38.3149 140.144 37.8985C140.774 37.4663 141.292 36.891 141.657 36.2199C142.022 35.5487 142.222 34.8007 142.242 34.0372C142.37 32.756 142.257 31.4621 141.908 30.2227C141.813 29.8412 141.765 29.5074 141.67 29.1259H141.718L141.908 29.3162C142.99 30.4167 144.267 31.3059 145.675 31.9383C146.635 32.3758 147.71 32.4915 148.741 32.2682C149.772 32.0449 150.703 31.4944 151.396 30.699C152.092 29.9577 152.656 29.1033 153.065 28.1725C153.382 27.5728 153.515 26.8928 153.446 26.2179V25.3662C153.434 25.0248 153.37 24.6873 153.256 24.365C152.791 23.2822 151.989 22.3791 150.968 21.7908C149.893 21.1384 148.739 20.6259 147.535 20.2655C147.249 20.1699 147.013 20.1221 146.629 19.9796C146.963 19.884 147.249 19.7892 147.487 19.7414C148.97 19.3216 150.361 18.6261 151.587 17.6913M193.971 14.4973C192.664 14.1639 191.315 14.0193 189.967 14.068C191.349 12.0178 192.684 9.82509 192.207 7.20217C191.686 3.96045 188.012 1.57654 184.865 1.95807C181.861 2.3396 180.433 4.43759 178.955 6.77371C178.717 6.25226 178.574 5.67691 178.335 5.15285C177.779 3.85846 176.819 2.77844 175.599 2.07371C174.38 1.36897 172.964 1.07722 171.565 1.24193C167.846 1.81379 165.034 5.00858 165.748 8.82216C166.058 10.1931 166.609 11.4984 167.374 12.6775C167.326 12.7731 167.278 12.7731 167.183 12.7731C166.516 12.7731 165.706 12.5349 165.037 12.5349C160.27 12.5349 157.314 16.73 158.601 21.2598C159.65 25.0264 162.94 25.9798 166.515 25.6921C169.082 25.4304 171.533 24.4926 173.619 22.9745L173.047 21.9733C170.043 23.1648 165.085 24.8813 162.13 22.9293C159.222 20.9747 160.032 15.6828 163.512 14.7763C166.659 13.9654 170.616 16.0156 173.381 17.3984L174 16.3494C173.381 15.92 172.809 15.4438 172.236 14.9667C169.423 12.4871 165.084 7.48115 169.566 4.28723C172.618 2.14144 175.476 3.61976 176.813 6.76675C177.698 9.19333 178.118 11.7649 178.052 14.347H179.244C179.673 11.5815 180.245 8.57795 181.914 6.24183C183.63 3.76231 185.775 3.14264 188.398 4.9547C191.211 6.90929 190.734 9.72255 188.875 12.1534C187.256 14.0654 185.301 15.6651 183.106 16.8734V16.969C183.246 17.297 183.405 17.6162 183.583 17.925C186.587 16.7335 191.593 14.9701 194.548 16.969C196.503 18.3518 196.741 21.2597 195.55 23.2143C193.551 26.5517 188.923 25.0264 186.062 23.834C185.106 23.4047 184.25 22.878 183.296 22.5469L182.677 23.5029C183.545 24.1338 184.373 24.8186 185.156 25.5531C187.683 27.9865 191.02 32.1799 187.492 35.3269C186.992 35.8161 186.384 36.1812 185.717 36.3928C185.05 36.6045 184.343 36.6567 183.652 36.5454C182.961 36.4341 182.306 36.1623 181.739 35.7519C181.172 35.3415 180.71 34.8039 180.388 34.1823C178.911 31.7028 178.672 28.3655 178.624 25.5531H177.479C176.478 30.7494 178.576 40.3807 185.823 38.5208C189.208 37.663 191.544 34.6594 190.877 31.0831C190.569 29.7103 190.02 28.403 189.256 27.2217C189.303 27.1261 189.351 27.1261 189.446 27.1261C190.113 27.1261 190.923 27.3643 191.592 27.3643C199.458 27.3643 200.65 16.4945 194.025 14.4921" fill="#003961"/>
<path d="M21.3382 14.7363C20.337 19.8379 18.9047 24.8439 17.6193 29.8499C17.3095 30.6493 16.8926 31.4031 16.38 32.0904C16.0463 31.9948 15.6647 31.8523 15.331 31.7567C15.9507 28.4193 16.5704 25.1298 17.19 21.7925C16.9997 21.7447 16.8085 21.6969 16.6686 21.6491C15.4292 25.2246 14.2351 28.8009 12.9975 32.3285C12.6638 32.2329 12.3778 32.1382 12.0415 32.0426C12.2796 30.3739 12.563 28.7531 12.8524 27.0844C12.6716 27.042 12.4965 26.9781 12.3309 26.8941C11.4253 28.8487 10.4719 30.805 9.32733 33.2385C11.9016 33.5244 14.143 33.7599 17.2413 34.0962C16.526 34.9071 15.9542 36.0508 15.477 36.0508C11.9293 35.8289 8.39622 35.4152 4.89322 34.8115C4.49942 34.5888 4.16698 34.272 3.92567 33.8893C3.68436 33.5067 3.54171 33.0701 3.51049 32.6188C4.60728 25.753 2.93863 19.1739 1.51158 12.5471C1.27318 11.1056 1.32191 9.63119 1.65498 8.20858C2.46584 4.2516 5.56589 2.48734 9.3786 3.82227C11.5135 4.69068 13.5985 5.67719 15.6239 6.77719C15.8152 6.4956 16.0221 6.22488 16.2436 5.96632C15.338 5.25105 14.4793 4.5358 13.5737 3.82053C16.8154 1.38707 20.9158 2.53341 21.5355 6.25399C21.9486 9.05755 21.8842 11.9108 21.3452 14.6929M20.3439 25.4201C21.3451 20.7479 22.3941 16.0756 23.0616 13.072C23.0138 2.82195 19.8199 0.199897 11.7634 1.96329C10.8016 2.11407 9.825 2.14618 8.85542 2.05889C4.27877 1.77296 1.13179 3.77534 0.321792 8.30418C-0.163872 11.1825 -0.0992927 14.1269 0.512118 16.9812C1.70364 22.0828 2.41891 27.1366 1.70365 32.3807C1.63558 32.9797 1.70311 33.5864 1.90124 34.1558C2.09937 34.7252 2.42302 35.2428 2.84824 35.6702C6.85302 38.5782 11.3819 39.675 16.1497 38.1036C16.6718 37.8422 17.1327 37.4735 17.5025 37.0217C17.8723 36.5698 18.1425 36.045 18.2955 35.4816C19.1533 32.1921 19.6304 28.7591 20.3457 25.4218M45.6137 7.30473C45.7173 10.3279 45.4611 13.3527 44.8506 16.3155C43.945 20.8443 42.7048 25.2784 41.5133 29.7126C41.1329 30.6113 40.6187 31.4472 39.9881 32.1921C39.6601 32.0523 39.3409 31.893 39.0321 31.7149L41.031 21.8464L40.4591 21.703C39.2198 25.1794 38.0257 28.7114 36.7881 32.1921C36.5021 32.1443 36.1684 32.0487 35.8825 32.0017C36.1206 30.3809 36.4039 28.76 36.6455 27.1348C36.5021 27.0392 36.3118 26.9914 36.1684 26.8967C35.2124 28.8513 34.2616 30.8537 33.0692 33.3332C35.0681 33.5235 36.8837 33.6191 38.647 33.905C39.3939 34.0829 40.115 34.3554 40.7928 34.7159C40.1254 35.2374 39.4101 36.2412 38.7939 36.1934C35.6123 36.0747 32.4424 35.7402 29.306 35.1922C27.5418 34.8584 27.208 33.4757 27.208 31.6167C27.1124 26.7498 26.6362 21.9385 26.252 17.0751C26.0617 14.739 25.3464 12.4506 25.3464 10.1145C25.3464 4.39327 29.5894 1.91462 34.7387 4.44107C36.3118 5.20413 37.8857 6.06192 39.4588 6.82499C39.6969 6.49126 39.9359 6.20532 40.174 5.86898C39.125 5.29712 38.1239 4.77219 36.9323 4.15253C41.223 1.24454 45.419 3.00794 45.6093 7.29952M46.6105 14.3557C47.0247 11.9672 46.96 9.52023 46.4202 7.15698C45.3234 2.15101 42.272 0.434544 37.2661 1.53134C35.8355 1.81727 34.4528 2.1032 33.0231 2.38913C27.779 1.76947 24.4895 4.34373 23.9168 9.5409C23.5798 11.7633 23.6769 14.03 24.2027 16.2155C25.6756 21.6144 26.1602 27.2352 25.6332 32.8065C25.5968 33.3155 25.6627 33.8266 25.8268 34.3098C25.991 34.793 26.2503 35.2384 26.5893 35.6198C30.6896 38.6234 35.2663 39.6724 40.1767 38.0993C40.648 37.9156 41.0747 37.6334 41.4283 37.2716C41.7818 36.9098 42.0541 36.4768 42.2268 36.0013C43.7999 28.8495 45.3738 21.6508 46.6131 14.4478M69.6441 7.29604C69.7477 10.3193 69.4916 13.3441 68.8811 16.3068C67.9755 20.8356 66.7353 25.2697 65.5437 29.7039C65.1633 30.6026 64.6491 31.4385 64.0185 32.1834C63.6905 32.0436 63.3713 31.8843 63.0625 31.7062L65.0614 21.8377L64.4895 21.6943C63.2502 25.1707 62.0561 28.7027 60.8185 32.1834C60.5325 32.1356 60.2466 32.04 59.9129 31.993C60.151 30.3722 60.4343 28.7513 60.6759 27.1261C60.5325 27.0305 60.3422 26.9827 60.1988 26.888C59.2428 28.8426 58.292 30.845 57.0996 33.3245C59.0985 33.5148 60.9141 33.6104 62.6775 33.8964C63.4243 34.0742 64.1454 34.3467 64.8233 34.7072C64.1558 35.2287 63.4405 36.2325 62.8244 36.1847C59.6427 36.066 56.4728 35.7315 53.3365 35.1835C51.5722 34.8498 51.2385 33.467 51.2385 31.608C51.1429 26.7411 50.6666 21.9298 50.2825 17.0664C50.0921 14.7303 49.3769 12.4419 49.3769 10.1058C49.3769 4.38457 53.6198 1.90592 58.7691 4.43237C60.3422 5.19543 61.9161 6.05324 63.4892 6.8163C63.7273 6.48257 63.9663 6.19663 64.2045 5.86029C63.1555 5.28843 62.1543 4.76349 60.9628 4.14383C65.2535 1.23585 69.4494 2.99924 69.6398 7.29082M70.641 14.347C71.0551 11.9585 70.9905 9.51153 70.4506 7.14828C69.3538 2.14231 66.3024 0.425858 61.2965 1.52265C59.8659 1.80858 58.4832 2.09452 57.0536 2.38045C51.8095 1.76078 48.5199 4.33504 47.995 9.53222C47.658 11.7547 47.7551 14.0214 48.2809 16.2068C49.7538 21.6058 50.2384 27.2265 49.7115 32.7978C49.675 33.3068 49.7409 33.8179 49.9051 34.3011C50.0692 34.7843 50.3285 35.2297 50.6675 35.6111C54.7679 38.6147 59.3445 39.6637 64.2549 38.0906C64.7262 37.9069 65.1529 37.6248 65.5065 37.263C65.86 36.9012 66.1323 36.4681 66.305 35.9926C67.8781 28.8409 69.4521 21.6422 70.6914 14.4391M93.4807 7.28734C93.5843 10.3106 93.3281 13.3354 92.7177 16.2981C91.8121 20.8269 90.5719 25.2611 89.3804 29.6952C88.9999 30.5939 88.4857 31.4299 87.8551 32.1747C87.5271 32.0349 87.2079 31.8756 86.8991 31.6976L88.898 21.829L88.3261 21.6856C87.0868 25.162 85.8927 28.694 84.6551 32.1747C84.3692 32.1269 84.0354 32.0313 83.7495 31.9844C83.9876 30.3635 84.2709 28.7426 84.5126 27.1174C84.3692 27.0218 84.1788 26.974 84.0354 26.8793C83.0794 28.8339 82.1286 30.8363 80.9362 33.3158C82.9352 33.5061 84.7507 33.6017 86.5141 33.8877C87.2609 34.0655 87.982 34.338 88.6599 34.6985C87.9924 35.22 87.2772 36.2238 86.661 36.176C83.4793 36.0573 80.3094 35.7228 77.1731 35.1748C75.4088 34.8411 75.0751 33.4583 75.0751 31.5993C74.9795 26.7324 74.5032 21.9211 74.1191 17.0577C73.9288 14.7216 73.2135 12.4332 73.2135 10.0971C73.2135 4.37588 77.4564 1.89723 82.6058 4.42368C84.1788 5.18675 85.7527 6.04454 87.3258 6.8076C87.5639 6.47387 87.8029 6.18795 88.0411 5.85161C86.9921 5.27974 85.9909 4.75481 84.7994 4.13514C89.0901 1.22716 93.286 2.99055 93.4764 7.28213M94.2395 7.13872C93.1427 2.13275 90.0913 0.416297 85.0853 1.51309C83.6548 1.79902 82.272 2.08495 80.8424 2.37089C75.5983 1.75122 72.3088 4.32548 71.736 9.52266C71.3949 11.7501 71.4899 14.0226 72.0159 16.2138C73.4887 21.6127 73.9734 27.2334 73.4464 32.8048C73.41 33.3138 73.4758 33.8249 73.64 34.3081C73.8042 34.7912 74.0634 35.2366 74.4024 35.618C78.5028 38.6216 83.0794 39.6706 87.9898 38.0976C88.4611 37.9139 88.8878 37.6317 89.2414 37.2699C89.595 36.9081 89.8672 36.475 90.04 35.9996C91.6131 28.8478 93.187 21.6491 94.4263 14.4461C94.8405 12.0576 94.7758 9.61061 94.236 7.24736" fill="#003961"/>
<path opacity="0.3" d="M107.441 0H105.868V40H107.441V0Z" fill="#003961"/>
</svg>
