<svg width="100" height="105" viewBox="0 0 100 105" fill="none" xmlns="http://www.w3.org/2000/svg">
<g clip-path="url(#clip0_7_467)">
<path d="M49.8989 41.5017C36.6881 41.5017 25.9799 52.2099 25.9799 65.4207C25.9799 78.6316 36.6881 89.3371 49.8989 89.3371C63.1098 89.3371 73.8153 78.6289 73.8153 65.4207C73.8153 52.2125 63.1071 41.5017 49.8989 41.5017ZM49.9149 86.736C38.1444 86.736 28.605 77.1966 28.605 65.4261C28.605 53.6556 38.1444 44.1188 49.9149 44.1188C61.6854 44.1188 71.2221 53.6582 71.2221 65.4261C71.2221 77.1939 61.6827 86.736 49.9149 86.736Z" fill="#8B8C80"/>
<path d="M24.0203 67.13C19.9841 64.6753 18.8339 57.4282 19.4303 52.7051C23.1337 55.6497 24.8909 62.1699 24.0203 67.13Z" fill="#8B8C80"/>
<path d="M80.6391 74.9229C78.6902 78.9404 73.8499 84.5102 68.9431 84.4569C71.0091 79.9255 75.5299 75.5459 80.6391 74.9229Z" fill="#8B8C80"/>
<path d="M30.8494 84.401C26.0358 84.638 21.0172 78.8286 19.1561 74.9255C21.9889 75.2343 24.1668 76.6374 26.2621 78.2855C28.0912 80.0054 29.6247 81.9143 30.8494 84.401Z" fill="#8B8C80"/>
<path d="M81.8825 65.3435C80.7536 69.598 77.5747 75.8307 72.572 77.0368C73.4133 72.3856 76.9517 67.1113 81.8825 65.3435Z" fill="#8B8C80"/>
<path d="M27.2791 76.9915C22.4788 76.1103 19.0044 69.6273 17.9075 65.3435C21.4698 66.6987 23.9591 69.3398 25.6178 72.5506C26.3047 73.9431 26.8425 75.1997 27.2791 76.9915Z" fill="#8B8C80"/>
<path d="M79.1881 62.3377C78.416 64.1348 77.6546 65.719 75.8468 67.17C74.8537 62.8782 76.4112 55.892 80.1093 52.7131C80.5113 55.9825 80.1279 59.2067 79.1881 62.3377Z" fill="#8B8C80"/>
<path d="M38.8872 88.9564C36.9863 89.7472 35.1173 89.1082 33.3281 88.5304C31.7653 87.7903 30.3169 87.0688 28.8766 85.7669C32.5773 85.1013 35.9346 86.5336 38.8872 88.9564Z" fill="#8B8C80"/>
<path d="M70.9533 85.7242C68.8872 87.7636 63.7834 90.213 60.8707 89.015C63.7488 86.5762 67.146 85.1465 70.9533 85.7242Z" fill="#8B8C80"/>
<path d="M47.1115 90.7882C45.1679 92.5454 40.9267 92.5055 38.6716 91.5443C41.1663 89.8244 44.2494 89.7232 47.1115 90.7882Z" fill="#8B8C80"/>
<path d="M61.1529 91.5284C59.2653 92.4602 54.5661 92.5986 52.6678 90.7722C55.5432 89.7525 58.5038 89.8058 61.1529 91.5284Z" fill="#8B8C80"/>
<path d="M51.2195 91.8851C51.2195 92.6119 50.6311 93.203 49.9016 93.203C49.1721 93.203 48.5837 92.6119 48.5837 91.8851C48.5837 91.1582 49.1748 90.5672 49.9016 90.5672C50.6285 90.5672 51.2195 91.1582 51.2195 91.8851Z" fill="#8B8C80"/>
<path d="M63.762 60.924L66.2194 58.1205L60.5033 58.0992C54.0522 53.7381 45.7482 53.7701 39.2945 58.1018L33.5916 58.1364L36.049 60.9879C32.2977 64.1375 32.0421 69.5981 35.3089 73.0299C38.4399 76.3233 43.7114 76.5736 47.2019 73.0539L49.9335 75.8681L52.5214 73.0539C55.9851 76.0704 61.1316 75.9027 64.2146 72.5507C67.2631 69.236 67.0608 64.1215 63.762 60.924ZM41.6401 72.6625C38.5357 72.6625 36.0171 70.1439 36.0171 67.0395C36.0171 63.9352 38.5357 61.4165 41.6401 61.4165C44.7445 61.4165 47.2631 63.9325 47.2631 67.0395C47.2631 70.1466 44.7445 72.6625 41.6401 72.6625ZM49.8989 65.7562C49.0735 62.5134 46.9969 60.088 43.6742 58.6636C47.7583 57.0369 52.2285 56.9064 55.9851 58.7381C52.7317 60.1545 50.844 62.3217 49.8989 65.7562ZM58.155 72.6332C55.048 72.6332 52.5293 70.1146 52.5293 67.0076C52.5293 63.9005 55.048 61.3846 58.155 61.3846C61.262 61.3846 63.778 63.9032 63.778 67.0076C63.778 70.1119 61.262 72.6332 58.155 72.6332Z" fill="#8B8C80"/>
<path d="M44.5341 67.0448C44.5341 68.6369 43.2428 69.9282 41.6507 69.9282C40.0586 69.9282 38.7673 68.6369 38.7673 67.0448C38.7673 65.4527 40.0586 64.1614 41.6507 64.1614C43.2428 64.1614 44.5341 65.4527 44.5341 67.0448Z" fill="#8B8C80"/>
<path d="M61.0624 67.0475C61.0624 68.6343 59.7738 69.9229 58.1843 69.9229C56.5949 69.9229 55.3063 68.6343 55.3063 67.0475C55.3063 65.4607 56.5949 64.1694 58.1843 64.1694C59.7738 64.1694 61.0624 65.458 61.0624 67.0475Z" fill="#8B8C80"/>
<path d="M62.785 101.478C62.777 103.272 61.4458 104.412 59.7339 104.412C58.3334 104.412 56.7254 103.65 56.8345 101.954C58.3734 100.735 59.3691 103.861 60.5805 102.447C60.8601 102.122 61.0038 101.39 60.892 101.009C60.3276 99.055 58.3121 101.315 56.7546 100.724L57.1407 95.8521H62.4522L62.4096 97.4123L58.9618 97.5188C58.5518 97.5427 58.384 98.9591 58.605 99.0523C59.6008 98.7675 60.5326 98.5811 61.5044 99.023C62.2312 99.3532 62.7877 100.471 62.785 101.478Z" fill="#8B8C80"/>
<path d="M46.6375 95.5778C44.6167 95.5778 42.9767 97.2179 42.9767 99.2386C42.9767 101.259 44.6167 102.897 46.6375 102.897C48.6583 102.897 50.2956 101.259 50.2956 99.2386C50.2956 97.2179 48.6583 95.5778 46.6375 95.5778ZM46.6215 101.164C45.5566 101.164 44.6913 100.298 44.6913 99.2333C44.6913 98.1683 45.5566 97.3031 46.6215 97.3031C47.6865 97.3031 48.5518 98.1683 48.5518 99.2333C48.5518 100.298 47.6891 101.164 46.6215 101.164Z" fill="#8B8C80"/>
<path d="M42.4097 102.649L37.3884 102.633C37.013 102.631 37.1754 101.504 37.4416 101.262L40.3463 98.5943C40.6072 98.3547 40.5646 97.4735 40.2851 97.3137C38.9672 96.5576 39.2042 98.6902 37.1914 97.793C37.2393 96.3073 38.6264 95.5086 40.0694 95.6497C40.8522 95.7243 41.7361 96.1023 42.1195 96.6641C42.5189 97.2552 42.5162 98.6369 42.029 99.1401L40.1733 101.038L42.3698 101.233L42.4097 102.649Z" fill="#8B8C80"/>
<path d="M56.0119 102.66L50.9187 102.607C50.5194 102.601 50.8362 101.408 51.1238 101.148L53.9326 98.6263C54.1935 98.392 54.1642 97.4947 53.8873 97.319C52.6466 96.531 52.6839 98.7168 50.7963 97.7876C50.7936 96.4218 52.0503 95.6071 53.3841 95.6284C54.3186 95.6444 55.3889 96.0677 55.783 96.8185C56.185 97.5826 55.9747 98.8659 55.3703 99.4516L53.7622 101.017L55.9534 101.238L56.0119 102.66Z" fill="#8B8C80"/>
<path d="M62.9767 16.2355C60.679 15.8841 58.7674 17.4362 58.605 19.7312C58.4666 21.728 59.4863 23.408 61.3287 23.8846C63.0007 24.3159 65.1465 23.5837 65.6098 21.5976C64.5209 20.3942 64.2467 24.0097 61.1689 22.7158C60.3436 22.367 59.7552 21.4059 59.7658 20.277L65.7749 20.2424C66.2674 18.3681 64.9815 16.5443 62.9767 16.2355ZM59.8776 19.268C60.1093 17.9288 61.0544 17.2605 62.0502 17.1966C63.2935 17.1168 64.4304 17.5108 64.7765 19.276L59.8776 19.268Z" fill="#8B8C80"/>
<path d="M54.0683 20.2344C54.4011 18.0379 52.9208 16.2514 50.7004 16.1822C48.5571 16.1157 47.0023 17.6119 46.8159 19.7099C46.6455 21.6481 47.7105 23.3867 49.4384 23.8526C51.2754 24.3505 53.2936 23.5651 53.8846 21.5842C52.7531 20.5113 52.4229 23.6716 49.8537 22.8888C48.7941 22.5667 47.8969 21.6907 48.0087 20.269L54.0683 20.2344ZM50.3409 17.1753C51.563 17.1034 52.7238 17.6998 52.998 19.2759L48.1285 19.2813C48.2563 17.9394 49.2946 17.2365 50.3409 17.1753Z" fill="#8B8C80"/>
<path d="M37.3696 16.6215L37.13 17.3138C35.844 16.1184 34.2839 15.8654 32.7796 16.5763C31.5522 17.1567 30.7003 18.4613 30.6683 20.0374C30.6337 21.744 31.5442 23.1418 33.0379 23.7275C34.4969 24.2973 35.9984 23.8793 37.1326 22.7211L37.3456 23.653C37.3856 23.8207 38.2349 23.6769 38.2349 23.44L38.2801 16.7547C38.2801 16.5363 37.4415 16.4112 37.3696 16.6215ZM34.5128 22.8942C32.9686 22.8942 31.7146 21.6402 31.7146 20.096C31.7146 18.5518 32.9686 17.2978 34.5128 17.2978C36.057 17.2978 37.311 18.5491 37.311 20.096C37.311 21.6428 36.057 22.8942 34.5128 22.8942Z" fill="#8B8C80"/>
<path d="M26.1742 13.7302C26.2009 13.9299 25.8734 14.3585 25.6418 14.3638L22.9314 14.4277L22.9101 22.9315C22.9101 23.0992 22.801 23.4986 22.7291 23.645C22.6599 23.7914 22.2206 23.7328 21.7041 23.7328L21.6561 14.4384L18.7088 14.3425C18.4533 14.3345 18.4586 13.3388 18.7568 13.3361L25.4128 13.2829C25.6844 13.2829 26.1503 13.5305 26.1742 13.7302Z" fill="#8B8C80"/>
<path d="M77.8942 21.4911C77.9314 22.6572 77.2286 23.7701 75.7323 23.9538C74.9868 24.0443 74.039 23.8579 73.4879 23.5198C72.9554 23.1897 72.4016 22.1434 72.6492 21.5443C72.785 21.2168 73.7248 21.6109 73.81 21.9384C74.0257 22.7664 74.8297 23.0433 75.5646 22.966C76.153 22.9021 76.9437 22.2552 76.6801 21.4059C76.2728 20.1013 74.2041 20.7429 73.006 19.3265C72.6279 18.8792 72.6519 17.6066 73.0246 17.138C74.1774 15.687 76.4218 16.0012 77.3484 17.2206C77.4602 17.3697 77.572 17.9021 77.5906 18.0805C77.7184 19.2893 76.2328 17.3004 75.2877 17.162C74.7712 17.0874 73.7568 17.4948 73.8313 18.2057C74.0177 19.9522 77.8116 19.031 77.8942 21.4911Z" fill="#8B8C80"/>
<path d="M46.0837 16.6082L43.7141 23.4134C43.5624 23.85 42.2764 23.9112 42.1247 23.4826L39.8217 16.9916C39.7392 16.7573 40.0373 16.3447 40.1811 16.3447C40.3701 16.3447 40.876 16.5683 40.9612 16.8132L42.8941 22.3511L44.843 16.8026C44.9628 16.4645 45.9159 16.4831 46.0837 16.6082Z" fill="#8B8C80"/>
<path d="M71.3791 17.2791L70.6709 17.3856C70.2583 17.4495 68.9004 17.5986 68.8712 18.0193C68.7407 19.9469 68.7407 21.7626 68.7274 23.5225C68.7274 23.7967 67.5905 23.7967 67.5879 23.5172L67.5719 16.4671C68.0644 16.515 68.5756 16.6135 68.8552 16.6801C69.566 16.5124 70.6922 16.342 71.2886 16.5124C71.4004 16.5443 71.491 17.2605 71.3791 17.2791Z" fill="#8B8C80"/>
<path d="M56.9676 13.3202L56.965 23.7408L55.7988 23.7382L55.8015 13.3202H56.9676Z" fill="#8B8C80"/>
<path d="M29.9175 17.2978L28.9351 17.4229C28.2056 17.5161 27.2844 17.6785 27.2764 18.408L27.2099 23.6902C27.0794 23.7861 26.105 23.6769 26.1023 23.4559V16.72C26.105 16.5443 26.7679 16.2621 26.8611 16.3739L27.4149 17.0395C27.7876 16.3899 29.2146 16.2248 29.7871 16.5709C29.8909 16.6348 30.0373 17.2818 29.9175 17.2978Z" fill="#8B8C80"/>
<path d="M81.2116 14.0576C81.1211 14.7685 81.0465 15.2158 80.9214 15.719C80.8255 16.1103 79.8351 16.4272 79.4171 16.2142L80.5007 14.9442C79.883 14.5954 79.4704 14.3638 79.4251 14.0496C79.3719 13.6982 79.8218 13.1045 80.136 13.0805C80.522 13.0512 81.2595 13.6822 81.2116 14.0576Z" fill="#8B8C80"/>
<path d="M36.2328 3.7594C34.8643 3.04321 33.4506 3.48251 32.351 4.0496C31.8931 3.63161 30.7988 3.34407 30.2637 3.83661V13.8792L32.2791 13.9378L32.3776 10.442C33.7248 11.3712 35.1146 11.4351 36.4005 10.6577C37.4948 10.0001 38.211 8.67687 38.2056 7.26579C38.203 5.69763 37.3723 4.35844 36.2328 3.7594ZM34.1588 9.3052C33.0432 9.3052 32.1407 8.39998 32.1407 7.28709C32.1407 6.1742 33.0432 5.26899 34.1588 5.26899C35.2743 5.26899 36.1769 6.17154 36.1769 7.28709C36.1769 8.40264 35.2743 9.3052 34.1588 9.3052Z" fill="#8B8C80"/>
<path d="M55.4901 0.628461C54.9044 0.410144 53.8793 0.426118 53.5199 0.72697L53.4001 4.05232C51.973 3.18703 50.6285 3.14444 49.3479 3.90056C48.2696 4.53954 47.6173 5.85743 47.5748 7.25519C47.5268 8.70354 48.3468 10.104 49.4464 10.719C50.775 11.4618 52.3058 11.3553 53.4427 10.2797C53.637 10.5646 53.8341 11.0092 54.1003 10.9772L55.4981 10.8175L55.4901 0.628461ZM51.6216 9.29459C50.5087 9.29459 49.6062 8.39204 49.6062 7.27915C49.6062 6.16627 50.5087 5.26371 51.6216 5.26371C52.7345 5.26371 53.6397 6.16627 53.6397 7.27915C53.6397 8.39204 52.7372 9.29459 51.6216 9.29459Z" fill="#8B8C80"/>
<path d="M44.5315 3.88726C43.2189 3.39205 41.7919 3.06192 40.5485 3.8633C39.4836 4.54754 38.7514 5.84413 38.7248 7.23391C38.6955 8.80473 39.4916 10.1066 40.679 10.7643C41.9516 11.4698 43.3041 11.2834 44.5954 10.3702C44.6273 11.0172 46.5389 11.2541 46.6082 10.6764L46.6747 3.70622C46.0757 3.53582 45.1225 3.69823 44.5315 3.88726ZM42.7637 9.3026C41.6508 9.3026 40.7509 8.40004 40.7509 7.28982C40.7509 6.17959 41.6508 5.27704 42.7637 5.27704C43.8765 5.27704 44.7764 6.17693 44.7764 7.28982C44.7764 8.4027 43.8739 9.3026 42.7637 9.3026Z" fill="#8B8C80"/>
<path d="M81.4991 6.35797C80.9986 4.13752 78.8394 2.97671 76.5497 3.51984C74.4171 4.0257 73.3282 6.02251 73.7036 8.06191C74.071 10.072 75.916 11.4538 78.2217 11.153C80.7803 10.8202 81.9863 8.51718 81.4991 6.35797ZM77.6306 9.28395C76.5284 9.28395 75.6338 8.38939 75.6338 7.28715C75.6338 6.18491 76.5284 5.29034 77.6306 5.29034C78.7329 5.29034 79.6274 6.18491 79.6274 7.28715C79.6274 8.38939 78.7355 9.28395 77.6306 9.28395Z" fill="#8B8C80"/>
<path d="M21.3233 0.487305L21.2967 2.45216L18.4772 2.46281V10.7456C17.982 10.9745 17.0901 10.9665 16.3393 10.8574L16.3287 2.47878L13.4692 2.42287L13.4772 0.521916L21.3233 0.487305Z" fill="#8B8C80"/>
<path d="M72.7345 9.9176C72.399 10.5353 71.4831 11.1157 70.5326 11.1796C68.8766 11.2861 67.5268 10.4022 67.4203 8.76744C67.8622 8.59704 68.9379 8.51184 69.3159 8.79406L70.2371 9.4783C70.4448 9.63272 71.1716 9.07361 71.1237 8.81802C70.8521 7.40695 67.3271 8.13645 67.4948 5.53527C67.572 4.36914 68.5917 3.51184 69.8564 3.40535C71.2302 3.29086 72.7957 3.84731 72.8223 5.46339C71.5763 6.51504 69.8191 4.0603 69.505 5.38618C69.244 6.4964 71.6056 6.12633 72.6865 7.35104C73.2776 8.02462 73.1312 9.18543 72.7345 9.9176Z" fill="#8B8C80"/>
<path d="M63.5199 3.73548L61.1743 10.9L58.7515 10.9266L56.3687 3.66093L58.4693 3.63164L59.9549 8.33611L61.366 3.87392C61.7733 3.47722 62.9847 3.56774 63.5199 3.73548Z" fill="#8B8C80"/>
<path d="M26.0278 5.33025C25.3143 5.47934 23.8766 5.61246 23.8606 6.14228L23.7195 10.8547L21.728 10.9053L21.7626 3.62364L23.3095 3.62897C23.5678 3.62897 23.6263 4.22801 23.7009 4.43035C24.268 3.818 25.0614 3.45857 25.9346 3.63163C26.0651 4.02567 26.129 4.98946 26.0278 5.33025Z" fill="#8B8C80"/>
<path d="M86.8478 3.69287L86.8424 5.30363C85.9399 5.51396 85.1305 5.70565 84.6539 6.02514L84.582 10.8388C84.0229 10.9186 83.1816 10.9133 82.5187 10.8388L82.54 3.73813C82.8861 3.68755 83.6901 3.59969 84.0442 3.57839C84.3611 3.55975 84.4755 4.27328 84.614 4.55549C85.1039 3.6556 85.9319 3.39735 86.8478 3.69021V3.69287Z" fill="#8B8C80"/>
<path d="M66.431 3.5855L64.365 3.59091L64.3843 10.9524L66.4503 10.947L66.431 3.5855Z" fill="#8B8C80"/>
<path d="M28.9644 3.58636H26.9091V10.9692H28.9644V3.58636Z" fill="#8B8C80"/>
<path d="M65.4287 2.55339C66.1331 2.55339 66.704 1.98243 66.704 1.2781C66.704 0.573776 66.1331 0.00280762 65.4287 0.00280762C64.7244 0.00280762 64.1534 0.573776 64.1534 1.2781C64.1534 1.98243 64.7244 2.55339 65.4287 2.55339Z" fill="#8B8C80"/>
<path d="M29.2146 1.27278C29.2146 1.97566 28.6448 2.54275 27.9446 2.54275C27.2444 2.54275 26.672 1.97566 26.672 1.27278C26.672 0.569908 27.2418 0.000152588 27.9446 0.000152588C28.6475 0.000152588 29.2146 0.569908 29.2146 1.27278Z" fill="#8B8C80"/>
<path d="M9.85104 33.1178C9.59811 34.7046 8.46659 35.9665 6.92506 36.4937C5.26638 37.0635 3.46925 36.8212 2.09545 35.8068C-0.638841 33.786 -0.713388 29.1295 1.96233 27.0209C3.3175 25.9532 5.02942 25.6071 6.7946 26.1316C8.39471 26.6055 9.77117 28.0166 9.82176 29.662C8.93251 29.9601 8.54114 29.2653 8.22431 28.6609C7.36435 27.0368 5.32495 26.6854 3.78075 27.2525C2.08214 27.8755 1.20354 29.5714 1.23549 31.4724C1.26478 33.2855 2.21526 34.859 3.78075 35.4527C5.40749 36.0704 7.31111 35.5965 8.30685 33.9511L8.83667 33.0725C8.95381 32.8808 9.72857 33.0432 9.85104 33.1178Z" fill="#8B8C80"/>
<path d="M56.4724 26.294C55.9666 26.1236 55.2717 26.1183 54.8617 26.2967L50.9825 36.4591C51.3233 36.5629 52.1593 36.5683 52.2711 36.2914L53.2589 33.834L58.1604 33.842L59.0124 36.2648C59.1295 36.5949 60.285 36.6268 60.2823 36.2648L56.4724 26.294ZM53.7009 32.6891L55.6418 27.4149L57.6838 32.6386C56.3047 32.7584 55.3063 32.7637 53.7009 32.6891Z" fill="#8B8C80"/>
<path d="M70.1466 29.5076L68.3494 36.31C68.2589 36.6535 66.9916 36.6455 66.8745 36.2408L65.3809 31.1263L63.8926 36.2434C63.7781 36.6375 62.5188 36.72 62.4123 36.3127L60.5912 29.3984C60.7296 29.2067 61.7067 29.1881 61.7813 29.4809L63.1711 35.0161L64.7286 29.5155C64.8191 29.1987 65.8974 29.1375 65.9879 29.4463L67.612 35.0267L68.9511 29.5422C69.0284 29.2227 70.0907 29.2014 70.1466 29.5076Z" fill="#8B8C80"/>
<path d="M92.9021 26.4191C92.8995 26.1769 91.8904 26.0757 91.8052 26.2062L91.6801 30.0374C90.3089 28.9564 88.7275 28.6982 87.3643 29.401C85.8894 30.1598 85.1119 31.6375 85.2717 33.352C85.4181 34.9229 86.4325 36.1742 87.7584 36.6055C89.2493 37.0901 90.711 36.6108 91.704 35.5485L92.0688 36.5603C92.1274 36.7227 92.9075 36.4112 92.9075 36.2408L92.9021 26.4191ZM89.1029 35.6923C87.556 35.6923 86.302 34.4383 86.302 32.8915C86.302 31.3446 87.556 30.0906 89.1029 30.0906C90.6497 30.0906 91.9037 31.3446 91.9037 32.8915C91.9037 34.4383 90.6497 35.6923 89.1029 35.6923Z" fill="#8B8C80"/>
<path d="M78.5491 29.4596C78.3787 29.3292 77.6705 29.2493 77.5853 29.449L77.3058 30.1066C76.1077 28.9511 74.4357 28.6929 72.99 29.3771C71.6934 29.9921 70.8148 31.4405 70.8841 33.0832C70.9533 34.7605 71.9623 36.1476 73.4054 36.6162C74.8324 37.0768 76.3686 36.6162 77.3351 35.5299L77.6865 36.5629C77.7451 36.7333 78.5518 36.3952 78.5518 36.1423V29.4596H78.5491ZM74.7259 35.6977C73.1817 35.6977 71.9277 34.4463 71.9277 32.8995C71.9277 31.3526 73.1817 30.1013 74.7259 30.1013C76.2701 30.1013 77.5241 31.3553 77.5241 32.8995C77.5241 34.4437 76.2728 35.6977 74.7259 35.6977Z" fill="#8B8C80"/>
<path d="M43.7834 28.9911C41.5789 28.9511 39.9948 30.5406 39.8936 32.6652C39.8004 34.638 40.9479 36.3047 42.7237 36.7067C44.5049 37.1114 46.4964 36.2355 46.9516 34.4091C45.7429 33.211 45.7429 36.6402 42.6731 35.6231C41.7972 35.3329 41.0624 34.3638 41.0837 33.0645L47.1833 33.0246C47.5214 30.8494 45.9852 29.0283 43.7834 28.9911ZM41.2168 32.0795C41.4351 30.7483 42.3297 30.0347 43.4026 30.0054C44.5608 29.9735 45.7376 30.3143 46.105 32.0608L41.2168 32.0795Z" fill="#8B8C80"/>
<path d="M23.2216 28.9804C21.057 28.9804 19.3052 30.7323 19.3052 32.8968C19.3052 35.0614 21.057 36.8132 23.2216 36.8132C25.3861 36.8132 27.138 35.0614 27.138 32.8968C27.138 30.7323 25.3861 28.9804 23.2216 28.9804ZM23.2296 35.7137C21.6721 35.7137 20.4101 34.4517 20.4101 32.8942C20.4101 31.3367 21.6721 30.072 23.2296 30.072C24.7871 30.072 26.0517 31.3367 26.0517 32.8942C26.0517 34.4517 24.7871 35.7137 23.2296 35.7137Z" fill="#8B8C80"/>
<path d="M17.7051 36.507L16.5549 36.4484L16.5363 32.0289C16.5283 30.8095 15.7162 29.9735 14.6247 30.0054C13.5091 30.0374 12.6917 30.7722 12.6891 32.0528L12.6758 36.2834C12.6758 36.5549 11.5709 36.6375 11.5682 36.3526L11.5363 26.4964C11.5336 26.1849 12.4362 26.0464 12.5932 26.2381L12.7503 29.9335C13.8046 29.1774 14.795 28.8473 15.8813 29.0842C16.6135 29.244 17.6385 30.2211 17.6491 31.2221L17.7051 36.507Z" fill="#8B8C80"/>
<path d="M38.7062 34.3691C38.2856 36.286 36.3953 37.0076 34.6727 36.7493C32.9182 36.4857 31.6029 35.0241 31.547 33.0725C31.4911 31.1902 32.5614 29.5928 34.1881 29.1641C35.9639 28.6982 38.2137 29.2174 38.645 31.3047C37.5241 32.5294 37.2898 29.3691 34.5688 30.1306C33.5199 30.4234 32.7664 31.4884 32.7185 32.7424C32.6705 33.9804 33.2829 35.048 34.1162 35.4634C37.1194 36.9596 37.4123 33.171 38.7062 34.3691Z" fill="#8B8C80"/>
<path d="M97.9022 36.7626C96.169 37.1593 94.6061 35.8601 94.6567 34.4862C94.67 34.1455 95.6365 34.212 95.7243 34.5182C95.9187 35.2131 96.7733 36.073 97.8569 35.7269C98.2243 35.6098 98.8101 35.1305 98.8713 34.7844C98.9512 34.3478 98.4506 33.597 98.0619 33.4745L96.1264 32.8702C95.3809 32.6385 94.7552 31.7812 94.7526 31.0943C94.7526 30.1944 95.4022 29.3798 96.3101 29.1348C97.4922 28.8153 98.8686 29.1002 99.4916 30.1226C99.6061 30.3116 99.6727 30.8041 99.6194 30.9825C99.3372 31.8877 98.3575 30.0746 97.4017 29.9628C96.8638 29.9016 95.94 30.2983 95.9347 30.9186C95.9214 32.7504 99.8511 31.8345 99.9948 34.244C100.075 35.5805 99.2627 36.4484 97.9022 36.7626Z" fill="#8B8C80"/>
<path d="M84.4995 29.9975C83.9723 30.5486 81.909 30.0161 81.8957 30.9799L81.8318 35.7589C81.8291 35.9719 81.8238 36.5177 81.6507 36.5204L80.9212 36.5337C80.7455 36.5337 80.663 35.9746 80.663 35.6924L80.6976 29.6487C80.7002 29.4304 81.2913 29.1109 81.4191 29.2121L81.9622 29.6407C82.5905 29.3692 83.7753 29.1934 84.385 29.3212C84.5048 29.3452 84.5847 29.9096 84.4995 29.9975Z" fill="#8B8C80"/>
<path d="M29.9069 29.465L29.8883 36.3234C29.8856 36.6136 28.7567 36.5896 28.7567 36.2994L28.7461 29.5555C28.7461 29.2334 29.9096 29.1748 29.9069 29.465Z" fill="#8B8C80"/>
<path d="M30.1971 26.981C30.1971 27.4576 29.8137 27.8409 29.3371 27.8409C28.8606 27.8409 28.4772 27.4576 28.4772 26.981C28.4772 26.5044 28.8632 26.121 29.3371 26.121C29.811 26.121 30.1971 26.5071 30.1971 26.981Z" fill="#8B8C80"/>
</g>
<defs>
<clipPath id="clip0_7_467">
<rect width="100" height="104.412" fill="white"/>
</clipPath>
</defs>
</svg>
