<svg width="100" height="80" viewBox="0 0 100 80" fill="none" xmlns="http://www.w3.org/2000/svg">
<path d="M0 62.6795V60.0145C1.54955 59.4646 0.541008 62.3477 3.02118 62.2854C3.88056 62.2631 5.01378 61.5685 4.83122 60.4887C4.4238 58.0887 0.561045 57.4297 0.425237 55.7844L0.385162 55.2812C0.371804 55.1298 0.204826 55.0675 0.00222637 55.1276V53.7963C0.474217 53.843 0.365125 53.1818 0.690174 52.899C1.52506 52.1777 2.82749 51.6545 3.96739 51.6923C4.69541 51.7168 5.33883 52.1955 6.16036 52.0419C6.20934 52.997 6.3407 53.7896 6.13142 54.6222C6.09357 54.7714 5.57038 54.7848 5.49023 54.6712C5.36332 54.4931 5.00933 52.9769 3.81154 52.8857C3.18371 52.8367 2.65828 52.9859 2.40003 53.4133C2.19075 53.7584 2.10392 54.3373 2.44455 54.7135C4.90024 57.4186 6.49432 57.2249 6.98412 59.734C7.34257 61.5774 5.65275 63.0958 3.89392 63.3073C3.10801 63.403 2.68723 63.7036 1.86124 63.2628C1.32692 62.9778 0.451953 63.2027 0 62.675L0 62.6795Z" fill="#8B8C80"/>
<path d="M36.8553 46.044C35.3814 42.5442 38.1599 39.4562 40.8538 37.5705C42.6038 36.346 44.5852 35.4821 46.5444 34.576C47.1701 34.2866 47.0654 33.7144 46.845 33.2357C46.0435 31.4902 44.3003 31.0962 42.8821 30.6464C38.0553 29.1169 26.1709 34.1218 24.7884 40.0017C23.5127 40.2466 22.1768 39.5853 21.5022 38.648C20.6763 37.4992 20.8477 36.2703 21.2573 34.8765C22.6199 30.239 26.5873 26.8104 31.2894 25.7418C32.4115 25.4857 33.3131 25.37 34.4486 25.2764C35.3124 25.2052 36.1362 24.7265 37.1024 24.9247C37.5477 25.016 42.5682 24.3837 42.98 23.3796C43.4899 22.1373 41.2145 20.0378 39.213 19.7484C33.1751 18.8734 27.7851 20.8571 23.5616 25.5147C22.6355 24.9091 21.7605 23.8471 21.8139 22.7072C21.9831 19.1139 27.4021 16.981 30.4122 16.5313C31.1402 16.4222 31.7547 16.2173 32.4515 16.1795L36.8575 15.9502C37.4586 15.919 37.9774 15.4849 38.6564 15.6118C39.1284 15.6986 41.3949 15.191 41.6865 14.5186C41.9025 14.0221 41.6798 13.5435 41.426 13.0581C40.5956 11.4685 38.8011 10.9676 37.1892 10.5624C35.9024 10.2395 34.8694 10.4711 33.5335 10.6581L31.5521 10.9319C29.1966 11.257 27.1327 12.5483 25.0578 13.8262C24.5613 14.1335 22.6867 10.8896 23.8911 9.08183C24.6793 7.89741 26.2644 7.78831 27.5001 7.49888L29.3057 7.0781C30.0626 6.90222 30.8597 6.44359 31.4786 6.00944C32.781 5.09886 32.0419 2.86358 34.9094 0.96449C37.3384 -0.640722 40.3062 -0.0173385 42.7886 1.20049C43.9463 1.76821 45.6071 1.3029 46.8005 1.12702C48.7998 0.830908 50.7968 0.957811 52.8785 1.04464C53.4662 1.06913 53.9738 1.44093 54.664 1.42758C58.529 1.35411 58.9453 4.60238 65.1413 6.04061L70.2197 7.21836C74.7036 8.25808 74.1737 8.41838 74.6724 10.48C75.603 14.3272 76.4802 14.9394 75.8769 18.8845C75.7789 19.5191 74.7392 19.8953 74.6902 20.4897C74.6078 21.4783 75.819 21.2668 76.3689 21.456C78.4884 22.1907 77.7982 21.082 81.2847 21.3892C80.481 23.6356 76.3177 24.1299 74.3184 24.6686C73.9065 24.8356 74.3963 25.6215 74.5277 25.9154C75.0331 27.0375 74.0201 27.8368 73.272 28.4557C71.9251 29.5667 74.0913 32.058 73.2186 35.1237C72.5284 37.5482 70.1796 39.1378 67.8018 39.1957C63.9858 39.2892 64.1662 37.7063 60.7242 36.6131C60.1164 36.4194 59.3238 35.7359 58.7004 36.1278C58.5334 36.5374 58.9453 37.4502 58.5001 37.8554C57.4514 38.8061 56.1512 38.6213 54.8644 38.7972C53.9048 38.9285 53.0143 39.3204 51.9857 39.1512C50.9571 38.982 50.0643 39.3783 49.1181 39.5029C46.2127 39.8859 42.9956 40.5827 40.7915 42.6132C39.4512 43.8466 38.8301 45.5921 37.9685 47.0971C37.4007 47.4867 37.0111 46.4091 36.8575 46.044H36.8553ZM71.3685 13.775C72.1076 11.5976 69.6074 13.1583 70.2108 10.0013C68.9039 9.31115 63.447 8.84806 63.2111 10.2462C63.1242 10.7583 63.7743 11.2793 63.4448 11.8314C63.2088 12.2255 62.4162 12.1676 61.9554 12.0051C61.0426 11.6822 61.0181 9.42692 59.5554 8.97274C59.2481 8.87701 58.8006 8.88146 58.7227 9.06625C58.3843 9.85884 59.306 10.4822 58.981 11.1412L54.5683 9.51375C53.9894 9.30002 53.4328 8.44509 53.8514 7.91967C54.2321 7.44323 56.0444 7.05361 57.2466 6.00054C56.9861 5.3215 52.6425 4.47325 52.4176 4.49329C50.238 4.69589 47.9315 4.24171 45.8209 4.69143C44.1199 5.05433 42.8464 5.06769 41.259 4.14597C40.4442 3.67176 39.2063 3.49365 38.3959 3.76749C37.5855 4.04133 37.1803 4.55562 36.9889 5.16565C36.5369 6.61279 38.2445 7.74379 39.5603 7.97087C40.2127 8.08219 40.7314 8.35826 41.3459 8.40279L44.3849 8.61875C44.652 9.80763 44.2914 11.0499 44.5051 12.2989C44.6431 13.1049 45.0283 13.844 44.8836 14.7235C44.75 15.5294 45.0973 16.2151 45.2109 16.9476C46.1793 23.1391 50.1066 28.8564 55.8729 31.4346C57.3179 32.0802 58.854 32.5656 60.3969 32.8684C66.5395 34.0706 65.4998 32.7192 68.6501 32.9107C69.2556 32.9463 69.7165 32.4231 69.6631 31.9622C69.6074 31.4791 69.1733 31.2409 68.6501 31.1229C65.4552 30.3971 62.5075 29.3552 59.7624 27.6386C56.267 25.4523 54.0072 21.3959 56.5542 17.7691C57.5115 16.4066 58.5668 15.3491 60.0741 14.5921C65.1547 12.034 66.8445 14.2604 71.3662 13.7795L71.3685 13.775ZM69.8256 19.7172C70.5826 19.7996 71.1904 20.3718 71.9273 19.8931L70.233 17.8426C69.6653 17.1546 68.8593 17.0389 68.1469 16.7405C67.4345 16.4422 67.0003 16.6893 66.348 16.7828C65.2237 16.9431 64.4088 17.3573 63.4916 18.0452C62.7635 18.5929 61.8908 18.9959 61.3943 19.8753C61.7906 20.138 62.1869 19.6504 62.6433 19.6393C65.03 19.5836 67.3677 19.45 69.8256 19.715V19.7172ZM71.4375 24.3948C71.5577 24.2412 71.6379 23.6245 71.3729 23.6534C70.538 23.7447 69.9681 23.3506 69.2801 23.2772C67.5525 23.0946 62.4986 22.8408 61.1672 23.954C62.3116 25.2252 63.6563 25.4546 64.9855 25.9533C66.1744 26.3985 67.381 26.4698 68.5744 26.0067C69.6185 25.6037 70.6827 25.3477 71.4353 24.397L71.4375 24.3948Z" fill="#8B8C80"/>
<path d="M75.465 79.2124C75.4583 79.7112 74.6524 79.5264 74.403 79.464C74.1047 79.3906 74.0023 78.9698 73.7418 78.6648L70.8742 75.3208L67.6682 71.4313C67.3365 73.74 67.5569 75.7861 67.5391 78.0058C67.5369 78.313 68.6946 78.3553 68.8883 78.7739C69.485 80.0763 65.4241 79.4974 64.8875 79.3683C64.489 78.6892 65.6222 78.2974 66.0942 78.0725C66.3124 75.5768 66.1632 72.805 66.1855 70.2558C66.1922 69.4253 64.8541 69.2695 64.5202 68.9133C64.3977 68.7841 64.3487 68.1274 64.5536 68.1162C68.6412 67.8847 67.2541 68.0361 69.7922 70.8346C71.2683 72.4621 72.6063 74.2053 74.0557 75.9219C74.3028 74.8443 74.2271 69.8305 74.0713 69.5567C73.9577 69.3541 73.459 69.4008 72.6242 69.0313C72.3971 68.9311 72.3125 68.1318 72.5462 68.1162C73.8865 68.0249 75.4895 67.8491 76.7785 68.1986C77.1837 68.8888 76.075 69.2695 75.5785 69.452L75.4628 79.2147L75.465 79.2124Z" fill="#8B8C80"/>
<path d="M96.9384 62.4858C96.3974 61.2835 95.351 60.6958 94.6808 59.7429C93.9706 58.7343 93.1691 57.8994 92.3409 56.9733C91.7776 56.3432 91.486 55.515 90.6934 55.0898L90.6333 61.1366C90.6155 62.8687 92.7973 61.6219 92.3276 62.9867C92.2363 63.2516 88.3535 63.1893 87.9772 63.0624C87.9772 62.7396 87.926 62.4613 87.975 62.3477C88.0462 62.1808 88.378 62.2141 88.6296 62.2186C89.0659 62.2253 89.3041 62.0093 89.3064 61.5774L89.342 54.2259C89.3509 52.1799 86.9397 53.5625 87.6678 52.0664C92.3031 51.6255 91.1454 52.6541 92.8908 54.4085C93.7547 55.2768 94.4203 56.1273 95.1372 57.0757C95.7673 57.9106 96.5755 58.5273 97.1855 59.5225C97.495 57.6323 97.2345 55.9024 97.3413 54.0078C97.4148 52.692 95.8942 53.1551 95.8897 52.5806C95.8897 52.387 95.9009 52.0241 96.2037 52.0241L99.708 52.0107C100.009 52.0107 99.9907 52.4114 99.9996 52.5784C100.026 53.164 98.6504 52.7098 98.6371 54.0167L98.5413 62.9689C98.5347 63.5077 97.1744 63.0245 96.9339 62.4902L96.9384 62.4858Z" fill="#8B8C80"/>
<path d="M41.4372 73.809C41.4372 77.035 38.8189 79.651 35.5907 79.651C32.3625 79.651 29.7443 77.035 29.7443 73.809C29.7443 70.583 32.3625 67.967 35.5907 67.967C38.8189 67.967 41.4372 70.583 41.4372 73.809ZM35.7755 78.5601C38.3893 78.6536 39.9232 74.5593 38.7121 71.5493C38.1221 70.0799 36.9889 69.0312 35.4594 69.0691C33.912 69.1069 32.7298 70.2557 32.289 71.6739C31.4207 74.4658 33.066 78.4644 35.7755 78.5601Z" fill="#8B8C80"/>
<path d="M66.7688 63.1737C66.5417 62.9667 66.6218 62.4702 66.7064 62.2542C66.9112 62.1874 67.8753 62.3099 67.8864 61.9893C68.0066 59.0082 67.9821 56.1406 67.8975 53.1506C67.8307 52.8389 66.9513 52.9524 66.6975 52.9035C66.6129 52.5829 66.5951 52.3736 66.6997 51.9706C69.0998 52.1509 71.3729 51.8081 73.7239 52.1153C75.6564 52.3669 77.3752 53.863 77.6869 55.7844C77.8583 56.8419 77.9295 58.0709 77.6379 59.1084C77.0613 61.1633 75.0219 62.813 72.8979 63.0757C70.8319 63.3318 68.9439 63.0245 66.7665 63.1737H66.7688ZM70.3955 62.0071C71.6222 62.6661 73.2007 62.0583 74.1536 61.2568C75.9837 59.7184 76.3154 55.4326 73.8887 53.6805C72.9313 52.9903 70.9677 52.456 69.9792 53.302C69.5762 55.4415 69.9547 57.61 69.8144 59.8119C69.7744 60.4308 69.7766 61.6776 70.3955 62.0093V62.0071Z" fill="#8B8C80"/>
<path d="M85.2766 76.1802C85.3256 75.2028 84.9449 74.7531 84.188 74.7241C83.9475 74.7152 83.6692 74.6106 83.5356 74.5282C83.4109 74.4525 83.451 73.8558 83.6002 73.8447C85.1297 73.7267 86.7973 73.7601 88.3513 73.8269C88.4982 73.8336 88.4359 74.2655 88.4492 74.359C88.5116 74.8644 87.1112 74.4703 87.0978 75.7638C87.0867 76.8971 87.1846 77.9056 87.0288 79.0277C86.3653 78.9498 85.8778 79.4195 85.2944 79.4708C81.6143 79.7914 78.2124 79.6466 77.0769 75.3052C76.7118 73.9071 76.8187 72.6425 77.56 71.3623C77.9675 70.6588 78.2658 69.9174 78.907 69.4343C80.3697 68.3322 81.9059 67.8625 83.7649 67.9827C84.8692 68.0539 86.2162 68.0161 86.9687 69.0135C87.149 69.2517 87.2626 71.3935 86.9108 71.5582C86.7772 71.6206 86.5078 71.6139 86.3631 71.5671C85.6974 71.3556 87.1646 70.3048 84.2926 69.1916C83.333 68.8198 82.6339 68.9779 81.7145 69.2428C80.363 69.6302 79.8332 70.7078 79.4213 71.9723C79.0495 73.1145 79.0962 73.9805 79.4191 75.1672C79.9846 77.2488 81.8169 79.1234 84.139 78.5446C84.9983 78.3309 85.2343 77.0106 85.2766 76.1802Z" fill="#8B8C80"/>
<path d="M49.9441 78.3219C51.0929 77.378 50.6165 75.2919 50.3671 75.0314C49.6369 74.2699 48.6239 75.323 48.8688 73.8247C50.3738 73.7378 51.9033 73.7801 53.562 73.8002C53.8625 73.8046 53.838 74.2076 53.8358 74.3545C53.8291 74.9045 52.5067 74.4147 52.4844 75.7683C52.4666 76.9082 52.5801 77.9078 52.4065 79.0455C51.7274 78.9142 51.2198 79.4685 50.6432 79.4841C49.2695 79.522 47.8402 79.7579 46.5378 79.4173C44.8079 78.9676 43.1225 77.752 42.7485 75.9798C41.9581 72.215 43.1604 69.2562 46.9675 68.143C48.0873 67.8157 50.9816 67.9248 52.2885 68.615C52.6492 69.4432 52.5156 70.6009 52.431 71.5115C52.1594 71.6362 51.7987 71.5426 51.5894 71.5182C51.743 70.1222 50.7412 69.5033 49.6391 69.1693C48.871 68.9356 48.4013 68.9979 47.6599 69.1827C44.2647 70.0265 44.9593 72.8206 44.8435 73.9961C44.6342 76.1245 45.9389 77.9858 47.9426 78.4667C48.6929 78.647 49.3452 78.8162 49.9463 78.3219H49.9441Z" fill="#8B8C80"/>
<path d="M24.0982 74.4325C23.7709 75.4989 24.1049 76.8525 24.0091 77.9947C25.1379 78.549 26.3001 78.7405 27.3398 78.0102C27.8607 77.6429 28.0834 76.0377 28.7624 76.0265C29.0363 76.0221 29.2389 76.0956 29.2678 76.3405C29.2968 76.5854 29.1654 76.8013 29.063 77.0529C28.7491 77.8277 28.9962 78.6336 28.7758 79.4997L21.5445 79.542C21.1549 79.5442 20.8922 79.4774 20.8455 79.2236C20.6852 78.3642 22.1278 78.3531 22.1323 77.3223L22.1679 70.4406C22.1724 69.7749 21.7828 69.3942 21.1215 69.2406C20.7453 69.1537 20.6807 68.1185 21.0659 68.094C23.4236 67.9359 25.6099 68.0561 27.9587 68.045C28.0032 69.1048 28.1413 70.0354 27.9186 71.0506C27.883 71.2109 27.2908 71.182 27.2084 71.0551C26.8967 70.5764 26.9212 69.6591 26.3891 69.4387C25.6589 69.1359 24.8552 69.3875 23.9846 69.3408C24.1026 70.5163 23.7754 71.7653 24.1115 72.7783C24.5279 73.159 25.8882 72.9764 26.0463 72.3642C26.122 72.0747 26.2444 71.9033 26.2689 71.7519C26.3023 71.5515 26.9457 71.507 26.988 71.7074C27.2351 72.874 27.0481 74.3056 27.0882 75.4722C26.939 75.6147 26.4648 75.6102 26.3401 75.5412C26.1754 75.4477 26.142 75.0781 26.044 74.7375C25.8748 74.143 24.2607 73.8959 24.0937 74.4369L24.0982 74.4325Z" fill="#8B8C80"/>
<path d="M51.1909 57.9084C50.946 58.9993 51.0862 60.1793 51.0929 61.3325C51.0974 62.0583 51.841 62.203 52.3953 62.2409C55.6347 62.4702 54.5594 59.3644 55.8529 60.0279C56.1646 60.1882 56.0644 62.8553 55.4699 63.049L47.602 63.1693C47.4884 62.7841 47.5352 62.5681 47.5619 62.2409C48.0094 62.2164 48.35 62.2542 48.8421 62.1095V53.0326C48.3522 52.8879 48.0094 52.9257 47.5619 52.9013C47.5352 52.5762 47.4929 52.3447 47.5975 51.9973L55.0224 52.0241C55.0002 53.2864 55.4388 54.7113 54.5282 54.7469C53.8514 54.7736 53.9093 53.3064 53.1991 53.0504C52.5356 52.81 51.8855 52.9235 51.0929 52.997C51.2131 54.1836 50.8057 55.4816 51.2265 56.6794C51.4469 57.305 52.9341 56.6905 53.0521 56.0226C53.1011 55.7532 53.3683 55.6664 53.4796 55.6018C53.6287 55.515 54.1386 55.495 54.1497 55.771C54.2187 57.2471 54.4636 59.193 53.6354 59.1818C53.0833 59.1752 52.9141 58.0464 52.618 57.9173C52.3374 57.797 51.5671 57.7035 51.1931 57.9084H51.1909Z" fill="#8B8C80"/>
<path d="M60.2834 75.9998L57.0841 75.9753C55.3542 78.3375 57.8121 78.9609 56.7613 79.3728C55.9531 79.6889 54.5438 79.6377 53.8113 79.3839C53.4106 78.7828 54.3034 78.4021 54.5527 78.1304C55.4766 77.1286 55.5813 75.7393 56.1156 74.5482C56.3583 74.0094 58.3642 68.684 58.4199 68.4034C58.5001 68.0116 59.7401 67.7333 59.8693 68.1073L62.9417 77.0239C63.1866 77.7341 63.5895 78.2596 64.2419 78.6492C64.4845 78.7939 64.5402 79.4596 64.1951 79.4774C62.9394 79.542 61.6481 79.7268 60.5082 79.375C59.6311 79.1034 61.9621 77.7074 60.2812 75.9998H60.2834ZM60.0118 74.4992L58.8808 71.2532C58.175 72.2706 57.7943 73.3259 57.4559 74.5905C58.2774 74.6551 59.1635 74.9067 60.0118 74.4992Z" fill="#8B8C80"/>
<path d="M10.1455 59.6827C9.84494 60.4642 9.44642 61.2189 9.45533 61.9937C9.45756 62.1941 9.95849 62.1941 10.1121 62.2742C10.2657 62.3544 10.3103 63.0312 10.1344 63.0668C9.77815 63.1425 7.10874 63.4052 7.03527 62.7907C6.9284 61.8957 7.3848 63.0535 8.50244 60.4976C8.73398 59.9655 11.3967 52.7721 11.4902 52.4248C11.5971 52.0351 11.8843 51.7435 12.1626 51.6544C12.4966 51.5476 13.0531 51.6722 13.1756 52.1287C13.5429 53.5068 14.0684 54.7179 14.5804 56.0671C15.2751 57.8927 15.7693 60.0902 16.6331 61.7755C16.8068 62.1161 17.8866 62.715 17.2276 63.0022C16.0632 63.3518 14.6316 63.0891 13.4116 63.1024C13.2713 63.1024 13.2825 62.4768 13.3314 62.3477C13.396 62.174 13.9259 62.2787 14.1218 62.0939C14.4268 61.2456 13.7077 60.5733 13.6209 59.6627C12.4899 59.5558 11.4546 59.5313 10.1411 59.6805L10.1455 59.6827ZM12.8839 58.5918C13.2246 58.2066 12.196 54.9829 11.7329 55.112C11.468 56.2875 11.0227 57.2671 10.5707 58.5295C11.3633 58.7566 12.0914 58.6942 12.8862 58.5918H12.8839Z" fill="#8B8C80"/>
<path d="M24.7594 59.665C23.6217 59.5359 22.5775 59.5893 21.3976 59.6294C21.2217 60.4242 20.6762 61.081 20.4759 61.6999C20.7697 61.9092 21.8206 62.6372 21.2128 62.9867C20.4603 63.4186 19.3404 63.029 18.4788 63.1493C18.1537 63.1938 18.2406 62.7151 18.2027 62.586C18.107 62.2609 18.6191 62.3433 18.8061 62.1251C19.7256 61.0498 19.9861 59.6071 20.5159 58.2891C20.7564 57.6902 22.7957 52.2779 22.8247 52.1421C22.9048 51.7502 23.3857 51.6077 23.644 51.6233C23.969 51.6434 24.2874 51.8682 24.4232 52.269L27.3954 61.0409C27.8028 62.2453 28.4106 62.1273 28.5108 62.5793C28.7401 63.6168 25.4451 63.0402 24.5657 63.0624C24.4388 63.0023 24.4432 62.517 24.5167 62.4079C24.6147 62.2609 25.08 62.2721 25.267 62.0895C25.5742 61.2769 24.8507 60.7247 24.7616 59.6672L24.7594 59.665ZM21.7783 58.6075C22.7156 58.7032 23.5638 58.7744 24.441 58.5206L23.3501 55.2033C22.7067 55.1633 21.9341 57.9039 21.7761 58.6075H21.7783Z" fill="#8B8C80"/>
<path d="M81.877 58.0219C81.6855 59.1952 81.7345 60.3974 81.8436 61.5106C81.9171 62.2564 82.7609 62.1696 83.2818 62.2386C84.562 62.41 85.5728 61.8334 85.831 60.5443C85.9245 60.0746 86.991 59.7562 86.9776 60.1926C86.9464 61.2011 86.4433 62.0538 86.6214 63.1225L78.8914 63.147C78.5664 63.147 78.5597 62.7796 78.5708 62.5703C78.5976 62.0182 79.9178 62.4857 79.9178 61.1299L79.9245 54.01C79.9245 52.8834 78.8692 52.9636 78.6376 52.7855C78.5152 52.6919 78.5285 52.0463 78.7267 52.0463L85.7242 51.9995C85.7821 52.3691 86.0648 55.6441 85.0563 54.6801C84.6511 54.2927 84.7067 53.3086 84.1189 53.0548C83.4132 52.7521 82.6161 52.9658 81.8102 53.0059C81.8926 54.2103 81.5252 55.4593 81.926 56.6616C82.1152 57.2271 83.7761 56.9198 83.8496 56.194C83.8785 55.9135 84.0499 55.6708 84.1546 55.5795C85.1698 54.6979 84.8737 58.1065 84.8292 58.9503C84.8136 59.2531 84.1613 59.2998 84.0744 59.0571C83.8807 58.5184 83.7293 58.0063 83.3063 57.8861C82.9612 57.7903 81.9393 57.6657 81.877 58.0196V58.0219Z" fill="#8B8C80"/>
<path d="M44.7367 58.8234C44.5898 58.1377 42.9445 57.8995 42.7486 58.4583C42.5415 59.0483 42.5972 61.8045 42.7307 62.0605C42.9066 62.3989 43.9374 62.036 43.953 62.5637C43.9619 62.8531 43.9597 63.1425 43.5434 63.1425H39.1485C39.055 62.8019 39.0884 62.5659 39.1196 62.2409C39.5671 62.2186 39.901 62.2587 40.4042 62.1073L40.3708 53.1372C40.3129 52.8189 39.409 52.9458 39.1552 52.9057C39.0684 52.5873 39.0528 52.3402 39.1552 51.9973L46.5779 52.0263C46.5556 53.2953 46.9942 54.7113 46.0837 54.7469C45.4291 54.7736 45.4291 53.3265 44.7501 53.0526C44.1066 52.7922 43.4031 52.9436 42.6729 52.9859L42.6617 57.1781C44.8413 57.6746 44.8413 55.9046 45.1953 55.9402C45.3378 55.9558 45.7363 55.9068 45.7363 56.2163C45.7408 57.354 45.8521 58.4716 45.6829 59.5047C45.6606 59.6471 45.0862 59.6872 45.0306 59.5603C44.9749 59.4334 44.8146 59.2086 44.7322 58.8256L44.7367 58.8234Z" fill="#8B8C80"/>
<path d="M19.8725 76.3048C19.8592 77.1442 19.4072 77.6896 19.5341 78.4778C19.6098 78.9475 19.1979 79.5509 18.6658 79.5398C16.2947 79.4863 13.8947 79.7223 11.6283 79.4195C10.9938 79.0255 12.1069 78.4488 12.3941 78.0993L12.4298 69.4788C12.196 69.2495 11.5236 69.245 11.5348 68.9756C11.5437 68.7575 11.3834 68.1007 11.7529 68.0829C13.2023 68.0138 14.6138 67.9137 15.9452 68.1519C16.1144 68.4458 15.9385 69.038 15.6669 69.1137C15.4643 69.1693 15.1036 69.2717 14.7096 69.4343L14.6873 78.0214C17.6818 78.9698 14.8632 78.6069 17.9178 78.0904C18.4298 77.8076 18.5745 76.9327 18.8617 76.4228C19.071 76.0533 19.8859 75.815 19.8792 76.3071L19.8725 76.3048Z" fill="#8B8C80"/>
<path d="M36.9577 60.3439C37.029 59.9343 37.6189 59.961 38.0976 60.0901C37.7236 61.0029 37.7703 61.967 37.7058 63.1113H29.8244C29.6552 63.1113 29.6485 62.4367 29.7665 62.361C29.9268 62.2608 30.2764 62.2608 30.6482 62.105V53.0392C30.3209 52.9346 30.0426 52.8455 29.9024 52.8544C29.6619 52.87 29.5884 52.1086 29.8489 52.0752C31.2872 51.8904 32.6675 52.0774 34.1614 51.9817C34.2527 52.3557 34.2438 52.5828 34.1569 52.9012C33.9009 52.9457 33.0237 52.8344 32.9436 53.155C32.8367 55.9802 32.8389 58.7409 32.9324 61.5395C32.9569 62.2363 33.99 62.1807 34.3907 62.2319C35.7688 62.4078 36.7061 61.8133 36.9577 60.3417V60.3439Z" fill="#8B8C80"/>
<path d="M65.7959 60.8271L65.2327 63.1358L57.9769 63.1625C57.7164 63.1625 57.4048 63.1625 57.3135 62.9577C57.2534 62.8219 57.2578 62.5458 57.309 62.4056C57.4315 62.0672 58.0571 62.3232 58.4378 62.1228C58.5536 62.0627 58.6181 61.8289 58.6181 61.5818V53.5691C58.6181 53.3754 58.5781 53.2218 58.5291 53.1149C58.3799 52.7877 57.4493 53.1016 57.3068 52.7587C57.2289 52.5695 57.2111 52.0218 57.5584 52.0196L61.4968 52.0062C61.8308 52.0062 61.8352 52.3691 61.8352 52.5761C61.8352 53.1661 60.466 52.6563 60.4771 54.0144L60.5373 61.0519C60.5417 61.4616 60.8445 61.8245 60.9937 62.036C61.2029 62.3343 61.853 62.1941 62.1647 62.223C64.9766 62.4991 64.0905 60.2727 65.246 59.9766C65.531 59.9031 65.9407 60.2126 65.7915 60.8271H65.7959Z" fill="#8B8C80"/>
</svg>
