<svg width="128" height="28" viewBox="0 0 128 28" fill="none" xmlns="http://www.w3.org/2000/svg">
<path d="M111.858 0.00722055L112.019 21.4766C113.376 21.6628 114.536 21.6091 115.871 21.5088L115.975 13.1531C115.982 12.6411 116.537 12.3619 116.898 12.3153C117.181 12.2795 117.75 12.4764 117.758 13.0385L117.865 21.4659C119.225 21.6556 120.457 21.6234 121.971 21.4945C121.91 18.1651 122.15 14.961 121.864 11.6602C121.746 10.2855 120.536 9.57303 119.515 9.36539C118.191 9.09689 117.135 9.57303 115.964 10.5754L116.003 0.0322813L127.968 0.046601L128 27.5197L34.5436 27.5519L34.5615 0.021541H72.6457L72.7388 21.4659C74.1135 21.6556 75.2591 21.627 76.6768 21.4802L76.7019 0.594344C76.7019 0.0609213 77.2997 0.0179606 77.5539 0.00722055C77.9012 -0.0035195 78.4561 0.0573409 78.4597 0.605084L78.4847 21.4873C80.1459 21.4766 82.3762 22.2248 82.5624 20.4706C83.1137 21.7451 84.3452 22.0064 85.7486 21.9098C89.4682 21.652 88.9706 14.4025 88.4014 11.9645C88.1078 10.7043 87.2773 9.77709 86.2605 9.44773C84.9717 9.03245 83.9371 9.49785 82.5409 10.1602L82.5767 0.0358607L111.868 6.10352e-05L111.858 0.00722055ZM46.2896 21.6341C48.0295 21.1651 48.8923 19.7797 49.0534 18.4694C49.7014 13.1745 42.9853 14.7748 43.3433 12.4943C43.4328 11.9179 44.0306 11.7354 44.6571 11.8499C45.4984 12.0039 44.4566 13.7724 48.6453 12.8559C49.1429 11.4991 47.9185 10.0205 46.5796 9.63031C44.8934 9.13985 43.175 9.13985 41.5891 9.83079C40.0031 10.5217 39.3265 12.1327 39.5842 13.8547C40.0282 16.8405 43.8373 16.6328 45.0151 17.8465C45.4591 18.3047 45.2622 18.9777 44.8934 19.2713C44.5247 19.5649 43.9125 19.4718 43.5115 19.2104C43.2752 19.0565 43.2752 18.3906 42.9208 18.1364C42.3051 17.6925 40.4721 17.5565 39.8313 18.0935C39.0687 18.7379 40.0317 20.6568 40.8945 21.158C42.502 22.0959 44.428 22.1353 46.2932 21.6305L46.2896 21.6341ZM50.489 20.7857C51.8351 22.5685 54.3124 22.0959 55.6156 20.936C56.9187 21.9313 58.3221 21.6484 59.8758 21.4265C59.0989 18.3298 60.7636 11.3702 58.2755 10.0313C56.4068 9.02887 53.9723 9.01813 52.0463 9.93461C50.7575 10.5468 50.2491 11.9645 50.2921 13.2891C51.3625 13.2318 52.7014 13.7223 53.5857 13.1173C54.0511 12.7986 53.9222 11.7246 54.6883 11.7783C55.3864 11.8284 55.8805 12.0504 55.8984 12.8344C55.9485 14.9037 52.1286 13.8726 50.5427 15.8524C49.5976 17.0338 49.4758 19.436 50.4926 20.7785L50.489 20.7857ZM61.7481 20.8966C63.1515 22.5578 65.4928 22.0637 66.7566 20.9217C68.1385 21.9527 69.7208 21.6556 71.0204 21.3943C70.2578 18.1293 72.0013 11.4132 69.3843 10.0026C67.8127 9.15775 65.858 9.11121 64.1324 9.56587C62.4069 10.0205 61.3722 11.4848 61.4975 13.2855C62.4785 13.2318 63.9785 13.776 64.8162 13.0564C65.2745 12.6626 65.2172 11.5635 66.1229 11.7783C66.6385 11.9036 67.0144 12.1864 67.0322 12.8416C67.0788 14.739 63.6312 14.0767 61.988 15.591C60.7099 16.7653 60.5309 19.4539 61.7481 20.8931V20.8966ZM90.1735 20.7391C91.4372 22.4754 93.9755 22.2463 95.2786 20.9074C96.6032 21.8955 98.2142 21.7021 99.5782 21.3799C98.8049 18.183 100.545 11.4239 97.9565 10.017C96.2953 9.11121 94.2368 9.10047 92.4432 9.64463C90.8072 10.1423 89.9014 11.5599 90.0589 13.2927C95.3001 14.1018 92.8156 11.3344 94.6986 11.7855C95.2213 11.9108 95.5793 12.2294 95.5901 12.8201C95.6294 14.8357 91.9205 14.023 90.3525 15.7128C89.2856 16.862 89.1532 19.3429 90.1699 20.7391H90.1735ZM106.112 11.9251C107.143 11.9788 107.075 13.2712 107.279 14.2557C108.424 14.4848 109.538 14.4848 110.719 14.2593C110.916 12.8523 110.54 11.4776 109.695 10.5182C108.804 9.50859 107.386 9.31169 105.951 9.28663C103.552 9.24367 101.579 10.3964 101.103 12.8344C100.742 14.6889 100.724 16.7474 101.089 18.6126C101.562 21.0363 103.591 22.0566 105.943 21.942C107.418 21.8704 108.936 21.7415 109.803 20.6174C110.601 19.5863 110.909 18.1508 110.741 16.6436C109.552 16.5254 108.421 16.4968 107.211 16.6615C107.139 17.4813 107.268 18.1973 106.842 18.8489C104.673 22.164 103.831 11.7998 106.112 11.9179V11.9251Z" fill="#8B8C80"/>
<path d="M31.5221 0.025116V27.4588H0V0.025116H31.5221ZM28.3358 18.4228C27.2332 18.9992 25.0315 19.1818 23.8358 19.0243C21.4765 17.6925 19.1674 16.6185 16.3249 16.5433C15.6984 11.9036 19.9085 12.2043 21.1973 9.12552C21.4909 8.42026 21.6878 7.84388 22.3572 7.33193C21.362 6.99899 21.1329 6.15769 21.4264 5.29132C20.202 5.49896 20.7068 6.64099 20.1125 7.33551C19.3035 8.2878 16.6077 9.43341 15.5731 8.47038C14.5385 7.50736 15.1256 5.36293 13.3392 4.7579C12.4799 6.00733 12.3367 7.70784 12.6231 9.1291C13.4645 8.88208 14.0802 8.47396 14.8249 8.81406C15.5695 9.15416 15.2795 10.332 15.2043 10.8941C15.1471 11.3272 14.3881 12.3726 13.937 11.8821L10.8725 8.51334C9.53359 7.04195 6.9882 7.29613 5.21609 6.25077C4.37478 5.75315 4.2996 3.95956 3.09672 3.92018C3.30078 4.77938 3.59076 5.2412 3.49052 5.72451C3.39028 6.20781 2.9213 6.37965 2.37355 6.64815L4.26022 7.18515C6.42255 10.0205 11.8642 12.0611 11.32 14.85C10.1279 14.3882 8.93215 14.8213 7.7579 14.4454C6.38675 14.0051 4.6039 13.1101 3.80914 11.9144C3.41534 11.3201 4.73637 10.0886 3.63372 9.47637C2.57045 9.93461 1.55731 11.6172 1.82939 12.906C5.26263 14.3022 3.77334 14.6925 6.97746 16.7796C8.49181 19.6114 10.672 21.0506 13.8404 21.5267C16.3822 21.9098 18.8452 22.6007 21.541 21.8919L25.3501 20.8895C26.9253 20.4742 28.2428 20.0052 29.9433 20.2916C30.1903 18.8274 30.5698 17.4025 30.0614 16.0994C28.7869 16.4073 29.2631 17.9288 28.3251 18.4193L28.3358 18.4228Z" fill="#8B8C80"/>
<path d="M83.6507 12.301C85.1329 12.276 85.2618 18.763 83.6185 18.8811C81.9753 18.9993 81.9395 12.3297 83.6507 12.301Z" fill="#8B8C80"/>
<path d="M95.5937 17.1341C95.694 18.2367 95.3001 19.4575 94.1331 19.1281C93.3276 18.899 93.3419 17.8107 93.5173 17.288C93.7285 16.6579 94.3801 16.1531 95.2608 16.1961C95.6689 16.214 95.5508 16.6615 95.5937 17.1341Z" fill="#8B8C80"/>
<path d="M55.8483 16.5576C56.1705 17.8106 55.6944 19.0386 54.8853 19.1639C53.6645 19.35 53.6323 17.9896 53.8041 17.2271C53.9509 16.5791 55.5941 15.566 55.8519 16.5612L55.8483 16.5576Z" fill="#8B8C80"/>
<path d="M66.9392 16.5719C67.3115 17.875 66.8926 19.1459 65.9475 19.1746C64.852 19.2068 64.7912 17.9824 64.9523 17.2807C65.1134 16.5791 66.6671 15.6232 66.9392 16.5719Z" fill="#8B8C80"/>
</svg>
