<svg width="164" height="32" viewBox="0 0 164 32" fill="none" xmlns="http://www.w3.org/2000/svg">
<path d="M75.244 20.5454L75.2852 20.5041L75.3475 20.4418L75.244 20.5454ZM140.205 17.239C140.189 17.2406 140.174 17.2481 140.163 17.26C140.209 17.2275 140.258 17.1993 140.309 17.1758C140.268 17.1969 140.247 17.2171 140.205 17.2381M140.04 17.3628H140.019C140.019 17.3628 140.06 17.3417 140.06 17.3215C140.097 17.3055 140.132 17.2853 140.163 17.26C140.122 17.2811 140.101 17.3005 140.06 17.3215C140.06 17.3215 140.019 17.3426 140.019 17.3628M136.754 13.6208C136.738 13.6192 136.723 13.6117 136.713 13.5998H136.754M91.361 17.8211C91.3545 18.1206 91.3264 18.4194 91.2769 18.7149C91.2146 18.9229 91.1733 19.131 91.09 19.3391C91.0277 19.5261 90.9444 19.7131 90.8611 19.901C90.6286 20.2644 90.3719 20.6117 90.0928 20.9405C89.3551 21.6923 88.5559 22.3809 87.7035 22.9993C86.8308 23.6648 85.9169 24.3093 85.0029 24.9124C84.4003 25.3075 83.7776 25.7026 83.1514 26.0354C82.798 26.2224 82.4655 26.4094 82.1129 26.5762C81.8015 26.7188 81.4824 26.8437 81.1569 26.9502C80.7331 27.0966 80.2941 27.1944 79.8482 27.2417C79.4021 27.2424 78.9568 27.2007 78.5185 27.117C78.3287 27.0705 78.1413 27.0142 77.9572 26.9485C77.7581 26.8769 77.5639 26.7925 77.3757 26.6958C77.1065 26.5614 76.8552 26.3939 76.6275 26.1971C76.4987 26.0681 76.3805 25.929 76.2741 25.781C76.2095 25.6672 76.1532 25.549 76.1057 25.4271C76.051 25.2018 76.0163 24.9721 76.0022 24.7406C76.0084 24.3069 76.0572 23.875 76.1478 23.4509C76.2504 23.0218 76.3751 22.5983 76.5215 22.1822C76.7022 21.6903 76.9174 21.2118 77.1653 20.7501C77.3254 20.4405 77.5059 20.1419 77.7056 19.8563C77.9134 19.5648 78.1415 19.3155 78.3704 19.0451C78.516 18.8994 78.6818 18.7536 78.8274 18.6087C78.9254 18.5252 79.0184 18.436 79.106 18.3417L79.1472 18.3004C79.4174 18.0713 79.6875 17.864 79.9778 17.6349C80.1647 17.4892 80.3515 17.3645 80.5181 17.2188C80.6376 17.267 80.7657 17.2901 80.8944 17.2864C81.0232 17.2828 81.1498 17.2526 81.2663 17.1977C81.64 16.9686 82.0145 16.7613 82.4092 16.5322C82.9752 16.2024 83.5661 15.9174 84.1765 15.6797C84.6379 15.5407 85.1108 15.4432 85.5895 15.3882L86.2131 15.3259H87.7742C88.2429 15.3459 88.7088 15.4085 89.1662 15.5129C89.5942 15.6107 90.0116 15.7501 90.4126 15.929C90.5246 15.9935 90.6291 16.0703 90.7239 16.1582C90.8457 16.2802 90.9569 16.4124 91.0564 16.5533C91.138 16.6854 91.2076 16.8247 91.2642 16.9694C91.35 17.2256 91.4065 17.4907 91.4325 17.7596M76.1167 21.2286C76.1151 21.2445 76.1076 21.2592 76.0956 21.2699V21.2488M62.1347 14.5096L62.0935 14.5509L62.0312 14.6132C62.0328 14.5973 62.0403 14.5826 62.0522 14.5719C61.9066 14.7177 61.7821 14.8634 61.6365 15.0083L61.6575 14.9872C60.6813 16.0478 59.663 17.0461 58.7078 18.1041C58.8984 17.4834 59.1203 16.8727 59.3727 16.2744C59.9542 14.8811 60.598 13.5088 61.2426 12.1365C61.6996 11.1383 62.1566 10.1611 62.6136 9.16284C63.0705 8.20586 63.5065 7.22531 64.0055 6.29276C64.3169 5.73088 64.6292 5.16984 64.9818 4.62901C65.3348 4.09899 65.7237 3.59378 66.1457 3.1169C66.2702 2.99222 66.3981 2.84649 66.5193 2.72181C66.8874 2.35653 67.2911 2.02915 67.7245 1.74462C67.9734 1.59719 68.2382 1.4785 68.5139 1.39081C68.6426 1.35072 68.7747 1.32252 68.9086 1.30657C69.0475 1.30319 69.1864 1.31023 69.3243 1.32763C69.3774 1.33547 69.4276 1.35694 69.4699 1.38997C69.5111 1.43125 69.5734 1.45231 69.6155 1.49358C69.6365 1.51464 69.6567 1.55592 69.6778 1.57782C69.6778 1.6191 69.719 1.66206 69.7401 1.7025C69.7401 1.76484 69.7611 1.80612 69.7611 1.87098C69.7503 2.18628 69.7086 2.49976 69.6365 2.80689C69.5048 3.40795 69.3313 3.99907 69.1173 4.57594C68.8889 5.19988 68.6395 5.80305 68.3691 6.38543C67.6621 7.65556 66.8627 8.87191 65.9774 10.0246C65.5204 10.6278 65.0424 11.2309 64.5467 11.813C64.0686 12.3749 63.5704 12.936 63.0714 13.4768C62.739 13.8306 62.4276 14.2046 62.0952 14.5584M58.0665 21.045C58.0505 21.0821 58.0295 21.117 58.0042 21.1486C57.8587 21.3777 57.7341 21.606 57.6095 21.8351C57.6508 21.7105 57.6937 21.5647 57.7341 21.44C57.8376 21.3154 57.963 21.1696 58.0665 21.045ZM44.7881 23.5612C44.4347 23.894 44.082 24.2057 43.7075 24.4971C43.5207 24.6429 43.3339 24.7886 43.1462 24.9133C42.9779 25.038 42.8138 25.166 42.6269 25.2873C42.2342 25.5367 41.8395 25.7655 41.4428 25.9739C41.0271 26.1819 40.5912 26.369 40.1544 26.5358C39.8064 26.6453 39.4527 26.7356 39.0948 26.8062C38.6897 26.8841 38.2806 26.9403 37.8695 26.9746H36.7898C36.4193 26.9581 36.051 26.9094 35.689 26.8289C35.2886 26.738 34.8988 26.6056 34.5259 26.4338C34.4072 26.3696 34.2958 26.2928 34.1935 26.2047C34.1312 26.1423 34.0689 26.059 34.0067 25.9966C33.9654 25.9124 33.9225 25.8281 33.8821 25.7262C33.8439 25.5477 33.8158 25.3671 33.7979 25.1854C33.7979 24.9773 33.798 24.749 33.819 24.5409C34.1725 23.9378 34.5049 23.3557 34.8575 22.7525C35.2312 22.087 35.6057 21.4636 36.0416 20.8394C36.3091 20.4407 36.6005 20.0587 36.9143 19.6954C37.3865 19.1912 37.9164 18.7444 38.4931 18.3644C38.7966 18.202 39.1087 18.0563 39.4281 17.9281C39.6308 17.9299 39.8283 17.8641 39.9894 17.741C40.1467 17.6901 40.2942 17.6126 40.4254 17.5119C40.5133 17.4339 40.578 17.333 40.6122 17.2204C40.8411 17.0334 41.0692 16.8666 41.2981 16.6796C41.6305 16.4269 41.9629 16.1809 42.3164 15.9518C42.6698 15.7331 43.0376 15.5386 43.4172 15.3697C43.625 15.2854 43.8119 15.2239 44.0197 15.1616C44.3398 15.0579 44.6658 14.9735 44.996 14.9089C45.3187 14.8527 45.6449 14.8181 45.9722 14.8053H47.1774C47.575 14.8473 47.9702 14.9097 48.3615 14.9923C48.7104 15.0717 49.0512 15.1831 49.3798 15.325C49.5022 15.394 49.6203 15.4705 49.7332 15.5542C49.8005 15.6263 49.863 15.7028 49.9201 15.7833L50.0446 16.036C50.0656 16.1396 50.0858 16.2441 50.1069 16.3688C50.1138 16.5361 50.1 16.7036 50.0656 16.8675C49.9766 17.1731 49.8655 17.4718 49.7332 17.7613C49.4218 18.1774 49.1096 18.5927 48.8193 19.0089C48.6114 19.3003 48.4246 19.591 48.2377 19.9027C48.2167 19.9439 48.1755 20.0063 48.1536 20.0484C47.6966 20.5892 47.2607 21.13 46.7826 21.67L46.9072 21.5453C46.864 21.599 46.8152 21.6479 46.7616 21.6911V21.67C46.138 22.3355 45.4942 22.98 44.826 23.5831M42.4788 25.3715C42.5319 25.3323 42.5882 25.2976 42.6471 25.2679C42.6991 25.2384 42.7478 25.2037 42.7927 25.1643C42.6843 25.2264 42.5802 25.2959 42.4813 25.3724M23.9305 13.9325C23.9373 14.0586 23.9234 14.185 23.8892 14.3066C23.5778 14.8263 23.2454 15.3461 22.913 15.8456C22.836 15.97 22.8005 16.1156 22.8117 16.2614C22.8229 16.4073 22.8802 16.5458 22.9753 16.6569C22.6841 17.2811 22.3727 17.9045 22.0613 18.5287C21.3754 19.8184 20.586 21.0239 19.8177 22.2715C19.4019 22.937 18.9657 23.5828 18.509 24.209C18.052 24.8333 17.574 25.4154 17.0783 25.9975C16.7047 26.4338 16.31 26.871 15.9565 27.3074C15.6241 27.7235 15.2706 28.1186 14.897 28.5137C14.3355 29.1275 13.7154 29.6847 13.0455 30.1775C12.8437 30.2871 12.6354 30.3844 12.4219 30.4689C12.2645 30.5071 12.1048 30.5352 11.9439 30.5532C11.804 30.5601 11.6639 30.5462 11.5281 30.5119C11.4209 30.4794 11.3168 30.4377 11.2167 30.3872L10.9643 30.2002C10.9094 30.1431 10.8606 30.0804 10.8187 30.0132C10.7774 29.9509 10.7564 29.8675 10.7152 29.8051C10.6606 29.608 10.6259 29.406 10.6116 29.202C10.6265 28.637 10.6828 28.0739 10.78 27.5172C10.8641 26.9763 10.9668 26.4566 11.0711 25.9368C11.1553 25.604 11.2395 25.2713 11.3413 24.9386C11.4448 24.5847 11.5702 24.252 11.6737 23.899C11.7772 23.5461 11.9026 23.1712 12.0272 22.8174C12.1307 22.4636 12.2561 22.1106 12.3806 21.7778C12.549 21.3204 12.7341 20.863 12.9209 20.4056C12.9607 20.487 13.0265 20.5528 13.1078 20.5926C13.2752 20.6969 13.4733 20.7409 13.6691 20.7173C13.7611 20.7026 13.8492 20.6691 13.9278 20.619C14.0064 20.5689 14.0739 20.5031 14.1261 20.4258C14.7343 19.4196 15.4426 18.4775 16.2401 17.6138C16.5515 17.2811 16.8839 16.9694 17.2163 16.6569C17.5488 16.3443 17.8812 16.0326 18.2347 15.7631C18.9618 15.181 19.7301 14.6191 20.4993 14.0993C20.9015 13.851 21.3271 13.643 21.7701 13.4785C22.0552 13.3997 22.3477 13.3508 22.6428 13.3327C22.8309 13.3257 23.0192 13.3396 23.2042 13.374C23.3712 13.4145 23.532 13.4774 23.6822 13.561L23.869 13.6857L23.8901 13.7068C23.8937 13.7778 23.9076 13.8478 23.9313 13.9148M124.646 22.8123V22.8292V22.8123ZM163.412 6.31804C163.228 6.19409 163.01 6.12889 162.788 6.13102C162.619 6.12938 162.451 6.16845 162.299 6.24496C162.148 6.32146 162.017 6.43318 161.917 6.57076C161.003 8.00285 160.006 9.39871 159.009 10.771C158.531 11.4154 158.032 12.0396 157.533 12.6841C157.347 12.9132 157.16 13.1205 156.972 13.3285C156.72 13.62 156.453 13.8904 156.204 14.181C155.435 14.9712 154.666 15.7614 153.857 16.5103C153.4 16.9264 152.943 17.3417 152.465 17.7579C152.257 17.9264 152.049 18.1117 151.821 18.2777C151.551 18.4857 151.281 18.6727 151.01 18.8808C151.031 18.8808 151.052 18.8598 151.073 18.8395C151.052 18.8395 151.031 18.8606 150.988 18.8808C150.82 18.9844 150.635 19.11 150.448 19.2136C150.178 19.3593 149.887 19.5253 149.618 19.671C148.915 20.0542 148.186 20.3878 147.436 20.6692C147.104 20.7705 146.763 20.8401 146.418 20.8773H146.148C146.136 20.8787 146.125 20.8775 146.114 20.8738C146.103 20.8702 146.094 20.8642 146.085 20.8563C146.044 20.815 145.982 20.7939 145.94 20.7526C145.906 20.7236 145.877 20.6885 145.856 20.649C145.814 20.5648 145.793 20.5033 145.752 20.4199C145.712 20.2698 145.684 20.1169 145.668 19.9625C145.669 19.7874 145.69 19.6131 145.73 19.4427C145.893 18.8895 146.108 18.3535 146.374 17.8421L146.998 16.7192C147.289 16.1784 147.6 15.6173 147.849 15.0344C147.934 14.8053 147.995 14.5559 148.057 14.3276C148.098 14.1591 148.12 13.9949 148.161 13.8289C148.171 13.6696 148.171 13.5098 148.161 13.3504C148.145 13.212 148.102 13.078 148.036 12.9553C147.979 12.8305 147.91 12.7119 147.828 12.6015C147.723 12.4671 147.591 12.3554 147.441 12.2732C147.291 12.191 147.126 12.1399 146.956 12.123C146.255 12.1549 145.574 12.3701 144.982 12.7473C143.351 13.5955 141.763 14.5255 140.225 15.5339C139.539 15.9703 138.854 16.4277 138.189 16.9273C137.505 17.4255 136.865 17.9821 136.278 18.591C136.257 18.6323 136.215 18.6534 136.194 18.6946C136.27 18.5814 136.34 18.4632 136.401 18.3408C136.63 17.9668 136.858 17.5717 137.087 17.1766C137.316 16.7605 137.565 16.3452 137.752 15.908C138.023 15.3124 138.212 14.6827 138.313 14.0361C138.334 13.7918 138.313 13.5456 138.251 13.3083C138.183 13.0611 138.07 12.8284 137.919 12.6218C137.719 12.4146 137.462 12.2722 137.18 12.2129C136.899 12.1536 136.606 12.1801 136.34 12.289C135.829 12.4651 135.34 12.7024 134.886 12.9958C134.47 13.2662 134.055 13.5366 133.639 13.8272C132.891 14.3681 132.164 14.9089 131.458 15.512C130.752 16.0941 130.045 16.6762 129.38 17.3215C128.736 17.9457 128.092 18.5902 127.469 19.2346C127.033 19.6921 126.576 20.1284 126.16 20.6069L125.579 21.2513C126.015 20.4401 126.472 19.6508 126.95 18.8598C127.365 18.1732 127.78 17.4875 128.196 16.822C128.404 16.4892 128.612 16.1354 128.799 15.7825C128.923 15.5744 129.028 15.3663 129.131 15.1582C129.251 14.928 129.342 14.6835 129.401 14.4304C129.434 14.2932 129.434 14.1503 129.401 14.0131C129.369 13.8759 129.305 13.7482 129.214 13.6402C129.118 13.5287 128.995 13.4435 128.857 13.3925C128.719 13.3415 128.57 13.3265 128.425 13.3487C127.864 13.433 127.469 13.973 127.136 14.3883C126.929 14.641 126.721 14.908 126.513 15.1574C126.159 15.5735 125.786 15.9888 125.412 16.405C124.56 17.3198 123.688 18.2347 122.774 19.1083C121.87 20.0095 120.89 20.8305 119.844 21.5622C119.122 22.0174 118.357 22.4006 117.559 22.7062C117.114 22.8528 116.655 22.9505 116.188 22.9977H115.897C115.805 22.9687 115.715 22.9341 115.627 22.894C115.611 22.8924 115.596 22.8849 115.586 22.873L115.546 22.8292C115.508 22.7619 115.473 22.6925 115.443 22.6211C115.422 22.4964 115.402 22.3684 115.38 22.226C115.401 21.2586 115.526 20.2963 115.754 19.3559C115.754 19.2936 115.795 19.2102 115.795 19.1479C115.92 18.5658 116.087 17.9837 116.211 17.4218C116.295 17.089 116.357 16.7773 116.419 16.4446C116.503 15.9661 116.648 15.3629 116.273 14.9678C116.152 14.8363 115.993 14.7456 115.818 14.7083C115.644 14.671 115.461 14.689 115.297 14.7598C114.986 14.8844 114.799 15.2172 114.611 15.4666C114.466 15.6536 114.341 15.8616 114.217 16.0487C113.925 16.485 113.593 16.8599 113.282 17.2752C112.658 18.0864 112.056 18.8968 111.37 19.6668C111.038 20.0408 110.684 20.3946 110.311 20.7686C109.916 21.1427 109.5 21.5175 109.106 21.8705C108.368 22.5636 107.576 23.1963 106.737 23.7626C106.653 23.8249 106.569 23.8662 106.485 23.931C105.966 24.2427 105.425 24.5553 104.906 24.8459C104.299 25.1895 103.667 25.4882 103.016 25.7397C102.538 25.8917 102.042 25.9825 101.541 26.0101C101.199 26.0131 100.859 25.9849 100.522 25.9258C100.301 25.8714 100.085 25.7946 99.8786 25.6967C99.7945 25.6344 99.6918 25.572 99.6085 25.5097C99.5874 25.4886 99.5672 25.4474 99.5243 25.4255C99.4558 25.2994 99.3994 25.1671 99.356 25.0304C99.2856 24.7786 99.2369 24.5213 99.2104 24.2613C99.2256 23.78 99.2819 23.3008 99.3787 22.8292C99.3894 22.7428 99.4103 22.6579 99.441 22.5764V22.5554C99.5656 22.0769 99.6935 21.6195 99.8567 21.1621C100.009 20.7714 100.182 20.3895 100.376 20.0181C100.523 19.7628 100.689 19.5195 100.874 19.2902C101.151 18.9852 101.45 18.7003 101.767 18.4377C102.1 18.1673 102.453 17.9179 102.827 17.6686C103.18 17.4605 103.513 17.2524 103.865 17.0444C103.906 17.0444 103.949 17.0031 104.011 16.982C104.405 16.8136 104.821 16.6493 105.216 16.4833C106.026 16.1716 106.815 15.7766 107.626 15.464C108.042 15.3393 108.478 15.2113 108.894 15.1313C109.358 15.0268 109.831 14.9642 110.307 14.9443C110.743 14.9443 111.158 14.9443 111.574 14.9653C111.782 14.9653 112.01 14.9864 112.218 15.0066H112.883C113.047 15.0044 113.21 14.9692 113.361 14.903C113.492 14.8315 113.611 14.7403 113.714 14.6326C113.793 14.5141 113.843 14.3787 113.86 14.2375C113.868 14.0496 113.808 13.865 113.691 13.7177C113.6 13.6058 113.487 13.5138 113.359 13.4473C112.959 13.2697 112.529 13.1708 112.092 13.1558C111.594 13.1247 111.094 13.1247 110.596 13.1558C109.751 13.2377 108.915 13.4048 108.103 13.6545L107.542 13.8416C107.439 13.8626 107.334 13.9039 107.251 13.9258C106.337 14.1962 105.464 14.6536 104.591 15.0074C104.176 15.1759 103.74 15.3402 103.324 15.5061C102.908 15.6721 102.514 15.86 102.119 16.0259C101.308 16.3797 100.52 16.7327 99.7086 17.1076C98.9605 17.4614 98.1938 17.7318 97.4027 18.0224C96.9984 18.1506 96.5797 18.2276 96.1563 18.2515C95.8299 18.2522 95.5038 18.2313 95.1801 18.1892C94.8687 18.1479 94.5363 18.0856 94.2241 18.0207C93.8504 17.9365 93.4759 17.8337 93.1022 17.7292C93.0988 17.5553 93.085 17.3818 93.061 17.2095C93.0365 17.0413 93.0019 16.8748 92.9575 16.7108C92.8952 16.5027 92.8329 16.3157 92.7707 16.1287C92.6374 15.8265 92.4702 15.5405 92.2724 15.2762C91.715 14.5969 90.9475 14.1228 90.0911 13.9283C89.6881 13.8092 89.2791 13.7119 88.8657 13.6368C87.7999 13.4808 86.7205 13.439 85.6459 13.5122C84.7336 13.5595 83.8352 13.7561 82.9865 14.0943C82.4653 14.3172 81.9593 14.5742 81.4716 14.8634C81.098 15.0715 80.7445 15.2998 80.3911 15.5078C80.3288 15.5491 80.2455 15.5921 80.1832 15.6325C80.0573 15.7402 79.9576 15.8754 79.892 16.0276C79.892 16.0689 79.871 16.0899 79.871 16.1312C79.414 16.5052 78.9982 16.9003 78.5623 17.3165C78.001 17.8573 77.4405 18.3981 76.8791 18.917C76.3178 19.436 75.7784 19.9776 75.2802 20.5176C74.7188 21.1208 74.1794 21.7442 73.6391 22.3709C73.0988 22.9977 72.6208 23.6606 72.0813 24.2629C71.7587 24.5889 71.4056 24.8831 71.0268 25.1416C70.4907 25.4741 69.9194 25.7462 69.3235 25.9528C69.1541 26.0137 68.9805 26.0624 68.8042 26.0985C68.6199 26.1398 68.4317 26.1607 68.2429 26.1609C68.041 26.1662 67.839 26.1507 67.6403 26.1145C67.5234 26.0915 67.4111 26.0494 67.3079 25.9899C67.2308 25.9535 67.1605 25.9042 67.1 25.8441C67.079 25.8029 67.0377 25.7818 67.0159 25.7405C67.011 25.7089 66.9966 25.6795 66.9746 25.6563C66.9536 25.5527 66.9334 25.4271 66.9123 25.3235C66.9275 24.9031 66.9839 24.4853 67.0807 24.0759C67.2675 23.3481 67.4754 22.6615 67.7245 21.9548C67.828 21.622 67.9534 21.2682 68.0779 20.9354C68.2025 20.5816 68.3691 20.2287 68.4937 19.8749C68.6393 19.5008 68.7638 19.126 68.8884 18.7519C69.0174 18.3881 69.108 18.0117 69.1585 17.629C69.2607 17.175 69.2597 16.7039 69.1553 16.2504C69.051 15.7969 68.8462 15.3727 68.5559 15.0091C68.207 14.6869 67.7614 14.4894 67.2885 14.4472C66.9903 14.4299 66.691 14.4437 66.3956 14.4885C66.0432 14.5328 65.6955 14.6095 65.3571 14.7177C64.9698 14.8316 64.5937 14.9807 64.2336 15.1633C63.5848 15.5066 62.9656 15.903 62.3821 16.3485C62.569 16.1615 62.7356 15.9745 62.9224 15.7867C63.982 14.6427 65.0626 13.4995 66.0598 12.2932C67.0359 11.1291 67.9312 9.89935 68.7394 8.61275C69.1628 7.93101 69.5383 7.22055 69.8629 6.48652C70.0085 6.15377 70.1331 5.79996 70.2576 5.44699C70.3822 5.11424 70.4865 4.78149 70.59 4.42768C70.6936 4.03259 70.7979 3.6375 70.8812 3.22136C71.0774 2.58074 71.0987 1.8992 70.9427 1.2476C70.8486 1.00068 70.7012 0.777583 70.5111 0.594248C70.321 0.410913 70.0927 0.271859 69.8427 0.187014C69.6223 0.110819 69.3898 0.0759778 69.1568 0.0842405C68.883 0.077634 68.6098 0.112569 68.3464 0.187856C67.3442 0.536243 66.4496 1.13914 65.7501 1.93753C65.1942 2.5205 64.6935 3.1539 64.2546 3.82957C63.8476 4.45177 63.48 5.09888 63.1539 5.7671C62.7802 6.47388 62.4478 7.19919 62.1153 7.90934C61.804 8.57484 61.4917 9.24034 61.2014 9.90584C60.5576 11.3202 59.9129 12.7136 59.2658 14.1271C58.6507 15.4519 58.1167 16.813 57.6668 18.2027C57.4799 18.8058 57.2721 19.4292 57.0852 20.0324C56.6072 20.5943 56.1292 21.1553 55.631 21.6961C55.1328 22.237 54.6127 22.7778 54.1162 23.2967C53.6196 23.8156 53.0979 24.316 52.6013 24.8358C52.1048 25.3555 51.583 25.8753 51.0638 26.3951L50.2533 27.144C50.0043 27.3629 49.7406 27.5645 49.4639 27.7471C49.2184 27.8925 48.9614 28.0176 48.6956 28.1212C48.5127 28.1757 48.3245 28.2105 48.1342 28.2248C48.0093 28.2281 47.8843 28.2211 47.7606 28.2037C47.6534 28.1712 47.5492 28.1295 47.4492 28.079C47.2885 27.98 47.1358 27.8688 46.9922 27.7463C46.8841 27.6379 46.7865 27.5195 46.701 27.3925C46.6401 27.2874 46.5913 27.1758 46.5554 27.0597C46.5144 26.9248 46.4934 26.7846 46.4931 26.6436C46.4935 26.2864 46.5353 25.9305 46.6177 25.583C46.8813 24.7211 47.2204 23.8841 47.631 23.0819L47.8178 22.8949C48.3993 22.2917 48.9186 21.6683 49.4589 21.0416C49.9369 20.4797 50.4149 19.9187 50.8508 19.3155C51.1002 18.9473 51.3181 18.5587 51.5022 18.1538C51.5864 17.9668 51.6478 17.7798 51.7101 17.5919C51.7942 17.3628 51.8346 17.1135 51.8969 16.8852C51.9488 16.5406 51.9488 16.1902 51.8969 15.8456C51.8542 15.5575 51.7692 15.2773 51.6444 15.0142C51.5247 14.7477 51.3633 14.502 51.1664 14.2863C50.7721 13.8473 50.2712 13.5177 49.7122 13.3294C49.2765 13.1613 48.8256 13.036 48.3657 12.9553C48.0087 12.885 47.6479 12.8363 47.2851 12.8096C46.9396 12.7784 46.592 12.7784 46.2466 12.8096C45.843 12.7962 45.4392 12.8244 45.0414 12.8938C44.6773 12.9411 44.3165 13.0106 43.9608 13.1019C43.5661 13.2055 43.1714 13.3546 42.7978 13.4759C42.0943 13.7635 41.431 14.1409 40.8243 14.5989C40.1459 15.1053 39.4942 15.6465 38.8718 16.2205C38.6937 16.3734 38.582 16.5897 38.5604 16.8237C38.258 16.9367 37.966 17.0759 37.6877 17.2398C36.9628 17.7094 36.2998 18.2684 35.7142 18.9036C35.4617 19.195 35.216 19.4857 34.9871 19.7974C34.8003 20.0265 34.6134 20.2548 34.4258 20.5041C34.1924 20.8028 33.9774 21.1153 33.782 21.44C33.5741 21.8108 33.3867 22.1927 33.2206 22.584C33.1996 22.6464 33.1794 22.6876 33.1584 22.7525C32.847 23.2723 32.5347 23.792 32.2234 24.2916C31.8699 24.8535 31.4962 25.3934 31.1226 25.9343C30.7489 26.4751 30.3542 26.9949 29.9595 27.5146C29.6061 27.972 29.2534 28.4505 28.8587 28.8869C28.5446 29.219 28.2041 29.5249 27.8404 29.8018C27.6324 29.925 27.4175 30.0361 27.1966 30.1345C27.1125 30.1556 27.0283 30.1758 26.9265 30.1968H26.7767C26.7354 30.1968 26.6925 30.1556 26.6521 30.1556C26.6109 30.1143 26.5486 30.0932 26.5065 30.0519C26.426 29.9711 26.3561 29.8802 26.2987 29.7815C26.065 29.404 25.8634 29.0075 25.6961 28.5963C25.5093 28.1599 25.3637 27.7227 25.2181 27.2863C25.0412 26.7405 24.8956 26.185 24.7821 25.6226C24.6822 25.0864 24.6128 24.545 24.5743 24.001C24.5711 22.9369 24.6405 21.8738 24.7821 20.8192C24.9067 19.7586 25.0523 18.698 25.2803 17.6374C25.2856 17.6734 25.2782 17.71 25.2593 17.741C25.2633 17.6902 25.2773 17.6407 25.3005 17.5953V17.6366C25.3847 17.3038 25.4461 16.9711 25.553 16.6594C25.6565 16.3056 25.7819 15.9316 25.8644 15.5778C26.0723 14.8289 26.2801 14.0614 26.5082 13.3108C26.6538 12.7911 26.8196 12.2915 26.9652 11.7718C27.2177 11.3556 27.4432 10.9193 27.6511 10.5031C28.0045 9.79633 28.3159 9.07102 28.6071 8.31959C28.836 7.73749 29.0641 7.13433 29.2719 6.55054C29.3965 6.21779 29.5009 5.86398 29.6044 5.53123C29.6885 5.23976 29.7727 4.92807 29.8333 4.63744C30.0016 3.993 30.1447 3.3275 30.3315 2.68306C30.435 2.35031 30.5183 2.01756 30.6227 1.68481C30.6639 1.53907 30.7068 1.39334 30.7472 1.22738C30.8085 1.03812 30.8502 0.843063 30.8718 0.645282C30.8835 0.488047 30.8333 0.332464 30.7318 0.211854C30.6304 0.0912441 30.4858 0.0151971 30.329 0L30.2877 0C30.1681 0.00161272 30.0515 0.0377673 29.9519 0.104118C29.8524 0.17047 29.774 0.264194 29.7264 0.374028C29.568 0.700373 29.4428 1.04187 29.3527 1.39334L29.2905 1.58035C29.1659 1.87182 29.038 2.18351 28.9168 2.4952C28.6467 3.20198 28.3765 3.9096 28.1274 4.61638C27.5871 6.09311 27.1091 7.59007 26.6732 9.10808C26.6521 9.19232 26.6109 9.29509 26.589 9.37849C26.4434 9.71124 26.2978 10.0229 26.132 10.3355C25.9242 10.7516 25.7163 11.1467 25.5084 11.5418V11.5005C25.4874 11.5628 25.4461 11.6041 25.4243 11.669L25.4865 11.5443C25.2787 11.9183 25.0708 12.3134 24.8629 12.7085C24.6403 12.4955 24.3797 12.3263 24.0946 12.2098C23.9737 12.1523 23.8488 12.1036 23.7209 12.0641C23.5298 12.0105 23.3356 11.9689 23.1394 11.9394C23.0148 11.9394 22.8692 11.9183 22.7447 11.9183C22.592 11.9154 22.4394 11.9225 22.2877 11.9394C22.0913 11.9456 21.8962 11.9738 21.7062 12.0236C21.3253 12.1221 20.9562 12.2617 20.6054 12.4398C20.4371 12.524 20.294 12.6083 20.1274 12.6925C19.9195 12.7961 19.7327 12.9452 19.5458 13.0463C19.2345 13.2544 18.9433 13.4625 18.6319 13.6908C18.1126 14.0446 17.5934 14.4397 17.0943 14.8347C16.5953 15.2298 16.1383 15.6873 15.6636 16.1236C15.1827 16.5927 14.7329 17.0927 14.3171 17.6206C14.2206 17.7334 14.1304 17.8515 14.047 17.9744C14.1092 17.8287 14.1715 17.704 14.2338 17.5582C14.4627 17.0385 14.6908 16.5389 14.9197 16.0192C15.0232 15.7664 15.1486 15.5205 15.2521 15.2703C15.3144 15.1245 15.3556 14.9999 15.4204 14.8541C15.4415 14.7918 15.4827 14.7084 15.5046 14.646C15.5423 14.553 15.5599 14.4531 15.5563 14.3527C15.5526 14.2524 15.5279 14.154 15.4835 14.0639C15.4468 13.986 15.3951 13.9161 15.3313 13.8582C15.2675 13.8003 15.1929 13.7556 15.1119 13.7267C15.0308 13.6977 14.9448 13.6851 14.8588 13.6895C14.7728 13.6938 14.6885 13.7152 14.6108 13.7523C14.3552 13.8972 14.1407 14.1047 13.9872 14.3554C13.8837 14.5239 13.7583 14.6882 13.6548 14.8541C13.4469 15.1456 13.2391 15.4362 13.0522 15.7277C12.6163 16.3309 12.1795 16.913 11.7225 17.4967C11.2243 18.0999 10.7253 18.7233 10.227 19.3265C9.74903 19.9296 9.29205 20.5328 8.81404 21.1359C7.858 22.3625 6.87841 23.5688 5.90554 24.7583C5.42753 25.3202 4.97055 25.9023 4.49254 26.4633C4.01452 27.0454 3.51631 27.6275 3.03829 28.2105L2.47696 28.8347L2.51819 28.7934L2.45592 28.8557L1.49989 29.875C1.05722 30.2988 0.600239 30.7351 0.165985 31.169C0.0723654 31.2508 0.0137034 31.3654 0.00211395 31.4893C-0.00947546 31.6131 0.026893 31.7367 0.103708 31.8345C0.185652 31.9278 0.300152 31.9863 0.423757 31.9979C0.547362 32.0095 0.670717 31.9733 0.768555 31.8968C1.91142 30.8152 3.03324 29.672 4.07175 28.4868C4.56996 27.9249 5.06902 27.3428 5.56723 26.7817C6.08648 26.1786 6.60574 25.5754 7.14603 24.9722C8.1433 23.8283 9.11953 22.6641 10.0545 21.4788C10.5115 20.8967 10.9895 20.3146 11.4675 19.7527C11.8622 19.2953 12.2359 18.8379 12.6306 18.3804C12.3394 19.067 12.0693 19.7527 11.8 20.4603C11.6754 20.7931 11.5475 21.1258 11.4465 21.4586C11.343 21.8124 11.2176 22.1654 11.1141 22.5192C11.0106 22.873 10.9062 23.247 10.7816 23.6008C10.6781 23.9546 10.5527 24.3286 10.4492 24.6825C10.2481 25.4426 10.0885 26.2131 9.9712 26.9907C9.90893 27.3647 9.86769 27.7395 9.80289 28.1136C9.74077 28.5193 9.7199 28.9302 9.74061 29.3401C9.73969 29.5813 9.78187 29.8206 9.86517 30.0469C9.93917 30.2749 10.0439 30.4917 10.1766 30.6913C10.3163 30.8762 10.4844 31.0377 10.6748 31.1698C10.9027 31.333 11.166 31.4398 11.4431 31.4815C11.8835 31.5857 12.3441 31.5641 12.7728 31.4192C13.0057 31.3599 13.2294 31.2689 13.4377 31.1488C14.0768 30.7612 14.6634 30.2929 15.1831 29.7554C15.7023 29.2357 16.2216 28.6948 16.6979 28.1338C17.1743 27.5728 17.654 27.0319 18.1522 26.47C18.6504 25.9082 19.1284 25.3471 19.5829 24.744C20.0373 24.1408 20.4758 23.5174 20.8915 22.8721C21.3073 22.2479 21.7222 21.6245 22.1169 21.0003C22.5326 20.3348 22.9273 19.6904 23.2799 19.0038C23.6334 18.3383 23.9658 17.656 24.2982 16.966C24.3182 16.9132 24.3466 16.864 24.3824 16.8203C24.2789 17.2154 24.1745 17.6315 24.0912 18.0266C23.7798 19.5429 23.6132 21.1039 23.4474 22.643C23.2912 24.2289 23.4392 25.8301 23.8833 27.3605C24.091 28.1573 24.362 28.9362 24.6938 29.6897C24.8544 30.0672 25.049 30.4293 25.2753 30.7714C25.4651 31.0687 25.7212 31.3178 26.0235 31.4992C26.4288 31.7389 26.9083 31.8205 27.37 31.7283C27.673 31.6722 27.9667 31.5741 28.2427 31.4369C28.4506 31.3313 28.6518 31.2132 28.8453 31.083C29.1524 30.8612 29.4376 30.6104 29.6969 30.3342C29.9881 30.0225 30.2583 29.7099 30.5276 29.3982C30.7565 29.1068 30.9846 28.8161 31.2135 28.5045C31.795 27.7556 32.3353 26.9654 32.8545 26.155C32.8545 26.2173 32.8958 26.2586 32.9168 26.3235C33.0199 26.5656 33.1602 26.7902 33.3326 26.989C33.5129 27.2066 33.731 27.3898 33.9764 27.5298C34.2808 27.7047 34.6009 27.8508 34.9324 27.9662C35.0877 28.0271 35.2475 28.0758 35.4104 28.1119C35.8469 28.2158 36.2831 28.3 36.7191 28.3646C37.0836 28.4164 37.4518 28.4373 37.8199 28.4269C38.6462 28.4168 39.4687 28.3122 40.2714 28.1153C40.6871 28.0116 41.102 27.8448 41.5177 27.6991C41.8578 27.5639 42.1907 27.4113 42.515 27.2417C43.2114 26.8706 43.8782 26.4464 44.5095 25.973C44.8832 25.7026 45.2577 25.3909 45.6103 25.0792C45.4923 25.451 45.4155 25.8346 45.3814 26.2232C45.3503 26.5065 45.3503 26.7924 45.3814 27.0757C45.4144 27.3116 45.4772 27.5423 45.5683 27.7623C45.6589 28.006 45.7926 28.2314 45.963 28.4278C46.167 28.6807 46.4046 28.9046 46.669 29.0933C47.0716 29.3766 47.5482 29.5356 48.04 29.5507C48.808 29.5552 49.56 29.3308 50.2003 28.9063C50.574 28.6536 50.9274 28.4076 51.2598 28.1372C51.53 27.908 51.7791 27.6797 52.0282 27.4304C52.5685 26.9106 53.1088 26.3698 53.6272 25.85C54.1885 25.2882 54.749 24.7684 55.2893 24.2073C55.5418 23.9546 55.7673 23.7086 56.0164 23.4795C55.764 24.1863 55.5182 24.8939 55.2893 25.5796C55.121 26.0783 54.9359 26.5779 54.7911 27.0766C54.7069 27.368 54.6228 27.6385 54.5386 27.9291C54.5203 28.0354 54.4922 28.1397 54.4545 28.2408C54.3966 28.3901 54.3479 28.5429 54.3089 28.6982C54.271 28.7832 54.2636 28.8787 54.2878 28.9686C54.3105 29.1027 54.3852 29.2223 54.4957 29.3014C54.5623 29.3443 54.6376 29.3719 54.7161 29.3823C54.7947 29.3927 54.8745 29.3856 54.95 29.3614C55.0254 29.3372 55.0946 29.2967 55.1525 29.2426C55.2105 29.1885 55.2558 29.1223 55.2851 29.0486C55.3319 28.942 55.3667 28.8303 55.3886 28.7159C55.4661 28.5162 55.5563 28.3218 55.6588 28.1338C55.8044 27.8423 55.95 27.5719 56.0947 27.2813C56.4482 26.6368 56.8218 25.9713 57.1543 25.3058C57.4867 24.6403 57.7981 23.958 58.1305 23.2891C58.4629 22.6649 58.8366 22.0415 59.2111 21.4358C59.6234 20.7827 60.0965 20.1701 60.6241 19.6061C61.1417 19.0375 61.7025 18.5097 62.3013 18.0275C62.8829 17.57 63.4854 17.1539 64.088 16.7377H64.109C64.3615 16.592 64.6073 16.4463 64.8774 16.3014C65.0938 16.1988 65.3157 16.1085 65.5423 16.031C66.0697 15.8615 66.6122 15.743 67.1623 15.6772C67.3012 15.6738 67.4402 15.6808 67.578 15.6982C67.6431 15.7095 67.7061 15.7305 67.7649 15.7606C67.8271 15.8018 67.8684 15.8229 67.9332 15.8642C67.9744 15.9054 68.0173 15.9678 68.0577 16.0099C68.1081 16.11 68.1498 16.2143 68.1823 16.3216C68.2204 16.4931 68.2485 16.6666 68.2664 16.8414C68.2639 17.1697 68.2293 17.497 68.1629 17.8185C67.9643 18.533 67.7215 19.2344 67.4358 19.9187C67.3113 20.2725 67.1446 20.6052 67.0201 20.9582C66.8955 21.3112 66.7912 21.6447 66.6666 21.9977C66.4149 22.7317 66.2136 23.4821 66.064 24.2436C66.0228 24.4516 66.0018 24.6597 65.9605 24.888C65.8907 25.3821 65.9857 25.8855 66.2307 26.3201C66.5048 26.7163 66.9093 27.0035 67.3735 27.1313C68.2073 27.334 69.0825 27.2833 69.8873 26.9856C70.2408 26.8609 70.5934 26.7152 70.9469 26.5694C71.3184 26.3816 71.6791 26.1732 72.0275 25.9452C72.4321 25.6725 72.8018 25.3511 73.1282 24.9883C73.6685 24.3851 74.1465 23.7407 74.6431 23.1164C74.872 22.825 75.1001 22.5545 75.3492 22.285C75.4527 22.1603 75.5781 22.0146 75.6816 21.8899C75.472 22.4161 75.3054 22.9584 75.1834 23.5115C75.1388 23.6968 75.1043 23.8844 75.0799 24.0734C75.035 24.4459 75.0212 24.8215 75.0386 25.1963C75.0799 25.6389 75.2141 26.0678 75.4325 26.4548C75.651 26.8419 75.9486 27.1783 76.306 27.4422C76.7064 27.739 77.1385 27.9902 77.5945 28.1911C78.0641 28.3735 78.5515 28.5059 79.0487 28.5862C79.607 28.6729 80.1759 28.6658 80.7319 28.5651C81.0231 28.5028 81.2924 28.4194 81.5836 28.336C81.7914 28.2736 81.9993 28.2113 82.2072 28.1279C82.9337 27.8474 83.6356 27.5064 84.3052 27.1086C84.9701 26.7346 85.5928 26.3395 86.2409 25.9233C86.9267 25.487 87.6118 25.0085 88.2766 24.53C88.8582 24.1138 89.4397 23.6985 90.001 23.2403C90.6118 22.7539 91.1753 22.2109 91.6842 21.6186C91.937 21.3401 92.1665 21.0412 92.3701 20.7248C92.5917 20.3575 92.7729 19.9671 92.9104 19.5606L93.0349 19.1243C93.8146 19.3393 94.6051 19.5128 95.4031 19.644C96.3381 19.7795 97.2917 19.6929 98.187 19.3913C98.6651 19.2228 99.1633 19.0586 99.6413 18.8926C99.4257 19.2376 99.238 19.5993 99.08 19.9743C98.7259 20.8051 98.4545 21.6688 98.2695 22.5529C98.1598 23.0235 98.0903 23.5026 98.0617 23.9849C98.0624 24.585 98.1826 25.179 98.4151 25.7321C98.6979 26.2835 99.1791 26.7071 99.7616 26.9174C100.174 27.0778 100.608 27.176 101.049 27.2088C101.52 27.2471 101.994 27.2332 102.462 27.1676C102.771 27.1252 103.076 27.0628 103.376 26.9805C103.719 26.8869 104.053 26.7617 104.373 26.6065C104.799 26.4265 105.215 26.2252 105.62 26.0034C105.994 25.7953 106.388 25.6083 106.763 25.3791C107.553 24.9361 108.31 24.4358 109.027 23.8822C110.497 22.778 111.848 21.5236 113.058 20.1394C113.515 19.5985 113.972 19.0375 114.404 18.4756C114.342 18.7048 114.301 18.912 114.259 19.1411C114.016 20.0994 113.897 21.0849 113.905 22.0735C113.896 22.4291 113.96 22.7828 114.092 23.1131C114.196 23.3844 114.344 23.6373 114.528 23.862C114.767 24.0923 115.051 24.2703 115.362 24.3849C115.673 24.4995 116.005 24.548 116.336 24.5275C116.886 24.503 117.431 24.405 117.956 24.236C118.867 23.9635 119.74 23.5757 120.554 23.0819C120.999 22.8148 121.429 22.5232 121.841 22.2083C122.174 21.9379 122.527 21.6675 122.86 21.3971C123.545 20.7939 124.21 20.17 124.854 19.5253L125.041 19.3382V19.3593C124.116 20.9364 123.317 22.5842 122.652 24.2874C122.61 24.412 122.568 24.5165 122.527 24.6412C122.486 24.7617 122.465 24.888 122.465 25.0152C122.453 25.1971 122.514 25.3763 122.633 25.5139C122.707 25.6047 122.804 25.674 122.914 25.7143C123.023 25.7546 123.142 25.7646 123.257 25.743C123.652 25.6807 123.901 25.3067 124.13 24.9942C124.298 24.7861 124.462 24.578 124.628 24.3497C124.96 23.9133 125.334 23.4972 125.687 23.081C125.646 23.1223 125.625 23.1653 125.584 23.1847C125.624 23.1484 125.659 23.1064 125.687 23.06C126.249 22.4358 126.809 21.8124 127.412 21.2303C128.077 20.5437 128.758 19.858 129.447 19.2136C130.091 18.5893 130.756 17.987 131.462 17.4041C132.189 16.8009 132.916 16.2399 133.665 15.678C134.163 15.304 134.683 14.9502 135.222 14.5963C135.16 14.6376 135.119 14.6587 135.054 14.7C135.116 14.6587 135.158 14.6376 135.222 14.5963C135.763 14.2307 136.341 13.924 136.947 13.6815V13.7851C136.954 13.8841 136.94 13.9834 136.906 14.0766C136.753 14.6733 136.537 15.2519 136.262 15.8027C135.846 16.5516 135.431 17.2794 134.973 18.0072C134.495 18.7561 134.059 19.5236 133.581 20.2742C133.329 20.6692 133.103 21.0643 132.875 21.4594C132.622 21.8654 132.413 22.2975 132.252 22.7483C132.141 23.0347 132.133 23.3508 132.231 23.6421C132.289 23.7717 132.382 23.8829 132.499 23.9635C132.617 24.0441 132.753 24.0912 132.895 24.0995C133.124 24.0827 133.347 24.0164 133.548 23.9051C133.748 23.7939 133.923 23.6403 134.058 23.4551C134.391 23.1223 134.702 22.7483 135.014 22.3945C135.368 21.9581 135.7 21.5209 136.033 21.0845C136.365 20.6684 136.698 20.2531 137.051 19.8369C137.259 19.6078 137.487 19.4006 137.695 19.1925C137.986 18.9221 138.297 18.6727 138.609 18.4023L139.419 17.7781C139.648 17.6096 139.876 17.4664 140.105 17.2996C140.121 17.298 140.136 17.2905 140.146 17.2786C140.146 17.2786 140.188 17.2575 140.188 17.2373C140.229 17.2162 140.25 17.196 140.291 17.1749C140.291 17.1749 140.25 17.1749 140.25 17.196C140.479 17.0503 140.707 16.9045 140.956 16.7386C140.934 16.7497 140.913 16.7635 140.894 16.7799C140.91 16.7782 140.924 16.7707 140.935 16.7588C140.956 16.7588 140.976 16.7377 140.997 16.7175C141.932 16.1354 142.887 15.5735 143.843 15.0327C144.3 14.78 144.757 14.5542 145.214 14.3259C145.624 14.1157 146.047 13.935 146.482 13.7851C146.4 14.0902 146.296 14.389 146.17 14.6789C146.108 14.8246 146.025 14.9704 145.963 15.0951C145.485 15.9686 144.986 16.8001 144.532 17.6737C144.241 18.2601 144.031 18.8836 143.908 19.5269C143.867 19.8513 143.867 20.1797 143.908 20.5041C143.954 20.8365 144.053 21.1595 144.199 21.4611C144.35 21.7943 144.587 22.0814 144.885 22.2926C144.988 22.3806 145.099 22.4575 145.218 22.5217C145.436 22.6509 145.675 22.7423 145.924 22.7921C146.577 22.9 147.246 22.8501 147.876 22.6464C148.361 22.5134 148.834 22.3396 149.289 22.1266C149.767 21.9185 150.245 21.6902 150.702 21.44C151.094 21.2525 151.476 21.0442 151.845 20.8158C152.074 20.6701 152.323 20.5243 152.531 20.3795C152.784 20.1924 153.05 20.0054 153.299 19.8386C153.653 19.5859 153.985 19.2767 154.338 19.0072C154.712 18.6955 155.065 18.3627 155.419 18.03C156.104 17.4058 156.748 16.7403 157.413 16.0756C157.746 15.7429 158.057 15.4101 158.369 15.0563C158.598 14.8036 158.805 14.5576 159.034 14.3285C159.137 14.2038 159.263 14.0993 159.366 13.9747C159.969 13.1845 160.592 12.4154 161.174 11.6252C162.109 10.3565 162.961 9.06765 163.812 7.75686C163.97 7.52602 164.032 7.24293 163.985 6.96738C163.937 6.69183 163.785 6.44539 163.56 6.28013" fill="#003961"/>
</svg>
