<svg width="328" height="40" viewBox="0 0 328 40" fill="none" xmlns="http://www.w3.org/2000/svg">
<g clip-path="url(#clip0_4_1060)">
<path d="M20 0C31.0403 6.96994e-07 40 8.97704 40 20C40 31.023 31.0403 40 20 40C8.95966 40 0 31.023 0 20C9.23442e-07 8.97704 8.95966 0 20 0ZM37.3672 20.501C37.07 20.4593 36.8573 20.5847 36.6875 20.877C36.3903 21.2944 36.0084 21.6707 35.4141 21.9629C34.9897 22.2133 34.6922 22.3798 34.4375 22.6719C34.2252 22.9224 33.8855 23.0478 33.4609 23.0479C32.7816 23.0479 32.2293 23.2149 31.8047 23.5488C31.5924 23.7158 31.3803 23.925 31.2529 24.1338C30.9557 24.6348 30.5306 25.0105 30.0635 25.3027C29.8089 25.4279 29.5969 25.5951 29.3848 25.8037H29.2998C29.045 26.0125 28.747 25.9705 28.4922 25.7617L28.3652 25.6367C28.1529 25.4279 27.9403 25.1778 27.6855 25.0107C27.3034 24.6767 27.0067 24.4256 26.752 24.0498C26.5821 23.7576 26.3269 23.5493 25.9873 23.4658C25.4778 23.2988 25.2226 23.0064 25.1377 22.5889C24.9255 22.5054 24.7557 22.5049 24.5859 22.5049C24.0339 22.5049 23.6097 22.2542 23.3125 21.7949C23.2277 21.7116 23.185 21.6702 23.1426 21.5869C22.9303 21.2529 22.6326 21.0857 22.208 21.0439C21.8684 21.0022 21.5711 21.0024 21.2314 20.9189H20.5518C20.5095 21.1693 20.5945 21.4197 20.8066 21.5449C21.3587 21.879 21.8263 22.422 22.166 23.1318C22.2934 23.4656 22.4626 23.6749 22.6748 23.8418C22.9719 24.0922 23.0995 24.4257 23.0996 24.8848C23.0996 25.511 23.2697 26.0542 23.6094 26.4717C23.7792 26.7222 24.0343 26.9306 24.2891 27.0977C24.7561 27.3899 25.0528 27.7248 25.3076 28.1006C25.4775 28.3928 25.6905 28.6433 25.8604 28.9355C26.1147 29.2276 26.0725 29.5201 25.8604 29.7705L25.7324 29.8955C25.5201 30.1043 25.308 30.355 25.0957 30.6055C24.756 31.023 24.4588 31.3156 24.1191 31.5244C23.8645 31.6914 23.6943 31.9413 23.6094 32.2334C23.5245 32.4839 23.3546 33.0267 22.8027 33.1104C22.6754 33.1521 22.6748 33.1524 22.6748 33.3193V33.5703C22.7171 34.2382 22.4205 34.7813 21.8262 35.1152C21.2742 35.4075 21.1885 35.9497 21.1885 36.5342C21.1513 37.1554 21.1149 37.7769 20.9639 38.3701L20.8066 38.7061C30.5306 38.2468 38.2594 30.3963 38.5566 20.626C38.1745 20.5842 37.7494 20.501 37.3672 20.501ZM19.1504 20.543C18.9383 20.5847 18.7689 20.6684 18.6416 20.877C18.3444 21.3362 17.9617 21.7116 17.3672 22.0039C16.9851 22.1709 16.6454 22.338 16.3906 22.6719C16.1783 22.9642 15.8382 23.0898 15.3711 23.0898C14.7343 23.0899 14.1823 23.2569 13.7578 23.5908C13.5031 23.7996 13.3334 23.967 13.2061 24.1758C12.9088 24.6767 12.5261 25.0525 12.0166 25.3447C11.8468 25.4699 11.6346 25.5955 11.4648 25.7207L11.2949 25.8457C11.0402 26.0543 10.743 26.0124 10.4883 25.8037C10.3185 25.6785 10.1909 25.553 10.0635 25.4277C9.89382 25.3026 9.76635 25.1776 9.59668 25.0107L9.42676 24.8848C9.17216 24.6761 8.91728 24.4261 8.70508 24.1758C8.49281 23.8836 8.23802 23.6741 7.89844 23.5488C7.43135 23.4236 7.13375 23.0894 7.04883 22.6719H7.00684C6.83707 22.6301 6.66684 22.6309 6.49707 22.6309C6.03009 22.6309 5.64779 22.4218 5.35059 22.0879C5.30816 22.0462 5.22281 22.0043 5.22266 21.9209C4.99978 21.4461 4.61466 21.1951 3.95312 21.1396L3.69434 21.0439C2.8451 21.0022 2.08076 20.8767 1.40137 20.668C1.826 30.5218 9.68182 38.2878 19.5332 38.5801C19.5757 38.1628 19.6601 37.7454 19.6602 37.3281C19.7026 37.0359 19.5754 36.7852 19.2783 36.6182C18.8112 36.3259 18.4711 35.9498 18.1738 35.3652C18.0041 34.9896 17.8346 34.6138 17.4951 34.3633C17.1555 34.1128 17.1123 33.6953 17.1123 33.3613C17.1123 32.6934 16.9426 32.1506 16.5605 31.6914C16.3908 31.4828 16.2209 31.3157 16.0088 31.1904C15.5417 30.8982 15.2015 30.5218 14.9043 30.0625C14.7769 29.8121 14.6493 29.6033 14.4795 29.3945L14.3945 29.2695C14.1823 28.9357 14.2251 28.6017 14.4795 28.4346C14.6918 28.3093 14.8195 28.1003 14.9893 27.8916C15.0742 27.7664 15.1592 27.6828 15.2441 27.5576C15.5414 27.2236 15.7965 26.9314 16.0938 26.7227C16.3909 26.5139 16.5606 26.2632 16.6455 26.0127C16.7304 25.7622 16.9006 25.2612 17.4102 25.1777C17.5373 25.1361 17.5801 25.1351 17.5801 24.8848V24.5508C17.5802 24.0082 17.8343 23.5905 18.2588 23.2148H18.3438C18.3862 23.1731 18.4712 23.09 18.5137 23.0898C18.8109 22.9228 18.981 22.6302 19.0234 22.1709C19.0659 21.8787 19.0655 21.5448 19.1504 21.2109V20.543ZM20.085 22.3799C20 23.1731 19.6604 23.716 19.1084 24.0918C19.066 24.1335 18.981 24.1753 18.9385 24.2588H18.8955C18.7682 24.384 18.6836 24.5098 18.6836 24.6768C18.6835 24.8855 18.6416 25.1361 18.6416 25.3447C18.5991 25.5537 18.5132 26.1795 17.834 26.3047C17.7495 26.3048 17.7072 26.3466 17.707 26.4297C17.5372 26.9725 17.1971 27.4326 16.6875 27.7666C16.4754 27.9335 16.2634 28.142 16.0938 28.3506C15.9664 28.5176 15.7963 28.7268 15.6689 28.9355L15.584 29.0605C15.6265 29.1858 15.7114 29.2693 15.7539 29.3945C15.9662 29.812 16.2205 30.1047 16.6025 30.3135C17.0272 30.564 17.4098 30.9396 17.707 31.4824C18.0891 32.1504 18.1743 32.8601 18.2168 33.4863L18.1738 33.5283C18.556 33.8623 18.8107 34.3217 19.0654 34.7393C19.2777 35.0733 19.4483 35.3232 19.6182 35.4902C19.7455 35.6154 19.8723 35.741 20.042 35.8662C20.1269 35.073 20.4671 34.4881 21.0615 34.1123C21.1464 34.0706 21.189 34.0288 21.2314 33.9453H21.3164C21.4013 33.8618 21.4863 33.7365 21.4863 33.6113V33.0273C21.5288 32.4428 21.8688 32.0249 22.3359 31.9414C22.4627 31.9414 22.4629 31.9414 22.4629 31.8584C22.6327 31.2739 22.9725 30.8562 23.5244 30.4805C23.7367 30.3552 23.9493 30.1043 24.1191 29.8955C24.2889 29.7285 24.4166 29.5195 24.5439 29.3525L24.6289 29.2275C24.544 29.144 24.5014 29.0601 24.459 28.9766C24.2042 28.5591 23.9065 28.2671 23.5244 28.0166C23.0149 27.7243 22.6332 27.3067 22.3359 26.6387C22.0812 26.0542 21.9956 25.4282 21.9531 24.8438V24.7598C21.5287 24.3841 21.2742 23.9249 21.0195 23.4658C20.8922 23.2153 20.7216 22.9649 20.5518 22.7979C20.4244 22.6308 20.2548 22.5051 20.085 22.3799ZM72.6055 7.39062C77.0779 7.39062 80.7567 11.0647 80.7568 15.5322C80.7568 19.9999 77.1198 23.6748 72.6055 23.6748H69.0527L84.1006 32.5684H79.5029L62.9912 22.7979V32.5684H60.6094V21.4199L60.4424 21.3359H60.6094V7.39062H72.6055ZM96.0137 7.34863V32.5684H93.6309V7.34863H96.0137ZM125.899 7.30664V9.68652H109.389V18.7891H120.8V21.127H109.389V30.1875H125.899V32.5684H107.007V7.30664H125.899ZM146.34 7.34863C153.655 7.3487 159.59 12.9853 159.59 19.958C159.59 26.9308 153.655 32.5683 146.34 32.5684H136.893V7.34863H146.34ZM189.519 7.30664V9.68652H172.966V18.7891H184.377V21.127H172.966V30.1875H189.519V32.5684H170.625V7.30664H189.519ZM212.467 7.39062C216.981 7.39086 220.659 11.0648 220.659 15.5322C220.659 19.9997 216.981 23.6746 212.467 23.6748H208.913L223.961 32.5684H219.363L219.238 32.4844L202.853 22.7979V32.5684H200.47V21.4199L200.303 21.3359H200.47V7.39062H212.467ZM247.912 7.34863L260.577 32.5684H257.944L254.768 26.2217H239.009L235.79 32.5684H233.157L245.822 7.34863H247.912ZM273.661 7.34863V30.1875H291.467V32.5684H271.278V7.34863H273.661ZM305.052 7.34863L315.335 26.9727L325.617 7.34863H328V32.5684H325.701V12.3594L316.422 30.0205H314.331L304.885 12.0254V32.5684H302.502V7.34863H305.052ZM139.275 9.68652V30.1875H146.34C152.13 30.1874 156.901 25.8775 157.193 20.4834L157.208 19.917C157.208 14.2803 152.359 9.68659 146.34 9.68652H139.275ZM11.125 15.5322C11.0824 15.5326 10.9975 15.6162 10.9551 15.6162C10.4458 15.8667 10.1063 16.2007 9.85156 16.6182C9.63924 17.0357 9.25704 17.3699 8.70508 17.6621C8.06814 18.0379 7.34593 18.1213 6.70898 18.1631H6.62402C6.28445 18.5803 5.81757 18.8307 5.43555 19.0811H5.35059C5.09056 19.1906 4.8629 19.3007 4.69629 19.4941L4.62891 19.749C4.50157 19.8742 4.41636 20.0417 4.28906 20.167C5.18051 20.2923 5.81761 20.7096 6.24219 21.4609C6.28463 21.5861 6.36935 21.6279 6.53906 21.6279H7.13379C7.72827 21.6697 8.15238 21.9626 8.2373 22.4219C8.23736 22.5052 8.28024 22.5887 8.40723 22.5889C8.87421 22.7558 9.25659 23.048 9.63867 23.5488C9.80847 23.7993 10.0637 24.0081 10.3184 24.2168L10.4463 24.3428C10.5735 24.4678 10.7005 24.5517 10.8701 24.6768H10.9551C11.1249 24.5933 11.295 24.4673 11.4648 24.3838C11.7196 24.2585 11.9322 24.0503 12.0596 23.7998C12.4417 23.1317 12.994 22.6302 13.8008 22.3379C14.2677 22.171 14.7352 22.1294 15.2021 22.0459H15.4561C15.7958 21.6284 16.1784 21.378 16.5605 21.2109C17.0274 21.044 17.3245 20.6683 17.6641 20.251C17.7048 20.211 17.7457 20.1702 17.749 20.167C16.9849 20.0417 16.3904 19.7077 16.0508 19.165C16.0083 19.0815 15.9663 19.0393 15.9238 18.9141H15.8809C15.7959 18.789 15.6687 18.7061 15.499 18.7061C15.2868 18.6643 15.0745 18.6641 14.8623 18.6641C14.3104 18.5806 13.9708 18.2882 13.8857 17.8291C13.8433 17.7456 13.8427 17.7031 13.7578 17.7031C13.2908 17.5779 12.8661 17.3696 12.6113 16.9521C12.3141 16.4094 11.8474 16.075 11.3379 15.6992C11.253 15.6575 11.2099 15.574 11.125 15.5322ZM29.3848 15.2822C29.2574 15.3657 29.1293 15.4067 29.002 15.4902C28.6198 15.6572 28.3656 15.9502 28.1533 16.2842C27.8136 16.827 27.3459 17.2439 26.709 17.5361C26.1145 17.8284 25.5198 17.9123 24.8828 17.9541H24.7979C24.4582 18.3298 23.9909 18.5808 23.5664 18.873H23.4824C23.2701 18.9983 23.1 19.0818 22.9727 19.207C22.8029 19.374 22.6327 19.5823 22.4629 19.791C23.2696 19.9163 23.8219 20.2085 24.2041 20.793C24.2466 20.8765 24.2891 20.9604 24.374 21.0439C24.5013 21.1691 24.5861 21.2529 24.7559 21.2529C25.0106 21.2947 25.2233 21.2939 25.4355 21.2939C25.9874 21.3775 26.3272 21.6284 26.4121 22.0459C26.4121 22.2129 26.4542 22.2551 26.624 22.2969C27.0911 22.4639 27.4738 22.7556 27.8135 23.2148C27.9408 23.4235 28.1526 23.6324 28.4072 23.8828C28.5771 24.0498 28.7896 24.1758 29.002 24.3428L29.1299 24.4258C29.2571 24.384 29.3419 24.3005 29.4268 24.2588C29.8089 24.05 30.149 23.7576 30.3613 23.3818C30.6161 22.9227 31.0405 22.5471 31.6348 22.2549C32.2292 21.9209 32.909 21.8367 33.5459 21.7949H33.6309C33.8856 21.482 34.1882 21.263 34.5205 21.0674L35.0322 20.793C35.2445 20.6677 35.4992 20.5009 35.6689 20.334C35.7963 20.167 35.9664 20 36.0938 19.833C35.2021 19.7078 34.5643 19.2905 34.1396 18.5391C34.1396 18.4973 34.0975 18.3721 33.8428 18.3721H33.2061C32.9513 18.3303 32.2719 18.2462 32.1445 17.5781C32.1445 17.4947 32.1018 17.4112 31.9746 17.4111C31.4651 17.2441 31.0399 16.9522 30.7002 16.4512C30.5729 16.2842 30.4036 16.0752 30.1914 15.9082C30.0216 15.7412 29.766 15.5742 29.5537 15.4072L29.3848 15.2822ZM240.221 23.8828H253.597L246.909 10.5215L240.221 23.8828ZM62.9912 9.72852V21.3359H72.6475C75.866 21.3359 78.457 18.7472 78.457 15.5322C78.4569 12.3173 75.8659 9.72857 72.6475 9.72852H62.9912ZM202.853 9.72852V21.3359H212.508C215.726 21.3359 218.318 18.7473 218.318 15.5322C218.318 12.3173 215.726 9.72852 212.508 9.72852H202.853ZM19.2354 1.54492C9.42665 1.92086 1.61374 9.77036 1.31641 19.624C1.61362 19.6658 1.9108 19.749 2.20801 19.749H2.8877C3.14231 19.7073 3.31211 19.6237 3.43945 19.415C3.73661 18.9143 4.20375 18.4973 4.79785 18.2051C5.09509 18.0798 5.43565 17.8704 5.69043 17.5781C5.90273 17.2861 6.24206 17.1612 6.62402 17.1611C7.34561 17.1611 7.8977 16.9939 8.32227 16.6602C8.57704 16.4931 8.74714 16.2837 8.91699 16.0332C9.21423 15.5739 9.59687 15.1988 10.0215 14.9482C10.2338 14.823 10.4459 14.6555 10.6582 14.5303L10.8281 14.4053C10.998 14.28 11.168 14.2793 11.3379 14.2793C11.4652 14.321 11.5928 14.3631 11.6777 14.4883C11.8051 14.697 12.0172 14.8642 12.2295 15.0312C12.3568 15.1147 12.4844 15.1987 12.5693 15.2822C12.9087 15.6159 13.2058 15.8662 13.418 16.1582C13.6726 16.4503 13.8851 16.6176 14.1396 16.7012C14.4793 16.7847 14.9473 16.9937 15.0322 17.5781C15.2019 17.6615 15.3714 17.6621 15.541 17.6621C16.178 17.6621 16.6026 17.9125 16.8574 18.3301C17.1971 18.8728 17.6645 19.123 18.4287 19.123C18.7259 19.123 19.0232 19.207 19.3203 19.207H19.4482C19.4482 18.9983 19.3632 18.8306 19.1934 18.7471C18.6414 18.413 18.2167 17.8702 17.877 17.2021C17.7072 16.8684 17.5373 16.6181 17.3252 16.4512C17.028 16.2007 16.9004 15.8665 16.9004 15.4072C16.9004 14.781 16.7732 14.2378 16.4336 13.8203C16.2638 13.6116 16.051 13.4031 15.7539 13.1943C15.3293 12.9021 15.0317 12.6094 14.8193 12.2754L14.1826 11.2734C13.9703 10.9812 14.0129 10.6475 14.2676 10.4805C14.5223 10.3135 14.6925 10.063 14.8623 9.8125C14.9897 9.68724 15.0748 9.51979 15.2021 9.39453C15.4144 9.1441 15.6687 8.89326 15.9658 8.68457C16.2206 8.43405 16.3907 8.22513 16.4756 7.97461C16.5606 7.64064 16.773 7.18191 17.3672 7.05664V7.01465C17.4097 6.80588 17.4102 6.63869 17.4102 6.47168C17.4102 5.97074 17.6218 5.59472 18.0039 5.26074C18.0464 5.21899 18.0894 5.17773 18.1318 5.17773C18.5776 4.95855 18.828 4.54728 18.8838 3.88867L18.8535 3.7998C18.896 2.96478 19.0231 2.21295 19.2354 1.54492ZM20.5098 1.37793C20.4673 1.67018 20.3818 1.92065 20.3818 2.21289V2.88086C20.3818 3.13138 20.4674 3.29857 20.6797 3.42383C21.1467 3.71611 21.571 4.17555 21.8682 4.80176C22.038 5.09399 22.2077 5.4282 22.5049 5.67871C22.8021 5.88745 22.9297 6.22121 22.9297 6.63867C22.9722 7.30673 23.0998 7.85004 23.4395 8.26758C23.6092 8.51794 23.8215 8.72661 24.0762 8.89355C24.5433 9.22758 24.8829 9.56196 25.1377 9.97949C25.3075 10.23 25.5206 10.522 25.6904 10.7725C25.8601 11.0229 25.8175 11.3987 25.6055 11.6074C25.3507 11.8162 25.1381 12.0669 24.9258 12.3174C24.5861 12.7767 24.2459 13.1528 23.8213 13.4033C23.6094 13.5285 23.4823 13.6952 23.3975 13.9453C23.355 14.1123 23.3125 14.28 23.2275 14.4053C23.0577 14.6975 22.8026 14.9062 22.4629 14.9062V15.4902C22.4204 16.033 22.2078 16.4514 21.7832 16.8271H21.7412C21.6988 16.8689 21.656 16.952 21.5713 16.9521C21.274 17.1192 21.104 17.4116 21.0615 17.8291C21.0191 18.2465 20.977 18.6226 20.9346 19.04V19.332C21.1468 19.3736 21.401 19.2897 21.5283 19.0811C21.868 18.5383 22.3783 18.0789 23.1426 17.7031C23.3547 17.5779 23.6092 17.3696 23.8213 17.1611C24.0761 16.8689 24.4162 16.7432 24.8408 16.7432C25.4777 16.7432 25.9875 16.5762 26.4121 16.2422C26.6244 16.0752 26.837 15.8667 27.0068 15.6162C27.3041 15.1569 27.6857 14.7808 28.1104 14.5303C28.3651 14.3633 28.5777 14.2383 28.79 14.0713L28.917 13.9873C29.0868 13.862 29.2569 13.8623 29.4268 13.8623C29.5541 13.8623 29.6817 13.946 29.7666 14.0713C29.894 14.2799 30.1061 14.4473 30.3184 14.6143C30.4457 14.6977 30.5309 14.7808 30.6582 14.8643C30.9979 15.1565 31.2955 15.4489 31.5078 15.7412C31.7625 16.0333 31.9748 16.2007 32.2295 16.2842C32.4843 16.3677 32.9932 16.5347 33.0781 17.0771C33.0781 17.2442 33.1212 17.2441 33.291 17.2441H33.418C34.1823 17.2024 34.7775 17.5363 35.2021 18.2461C35.372 18.5383 35.6688 18.7053 36.1357 18.7471C36.3905 18.8306 36.6456 18.8311 36.9004 18.8311C37.0915 18.8624 37.2826 18.8935 37.4736 18.9072L37.5371 18.9561C37.8768 18.9978 38.2164 19.1235 38.5137 19.207C38.089 9.43675 30.2761 1.71206 20.5098 1.37793ZM19.873 4.25879C19.7457 5.09386 19.4055 5.63691 18.8535 6.0127C18.7686 6.05444 18.6835 6.0962 18.5986 6.17969C18.5137 6.26319 18.4287 6.38847 18.4287 6.51367V7.13965C18.3862 7.39017 18.3015 8.01657 17.6221 8.18359C17.5372 8.1836 17.4522 8.22544 17.4521 8.35059C17.3248 8.85163 17.0271 9.22773 16.5176 9.60352C16.263 9.77052 16.0511 10.0211 15.8389 10.2715L15.7539 10.3965C15.6265 10.5217 15.5415 10.6474 15.4141 10.8145L15.3291 10.8975C15.3715 11.0226 15.4565 11.1063 15.499 11.2314C15.7113 11.649 15.9665 11.9416 16.3486 12.1504C16.858 12.4427 17.2399 12.9022 17.5371 13.5283C17.8343 14.1128 17.9195 14.6973 17.9619 15.3652V15.4492C18.344 15.8249 18.6412 16.1587 18.7686 16.5762C18.9808 17.0771 19.363 17.3692 19.7451 17.7031C19.7866 17.7439 19.8281 17.7451 19.8301 17.7451C19.9575 16.8684 20.3827 16.2417 21.1045 15.8242C21.1474 15.7823 21.2733 15.6986 21.2734 15.4492C21.3159 15.2405 21.3164 15.031 21.3164 14.8223C21.4014 14.2796 21.7415 13.9038 22.166 13.8203C22.2926 13.8202 22.293 13.7789 22.293 13.7373C22.4628 13.1528 22.845 12.6934 23.3545 12.3594C23.4818 12.2759 23.5665 12.1919 23.6514 12.1084C23.8637 11.8161 24.1187 11.5657 24.3311 11.2734L24.501 11.0645C24.4585 10.9811 24.374 10.9389 24.374 10.8555C24.1194 10.3965 23.8218 10.0629 23.3975 9.8125C22.9728 9.56198 22.6332 9.18538 22.3359 8.64258C21.9538 7.97455 21.8686 7.26494 21.8262 6.63867H21.7832C21.3587 6.30466 21.1043 5.84495 20.8496 5.38574L20.6797 5.09375C20.5523 4.88499 20.3823 4.71803 20.2549 4.59277C20.1276 4.4676 20.0003 4.34229 19.873 4.25879Z" fill="#2F2E1F"/>
</g>
<defs>
<clipPath id="clip0_4_1060">
<rect width="328" height="40" fill="white"/>
</clipPath>
</defs>
</svg>
