<svg width="246" height="30" viewBox="0 0 246 30" fill="none" xmlns="http://www.w3.org/2000/svg">
<g clip-path="url(#clip0_329_12971)">
<path d="M15 0C23.2803 9.03224e-07 30 6.73278 30 15C30 23.2672 23.2803 30 15 30C6.71975 30 0 23.2672 0 15C3.05781e-07 6.73278 6.71975 0 15 0ZM28.0254 15.376C27.8025 15.3447 27.643 15.4382 27.5156 15.6572C27.2927 15.9704 27.0064 16.2525 26.5605 16.4717C26.2422 16.6595 26.0192 16.7848 25.8281 17.0039C25.6689 17.1918 25.4141 17.2861 25.0957 17.2861C24.5861 17.2861 24.172 17.4116 23.8535 17.6621C23.6943 17.7874 23.535 17.9441 23.4395 18.1006C23.2166 18.4761 22.898 18.7574 22.5479 18.9766C22.3568 19.0705 22.1973 19.196 22.0381 19.3525H21.9746C21.7835 19.5091 21.5602 19.4779 21.3691 19.3213L21.2734 19.2275C21.1143 19.0711 20.9555 18.883 20.7646 18.7578C20.478 18.5073 20.2546 18.3189 20.0635 18.0371C19.9361 17.8181 19.7448 17.6622 19.4902 17.5996C19.1081 17.4743 18.9172 17.2545 18.8535 16.9414C18.6943 16.8788 18.5668 16.8789 18.4395 16.8789C18.0255 16.8789 17.7073 16.691 17.4844 16.3467C17.4208 16.2841 17.3882 16.2529 17.3564 16.1904C17.1972 15.94 16.9746 15.8146 16.6562 15.7832C16.4015 15.7519 16.1785 15.7511 15.9238 15.6885H15.4141C15.3822 15.8764 15.4462 16.0643 15.6055 16.1582C16.0194 16.4087 16.3693 16.8163 16.624 17.3486C16.7196 17.5992 16.8476 17.7556 17.0068 17.8809C17.2296 18.0687 17.3252 18.3197 17.3252 18.6641C17.3252 19.1336 17.4524 19.5404 17.707 19.8535C17.8344 20.0414 18.0257 20.198 18.2168 20.3232C18.567 20.5424 18.7894 20.7934 18.9805 21.0752C19.1078 21.2943 19.2672 21.4821 19.3945 21.7012C19.5856 21.9204 19.5538 22.1402 19.3945 22.3281L19.2998 22.4219C19.1406 22.5785 18.9805 22.7662 18.8213 22.9541C18.5666 23.2671 18.3436 23.486 18.0889 23.6426C17.8978 23.7678 17.7707 23.9566 17.707 24.1758C17.6433 24.3638 17.5153 24.7704 17.1016 24.833C17.0064 24.8642 17.0068 24.8644 17.0068 24.9893V25.3604C16.9795 25.7776 16.7594 26.1166 16.3691 26.3359C15.9554 26.5551 15.8916 26.9622 15.8916 27.4004C15.8637 27.8662 15.8359 28.3325 15.7227 28.7773L15.6055 29.0293C22.8983 28.6846 28.6941 22.7974 28.917 15.4697C28.6304 15.4384 28.3119 15.376 28.0254 15.376ZM14.3633 15.4072C14.2041 15.4385 14.076 15.5007 13.9805 15.6572C13.7575 16.0017 13.4712 16.2837 13.0254 16.5029C12.7388 16.6282 12.484 16.7535 12.293 17.0039C12.1337 17.2231 11.8786 17.3174 11.5283 17.3174C11.0508 17.3174 10.6368 17.4429 10.3184 17.6934C10.1274 17.8499 9.99981 17.9753 9.9043 18.1318C9.68139 18.5075 9.39476 18.7896 9.0127 19.0088C8.88535 19.1027 8.72594 19.1962 8.59863 19.29L8.47168 19.3838C8.2806 19.5404 8.05729 19.5091 7.86621 19.3525C7.73899 19.2587 7.64329 19.1651 7.54785 19.0713C7.42046 18.9773 7.32465 18.8831 7.19727 18.7578L7.07031 18.6641C6.87923 18.5075 6.68755 18.3197 6.52832 18.1318C6.36915 17.9127 6.17844 17.7561 5.92383 17.6621C5.57351 17.5682 5.3508 17.3171 5.28711 17.0039H5.25488C5.12764 16.9726 5.00029 16.9727 4.87305 16.9727C4.52273 16.9727 4.23563 16.816 4.0127 16.5654C3.98079 16.5342 3.91699 16.5029 3.91699 16.4404C3.74982 16.0844 3.46095 15.8961 2.96484 15.8545L2.77051 15.7832C2.13364 15.7519 1.56029 15.6575 1.05078 15.501C1.36925 22.8913 7.261 28.7162 14.6494 28.9355C14.6813 28.6225 14.7451 28.3092 14.7451 27.9961C14.7769 27.777 14.6816 27.5891 14.459 27.4639C14.1088 27.2447 13.8537 26.9626 13.6309 26.5244C13.5035 26.2426 13.3758 25.9604 13.1211 25.7725C12.8663 25.5846 12.834 25.271 12.834 25.0205C12.8339 24.5196 12.7065 24.1129 12.4199 23.7686C12.2927 23.6121 12.1659 23.4865 12.0068 23.3926C11.6566 23.1734 11.4016 22.8913 11.1787 22.5469C11.0832 22.3591 10.9877 22.2024 10.8604 22.0459L10.7959 21.9521C10.6367 21.7016 10.6693 21.4505 10.8604 21.3252C11.0192 21.2312 11.115 21.0753 11.2422 20.9189C11.3059 20.825 11.3699 20.7619 11.4336 20.668C11.6564 20.4176 11.8475 20.1985 12.0703 20.042C12.2931 19.8855 12.4207 19.6976 12.4844 19.5098C12.5481 19.3219 12.6755 18.9454 13.0576 18.8828C13.1529 18.8516 13.1846 18.8515 13.1846 18.6641V18.4131C13.1847 18.0061 13.3759 17.6929 13.6943 17.4111H13.7578C13.7897 17.3798 13.8539 17.3174 13.8857 17.3174C14.1085 17.1921 14.2357 16.9723 14.2676 16.6279C14.2994 16.4088 14.2996 16.1585 14.3633 15.9082V15.4072ZM15.0635 16.7852C14.9997 17.38 14.745 17.7875 14.3311 18.0693C14.2991 18.1006 14.2358 18.1319 14.2041 18.1943H14.1719C14.0765 18.2881 14.0129 18.3819 14.0127 18.5068C14.0127 18.6634 13.9805 18.8522 13.9805 19.0088C13.9486 19.1658 13.8848 19.6346 13.376 19.7285C13.3124 19.7285 13.2804 19.7598 13.2803 19.8223C13.1529 20.2294 12.8978 20.5737 12.5156 20.8242C12.3565 20.9494 12.1977 21.1062 12.0703 21.2627C11.9748 21.3879 11.8475 21.5447 11.752 21.7012L11.6875 21.7949C11.7193 21.8889 11.7836 21.952 11.8154 22.0459C11.9747 22.359 12.1655 22.5788 12.4521 22.7354C12.7705 22.9232 13.0574 23.2044 13.2803 23.6113C13.5669 24.1124 13.6303 24.6455 13.6621 25.1152L13.6309 25.1465C13.9173 25.397 14.1088 25.7417 14.2998 26.0547C14.4588 26.3049 14.5856 26.493 14.7129 26.6182C14.8084 26.7121 14.9048 26.8055 15.0322 26.8994C15.096 26.3048 15.3504 25.8667 15.7959 25.585C15.8596 25.5536 15.892 25.5216 15.9238 25.459H15.9873C16.0509 25.3964 16.1142 25.3028 16.1143 25.209V24.7705C16.1461 24.3321 16.4016 24.0187 16.752 23.9561C16.8471 23.9561 16.8467 23.9561 16.8467 23.8936C16.9741 23.4551 17.2295 23.1422 17.6436 22.8604C17.8027 22.7664 17.9615 22.5784 18.0889 22.4219C18.2162 22.2967 18.3117 22.1399 18.4072 22.0146L18.4717 21.9209C18.408 21.8583 18.3756 21.7951 18.3438 21.7324C18.1528 21.4195 17.93 21.2005 17.6436 21.0127C17.2615 20.7936 16.9749 20.4803 16.752 19.9795C16.5609 19.5412 16.4967 19.0712 16.4648 18.6328V18.5703C16.1465 18.2886 15.9556 17.9439 15.7646 17.5996C15.6691 17.4117 15.5415 17.2229 15.4141 17.0977C15.3185 16.9725 15.1908 16.879 15.0635 16.7852ZM54.4541 5.54297C57.8085 5.54297 60.5674 8.29868 60.5674 11.6494C60.5673 15.0001 57.8398 17.7559 54.4541 17.7559H51.7891L63.0752 24.4258H59.627L47.2441 17.0986V24.4258H45.457V16.0645L45.3311 16.002H45.457V5.54297H54.4541ZM72.0098 5.51172V24.4258H70.2227V5.51172H72.0098ZM94.4248 5.48047V7.26562H82.042V14.0918H90.6006V15.8457H82.042V22.6406H94.4248V24.4258H80.2549V5.48047H94.4248ZM109.755 5.51172C115.241 5.51177 119.692 9.73913 119.692 14.9688C119.692 20.1984 115.241 24.4257 109.755 24.4258H102.67V5.51172H109.755ZM142.139 5.48047V7.26562H129.725V14.0918H138.283V15.8457H129.725V22.6406H142.139V24.4258H127.969V5.48047H142.139ZM159.35 5.54297C162.735 5.54297 165.494 8.29868 165.494 11.6494C165.494 15.0001 162.735 17.7559 159.35 17.7559H156.686L167.971 24.4258H164.522L164.429 24.3633L152.14 17.0986V24.4258H150.353V16.0645L150.227 16.002H150.353V5.54297H159.35ZM185.935 5.51172L195.433 24.4258H193.458L191.075 19.666H179.257L176.843 24.4258H174.868L184.367 5.51172H185.935ZM205.245 5.51172V22.6406H218.601V24.4258H203.459V5.51172H205.245ZM228.789 5.51172L236.501 20.2295L244.213 5.51172H246V24.4258H244.275V9.26953L237.316 22.5156H235.749L228.664 9.01855V24.4258H226.877V5.51172H228.789ZM104.457 7.26562V22.6406H109.755C114.098 22.6406 117.675 19.408 117.895 15.3623L117.905 14.9375C117.905 10.71 114.269 7.26568 109.755 7.26562H104.457ZM8.34375 11.6494C8.31192 11.6497 8.24866 11.7116 8.2168 11.7119C7.83463 11.8998 7.57975 12.1507 7.38867 12.4639C7.22941 12.7769 6.94222 13.0269 6.52832 13.2461C6.05078 13.5278 5.50979 13.5907 5.03223 13.6221H4.96777C4.71301 13.9351 4.36275 14.1237 4.07617 14.3115H4.0127C3.81769 14.3937 3.64739 14.476 3.52246 14.6211L3.47168 14.8125C3.37623 14.9064 3.31219 15.0311 3.2168 15.125C3.8854 15.219 4.3632 15.5322 4.68164 16.0957C4.71347 16.1896 4.77702 16.2217 4.9043 16.2217H5.35059C5.79629 16.2531 6.11503 16.472 6.17871 16.8164C6.17875 16.879 6.21024 16.9414 6.30566 16.9414C6.65598 17.0667 6.94287 17.2863 7.22949 17.6621C7.35688 17.8499 7.54828 18.0066 7.73926 18.1631L7.83398 18.2568C7.92953 18.3508 8.02593 18.4129 8.15332 18.5068H8.2168C8.34404 18.4442 8.47139 18.3507 8.59863 18.2881C8.78972 18.1941 8.94938 18.0375 9.04492 17.8496C9.33154 17.3487 9.74557 16.9731 10.3506 16.7539C10.7009 16.6287 11.0511 16.5968 11.4014 16.5342H11.5928C11.8474 16.2214 12.1335 16.0334 12.4199 15.9082C12.7702 15.7829 12.9933 15.5007 13.248 15.1875C13.2799 15.1562 13.3125 15.125 13.3125 15.125C12.7393 15.0311 12.2929 14.781 12.0381 14.374C12.0062 14.3114 11.9742 14.2795 11.9424 14.1855H11.9111C11.8474 14.0916 11.7514 14.0293 11.624 14.0293C11.4648 13.998 11.3057 13.998 11.1465 13.998C10.7327 13.9354 10.4779 13.7163 10.4141 13.3721C10.3822 13.3094 10.3821 13.2773 10.3184 13.2773C9.96815 13.1834 9.65004 13.0269 9.45898 12.7139C9.23605 12.3068 8.8851 12.0563 8.50293 11.7744C8.4394 11.7431 8.40736 11.6807 8.34375 11.6494ZM22.0381 11.4609C21.9426 11.5235 21.8474 11.5556 21.752 11.6182C21.4653 11.7434 21.2735 11.9624 21.1143 12.2129C20.8595 12.6198 20.5097 12.9332 20.0322 13.1523C19.5864 13.3716 19.1398 13.4345 18.6621 13.4658H18.5986C18.3439 13.7476 17.9932 13.9351 17.6748 14.1543H17.6113C17.4521 14.2482 17.325 14.3113 17.2295 14.4053C17.1021 14.5305 16.9741 14.6872 16.8467 14.8438C17.4518 14.9377 17.8667 15.1563 18.1533 15.5947C18.1852 15.6574 18.2166 15.7206 18.2803 15.7832C18.3756 15.8769 18.4394 15.9393 18.5664 15.9395C18.7574 15.9708 18.917 15.9707 19.0762 15.9707C19.49 16.0333 19.7448 16.2212 19.8086 16.5342C19.8086 16.6593 19.8406 16.6914 19.9678 16.7227C20.3181 16.8479 20.6056 17.0667 20.8604 17.4111C20.9559 17.5676 21.1147 17.7243 21.3057 17.9121C21.4331 18.0374 21.5927 18.1316 21.752 18.2568L21.8467 18.3193C21.9422 18.288 22.0066 18.2257 22.0703 18.1943C22.3569 18.0378 22.6113 17.8179 22.7705 17.5361C22.9616 17.1918 23.2808 16.9106 23.7266 16.6914C24.1724 16.441 24.6816 16.378 25.1592 16.3467H25.2227C25.4138 16.1118 25.6413 15.9476 25.8906 15.8008L26.2734 15.5947C26.4327 15.5008 26.6246 15.3762 26.752 15.251C26.8475 15.1257 26.9748 15.0002 27.0703 14.875C26.4017 14.7811 25.9239 14.4677 25.6055 13.9043C25.6055 13.873 25.5729 13.7783 25.3818 13.7783H24.9043C24.713 13.747 24.2039 13.6844 24.1084 13.1836C24.1084 13.121 24.0759 13.0586 23.9805 13.0586C23.5985 12.9333 23.2801 12.7136 23.0254 12.3379C22.9299 12.2127 22.8027 12.0558 22.6436 11.9307C22.5163 11.8055 22.3251 11.6808 22.166 11.5557L22.0381 11.4609ZM180.166 17.9121H190.197L185.182 7.8916L180.166 17.9121ZM47.2441 7.29688V16.002H54.4854C56.8992 16.002 58.8427 14.0606 58.8428 11.6494C58.8428 9.23814 56.8993 7.29688 54.4854 7.29688H47.2441ZM152.14 7.29688V16.002H159.381C161.795 16.002 163.738 14.0606 163.738 11.6494C163.738 9.23814 161.795 7.29688 159.381 7.29688H152.14ZM14.4268 1.1582C7.0702 1.44004 1.21043 7.32756 0.987305 14.7178C1.21023 14.7491 1.43332 14.8125 1.65625 14.8125H2.16602C2.35691 14.7812 2.48459 14.718 2.58008 14.5615C2.80301 14.1859 3.15288 13.8725 3.59863 13.6533C3.82156 13.5594 4.0765 13.4028 4.26758 13.1836C4.42675 12.9646 4.68135 12.8702 4.96777 12.8701C5.50913 12.8701 5.92373 12.7456 6.24219 12.4951C6.43313 12.3699 6.56021 12.2131 6.6875 12.0254C6.91037 11.681 7.19726 11.3988 7.51562 11.2109C7.67478 11.117 7.83401 10.9914 7.99316 10.8975L8.12109 10.8037C8.24837 10.7099 8.37565 10.71 8.50293 10.71C8.59841 10.7413 8.69412 10.7724 8.75781 10.8662C8.85334 11.0228 9.01267 11.1482 9.17188 11.2734C9.26731 11.336 9.36306 11.3984 9.42676 11.4609C9.68153 11.7115 9.90424 11.8999 10.0635 12.1191C10.2546 12.3383 10.4144 12.4637 10.6055 12.5264C10.8602 12.5891 11.2097 12.7456 11.2734 13.1836C11.4008 13.2462 11.5289 13.2461 11.6562 13.2461C12.1338 13.2461 12.4525 13.434 12.6436 13.7471C12.8983 14.1541 13.2483 14.3427 13.8213 14.3428C14.0441 14.3428 14.2674 14.4052 14.4902 14.4053H14.5859C14.5859 14.2487 14.5219 14.1232 14.3945 14.0605C13.9807 13.81 13.6619 13.4032 13.4072 12.9023C13.2798 12.6518 13.1524 12.4632 12.9932 12.3379C12.7706 12.1501 12.6749 11.8997 12.6748 11.5557C12.6748 11.086 12.5799 10.6784 12.3252 10.3652C12.1978 10.2087 12.0383 10.0521 11.8154 9.89551C11.497 9.67632 11.2735 9.45752 11.1143 9.20703L10.6367 8.45508C10.4777 8.23606 10.5095 7.98568 10.7002 7.86035C10.8912 7.73514 11.0191 7.5472 11.1465 7.35938C11.242 7.26543 11.3058 7.13984 11.4014 7.0459C11.5606 6.85803 11.7517 6.67023 11.9746 6.51367C12.1656 6.32588 12.2927 6.16921 12.3564 5.98145C12.4201 5.73093 12.5796 5.38595 13.0254 5.29199V5.26074C13.0572 5.10426 13.0576 4.97872 13.0576 4.85352C13.0577 4.47791 13.2164 4.19576 13.5029 3.94531C13.5347 3.91405 13.5668 3.88287 13.5986 3.88281C13.9331 3.71837 14.1213 3.41027 14.1631 2.91602L14.1396 2.84961C14.1715 2.22333 14.2675 1.65923 14.4268 1.1582ZM15.3818 1.0332C15.35 1.25241 15.2871 1.44095 15.2871 1.66016V2.16113C15.2872 2.34879 15.3507 2.4735 15.5098 2.56738C15.8601 2.78659 16.1784 3.13183 16.4014 3.60156C16.5287 3.82068 16.6561 4.07098 16.8789 4.25879C17.1018 4.41537 17.1973 4.66634 17.1973 4.97949C17.2291 5.48037 17.3254 5.88712 17.5801 6.2002C17.7075 6.38806 17.8666 6.54467 18.0576 6.66992C18.4079 6.92042 18.6624 7.17125 18.8535 7.48438C18.9809 7.67222 19.1402 7.89125 19.2676 8.0791C19.395 8.26699 19.3633 8.54948 19.2041 8.70605C19.013 8.86263 18.8536 9.0504 18.6943 9.23828C18.4396 9.58262 18.1846 9.86389 17.8662 10.0518C17.7071 10.1457 17.6115 10.2713 17.5479 10.459C17.516 10.5842 17.4836 10.7098 17.4199 10.8037C17.2925 11.0228 17.1014 11.1797 16.8467 11.1797V11.6182C16.8148 12.0251 16.6562 12.3384 16.3379 12.6201H16.3057C16.2739 12.6514 16.2421 12.7136 16.1787 12.7139C15.9558 12.8391 15.8277 13.0589 15.7959 13.3721C15.7641 13.6849 15.732 13.9665 15.7002 14.2793V14.499C15.8593 14.5303 16.0509 14.4678 16.1465 14.3115C16.4013 13.9044 16.7832 13.5592 17.3564 13.2773C17.5157 13.1834 17.707 13.0267 17.8662 12.8701C18.0573 12.6511 18.3125 12.5576 18.6309 12.5576C19.1083 12.5576 19.4902 12.432 19.8086 12.1816C19.9678 12.0564 20.1275 11.8998 20.2549 11.7119C20.4778 11.3675 20.7645 11.0853 21.083 10.8975C21.274 10.7723 21.4336 10.6789 21.5928 10.5537L21.6875 10.4902C21.8149 10.3963 21.9429 10.3965 22.0703 10.3965C22.1658 10.3966 22.2616 10.4598 22.3252 10.5537C22.4208 10.7101 22.5802 10.8348 22.7393 10.96C22.8347 11.0225 22.8978 11.0859 22.9932 11.1484C23.2479 11.3676 23.4716 11.5865 23.6309 11.8057C23.8219 12.0248 23.9809 12.1503 24.1719 12.2129C24.3629 12.2755 24.7447 12.4008 24.8086 12.8076C24.8086 12.9328 24.8407 12.9336 24.9678 12.9336H25.0635C25.6367 12.9023 26.0829 13.1523 26.4014 13.6846C26.5287 13.9037 26.7514 14.0292 27.1016 14.0605C27.2925 14.1231 27.4838 14.123 27.6748 14.123C27.8182 14.1466 27.962 14.1704 28.1055 14.1807L28.1533 14.2168C28.408 14.2482 28.6629 14.3427 28.8857 14.4053C28.5673 7.07751 22.7067 1.28373 15.3818 1.0332ZM14.9043 3.19434C14.8087 3.82053 14.5536 4.22796 14.1396 4.50977C14.0761 4.54099 14.0127 4.57233 13.9492 4.63477C13.8856 4.6973 13.8215 4.79096 13.8213 4.88477V5.35449C13.7894 5.54235 13.7261 6.01234 13.2168 6.1377C13.1532 6.1377 13.089 6.16902 13.0889 6.2627C12.9933 6.63839 12.7707 6.92038 12.3887 7.20215C12.1977 7.32736 12.0381 7.5153 11.8789 7.70312L11.8154 7.79785C11.72 7.89171 11.656 7.98524 11.5605 8.11035L11.4971 8.17285C11.5289 8.26679 11.5922 8.3299 11.624 8.42383C11.7832 8.7368 11.9744 8.95575 12.2607 9.1123C12.6429 9.33151 12.9304 9.67676 13.1533 10.1465C13.3761 10.5847 13.4398 11.0235 13.4717 11.5244V11.5869C13.7582 11.8686 13.9807 12.1196 14.0762 12.4326C14.2354 12.8081 14.5222 13.027 14.8086 13.2773C14.8404 13.3087 14.873 13.3086 14.873 13.3086C14.9687 12.6512 15.2868 12.1812 15.8281 11.8682C15.8602 11.8368 15.955 11.7742 15.9551 11.5869C15.9869 11.4304 15.9873 11.2737 15.9873 11.1172C16.051 10.7102 16.3056 10.4279 16.624 10.3652C16.7195 10.3652 16.7197 10.334 16.7197 10.3027C16.8471 9.86444 17.1336 9.52004 17.5156 9.26953C17.6112 9.2069 17.6756 9.14369 17.7393 9.08105C17.8984 8.86208 18.0889 8.67408 18.248 8.45508L18.376 8.29883C18.3441 8.2362 18.2803 8.20423 18.2803 8.1416C18.0893 7.79734 17.8661 7.54721 17.5479 7.35938C17.2295 7.17153 16.9748 6.88937 16.752 6.48242C16.4654 5.9815 16.401 5.44914 16.3691 4.97949H16.3379C16.0195 4.72902 15.8278 4.38444 15.6367 4.04004L15.5098 3.82031C15.4142 3.66374 15.2869 3.53828 15.1914 3.44434C15.0959 3.35039 14.9998 3.25697 14.9043 3.19434Z" fill="#2F2E1F"/>
</g>
<defs>
<clipPath id="clip0_329_12971">
<rect width="246" height="30" fill="white"/>
</clipPath>
</defs>
</svg>
