<svg width="128" height="63" viewBox="0 0 128 63" fill="none" xmlns="http://www.w3.org/2000/svg">
<g clip-path="url(#clip0_7_466)">
<path d="M53.4017 44.9923C52.7292 45.0032 52.2683 45.0723 51.7558 44.9598L45.975 34.2113L45.8991 44.9462C45.5548 45.0533 45.2552 45.0533 44.885 44.9828L44.881 32.9761C45.4517 32.8608 45.9371 32.9015 46.5322 32.9612L52.3442 43.7733L52.4066 32.9842C52.7401 32.8744 53.0505 32.8757 53.4057 32.9883L53.4003 44.9923H53.4017Z" fill="#8B8C80"/>
<path d="M103.682 44.9721L101.375 41.0168C100.681 39.8277 99.5801 39.7856 98.3125 39.9022L98.2922 44.991C97.9098 45.0182 97.6048 45.0344 97.2171 44.991L97.2144 32.9409C98.5836 32.9178 99.9271 32.85 101.226 33.0087C102.995 33.2243 104.032 34.5016 104.027 36.2182C104.023 37.8656 103.124 39.2758 101.367 39.6012C101.906 40.027 102.256 40.3849 102.568 40.9056L104.969 44.9259C104.566 45.067 104.183 45.0317 103.681 44.9721H103.682ZM102.911 36.2778C102.866 35.1063 102.22 34.2616 101.107 34.0582C100.189 33.89 99.2764 33.8805 98.3043 33.9294L98.3233 38.8622C99.2059 38.9029 100.04 38.9178 100.867 38.8053C102.182 38.6263 102.963 37.6609 102.911 36.2792V36.2778Z" fill="#8B8C80"/>
<path d="M31.8309 43.6785L31.8933 38.8432C32.2458 38.8161 32.5373 38.8229 32.9223 38.8812L32.9128 44.1327C31.8486 44.991 30.5972 45.1537 29.2944 45.1863C27.3869 45.2351 25.7411 44.2764 25.1025 42.4148C24.4233 40.4351 24.3881 38.2534 24.952 36.2276C25.5797 33.9754 27.5265 32.6277 29.8326 32.7416C30.9104 32.7944 31.9679 32.9395 32.8084 33.6649C32.6877 34.0053 32.46 34.2914 32.117 34.5056C30.7803 33.6446 29.0409 33.4765 27.6228 34.2724C26.6643 34.8093 26.1125 35.8331 25.9037 36.9056C25.4835 39.0561 25.4658 43.1849 28.1461 43.9741C29.3459 44.328 30.5918 44.2263 31.8309 43.6785Z" fill="#8B8C80"/>
<path d="M41.5718 39.4019L37.0912 39.4263L37.0668 43.9633L42.3758 44.0026C42.4883 44.3361 42.4761 44.6494 42.4083 45.0073L35.9551 45.0046V32.9301L42.1521 32.9206C42.2565 33.2921 42.2687 33.5728 42.148 33.9131H37.0925L37.06 38.3606L41.5894 38.3904C41.6328 38.7212 41.6518 38.987 41.5732 39.4006L41.5718 39.4019Z" fill="#8B8C80"/>
<path d="M67.0579 39.3992L62.5813 39.4344L62.5732 43.9877L67.9038 43.9822C68.0082 44.3402 68.0204 44.648 67.9052 45.0155L61.4723 44.9978L61.4696 32.9314L67.634 32.9206C67.7439 33.2921 67.7574 33.5755 67.63 33.905L62.5772 33.9172L62.5528 38.3524L67.0796 38.3904C67.1216 38.7172 67.1297 38.987 67.0552 39.3965L67.0579 39.3992Z" fill="#8B8C80"/>
<path d="M93.9025 39.4141L89.4205 39.4263L89.4178 43.9876L94.7484 43.9849C94.8515 44.3415 94.861 44.6493 94.7484 45.0168L88.3237 45.0005L88.3142 32.9382L94.48 32.9192C94.5953 33.2975 94.5993 33.5795 94.4637 33.9063L89.4232 33.9131L89.3879 38.3565L93.9201 38.3931C93.9662 38.7226 93.9798 38.9856 93.9025 39.4141Z" fill="#8B8C80"/>
<path d="M74.6621 44.9015C72.7681 45.5062 70.7251 45.1618 69.2582 43.9971C69.4249 43.6174 69.6269 43.4072 69.9103 43.1171C71.1589 44.0527 72.7776 44.4404 74.2798 43.936C75.1474 43.6445 75.6545 42.8988 75.7182 42.111C75.79 41.231 75.2938 40.496 74.4763 40.0893L71.6917 38.7035C70.5393 38.1299 69.9103 37.1076 69.9415 35.8683C69.9726 34.6289 70.6437 33.574 71.8584 33.0818C73.385 32.4622 75.1555 32.6913 76.5099 33.6011C76.3608 34.0174 76.1534 34.313 75.809 34.4961C74.7759 33.7747 73.526 33.5659 72.3641 33.9822C71.6131 34.2506 71.1345 34.9313 71.0586 35.6106C70.7562 38.3076 75.1298 38.3089 76.3947 40.3537C77.4237 42.0188 76.6102 44.2791 74.6607 44.9015H74.6621Z" fill="#8B8C80"/>
<path d="M83.9542 44.7645C82.0426 45.5659 79.7948 45.2201 78.2317 44.0147C78.4052 43.6066 78.6072 43.3489 78.9123 43.132C80.2124 44.1083 81.907 44.4635 83.4159 43.8669C84.1982 43.5564 84.6361 42.8269 84.6971 42.0934C84.7662 41.273 84.2877 40.5205 83.5163 40.1327L80.6503 38.6927C79.5264 38.1273 78.8675 37.0873 78.9028 35.8751C78.9367 34.6791 79.6254 33.574 80.8265 33.0832C82.3368 32.4663 84.0911 32.6805 85.4794 33.5985C85.3885 33.9632 85.1364 34.2113 84.8354 34.5137C83.8891 33.8913 82.8316 33.6256 81.7308 33.8574C80.8252 34.0486 80.1812 34.6846 80.0389 35.5117C79.8816 36.4351 80.3425 37.3001 81.1966 37.73L83.9664 39.1252C85.0848 39.6879 85.8183 40.6642 85.8115 41.8534C85.8047 43.0425 85.2204 44.2344 83.9542 44.7645Z" fill="#8B8C80"/>
<path d="M57.9948 32.9127L56.8926 32.9143L56.9095 45.0187L58.0117 45.0171L57.9948 32.9127Z" fill="#8B8C80"/>
<path d="M82.5157 15.1211C71.7974 12.3889 58.9832 12.3116 48.193 14.6994C33.2462 18.0079 20.7262 26.4431 13.2318 39.9062C12.112 41.9414 11.205 43.9292 10.4607 46.1136L5.28052 46.1C6.19698 44.1963 7.24088 42.5394 8.39189 40.774C18.4079 25.9604 33.4293 15.8438 51.1417 12.6398C60.0352 11.0303 69.1931 11.0411 78.073 12.637C90.829 14.9286 102.485 20.9313 111.76 29.9374C116.47 34.5109 120.975 40.1909 123.949 46.1068L118.763 46.1136C118.078 44.2194 117.278 42.5041 116.302 40.7224C109.024 27.578 97.0463 18.8269 82.5143 15.1225L82.5157 15.1211Z" fill="#8B8C80"/>
<path d="M64.9023 8.88658C67.3559 8.88658 69.345 6.89721 69.345 4.4432C69.345 1.98919 67.3559 -0.000183105 64.9023 -0.000183105C62.4487 -0.000183105 60.4596 1.98919 60.4596 4.4432C60.4596 6.89721 62.4487 8.88658 64.9023 8.88658Z" fill="#8B8C80"/>
<path d="M73.4026 50.6114L49.3589 50.6317L23.927 51.33L0.0230416 51.9565C0.0230416 51.0833 -0.0501671 50.2521 0.0637131 49.4182H127.936C128.047 50.2507 127.984 51.086 127.972 51.9606L81.789 50.7199L73.4039 50.6128L73.4026 50.6114Z" fill="#8B8C80"/>
<path d="M111.843 62.6089C111.25 62.6645 110.717 62.6469 110.11 62.6319L108.955 60.4408C108.525 59.6258 108.181 58.8543 107.819 58.0204L107.87 62.5967C107.39 62.6577 106.955 62.6604 106.437 62.6211V55.9011L108.19 55.8984L110.442 60.3024L110.41 55.9282C110.904 55.8631 111.334 55.8794 111.839 55.9106L111.844 62.6089H111.843Z" fill="#8B8C80"/>
<path d="M49.5244 61.2299C50.0233 61.7383 50.5967 61.9607 51.0685 62.5533C50.11 62.6943 49.2871 62.8136 48.6377 62.217C47.6115 62.8204 46.3547 62.9994 45.2132 62.6143C44.3577 62.3255 43.9849 61.5485 43.9578 60.7336C43.9293 59.859 44.7034 59.3614 45.342 58.9126C45.1142 58.2997 44.7577 57.4712 45.182 56.7892C45.9385 55.5729 47.6697 55.6597 48.3788 56.3933C48.7679 56.796 48.8696 57.3248 48.8113 57.9173C48.7367 58.6794 48.151 59.1119 47.5003 59.4699C47.8094 59.84 48.1144 60.1614 48.551 60.4217C48.8208 59.9607 48.8058 59.5336 48.8831 59.0373C49.3088 58.9628 49.7142 58.975 50.1385 59.0251C50.1792 59.8183 49.9148 60.5221 49.5244 61.2312V61.2299ZM46.8292 58.4882C47.2142 58.3689 47.4162 58.1343 47.4664 57.9417C47.5328 57.6909 47.5423 57.3967 47.3484 57.2C47.1044 56.9533 46.7207 56.9695 46.516 57.1621C46.0524 57.5973 46.4794 58.5967 46.8292 58.4882ZM47.5871 61.3492L46.1893 59.9661C45.8355 59.9444 45.5413 60.2007 45.4572 60.4611C45.3542 60.7811 45.4396 61.1621 45.7528 61.3709C46.2951 61.7316 47.0854 61.7397 47.5871 61.3505V61.3492Z" fill="#8B8C80"/>
<path d="M9.04135 62.579C8.53838 62.6915 8.04219 62.6576 7.53922 62.5844L7.48906 59.92C6.67969 59.8861 5.94761 59.8522 5.15993 59.9295L5.13282 62.6007C4.62714 62.6563 4.18789 62.6671 3.63611 62.6034V55.9105C4.18789 55.8644 4.62849 55.8766 5.13146 55.9241L5.15858 58.598C5.94896 58.6685 6.67969 58.64 7.48906 58.6075L7.53922 55.9431C8.04897 55.8482 8.52889 55.8685 9.04677 55.9363L9.04135 62.5763V62.579Z" fill="#8B8C80"/>
<path d="M97.9101 62.5682C97.342 62.7146 96.7726 62.6373 96.1585 62.6034L95.078 60.4665C94.9885 60.2902 94.5248 60.0271 94.4747 60.2468C94.3038 60.9831 94.4869 61.7315 94.3987 62.5573C93.9419 62.7092 93.4389 62.6509 92.9224 62.5898L92.9386 55.916C93.8931 55.8848 94.8393 55.8536 95.7707 55.9444C96.858 56.0516 97.4925 56.8407 97.46 57.9078C97.4342 58.7634 97.0614 59.5051 96.1585 59.7546C96.4554 60.061 96.7306 60.3526 96.9366 60.7553L97.9101 62.5668V62.5682ZM95.7192 58.64C96.0012 58.3268 95.966 57.6665 95.6907 57.4143C95.3586 57.1105 94.8651 57.1349 94.4448 57.1702C94.3947 57.7844 94.3906 58.3051 94.4421 58.918C94.8556 58.9695 95.3843 59.0129 95.7192 58.6414V58.64Z" fill="#8B8C80"/>
<path d="M58.6525 62.6305L57.5489 60.4326C57.4771 60.2902 57.031 60.0448 56.9822 60.2346C56.7843 61.0102 56.9673 61.8061 56.8941 62.5994C56.421 62.6726 55.9722 62.6604 55.4286 62.5994V55.9119C56.421 55.8848 57.3334 55.8577 58.2431 55.9444C59.3425 56.0489 59.9797 56.8272 59.9431 57.9133C59.9147 58.7417 59.5933 59.4563 58.6769 59.7478C59.4198 60.5655 59.8482 61.5092 60.4068 62.5736C59.8076 62.7092 59.3236 62.6143 58.6511 62.6305H58.6525ZM58.1224 58.7146C58.544 58.3892 58.4966 57.6136 58.0871 57.3492C57.7265 57.116 57.2791 57.1241 56.9239 57.1905C56.8887 57.8116 56.8819 58.2794 56.9185 58.8895C57.2669 58.9831 57.7387 59.0102 58.1224 58.7146Z" fill="#8B8C80"/>
<path d="M13.5003 62.682C12.2286 62.7728 11.3013 62.0067 11.0193 60.8637C10.7807 59.8996 10.7862 58.8691 10.9963 57.9118C11.319 56.4393 12.5567 55.6678 14.0101 55.8156C14.9835 55.9146 15.7955 56.3986 16.1277 57.3884C16.5168 58.5464 16.529 59.84 16.125 61.0115C15.744 62.1139 14.7381 62.781 13.5003 62.682ZM14.6662 57.9091C14.4981 57.3437 14.029 57.0549 13.5084 57.0779C13.0434 57.0996 12.6652 57.4318 12.5364 57.9661C12.2761 59.0481 12.1812 61.5769 13.7606 61.4413C15.1434 61.3234 14.9238 58.7769 14.6662 57.9078V57.9091Z" fill="#8B8C80"/>
<path d="M82.3246 61.1661C81.5681 61.0644 80.8645 61.1024 80.1446 61.1539C79.8545 61.5742 79.9575 62.202 79.6497 62.5546C79.2783 62.7634 78.6791 62.6156 78.1951 62.5831L80.2002 55.8848L82.2771 55.9173L84.2849 62.5641C83.7508 62.7037 83.256 62.6481 82.7286 62.6034L82.3232 61.1661H82.3246ZM81.9463 59.7505L81.2129 57.2841L80.4903 59.7817C81.0475 59.8441 81.3959 59.8983 81.945 59.7505H81.9463Z" fill="#8B8C80"/>
<path d="M102.925 61.1756C102.168 61.0617 101.478 61.1133 100.739 61.1417C100.505 61.6285 100.456 62.0963 100.292 62.6007C99.8012 62.6631 99.3552 62.6753 98.7871 62.5804L100.781 55.9078L102.845 55.8916L104.882 62.5668C104.351 62.7065 103.866 62.6292 103.333 62.6183L102.925 61.1743V61.1756ZM102.523 59.7709L101.801 57.2421L101.096 59.7899C101.64 59.8387 102 59.8739 102.525 59.7709H102.523Z" fill="#8B8C80"/>
<path d="M89.3133 55.9335C89.8596 55.8481 90.2921 55.8711 90.791 55.943L90.772 60.4135C90.7653 61.9145 89.5329 62.7077 88.1365 62.7281C86.7401 62.7484 85.5864 61.9674 85.5837 60.4678L85.5729 55.9078C86.084 55.8793 86.5287 55.8698 87.0615 55.9078L87.1211 60.3945C87.1306 61.1186 87.7298 61.4657 88.3331 61.444C89.0191 61.4183 89.2957 60.8583 89.2984 60.1559L89.3133 55.9322V55.9335Z" fill="#8B8C80"/>
<path d="M65.4867 59.8251L63.4599 59.8617C63.3623 60.3335 63.3718 60.8068 63.4572 61.3166L65.9598 61.3681C66.0507 61.7925 66.0357 62.1871 65.9896 62.6251L61.8994 62.6305L61.8832 55.9173L65.8554 55.9037C65.9029 56.3173 65.9042 56.6739 65.8419 57.1064L63.4626 57.1525C63.3731 57.619 63.3677 58.0868 63.4599 58.5668L65.4826 58.5925C65.5829 59.0074 65.5599 59.3898 65.488 59.8251H65.4867Z" fill="#8B8C80"/>
<path d="M27.2527 59.8102L25.1297 59.8672C25.0605 60.3404 25.0768 60.7946 25.1053 61.3275L27.6499 61.3478C27.7367 61.7858 27.7448 62.1858 27.6499 62.6414L23.618 62.6346V55.9011L27.6255 55.9363L27.5849 57.1038L25.1324 57.1553C25.0578 57.6204 25.0632 58.076 25.1283 58.5628L27.2297 58.6034C27.292 58.9872 27.2703 59.2841 27.2514 59.8116L27.2527 59.8102Z" fill="#8B8C80"/>
<path d="M71.1277 62.4231C69.894 62.9465 68.438 62.7661 67.4049 61.9322C67.5689 61.4292 67.9174 61.0726 68.2373 60.6495C68.8203 61.1363 69.4276 61.5499 70.1868 61.398C70.4498 61.3451 70.6546 61.1349 70.7129 60.9071C70.7712 60.6793 70.5881 60.3919 70.3238 60.2631L68.7891 59.5132C68.1736 59.2122 67.752 58.6821 67.6842 58.0841C67.6056 57.3885 67.8496 56.6916 68.4651 56.2766C69.57 55.5349 71.0965 55.6705 72.0794 56.5817C71.8327 56.9994 71.5439 57.3424 71.1711 57.7044C70.7278 57.341 70.2994 57.0292 69.7449 57.1363C69.4792 57.1878 69.2717 57.3655 69.2148 57.6244C69.1782 57.7885 69.3043 58.0787 69.5361 58.1966L71.2375 59.0577C71.895 59.3899 72.2638 60.0055 72.2597 60.6916C72.2557 61.3777 71.9005 62.0936 71.1277 62.4217V62.4231Z" fill="#8B8C80"/>
<path d="M38.3195 62.4312C37.0424 62.9519 35.5728 62.7417 34.5709 61.8929C34.8719 61.4007 35.1281 61.0034 35.4765 60.6468C36.0188 61.1688 36.656 61.5363 37.3786 61.4021C37.6579 61.3505 37.8653 61.1458 37.9114 60.9329C37.9711 60.659 37.7975 60.3919 37.5128 60.2522L35.9009 59.4617C35.284 59.1594 34.9099 58.5722 34.8773 57.9634C34.8434 57.3234 35.0969 56.6604 35.6799 56.2739C36.7929 55.5377 38.31 55.6665 39.3078 56.5912C39.0489 56.9899 38.7492 57.3343 38.3846 57.6963C37.9575 57.356 37.5643 57.0848 37.0437 57.1255C36.7252 57.1512 36.4906 57.3383 36.4459 57.5824C36.393 57.8658 36.5584 58.1275 36.8336 58.2604L38.3791 59.0089C39.0746 59.3451 39.48 59.9865 39.4691 60.6997C39.4583 61.3994 39.0936 62.1153 38.3181 62.4312H38.3195Z" fill="#8B8C80"/>
<path d="M122.652 62.4041C121.377 62.9559 119.856 62.7743 118.884 61.9065C119.109 61.417 119.361 61.0292 119.73 60.6834C120.496 61.4454 122.043 61.7614 122.173 60.9559C122.219 60.6698 122.118 60.4136 121.837 60.2766L120.191 59.4712C119.557 59.1607 119.188 58.5885 119.157 57.9688C119.12 57.2651 119.404 56.5966 120.056 56.2088C121.144 55.5621 122.592 55.6909 123.556 56.5736C123.327 57.0427 122.992 57.3478 122.656 57.7221C122.241 57.3519 121.807 57.0536 121.232 57.1404C120.949 57.1838 120.738 57.3749 120.7 57.5946C120.656 57.84 120.801 58.0922 121.049 58.217L122.74 59.0685C123.383 59.3912 123.749 60.019 123.745 60.6943C123.74 61.3695 123.403 62.08 122.652 62.4054V62.4041Z" fill="#8B8C80"/>
<path d="M20.5622 62.5776C20.0471 62.682 19.5604 62.6603 19.0384 62.5979L19.0344 57.1919C18.5205 57.0712 18.0474 57.1783 17.4604 57.1295C17.3262 56.7566 17.3655 56.3471 17.4278 55.9078L22.2027 55.9037C22.2501 56.3159 22.2474 56.678 22.1891 57.0983L20.5894 57.1593L20.5636 62.5776H20.5622Z" fill="#8B8C80"/>
<path d="M33.5311 61.3601C33.6193 61.7845 33.6084 62.1736 33.5555 62.617L29.6226 62.6143L29.6185 55.9499C30.1445 55.8563 30.6123 55.8563 31.1315 55.9472L31.1559 61.3167L33.5311 61.3601Z" fill="#8B8C80"/>
<path d="M116.444 62.5844C115.944 62.6794 115.488 62.659 114.955 62.5967L114.893 57.1499C114.275 57.1051 113.802 57.1946 113.295 57.0943C113.244 56.6767 113.243 56.3214 113.269 55.9065H118.048C118.099 56.316 118.097 56.678 118.037 57.0984C117.514 57.2001 117.04 57.1065 116.459 57.1526L116.441 62.5858L116.444 62.5844Z" fill="#8B8C80"/>
<path d="M76.1792 62.6074C75.6817 62.6671 75.2302 62.6468 74.6866 62.6251L74.6514 57.1647L73.095 57.1024C73.0001 56.6793 73.0028 56.3051 73.1018 55.8929L77.798 55.8902C77.8508 56.3105 77.8576 56.6739 77.8034 57.1078L76.1982 57.1525L76.1806 62.6074H76.1792Z" fill="#8B8C80"/>
</g>
<defs>
<clipPath id="clip0_7_466">
<rect width="128" height="62.8148" fill="white"/>
</clipPath>
</defs>
</svg>
