<svg width="112" height="55" viewBox="0 0 112 55" fill="none" xmlns="http://www.w3.org/2000/svg">
<g clip-path="url(#clip0_7_465)">
<path d="M44.6958 54.0466L42.9049 51.487C42.7113 51.2092 42.5757 50.937 42.1449 50.9578C42.1285 51.1447 42.2488 51.2945 42.2477 51.4881L42.2291 54.0051C42.228 54.1702 41.7885 54.1855 41.7874 54.0215L41.7852 50.4067C41.7852 50.1968 41.9394 50.0229 42.0914 49.9857C42.228 49.9518 42.4631 50.0316 42.5757 50.1902L44.3766 52.7269C44.4356 52.81 44.4728 52.9335 44.5723 52.8909C44.6226 52.8701 44.7232 52.787 44.7254 52.682L44.7757 50.1191C44.7789 49.9781 45.026 49.9398 45.0774 50.0196C45.1201 50.0863 45.2797 50.1596 45.2808 50.3061L45.2961 53.7929C45.2961 53.9908 45.2491 54.122 45.0862 54.1734C44.9889 54.2041 44.8019 54.1986 44.6958 54.0477V54.0466Z" fill="#8B8C80"/>
<path d="M107.102 54.0751C106.923 53.9078 105.828 52.6056 105.893 52.4274C105.981 52.1879 106.841 52.3443 107.107 51.8008C107.282 51.4444 107.232 50.9086 106.911 50.6867C106.448 50.3652 105.859 50.3433 105.347 50.5456L105.29 54.0795C105.286 54.2741 104.986 54.1877 104.915 54.1178C104.81 54.015 104.811 53.8225 104.829 53.6367C104.918 52.7762 104.787 50.3488 104.88 50.2274C105.235 49.7617 106.688 49.9869 107.029 50.1356C107.51 50.3444 107.883 50.9458 107.83 51.4783C107.718 52.5892 106.366 52.4503 106.964 53.126L107.477 53.7066C107.595 53.84 107.661 53.9723 107.565 54.1101C107.469 54.2479 107.26 54.2271 107.1 54.0762L107.102 54.0751Z" fill="#8B8C80"/>
<path d="M84.3391 52.2709C84.9088 52.3551 85.7037 51.909 85.7431 51.4236C85.7649 51.16 85.6523 50.914 85.4139 50.7238C84.9744 50.3728 84.3479 50.3345 83.8077 50.5368L83.7848 54.016C83.7837 54.1789 83.3463 54.1789 83.3452 54.016L83.3026 50.6341C83.2993 50.387 83.2348 50.0612 83.6 50.012C84.6005 49.8786 85.906 49.8742 86.1815 51.0092C86.5052 52.3431 85.321 52.3737 85.2532 52.8067C85.2149 53.2211 86.4472 53.8378 85.9683 54.1636C85.8775 54.2259 85.6687 54.215 85.5605 54.0827L84.5753 52.8832C84.4386 52.717 84.2517 52.6252 84.3402 52.2709H84.3391Z" fill="#8B8C80"/>
<path d="M59.1331 52.8341C58.4267 51.955 60.2407 52.5662 60.338 51.2782C60.3806 50.714 59.0904 50.1345 58.3294 50.5019L58.3032 53.9931C58.3021 54.1713 57.8921 54.1834 57.891 54.0204L57.8735 50.3936C57.8702 49.6119 59.8339 50.0481 60.1259 50.199C60.5556 50.4221 60.83 50.8747 60.8519 51.2159C60.9273 52.388 59.6109 52.5586 59.858 52.8953L60.678 54.0139C60.7557 54.1199 60.338 54.2479 60.2374 54.156C59.7935 53.7482 59.507 53.2999 59.1331 52.8341Z" fill="#8B8C80"/>
<path d="M74.2734 52.7434C73.6972 52.7937 73.8065 54.0751 73.1625 54.1877C72.9733 54.2205 72.9427 53.9592 72.9395 53.8499C72.9438 53.9745 73.6206 52.4733 73.6731 52.3519L74.479 50.5128C74.5642 50.3182 74.6484 50.1301 74.8398 50.0438C74.9775 49.9825 75.2848 50.035 75.3887 50.2679L77.0867 54.0795C76.2164 54.5671 76.364 52.9577 75.7582 52.7696C75.3143 52.6318 74.7512 52.7018 74.2734 52.7434ZM75.6347 52.1453C75.4422 51.5537 75.2837 51.2509 75.0289 50.772C74.6856 51.2629 74.4177 51.685 74.374 52.2207C74.8168 52.2579 75.2411 52.3804 75.6347 52.1453Z" fill="#8B8C80"/>
<path d="M90.3943 52.8724C89.9318 52.5509 89.0418 52.6559 88.5771 52.8866C88.2655 53.1206 88.0206 54.2774 87.7078 54.1669C87.5515 54.1112 87.4367 53.9778 87.5187 53.7974L89.1686 50.2023C89.2386 50.0492 89.3928 49.9825 89.5196 49.9759C89.6902 49.9672 89.8192 50.1082 89.9023 50.2919L91.4374 53.6683C91.5194 53.8498 91.62 54.0139 91.4035 54.1363C90.9192 54.4108 90.8492 53.1883 90.3943 52.8713V52.8724ZM90.1593 52.213C89.9854 51.7232 89.7733 50.9381 89.5196 50.9534C89.1588 50.9753 89.2069 51.534 88.7597 52.1857C89.2255 52.3224 89.6639 52.2907 90.1593 52.213Z" fill="#8B8C80"/>
<path d="M98.2428 52.1638C97.7529 52.5672 96.7864 52.202 96.6399 52.3781C96.4638 52.5913 96.5797 53.3567 96.6388 53.6945C97.2303 53.9198 98.0471 53.618 98.3718 53.8892C98.936 54.3593 96.2342 54.2718 95.9499 54.0761L95.9117 50.5193C95.9084 50.2372 96.1063 50.0218 96.3873 50.001C96.7383 49.9748 98.4604 49.8217 98.3904 50.2449C98.3281 50.6199 96.9515 50.2361 96.688 50.5291C96.4245 50.7828 96.6289 51.4192 96.5994 51.7855C96.6322 51.8456 98.7261 51.7647 98.2417 52.1638H98.2428Z" fill="#8B8C80"/>
<path d="M39.5109 50.1454C39.5142 49.9639 39.7854 49.9431 39.8269 50.0153C39.8652 50.0819 40.0445 50.1596 40.039 50.305C40.0019 51.2071 40.1134 52.108 39.9997 52.9959C39.898 53.7929 39.1403 54.2445 38.4602 54.238C36.6681 54.2205 36.9578 51.7133 37.0158 50.3269C37.0224 50.1672 37.2148 50.0787 37.3012 50.0185C37.3996 49.9507 37.6073 50.1618 37.5909 50.3214C37.5166 51.0048 37.5734 51.6564 37.5373 52.3737C37.5067 52.9838 37.756 53.6246 38.4416 53.7612C38.844 53.8421 39.4508 53.4387 39.4584 53.0166L39.5109 50.1443V50.1454Z" fill="#8B8C80"/>
<path d="M102.586 50.2197C102.588 49.9967 103.003 50.0098 103.009 50.165C103.043 51.1425 103.06 52.0577 103.013 53.0352C102.982 53.6902 102.288 54.1898 101.771 54.2347C101.058 54.2959 100.38 53.9985 100.157 53.2386C99.8829 52.3015 99.9693 51.2398 100.004 50.2536C100.01 50.1104 100.181 50.0251 100.245 49.9803C100.324 49.9234 100.575 50.1508 100.563 50.2678C100.479 51.0354 100.513 51.757 100.572 52.5366C100.613 53.0932 100.832 53.7317 101.518 53.7426C102.065 53.7514 102.557 53.2233 102.563 52.6733L102.587 50.2208L102.586 50.2197Z" fill="#8B8C80"/>
<path d="M111.284 53.9165C110.908 54.2697 110.433 54.2992 109.927 54.1713C109.588 54.086 109.107 53.7296 109.045 53.2529C109.024 53.0932 109.221 52.9981 109.321 53.02C109.732 53.1118 109.714 53.6399 110.232 53.746C110.792 53.8608 111.279 53.1719 111.204 52.8855C111.16 52.7182 111.047 52.4864 110.843 52.4077L109.744 51.9834C109.284 51.8063 109.036 51.2661 109.153 50.7993C109.27 50.3324 109.697 49.9814 110.239 49.9606C110.78 49.9399 111.325 50.1017 111.545 50.644C111.613 50.8113 111.52 51.0005 111.383 51.0431C110.874 51.2049 110.963 50.1323 110.064 50.4964C109.72 50.6353 109.521 51.253 109.891 51.4848C110.344 51.768 111.473 51.897 111.639 52.5771C111.764 53.0877 111.683 53.5437 111.284 53.9176V53.9165Z" fill="#8B8C80"/>
<path d="M53.1653 53.8312C52.7192 54.2161 52.2829 54.3003 51.7493 54.1866C51.3787 54.1068 50.9938 53.7241 50.8637 53.2419C50.8276 53.1063 51.0605 53.0177 51.1458 53.021C51.4662 53.0352 51.6225 53.8597 52.2359 53.77C52.5388 53.7252 52.8515 53.4901 52.9291 53.2583C53.3982 51.8434 50.7292 52.5869 50.9938 50.9042C51.0419 50.5959 51.2333 50.1837 51.5963 50.0568C52.2928 49.8152 53.0024 50.0065 53.3479 50.6538C53.4365 50.8189 53.3435 51.0146 53.2222 51.0551C52.7236 51.2257 52.846 50.2165 51.9658 50.4679C51.5755 50.5795 51.3196 51.054 51.6356 51.4083C52.0161 51.8358 53.302 51.7866 53.4649 52.6832C53.5403 53.0997 53.4911 53.5491 53.1653 53.8301V53.8312Z" fill="#8B8C80"/>
<path d="M68.17 51.9703C68.5909 52.1321 68.7779 52.564 68.814 52.8614C68.8654 53.2966 68.6511 53.5983 68.3416 53.9176C67.6047 54.6786 66.3331 53.9668 66.1898 53.4923C66.1461 53.348 66.1614 53.0068 66.3866 53.0516C66.7245 53.1183 66.8481 53.5393 67.1728 53.6978C67.6233 53.9165 68.3548 53.4814 68.3012 52.9664C68.1951 51.9473 66.0116 52.3726 66.2609 50.8922C66.3681 50.258 66.9257 49.9016 67.5927 49.9573C68.0781 49.9978 68.4313 50.141 68.6062 50.6276C68.662 50.7839 68.7221 50.9206 68.5855 51.0103C68.1055 51.3252 68.182 50.4133 67.4254 50.4297C67.1531 50.4351 66.824 50.621 66.7639 50.9665C66.7092 51.2825 66.9771 51.5154 67.2362 51.6149L68.1689 51.9725L68.17 51.9703Z" fill="#8B8C80"/>
<path d="M64.6482 52.0939C64.6602 52.6941 63.183 52.025 62.8976 52.4787C62.7096 52.6821 62.7675 53.3491 62.8966 53.5896C63.23 53.9865 64.6515 53.571 64.7083 53.9428C64.7772 54.3944 62.8069 54.214 62.3805 54.1473L62.3466 50.4024C62.3444 50.152 62.5412 49.965 62.785 49.9716C63.3033 49.9858 64.7805 49.8327 64.7094 50.2438C64.6427 50.6331 63.4072 50.2034 62.9392 50.562C62.6954 50.749 62.7238 51.5548 62.9567 51.7462C63.2672 52.0348 64.6372 51.5537 64.6482 52.0939Z" fill="#8B8C80"/>
<path d="M49.3253 52.0173C49.6686 52.599 48.0854 52.049 47.6141 52.4437C47.3889 52.6329 47.4567 53.3217 47.578 53.583C47.8623 54.0379 50.1016 53.4453 49.3636 54.1592C48.6222 54.2642 47.8404 54.2762 47.0554 54.1079L47.0149 50.504C47.0117 50.2186 47.2019 49.9956 47.4971 49.9857C47.8907 49.9726 49.5932 49.8272 49.5188 50.2438C49.4554 50.5991 48.1193 50.2514 47.5212 50.5499C47.4731 50.9414 47.4567 51.3634 47.5496 51.7647C48.022 51.9681 49.1055 51.6455 49.3253 52.0162V52.0173Z" fill="#8B8C80"/>
<path d="M80.4828 53.618C81.4275 53.0177 80.7419 50.2471 81.2208 50.0874C81.3509 50.0437 81.5434 50.1924 81.5281 50.3914C81.4625 51.2738 81.586 52.1354 81.4646 52.9959C81.3651 53.7066 80.7102 54.1877 80.1143 54.2413C79.4506 54.3003 78.6437 53.8772 78.5639 53.1304C78.4567 52.1387 78.5518 51.1732 78.5398 50.1662C78.5376 50.0098 78.8744 50.0317 78.9487 50.1377C79.0275 50.2504 79.0307 50.363 79.0143 50.551C78.952 51.2672 78.9739 51.9593 78.9936 52.7007C79.0023 53.0538 79.2713 53.4551 79.5381 53.6443C79.8541 53.8684 80.216 53.7886 80.4828 53.618Z" fill="#8B8C80"/>
<path d="M33.5279 52.3223C33.4295 52.7805 33.4404 53.2648 33.5377 53.7339C34.0112 53.9154 35.5364 53.5349 35.332 54.0313C35.2095 54.3276 33.8909 54.2281 33.3857 54.2095C33.2184 54.203 33.0348 54.0772 33.0348 53.8935L33.026 50.3947C33.026 50.1661 33.1572 49.9879 33.3879 49.9846L35.0182 49.9671C35.1592 49.9661 35.2325 50.0393 35.2872 50.0754C35.3473 50.1148 35.3768 50.3651 35.285 50.3706L33.5301 50.4581C33.4306 50.8954 33.4623 51.3448 33.5104 51.8019C34.0516 51.9538 35.227 51.5963 35.2543 52.0927C35.2817 52.5891 34.3228 52.131 33.5279 52.3223Z" fill="#8B8C80"/>
<path d="M28.9322 53.5842C28.8251 53.3765 28.8677 53.1425 29.0471 53.1129C29.4068 53.0539 29.4844 53.7646 30.0464 53.7657C30.264 53.7657 30.6161 53.5055 30.6205 53.2081L30.6642 50.304C30.6664 50.1706 30.826 50.0175 30.9146 50.0121C31.0031 50.0066 31.1836 50.1673 31.1836 50.2985L31.1748 53.2507C31.1737 53.7526 30.6106 54.1593 30.252 54.2151C29.6878 54.3037 29.2165 54.1364 28.9333 53.5842H28.9322Z" fill="#8B8C80"/>
<path d="M93.6407 50.5193L93.6112 54.0018C93.6112 54.0838 93.504 54.1964 93.4548 54.1833C93.3892 54.1669 93.1979 54.1144 93.1968 54.0007L93.1508 50.6199C93.1465 50.3061 92.4478 50.5806 92.1919 50.3531C92.0924 50.2646 92.0607 50.0852 92.2357 50.0185C92.6501 49.86 93.0754 50.0371 93.492 50.0251C93.6647 50.0207 94.6652 49.7955 94.6138 50.2361C94.5766 50.5532 94.1098 50.2985 93.6396 50.5193H93.6407Z" fill="#8B8C80"/>
<path d="M71.3769 50.6516C71.2993 51.6324 71.4884 54.1199 71.1604 54.1308C71.0631 54.1341 70.8772 54.0652 70.8772 53.8804L70.8794 51.0617C70.8794 50.8692 70.9647 50.6943 70.8521 50.5729C70.5459 50.2416 70.2114 50.6648 69.9315 50.2864C69.5728 49.7988 71.7716 49.9715 72.0548 49.9945C72.0658 49.9945 72.4506 50.1979 72.3271 50.2733C71.9488 50.5062 71.401 50.3455 71.3769 50.6516Z" fill="#8B8C80"/>
<path d="M103.335 45.1127C105.061 45.0788 107.19 40.8845 107.922 39.4587L108.968 37.4217L110.837 33.4144C110.857 33.3707 111.202 32.2095 111.607 32.2609C111.749 32.2795 112 32.3374 112 32.5725L111.987 38.4594L111.793 39.0421C111.743 39.1952 111.824 40.9687 111.808 41.5526L111.727 44.4643C111.708 45.1444 111.661 45.7808 111.667 46.474C111.669 46.7451 111.551 47.0174 111.2 47.0174L72.4321 47.0043C71.7039 47.0043 71.1605 46.8206 70.4607 46.9496C70.9834 46.8523 67.9973 46.7101 68.2455 46.7069C66.7694 46.7244 65.0134 46.4193 63.6062 46.0027L62.4166 45.6506C59.3955 44.7562 57.9162 41.5996 57.5663 38.5895C57.5105 38.1073 57.3618 35.7958 57.3476 35.3038L57.2831 33.0449C57.1847 29.6356 55.6058 25.7278 52.2043 24.255C51.815 24.0866 51.3853 23.8494 50.9567 23.7564L49.4478 23.4295L47.4841 23.3136L42.9891 23.2775C42.6184 23.2743 42.2434 23.5257 42.2434 23.9751L42.2467 44.2391C42.2467 44.5408 42.5211 45.1116 42.7737 45.116L49.1121 45.2133C49.5167 45.3959 49.4708 46.4171 49.1701 46.6784C48.9077 46.9048 48.5939 46.7134 48.3314 46.708L44.463 46.6303L41.185 46.5275C38.34 46.4379 35.5114 46.4062 32.6685 46.5221L30.028 46.6292L27.3087 46.7112C26.1366 46.7462 26.3706 47.9096 24.971 49.6415C22.9034 52.199 20.2104 53.4017 16.9925 53.85L15.3721 54.0753C14.6493 54.1759 11.4872 54.1518 10.7809 53.9616C9.50599 53.6171 9.64704 53.9976 7.15628 53.2169C4.70269 52.4483 2.3661 50.9853 1.07808 48.7198C0.837534 48.2978 0.552157 47.8352 0.445004 47.3913C0.337851 46.9474 0.124638 46.4718 0.0765289 46.0104C-0.0295307 44.999 -0.0196901 43.9854 0.0732487 42.9729C0.111518 42.553 0.312703 42.049 0.486553 41.6729C1.6554 39.1351 4.56055 38.2604 7.05569 38.6649C9.3879 39.0421 11.0214 41.3263 10.4354 43.7667C10.3042 44.3123 9.9685 45.0077 9.54645 45.3696C8.17095 46.5483 7.52803 47.5389 8.02444 49.506C8.59847 51.7813 10.6081 52.7304 12.8245 52.7184C14.0939 52.7118 15.3885 52.4997 16.3332 51.6337C16.8449 51.1657 17.2308 50.6726 17.478 50.0406C17.6452 49.6142 17.8902 49.1779 17.9995 48.7231L18.3363 47.3137L18.7047 44.8054C18.9825 42.9193 18.6763 40.036 18.9267 38.6332C19.0459 37.9662 18.9059 37.5639 18.8994 36.8947L18.7638 22.5821C18.7507 21.1498 18.7069 19.818 18.6643 18.4163L18.5539 14.6922L18.4511 11.5301L18.3494 6.12213C18.3363 5.41907 18.2444 4.76522 18.1854 4.03046L18.0717 2.6156C18.0312 2.11154 17.8781 1.54735 17.2932 1.54407L10.0363 1.51017C10.0068 1.07172 9.82198 0.507529 10.0647 0.175136C10.2451 -0.0730651 10.8017 0.0176869 11.1526 0.0176869L52.9117 0.0100331C53.3195 0.0100331 53.6771 0.0800105 54.0313 0.139054L56.0891 0.479101C57.6067 0.729489 59.354 1.41177 60.7153 2.15528C63.2038 3.51656 64.9817 5.72194 65.6432 8.51667C65.9669 9.88013 65.8608 11.2589 65.7449 12.6814C65.6607 13.7125 65.371 14.6758 64.9631 15.6467C63.8019 18.4108 61.3658 20.3024 58.5274 21.2045C57.7194 21.4614 56.9463 21.7074 56.0989 21.8332C55.6496 21.8999 55.233 21.8977 55.0263 22.4411C55.2199 22.6915 56.6828 22.9244 57.1399 23.0239C61.9585 24.0834 64.9806 27.7834 65.91 32.531C66.1352 33.6812 66.2435 34.779 66.1691 35.9686C66.086 37.3058 66.6218 41.0332 67.1455 42.3016C67.5632 43.313 68.1154 44.3233 69.2044 44.7322C69.9807 45.023 71.319 45.3204 72.1238 45.3281L77.9833 45.3795C78.2556 45.3817 78.694 45.3806 78.8383 45.1367C78.9914 44.8787 79.162 44.4927 79.1642 44.1581L79.2298 32.7179L79.361 10.7964L79.4266 4.8177C79.4331 4.23383 79.7743 2.28867 79.1696 1.54516L73.192 1.51674C72.8312 1.51455 73.0969 0.390535 73.1231 0.137961C73.7704 -0.0446368 76.2863 0.265888 76.5564 0.211218C77.0714 0.107345 77.4814 0.334772 77.9997 0.333679L98.2549 0.263701L104.505 0.157642C106.025 0.1314 107.504 0.0636096 109.038 0.12812C109.4 0.143428 109.474 0.80056 109.475 1.06516C109.478 1.76384 109.511 2.34662 109.535 3.00485L109.636 5.75584C109.673 6.77488 109.726 7.76004 109.74 8.7922L109.813 14.4188C109.816 14.6397 109.627 14.8026 109.499 14.8453C109.289 14.9141 109.119 14.7676 109.013 14.5347L106.938 9.9523C105.837 7.52058 104.694 5.18399 103.239 2.93269C102.674 2.06015 100.933 1.55063 100.164 1.55172L88.8407 1.56047C88.259 1.56047 87.9999 2.49095 88.0404 2.90754C88.0961 3.48376 87.9693 3.87191 87.9649 4.38034L87.9146 10.5712L87.7353 11.3715L87.6664 16.7806C87.6566 17.5153 87.2892 21.2143 88.1759 21.2668C89.4454 21.3422 90.6962 21.3739 91.9504 21.2668L94.5395 21.0426C94.7998 21.0197 95.072 20.9519 95.2393 20.7441C96.1588 19.6037 96.9067 18.389 97.5671 17.0791L99.4467 13.3495C99.5724 13.1002 100.108 13.3473 100.154 13.5452C100.307 14.2056 100.127 14.7851 100.092 15.4062L99.9857 17.2781L100.005 28.1661L100.086 30.295L100.216 31.7033C100.243 31.9865 100.336 32.2664 100.131 32.4566C99.9945 32.5834 99.5735 32.8546 99.4445 32.555L97.39 27.8162C96.8335 26.5337 95.8669 24.4562 94.9321 23.4864C94.7057 23.2524 94.2542 23.0523 93.936 23.002L92.6053 22.7932C91.4682 22.6149 89.5733 22.5657 88.4067 22.6849C87.9934 22.7276 87.6303 23.4142 87.6303 23.8964L87.6183 43.7C87.6183 44.3156 87.8381 44.8262 88.0775 45.3587C89.7395 45.339 91.2965 45.3434 92.9268 45.3128L98.6048 45.2056L103.334 45.1138L103.335 45.1127ZM52.1791 21.1596C53.9111 20.6381 55.2122 19.396 56.0301 17.8433C56.5035 16.9446 56.7419 16.0414 56.9988 15.0781C57.2208 14.2428 57.1475 13.4129 57.2492 12.5666C57.3476 11.7367 57.2842 11.0063 57.2492 10.1699C57.1617 8.09024 56.4926 6.06308 55.1127 4.51374C53.4846 2.68776 51.4979 1.92239 49.1263 1.54407C48.0756 1.37678 45.7598 1.22152 44.7178 1.38662C44.1415 1.47847 43.5194 1.37787 42.9771 1.61514C42.5343 1.80977 42.4577 2.28977 42.4533 2.72275L42.4041 7.59821L42.3046 12.2965L42.2292 21.1946C42.2281 21.386 42.3702 21.843 42.5605 21.8441L47.87 21.855C48.4736 21.8561 48.9722 21.7763 49.5856 21.6932L51.0256 21.4964C51.4159 21.4428 51.7428 21.2919 52.1791 21.1596ZM27.1687 44.9476C27.1239 45.0252 27.3655 45.1728 27.4683 45.1717L33.154 45.1028C33.6329 45.0974 33.6766 44.2872 33.7958 43.8772L33.8702 12.7459L33.9806 6.29816C33.997 5.36221 34.2561 2.06453 33.6854 1.53204L28.9313 1.56375C28.5902 1.56594 27.8915 1.80321 27.8313 2.18371L27.8007 9.60241L28.0216 10.4061L28.073 17.8991L28.1331 38.9011C28.1353 39.7058 27.8991 40.3925 27.8532 41.1546C27.7942 42.1222 27.6651 43.0341 27.4158 43.9843C27.3295 44.3134 27.3557 44.625 27.1698 44.9465L27.1687 44.9476Z" fill="#8B8C80"/>
</g>
<defs>
<clipPath id="clip0_7_465">
<rect width="112" height="54.2522" fill="white"/>
</clipPath>
</defs>
</svg>
