<svg width="24" height="24" viewBox="0 0 24 24" fill="none" xmlns="http://www.w3.org/2000/svg">
<path fill-rule="evenodd" clip-rule="evenodd" d="M11.8843 2.57788C11.5301 2.57788 11.1838 2.68293 10.8893 2.87973C10.5948 3.07653 10.3652 3.35626 10.2296 3.68353C10.0941 4.0108 10.0586 4.37092 10.1277 4.71835C10.1968 5.06578 10.3674 5.38491 10.6179 5.6354C10.8684 5.88588 11.1875 6.05646 11.5349 6.12557C11.8824 6.19468 12.2425 6.15921 12.5697 6.02365C12.897 5.88809 13.1767 5.65852 13.3735 5.36399C13.5703 5.06945 13.6754 4.72317 13.6754 4.36893C13.6754 4.13373 13.6291 3.90083 13.5391 3.68353C13.449 3.46623 13.3171 3.26879 13.1508 3.10247C12.9845 2.93616 12.787 2.80423 12.5697 2.71422C12.3524 2.62421 12.1195 2.57788 11.8843 2.57788ZM8.55801 4.36893C8.55801 3.71105 8.75309 3.06794 9.1186 2.52092C9.4841 1.97391 10.0036 1.54757 10.6114 1.2958C11.2192 1.04404 11.888 0.978172 12.5333 1.10652C13.1785 1.23487 13.7712 1.55167 14.2364 2.01686C14.7016 2.48206 15.0184 3.07475 15.1468 3.72C15.2751 4.36524 15.2092 5.03406 14.9575 5.64187C14.7057 6.24967 14.2794 6.76918 13.7323 7.13468C13.1853 7.50018 12.5422 7.69527 11.8843 7.69527C11.0021 7.69527 10.1561 7.34481 9.53227 6.721C8.90846 6.0972 8.55801 5.25113 8.55801 4.36893ZM11.8843 9.76334C11.5897 9.7594 11.2952 9.77705 11.0032 9.81613L10.0905 9.96973C9.0849 10.1447 8.17371 10.6701 7.51852 11.4529C6.86332 12.2356 6.50646 13.225 6.5112 14.2458C6.51179 14.7903 6.37867 15.3267 6.12353 15.8078C5.8684 16.2889 5.49905 16.7 5.04791 17.005L4.94437 17.0736C4.68376 17.2491 4.40079 17.3889 4.10302 17.4891L2.91812 17.8882C2.82258 17.9204 2.72164 17.9334 2.62106 17.9266C2.52047 17.9198 2.42221 17.8932 2.33189 17.8484C2.24157 17.8037 2.16095 17.7415 2.09465 17.6656C2.02835 17.5896 1.97765 17.5013 1.94546 17.4058C1.91327 17.3103 1.90021 17.2093 1.90703 17.1087C1.91385 17.0081 1.94042 16.9099 1.98521 16.8196C2.03001 16.7292 2.09215 16.6486 2.1681 16.5823C2.24405 16.516 2.33231 16.4653 2.42785 16.4331L3.61274 16.0341C3.78045 15.9774 3.93981 15.8986 4.08656 15.7996L4.1901 15.731C4.4327 15.5665 4.63121 15.3451 4.76823 15.086C4.90524 14.8269 4.97655 14.5381 4.97591 14.2451C4.97115 12.8614 5.45661 11.5207 6.34616 10.4608C7.23572 9.4009 8.4719 8.6903 9.83547 8.45502L10.7461 8.30142C11.5012 8.20262 12.2661 8.20262 13.0212 8.30142L13.9325 8.45502C15.2962 8.69018 16.5324 9.40074 17.422 10.4607C18.3116 11.5206 18.797 12.8613 18.7921 14.2451C18.7914 14.5381 18.8628 14.8269 18.9998 15.086C19.1368 15.3451 19.3353 15.5665 19.5779 15.731L19.6814 15.7996C19.8282 15.8986 19.9875 15.9774 20.1553 16.0341L21.3401 16.4331C21.4357 16.4653 21.5239 16.516 21.5999 16.5823C21.6758 16.6486 21.738 16.7292 21.7828 16.8196C21.8276 16.9099 21.8541 17.0081 21.861 17.1087C21.8678 17.2093 21.8547 17.3103 21.8225 17.4058C21.7903 17.5013 21.7396 17.5896 21.6733 17.6656C21.607 17.7415 21.5264 17.8037 21.4361 17.8484C21.3458 17.8932 21.2475 17.9198 21.1469 17.9266C21.0464 17.9334 20.9454 17.9204 20.8499 17.8882L19.665 17.4891C19.3672 17.3889 19.0842 17.2491 18.8236 17.0736L18.7201 17.005C18.2689 16.7 17.8996 16.2889 17.6445 15.8078C17.3893 15.3267 17.2562 14.7903 17.2568 14.2458C17.2615 13.225 16.9047 12.2356 16.2495 11.4529C15.5943 10.6701 14.6831 10.1447 13.6775 9.96973L12.7648 9.81613C12.4727 9.77723 12.1782 9.75982 11.8837 9.76402L11.8843 9.76334ZM8.71161 15.6782C8.83373 15.5153 9.01553 15.4077 9.21704 15.3789C9.41855 15.35 9.62324 15.4025 9.78609 15.5246C9.94895 15.6467 10.0566 15.8285 10.0854 16.03C10.1142 16.2315 10.0618 16.4362 9.9397 16.5991L8.99343 17.8608L8.9708 17.8903C8.86337 18.0408 8.74705 18.1848 8.62246 18.3216C8.33473 18.6236 7.98339 18.8578 7.59391 19.0073C7.41978 19.0691 7.24209 19.1203 7.06181 19.1609L7.02616 19.1698L5.19054 19.6285C4.96918 19.6903 4.77732 19.8293 4.64982 20.0205C4.52231 20.2117 4.46761 20.4423 4.49567 20.6704C4.52372 20.8985 4.63266 21.1089 4.8027 21.2635C4.97274 21.4181 5.19258 21.5065 5.4223 21.5128H6.1224C7.70497 21.5131 9.24489 20.9998 10.5109 20.0502L12.4473 18.5965C12.5279 18.5361 12.6197 18.4921 12.7173 18.4671C12.815 18.4421 12.9166 18.4365 13.0164 18.4508C13.1161 18.4651 13.2121 18.4988 13.2988 18.5502C13.3856 18.6015 13.4613 18.6695 13.5218 18.7501C13.5823 18.8308 13.6262 18.9225 13.6513 19.0202C13.6763 19.1178 13.6818 19.2194 13.6675 19.3192C13.6533 19.419 13.6195 19.5149 13.5681 19.6017C13.5168 19.6884 13.4488 19.7641 13.3682 19.8246L12.4425 20.5192L12.9458 20.7078C13.4944 20.9135 13.7385 21.0047 13.986 21.0822C14.7312 21.315 15.5023 21.4548 16.2817 21.4984C16.5409 21.5128 16.8036 21.5128 17.3878 21.5128H18.3477C18.5794 21.5088 18.8018 21.4212 18.9739 21.2661C19.1461 21.111 19.2563 20.8989 19.2843 20.6689C19.3123 20.4389 19.2561 20.2066 19.1262 20.0147C18.9963 19.8229 18.8014 19.6845 18.5775 19.6251L17.0689 19.2479L16.9853 19.2267C16.5632 19.1455 16.1544 19.0059 15.7709 18.8118C15.6683 18.7528 15.5696 18.6872 15.4754 18.6157C15.1474 18.3371 14.8601 18.014 14.6217 17.6557L14.5702 17.5872L13.8262 16.5957C13.7041 16.4328 13.6517 16.2281 13.6805 16.0266C13.7093 15.8251 13.817 15.6433 13.9798 15.5212C14.1427 15.399 14.3474 15.3466 14.5489 15.3754C14.7504 15.4042 14.9322 15.5119 15.0543 15.6748L15.7983 16.6663C15.9692 16.9323 16.1726 17.176 16.4038 17.3918C16.4475 17.4244 16.4933 17.4542 16.5409 17.4809C16.8294 17.6095 17.1327 17.7016 17.444 17.7552L18.9525 18.1323C19.5422 18.2801 20.0575 18.6383 20.4014 19.1395C20.7454 19.6407 20.8942 20.2504 20.82 20.8538C20.7457 21.4571 20.4535 22.0125 19.9983 22.4154C19.5431 22.8182 18.9563 23.0408 18.3484 23.0412H17.3631C16.8145 23.0412 16.5046 23.0412 16.1974 23.0241C15.2915 22.9734 14.3953 22.8108 13.5293 22.54C13.2359 22.4481 12.9479 22.3404 12.4322 22.1471L10.9662 21.5985C9.52641 22.5408 7.84309 23.0426 6.1224 23.0426H5.4223C4.81441 23.0422 4.22764 22.8196 3.77243 22.4167C3.31722 22.0138 3.02499 21.4585 2.95074 20.8551C2.8765 20.2518 3.02535 19.6421 3.3693 19.1409C3.71324 18.6397 4.22855 18.2814 4.8182 18.1337L6.65382 17.6749C6.78685 17.6461 6.91823 17.6102 7.04741 17.5673C7.22463 17.4998 7.38461 17.3937 7.51574 17.2567C7.60521 17.1542 7.68922 17.0471 7.7674 16.9358L8.71161 15.6782Z" fill="#B98A67"/>
</svg>
