<svg width="32" height="32" viewBox="0 0 32 32" fill="none" xmlns="http://www.w3.org/2000/svg">
<path d="M16.0323 3.99632C22.9182 3.99632 28.5704 6.68308 29.0182 10.0684C29.0179 10.071 29.0179 10.0736 29.0182 10.0762C29.0272 10.149 29.0339 10.2128 29.0395 10.2766C29.0451 10.3404 29.0518 10.4322 29.0518 10.5106C29.0518 14.1019 23.2092 17.0226 16.0267 17.0226C15.6651 17.0226 15.3192 17.0103 14.98 16.9901C14.868 16.9845 14.7561 16.9722 14.6441 16.9644C14.4202 16.9465 14.1963 16.9275 13.9724 16.9028C13.8433 16.8879 13.7138 16.8711 13.584 16.8524C13.375 16.8248 13.1638 16.7942 12.9504 16.7606L12.5462 16.6946L12.348 16.6599L16.4509 10.2788C16.4997 10.2032 16.5271 10.1157 16.5303 10.0258C16.5335 9.93583 16.5124 9.84671 16.4692 9.76775C16.426 9.68878 16.3623 9.62294 16.2848 9.57715C16.2073 9.53135 16.1189 9.50728 16.0289 9.50752H3.10228C4.10086 6.42112 9.67363 3.99745 16.0323 3.99745M29.5679 19.997C29.1526 21.8934 28.6488 23.7014 27.0513 24.9698C23.8518 27.511 19.2933 28.0439 16.0334 28.0439H15.9685C14.6482 28.048 13.3295 27.9533 12.0234 27.7606V17.6249C12.1242 17.6428 12.2216 17.6574 12.3212 17.6753C12.4656 17.6999 12.6123 17.7256 12.7544 17.7469C12.9783 17.7816 13.2022 17.8129 13.4261 17.8421C13.5627 17.86 13.7004 17.879 13.8358 17.8924C14.0754 17.9193 14.3184 17.9395 14.5613 17.9585C14.6799 17.9674 14.7975 17.9797 14.9173 17.9865C15.2811 18.0077 15.6505 18.0212 16.0367 18.0212C16.423 18.0212 16.7834 18.0111 17.1562 17.9965L17.3476 17.9887C17.6984 17.9723 18.0447 17.9488 18.3865 17.9182L18.5869 17.8991C18.9373 17.8667 19.2788 17.8286 19.6168 17.7872L19.6997 17.7749C20.0243 17.7294 20.3434 17.6779 20.6569 17.6204C20.7095 17.6103 20.7621 17.6025 20.8147 17.5924C21.1326 17.5331 21.4427 17.467 21.7483 17.3954L21.9375 17.3506C22.2431 17.2767 22.5432 17.2006 22.8331 17.1133L22.9506 17.0774C23.2283 16.9953 23.4996 16.908 23.7645 16.8155L23.8764 16.7763C24.1507 16.6789 24.4161 16.5759 24.6758 16.4685L24.8426 16.3979C25.0963 16.2897 25.343 16.1778 25.5826 16.0621L25.7079 15.9983C25.9371 15.8826 26.1591 15.7628 26.374 15.6389L26.4412 15.6008C26.6651 15.4699 26.8744 15.3344 27.0782 15.1956L27.2058 15.1072C27.4021 14.9699 27.5886 14.8284 27.7655 14.6829L27.8697 14.5944C28.0499 14.4444 28.2212 14.2888 28.3824 14.1298L28.398 14.1131C28.5559 13.9552 28.6992 13.7918 28.838 13.625C28.8649 13.5925 28.8917 13.5612 28.9175 13.5298C29.0451 13.3701 29.1645 13.2041 29.2757 13.0317L29.3418 12.9264C29.4483 12.7553 29.5447 12.5781 29.6306 12.3958L29.6373 12.3835C29.6836 12.6156 29.7254 12.8484 29.7627 13.082C30.1322 15.3804 30.0658 17.7277 29.5668 20.0015M11.101 16.755C11.092 16.7685 11.0875 16.783 11.0808 16.7976C11.0749 16.808 11.0697 16.8189 11.0651 16.8301C11.0397 16.888 11.0257 16.9504 11.0237 17.0136C11.0237 17.0136 11.0237 17.0226 11.0237 17.0271V20.5333H4.62142C4.53075 20.1874 4.45349 19.8493 4.39752 19.5728C3.95753 17.5433 3.89832 15.4499 4.22289 13.3988C4.2699 13.1044 4.32363 12.81 4.38856 12.5178H13.8336L11.101 16.755ZM3.16945 22.536C2.8508 21.7138 2.60434 20.8654 2.43284 20.0004C1.74453 16.8564 1.88455 13.5876 2.8392 10.514H15.1121L14.4672 11.5215H3.98219C3.86982 11.5213 3.76067 11.559 3.67234 11.6285C3.584 11.6979 3.52161 11.7951 3.49521 11.9043C3.38327 12.3465 3.2982 12.7999 3.22655 13.2477C2.88288 15.4226 2.94589 17.6425 3.41238 19.7944C3.49747 20.1818 3.61276 20.69 3.75606 21.1815C3.78633 21.2854 3.84952 21.3767 3.93612 21.4417C4.02271 21.5067 4.12804 21.5419 4.23631 21.5419H11.0204V22.5494L3.16945 22.536ZM2.38581 23.2469C2.42583 23.3338 2.48992 23.4074 2.57047 23.459C2.65102 23.5105 2.74467 23.538 2.84033 23.538H11.0204V28.1905C11.0203 28.3087 11.062 28.4232 11.1383 28.5136C11.2145 28.6039 11.3202 28.6644 11.4368 28.6842C12.934 28.9331 14.4496 29.0551 15.9673 29.0491H16.03C19.45 29.0491 24.2448 28.4782 27.6726 25.7579C29.2651 24.3156 30.2849 22.348 30.5452 20.2153C31.2988 16.781 31.1132 13.2069 30.0079 9.86911C29.4134 5.96884 23.4902 3 16.0311 3C8.5922 3 2.57164 5.95989 1.98728 9.89374C0.886946 13.2241 0.702519 16.7892 1.4533 20.2153C1.6545 21.257 1.96791 22.2738 2.38805 23.248" fill="white"/>
<path d="M6.51442 15.519C6.4155 15.5188 6.31888 15.4892 6.23674 15.4341C6.15459 15.379 6.09061 15.3008 6.0529 15.2093C6.0152 15.1178 6.00545 15.0173 6.02489 14.9203C6.04432 14.8233 6.09206 14.7343 6.16209 14.6644C6.23212 14.5945 6.32131 14.5469 6.41835 14.5277C6.51539 14.5085 6.61594 14.5185 6.70731 14.5564C6.79868 14.5943 6.87676 14.6584 6.9317 14.7407C6.98663 14.823 7.01595 14.9197 7.01595 15.0186C7.01595 15.0844 7.00297 15.1495 6.97775 15.2103C6.95253 15.2711 6.91559 15.3263 6.86901 15.3728C6.82242 15.4193 6.76713 15.4562 6.70628 15.4812C6.64544 15.5063 6.58023 15.5192 6.51442 15.519ZM6.51442 13.5151C6.21738 13.5153 5.9271 13.6037 5.68021 13.7688C5.43332 13.934 5.24091 14.1686 5.12734 14.4431C5.01377 14.7175 4.98413 15.0195 5.04213 15.3108C5.10014 15.6022 5.24319 15.8698 5.45323 16.0798C5.66326 16.2898 5.93086 16.4329 6.22218 16.4909C6.51351 16.5489 6.81547 16.5192 7.08994 16.4056C7.36442 16.2921 7.59907 16.0997 7.76424 15.8528C7.9294 15.6059 8.01768 15.3156 8.0179 15.0186C8.01805 14.8211 7.97926 14.6255 7.90376 14.4431C7.82826 14.2606 7.71751 14.0948 7.57787 13.9551C7.43823 13.8155 7.27242 13.7048 7.08994 13.6293C6.90747 13.5538 6.7119 13.515 6.51442 13.5151Z" fill="white"/>
<path d="M9.52116 17.5218H8.51923V18.5238H9.52116V17.5218Z" fill="white"/>
<path d="M11.0236 14.0155H10.0216V15.0175H11.0236V14.0155Z" fill="white"/>
</svg>
