<svg width="40" height="40" viewBox="0 0 40 40" fill="none" xmlns="http://www.w3.org/2000/svg">
<path d="M20.8917 38.6221C21.104 37.9541 21.1465 37.2443 21.189 36.5345C21.189 35.9499 21.2739 35.4071 21.8259 35.1148C22.4204 34.7808 22.7176 34.238 22.6752 33.5699C22.6752 33.5699 22.6752 33.5282 22.6752 33.4864C22.6752 33.4447 22.6752 33.3612 22.6752 33.3194C22.6752 33.1524 22.6752 33.1524 22.8025 33.1106C23.3546 33.0271 23.5244 32.4843 23.6093 32.2338C23.6943 31.9415 23.8641 31.691 24.1189 31.524C24.4586 31.3152 24.7558 31.023 25.0955 30.6054C25.3079 30.3549 25.5202 30.1044 25.7325 29.8956L25.8599 29.7704C26.0722 29.5198 26.1146 29.2276 25.8599 28.9353C25.69 28.643 25.4777 28.3925 25.3079 28.1002C25.0531 27.7244 24.7558 27.3904 24.2887 27.0981C24.034 26.9311 23.7792 26.7223 23.6093 26.4718C23.2696 26.0543 23.0998 25.5115 23.0998 24.8852C23.0998 24.4259 22.9724 24.0919 22.6752 23.8413C22.4628 23.6743 22.293 23.4656 22.1656 23.1315C21.8259 22.4217 21.3588 21.8789 20.8068 21.5449C20.5945 21.4196 20.5096 21.1691 20.552 20.9186C20.5945 20.9186 20.6369 20.9186 20.7219 20.9186H21.2314C21.5711 21.0021 21.8684 21.0021 22.2081 21.0438C22.6327 21.0856 22.9299 21.2526 23.1423 21.5866C23.1847 21.6701 23.2272 21.7119 23.3121 21.7954C23.6093 22.2547 24.034 22.5052 24.586 22.5052C24.7558 22.5052 24.9257 22.5052 25.138 22.5887C25.2229 23.0063 25.4777 23.2985 25.9873 23.4656C26.327 23.5491 26.5817 23.7578 26.7516 24.0501C27.0064 24.4259 27.3036 24.6764 27.6858 25.0104C27.9406 25.1775 28.1529 25.428 28.3652 25.6367L28.4926 25.762C28.7473 25.9708 29.0446 26.0125 29.2994 25.8038H29.3843C29.5966 25.595 29.8089 25.428 30.0637 25.3027C30.5308 25.0104 30.9554 24.6347 31.2527 24.1336C31.38 23.9248 31.5924 23.7161 31.8047 23.5491C32.2293 23.215 32.7813 23.048 33.4607 23.048C33.8853 23.048 34.2251 22.9228 34.4374 22.6722C34.6921 22.38 34.9894 22.2129 35.414 21.9624C36.0085 21.6701 36.3907 21.2944 36.6879 20.8768C36.8577 20.5846 37.0701 20.4593 37.3673 20.501C37.7495 20.501 38.1741 20.5846 38.5563 20.6263C38.259 30.3967 30.5308 38.2463 20.8068 38.7056M3.6518 21.1273C4.50106 21.1273 4.96815 21.3779 5.22293 21.9207C5.22293 22.0042 5.30786 22.0459 5.35032 22.0877C5.64756 22.4217 6.02972 22.6305 6.49682 22.6305C6.66667 22.6305 6.83652 22.6305 7.00637 22.6722C7.00637 22.6722 7.00637 22.6722 7.04883 22.6722C7.13376 23.0898 7.431 23.4238 7.89809 23.5491C8.23779 23.6743 8.49257 23.8831 8.70488 24.1754C8.9172 24.4259 9.17197 24.6764 9.42675 24.8852L9.5966 25.0104C9.76645 25.1775 9.89384 25.3027 10.0637 25.428C10.1911 25.5532 10.3185 25.6785 10.4883 25.8038C10.7431 26.0125 11.0403 26.0543 11.2951 25.8455L11.465 25.7203C11.6348 25.595 11.8471 25.4697 12.017 25.3445C12.5265 25.0522 12.9087 24.6764 13.2059 24.1754C13.3333 23.9666 13.5032 23.7996 13.758 23.5908C14.1826 23.2568 14.7346 23.0898 15.3716 23.0898C15.8386 23.0898 16.1783 22.9645 16.3907 22.6722C16.6454 22.3382 16.9851 22.1712 17.3673 22.0042C17.9618 21.7119 18.3439 21.3361 18.6412 20.8768C18.7686 20.6681 18.9384 20.5846 19.1507 20.5428C19.1507 20.5846 19.1507 20.6263 19.1507 20.6681V21.2109C19.0658 21.5449 19.0658 21.8789 19.0234 22.1712C18.9809 22.6305 18.811 22.9228 18.5138 23.0898C18.4713 23.0898 18.3864 23.1733 18.344 23.215H18.259C17.8344 23.5908 17.5796 24.0084 17.5796 24.5511C17.5796 24.6347 17.5796 24.6764 17.5796 24.7599V24.8852C17.5796 25.1357 17.5372 25.1357 17.4098 25.1775C16.9002 25.261 16.7304 25.762 16.6454 26.0125C16.5605 26.263 16.3907 26.5136 16.0934 26.7223C15.7962 26.9311 15.5414 27.2234 15.2442 27.5574C15.1592 27.6827 15.0743 27.7662 14.9894 27.8914C14.8195 28.1002 14.6921 28.309 14.4798 28.4342C14.2251 28.6013 14.1826 28.9353 14.3949 29.2693L14.4798 29.3946C14.6497 29.6033 14.7771 29.8121 14.9045 30.0626C15.2017 30.5219 15.5414 30.8977 16.0085 31.19C16.2208 31.3152 16.3907 31.4823 16.5605 31.691C16.9427 32.1503 17.1125 32.6931 17.1125 33.3612C17.1125 33.6952 17.155 34.1127 17.4947 34.3633C17.8344 34.6138 18.0042 34.9896 18.1741 35.3653C18.4713 35.9499 18.811 36.3257 19.2781 36.618C19.5754 36.785 19.7028 37.0355 19.6603 37.3278C19.6603 37.7453 19.5754 38.1628 19.5329 38.5804C9.68153 38.2881 1.8259 30.5219 1.40127 20.6681C2.08068 20.8768 2.84501 21.0021 3.69427 21.0438M18.896 3.59081C18.896 4.42589 18.6412 4.92693 18.1316 5.17745C18.0892 5.17745 18.0467 5.21921 18.0042 5.26096C17.6221 5.59499 17.4098 5.97077 17.4098 6.47182C17.4098 6.63883 17.4098 6.80585 17.3673 7.01461C17.3673 7.01461 17.3673 7.01461 17.3673 7.05637C16.7728 7.18163 16.5605 7.64092 16.4756 7.97495C16.3907 8.22547 16.2208 8.43424 15.966 8.68476C15.6688 8.89353 15.414 9.14405 15.2017 9.39457C15.0743 9.51983 14.9894 9.68685 14.862 9.81211C14.6921 10.0626 14.5223 10.3132 14.2675 10.4802C14.0127 10.6472 13.9703 10.9812 14.1826 11.2735L14.8195 12.2756C15.0318 12.6096 15.3291 12.9019 15.7537 13.1942C16.051 13.4029 16.2633 13.6117 16.4331 13.8205C16.7728 14.238 16.9002 14.7808 16.9002 15.4071C16.9002 15.8664 17.0276 16.2004 17.3248 16.4509C17.5372 16.618 17.707 16.8685 17.8769 17.2025C18.2166 17.8706 18.6412 18.4134 19.1932 18.7474C19.3631 18.8309 19.448 18.9979 19.448 19.2067H19.3206C19.0234 19.2067 18.7261 19.1232 18.4289 19.1232C17.6645 19.1232 17.1975 18.8727 16.8577 18.3299C16.603 17.9123 16.1783 17.6618 15.5414 17.6618C15.3715 17.6618 15.2017 17.6618 15.0318 17.5783C14.9469 16.9937 14.4798 16.785 14.1401 16.7015C13.8854 16.618 13.673 16.4509 13.4183 16.1587C13.2059 15.8664 12.9087 15.6159 12.569 15.2818C12.4841 15.1983 12.3567 15.1148 12.2293 15.0313C12.017 14.8643 11.8047 14.6973 11.6773 14.4885C11.5924 14.3633 11.465 14.3215 11.3376 14.2797C11.1677 14.2797 10.9979 14.2797 10.828 14.405L10.6582 14.5303C10.4459 14.6555 10.2335 14.8225 10.0212 14.9478C9.5966 15.1983 9.21444 15.5741 8.9172 16.0334C8.74734 16.2839 8.57749 16.4927 8.32272 16.6597C7.89809 16.9937 7.34607 17.1608 6.6242 17.1608C6.24204 17.1608 5.90234 17.286 5.69002 17.5783C5.43524 17.8706 5.09554 18.0793 4.7983 18.2046C4.20382 18.4969 3.73673 18.9144 3.43949 19.4154C3.3121 19.6242 3.14225 19.7077 2.88747 19.7495C2.67516 19.7495 2.42038 19.7495 2.20807 19.7495C1.91083 19.7495 1.61359 19.666 1.31635 19.6242C1.61359 9.77036 9.42675 1.92067 19.2357 1.54489C19.0234 2.21294 18.896 2.96451 18.8535 3.79958M37.6645 18.9144C37.4098 18.9144 37.155 18.8727 36.9002 18.8309C36.6454 18.8309 36.3907 18.8309 36.1359 18.7474C35.6688 18.7056 35.3715 18.5386 35.2017 18.2463C34.7771 17.5365 34.1826 17.2025 33.4183 17.2443C33.4183 17.2443 33.3333 17.2443 33.2909 17.2443C33.121 17.2443 33.0786 17.2443 33.0786 17.0772C32.9936 16.5344 32.4841 16.3674 32.2293 16.2839C31.9745 16.2004 31.7622 16.0334 31.5074 15.7411C31.2951 15.4489 30.9979 15.1566 30.6582 14.8643C30.5308 14.7808 30.4459 14.6973 30.3185 14.6138C30.1062 14.4468 29.8938 14.2797 29.7665 14.071C29.6815 13.9457 29.5541 13.8622 29.4268 13.8622C29.2569 13.8622 29.087 13.8622 28.9172 13.9875L28.7898 14.071C28.5775 14.238 28.3652 14.3633 28.1104 14.5303C27.6858 14.7808 27.3036 15.1566 27.0064 15.6159C26.8365 15.8664 26.6242 16.0752 26.4119 16.2422C25.9873 16.5762 25.4777 16.7432 24.8408 16.7432C24.4161 16.7432 24.0764 16.8685 23.8217 17.1608C23.6093 17.3695 23.3546 17.5783 23.1423 17.7036C22.3779 18.0793 21.8684 18.5386 21.5287 19.0814C21.4013 19.2902 21.1465 19.3737 20.9342 19.3319V19.0397C20.9766 18.6221 21.0191 18.2463 21.0616 17.8288C21.104 17.4113 21.2739 17.119 21.5711 16.952C21.6561 16.952 21.6985 16.8685 21.741 16.8267H21.7834C22.2081 16.4509 22.4204 16.0334 22.4628 15.4906C22.4628 15.3653 22.4628 15.2818 22.4628 15.1566V14.9061C22.8025 14.9061 23.0573 14.6973 23.2272 14.405C23.3121 14.2797 23.3546 14.1127 23.397 13.9457C23.482 13.6952 23.6093 13.5282 23.8217 13.4029C24.2463 13.1524 24.586 12.7766 24.9257 12.3173C25.138 12.0668 25.3503 11.8163 25.6051 11.6075C25.8174 11.3987 25.8599 11.023 25.69 10.7724C25.5202 10.5219 25.3079 10.2296 25.138 9.97912C24.8832 9.56159 24.5435 9.22756 24.0764 8.89353C23.8217 8.72651 23.6093 8.51775 23.4395 8.26722C23.0998 7.84969 22.9724 7.30689 22.9299 6.63883C22.9299 6.22129 22.8025 5.88727 22.5053 5.6785C22.2081 5.42798 22.0382 5.09395 21.8684 4.80167C21.5711 4.17537 21.1465 3.71608 20.6794 3.4238C20.4671 3.29854 20.3822 3.13152 20.3822 2.881C20.3822 2.67223 20.3822 2.42171 20.3822 2.21294C20.3822 1.92067 20.4671 1.67015 20.5096 1.37787C30.276 1.7119 38.0892 9.43633 38.5138 19.2067C38.2166 19.1232 37.8769 18.9979 37.5372 18.9562M18.2166 33.5699C18.2166 33.5699 18.2166 33.5699 18.2166 33.4864C18.1741 32.8601 18.0892 32.1503 17.707 31.4823C17.4098 30.9395 17.0276 30.5637 16.603 30.3132C16.2208 30.1044 15.966 29.8121 15.7537 29.3946C15.7113 29.2693 15.6263 29.1858 15.5839 29.0605L15.6688 28.9353C15.7962 28.7265 15.966 28.5177 16.0934 28.3507C16.2633 28.142 16.4756 27.9332 16.6879 27.7662C17.1975 27.4322 17.5372 26.9729 17.707 26.4301C17.707 26.3466 17.7495 26.3048 17.8344 26.3048C18.5138 26.1795 18.5987 25.5532 18.6412 25.3445C18.6412 25.1357 18.6837 24.8852 18.6837 24.6764C18.6837 24.5094 18.7686 24.3841 18.896 24.2589H18.9384C18.9809 24.1754 19.0658 24.1336 19.1083 24.0919C19.6603 23.7161 20 23.1733 20.0849 22.38C20.2548 22.5052 20.4246 22.6305 20.552 22.7975C20.7219 22.9645 20.8917 23.215 21.0191 23.4656C21.2739 23.9248 21.5287 24.3841 21.9533 24.7599C21.9533 24.7599 21.9533 24.7599 21.9533 24.8434C21.9958 25.428 22.0807 26.0543 22.3355 26.6388C22.6327 27.3069 23.0149 27.7244 23.5244 28.0167C23.9066 28.2672 24.2038 28.5595 24.4586 28.977C24.5011 29.0605 24.5435 29.1441 24.6284 29.2276L24.5435 29.3528C24.4161 29.5198 24.2887 29.7286 24.1189 29.8956C23.949 30.1044 23.7367 30.3549 23.5244 30.4802C22.9724 30.856 22.6327 31.2735 22.4628 31.858C22.4628 31.9415 22.4628 31.9415 22.3355 31.9415C21.8684 32.0251 21.5287 32.4426 21.4862 33.0271C21.4862 33.1942 21.4862 33.3194 21.4862 33.4864V33.6117C21.4862 33.737 21.4013 33.8622 21.3163 33.9457H21.2314C21.189 34.0292 21.1465 34.071 21.0616 34.1127C20.4671 34.4885 20.1274 35.0731 20.0425 35.8664C19.8726 35.7411 19.7452 35.6159 19.6178 35.4906C19.448 35.3236 19.2781 35.0731 19.0658 34.739C18.811 34.3215 18.5563 33.8622 18.1741 33.5282M4.62845 19.5825C4.7983 19.3319 5.05308 19.2067 5.35032 19.0814H5.43524C5.81741 18.8309 6.2845 18.5804 6.6242 18.1628C6.6242 18.1628 6.66667 18.1628 6.70913 18.1628C7.34607 18.1211 8.06794 18.0376 8.70488 17.6618C9.2569 17.3695 9.63906 17.0355 9.85138 16.618C10.1062 16.2004 10.4459 15.8664 10.9554 15.6159C10.9979 15.6159 11.0828 15.5324 11.1253 15.5324C11.2102 15.5741 11.2527 15.6576 11.3376 15.6994C11.8471 16.0752 12.3142 16.4092 12.6115 16.952C12.8662 17.3695 13.2909 17.5783 13.758 17.7036C13.8429 17.7036 13.8429 17.7453 13.8853 17.8288C13.9703 18.2881 14.31 18.5804 14.862 18.6639C15.0743 18.6639 15.2866 18.6639 15.4989 18.7056C15.6688 18.7056 15.7962 18.7891 15.8811 18.9144H15.9236C15.966 19.0397 16.0085 19.0814 16.051 19.1649C16.3907 19.7077 16.9851 20.0418 17.7495 20.167C17.7495 20.167 17.707 20.2088 17.6645 20.2505C17.3248 20.6681 17.0276 21.0438 16.5605 21.2109C16.1783 21.3779 15.7962 21.6284 15.4565 22.0459C15.4565 22.0459 15.4565 22.0459 15.3716 22.0459H15.2017C14.7346 22.1294 14.2675 22.1712 13.8004 22.3382C12.9936 22.6305 12.4416 23.1315 12.0594 23.7996C11.9321 24.0501 11.7197 24.2589 11.465 24.3841C11.2951 24.4676 11.1253 24.5929 10.9554 24.6764H10.8705C10.7006 24.5511 10.5732 24.4676 10.4459 24.3424L10.3185 24.2171C10.0637 24.0084 9.80892 23.7996 9.63906 23.5491C9.2569 23.048 8.87473 22.7557 8.40764 22.5887C8.28026 22.5887 8.23779 22.5052 8.23779 22.4217C8.15287 21.9624 7.72824 21.6701 7.13376 21.6284C6.92144 21.6284 6.75159 21.6284 6.53928 21.6284C6.36943 21.6284 6.2845 21.5866 6.24204 21.4614C5.81741 20.7098 5.18047 20.2923 4.28875 20.167C4.41614 20.0418 4.50106 19.8747 4.62845 19.7495M21.8259 6.55532C21.8259 6.55532 21.8259 6.55532 21.8259 6.63883C21.8684 7.26514 21.9533 7.97495 22.3355 8.64301C22.6327 9.1858 22.9724 9.56159 23.397 9.81211C23.8217 10.0626 24.1189 10.3967 24.3737 10.856C24.3737 10.9395 24.4586 10.9812 24.5011 11.0647L24.3312 11.2735C24.1189 11.5658 23.8641 11.8163 23.6518 12.1086C23.5669 12.1921 23.482 12.2756 23.3546 12.3591C22.845 12.6931 22.4628 13.1524 22.293 13.737C22.293 13.7787 22.293 13.8205 22.1656 13.8205C21.741 13.904 21.4013 14.2797 21.3163 14.8225C21.3163 15.0313 21.3163 15.2401 21.2739 15.4489C21.2739 15.6994 21.1465 15.7829 21.104 15.8246C20.3822 16.2422 19.9575 16.8685 19.8302 17.7453C19.8302 17.7453 19.7877 17.7453 19.7452 17.7036C19.3631 17.3695 18.9809 17.0772 18.7686 16.5762C18.6412 16.1587 18.344 15.8246 17.9618 15.4489C17.9618 15.4489 17.9618 15.4071 17.9618 15.3653C17.9193 14.6973 17.8344 14.1127 17.5372 13.5282C17.2399 12.9019 16.8577 12.4426 16.3482 12.1503C15.966 11.9415 15.7113 11.6493 15.4989 11.2317C15.4565 11.1065 15.3715 11.023 15.3291 10.8977L15.414 10.8142C15.5414 10.6472 15.6263 10.5219 15.7537 10.3967L15.8386 10.2714C16.051 10.0209 16.2633 9.77036 16.518 9.60334C17.0276 9.22756 17.3248 8.85178 17.4522 8.35073C17.4522 8.22547 17.5372 8.18372 17.6221 8.18372C18.3015 8.0167 18.3864 7.3904 18.4289 7.13988C18.4289 6.97286 18.4289 6.8476 18.4289 6.68059V6.51357C18.4289 6.38831 18.5138 6.26305 18.5987 6.17954C18.6837 6.09603 18.7686 6.05428 18.8535 6.01253C19.4055 5.63674 19.7452 5.09395 19.8726 4.25887C20 4.34238 20.1274 4.46764 20.2548 4.5929C20.3822 4.71816 20.552 4.88518 20.6794 5.09395L20.8493 5.38622C21.104 5.84551 21.3588 6.3048 21.7834 6.63883M34.862 20.8768C34.3949 21.1273 33.9703 21.3779 33.6306 21.7954C33.6306 21.7954 33.6306 21.7954 33.5456 21.7954C32.9087 21.8372 32.2293 21.9207 31.6348 22.2547C31.0403 22.547 30.6157 22.9228 30.3609 23.382C30.1486 23.7578 29.8089 24.0501 29.4268 24.2589C29.3418 24.3006 29.2569 24.3841 29.1295 24.4259L29.0021 24.3424C28.7898 24.1754 28.5775 24.0501 28.4076 23.8831C28.1529 23.6326 27.9406 23.4238 27.8132 23.215C27.4735 22.7557 27.0913 22.4635 26.6242 22.2965C26.4544 22.2547 26.4119 22.2129 26.4119 22.0459C26.327 21.6284 25.9873 21.3779 25.4352 21.2944C25.2229 21.2944 25.0106 21.2944 24.7558 21.2526C24.586 21.2526 24.5011 21.1691 24.3737 21.0438C24.2887 20.9603 24.2463 20.8768 24.2038 20.7933C23.8217 20.2088 23.2696 19.9165 22.4628 19.7912C22.6327 19.5825 22.8025 19.3737 22.9724 19.2067C23.0998 19.0814 23.2696 18.9979 23.482 18.8727H23.5669C23.9915 18.5804 24.4586 18.3299 24.7983 17.9541C24.7983 17.9541 24.8408 17.9541 24.8832 17.9541C25.5202 17.9123 26.1146 17.8288 26.7091 17.5365C27.3461 17.2443 27.8132 16.8267 28.1529 16.2839C28.3652 15.9499 28.62 15.6576 29.0021 15.4906C29.1295 15.4071 29.2569 15.3653 29.3843 15.2818L29.5541 15.4071C29.7665 15.5741 30.0212 15.7411 30.1911 15.9081C30.4034 16.0752 30.5732 16.2839 30.7006 16.4509C31.0403 16.952 31.465 17.2443 31.9745 17.4113C32.1019 17.4113 32.1444 17.4948 32.1444 17.5783C32.2718 18.2463 32.9512 18.3299 33.2059 18.3716C33.3758 18.3716 33.5032 18.3716 33.673 18.3716H33.8429C34.0977 18.3716 34.1401 18.4969 34.1401 18.5386C34.5648 19.2902 35.2017 19.7077 36.0934 19.833C35.966 20 35.7962 20.167 35.6688 20.334C35.4989 20.501 35.2442 20.6681 35.0318 20.7933M20 0C8.95966 0 0 8.97704 0 20C0 31.023 8.95966 40 20 40C31.0403 40 40 31.023 40 20C40 8.97704 31.0403 0 20 0Z" fill="#2F2E1F"/>
</svg>
