<svg width="269" height="26" viewBox="0 0 269 26" fill="none" xmlns="http://www.w3.org/2000/svg">
<path d="M2.99166 14.3362V2.72862H12.6473C15.8659 2.72862 18.4574 5.31735 18.4574 8.53238C18.4574 11.7474 15.8659 14.3362 12.6473 14.3362H2.99166ZM24.1004 25.5679L9.05257 16.6744H12.6055C17.1199 16.6744 20.7564 13 20.7564 8.53238C20.7564 4.06474 17.0781 0.390406 12.6055 0.390406H0.609096V14.3362H0.441895L0.609096 14.4197V25.5679H2.99166V15.7975L19.5024 25.5679H24.1422H24.1004ZM33.6306 25.5679H36.0132V0.348653H33.6306V25.5679ZM47.0064 25.5679H65.8998V23.1879H49.389V14.1274H60.8002V11.7892H49.389V2.68686H65.8998V0.3069H47.0064V25.5262V25.5679ZM97.2075 12.9583C97.2075 18.595 92.317 23.1879 86.3397 23.1879H79.2756V2.68686H86.3397C92.3588 2.68686 97.2075 7.27977 97.2075 12.9165M99.5901 12.9583C99.5901 5.98541 93.6546 0.348653 86.3397 0.348653H76.893V25.5679H86.3397C93.6546 25.5679 99.5901 19.9312 99.5901 12.9583ZM110.625 25.5679H129.518V23.1879H112.966V14.1274H124.377V11.7892H112.966V2.68686H129.518V0.3069H110.625V25.5262V25.5679ZM142.852 14.3362V2.72862H152.508C155.727 2.72862 158.318 5.31735 158.318 8.53238C158.318 11.7474 155.727 14.3362 152.508 14.3362H142.852ZM163.961 25.5679L148.913 16.6744H152.466C156.981 16.6744 160.659 13 160.659 8.53238C160.659 4.06474 156.981 0.390406 152.466 0.390406H140.47V14.3362H140.303L140.47 14.4197V25.5679H142.852V15.7975L159.238 25.4844L159.363 25.5679H164.003H163.961ZM193.597 16.8831H180.221L186.909 3.52194L193.597 16.8831ZM197.944 25.5679H200.577L187.912 0.348653H185.822L173.157 25.5679H175.79L179.009 19.2213H194.767L197.944 25.5679ZM211.278 25.5679H231.467V23.1879H213.661V0.348653H211.278V25.5679ZM268 25.5679V0.348653H265.617L255.335 19.9729L245.052 0.348653H242.502V25.5679H244.885V5.02507L254.331 23.0209H256.421L265.701 5.3591V25.5679H268.083H268Z" fill="#2F2E1F"/>
</svg>
