<svg width="32" height="32" viewBox="0 0 32 32" fill="none" xmlns="http://www.w3.org/2000/svg">
<path d="M25.2638 9.27466C25.0566 8.93528 24.7711 8.65053 24.4312 8.44432C24.0912 8.2381 23.7068 8.11645 23.3101 8.08954H23.2461C22.7657 8.08954 21.2282 8.31386 21.0996 8.85828C21.0679 8.98658 21.0996 9.17837 21.388 9.33867C22.2207 9.85109 23.0213 10.7799 22.8932 11.3563C22.8325 11.5164 22.8153 11.6896 22.8434 11.8585C22.8716 12.0273 22.944 12.1857 23.0533 12.3174C23.1618 12.4476 23.2996 12.5503 23.4554 12.617C23.6112 12.6838 23.7806 12.7127 23.9498 12.7015C24.2933 12.6937 24.6272 12.5868 24.9114 12.3936C25.1955 12.2004 25.4177 11.9292 25.5513 11.6127C25.6777 11.2257 25.7174 10.8156 25.6676 10.4115C25.6177 10.0075 25.4796 9.61934 25.263 9.27466M13.0918 15.1683C12.8357 15.0403 12.7074 14.6559 12.5794 14.2395C12.4193 13.6631 12.227 13.0224 11.5545 12.9264C11.3832 12.8846 11.2039 12.8893 11.0349 12.94C10.866 12.9906 10.7137 13.0855 10.5937 13.2147C10.2733 13.5988 10.2093 14.2075 10.2406 14.6879V14.8157C10.3366 15.5524 10.4649 16.8019 12.2584 16.8976H12.4186C13.4757 16.8976 13.6677 16.4172 13.7317 16.2249C13.7692 16.0012 13.7251 15.7715 13.6075 15.5776C13.4899 15.3836 13.3067 15.2383 13.091 15.1681M2.77764 19.3639C2.70795 19.3639 2.63984 19.3846 2.58189 19.4233C2.52395 19.462 2.47876 19.5171 2.45209 19.5815C2.42542 19.6458 2.41848 19.7167 2.43208 19.7851C2.44567 19.8534 2.47918 19.9162 2.52846 19.9655C2.57774 20.0147 2.64055 20.0483 2.7089 20.0619C2.77725 20.0755 2.84808 20.0685 2.91247 20.0418C2.97685 20.0152 3.03189 19.97 3.07061 19.9121C3.10932 19.8541 3.13001 19.786 3.13001 19.7163C3.13515 19.6688 3.12957 19.6207 3.11368 19.5756C3.09779 19.5305 3.07201 19.4896 3.0382 19.4558C3.0044 19.4219 2.96346 19.3962 2.91838 19.3803C2.87329 19.3644 2.82517 19.3588 2.77764 19.3639ZM27.0873 16.4172C27.6637 17.346 28.3044 18.7552 28.1444 20.1647C28.0228 21.0807 27.8516 21.9894 27.6316 22.8868H26.7352C26.9592 21.8617 27.0555 20.6128 26.6709 19.4917C26.8949 18.3068 26.7669 17.4738 26.2545 16.7051C25.8701 16.1286 25.8701 15.3919 26.3185 13.7261C26.4465 14.7832 26.7349 15.84 27.0873 16.4167M25.7424 20.5163C25.4863 21.3811 25.1339 22.2461 24.8778 22.9183H23.8842C24.1938 22.0692 24.4086 21.1885 24.5246 20.2922C24.6209 19.5555 24.0125 18.082 23.3398 17.3135C23.2137 17.1387 23.0508 16.9936 22.8627 16.8884C22.6745 16.7833 22.4656 16.7206 22.2507 16.7048C21.784 16.7276 21.3361 16.8956 20.9695 17.1852C20.3097 17.6353 19.5267 17.8703 18.7281 17.8579H18.6331C17.6395 17.8579 16.0062 17.7939 14.4372 17.6979L13.9248 17.6659C13.8301 17.6634 13.7382 17.6979 13.6685 17.7622C13.6103 17.8227 13.576 17.9023 13.5722 17.9862V22.9506H12.7714C12.7955 22.1378 12.6873 21.3266 12.4511 20.5486C12.1307 19.6838 11.1379 17.6339 8.99191 17.5056H8.73561C7.51846 17.5056 6.33331 17.6656 5.75688 18.6904C5.72965 18.7467 5.71827 18.8092 5.7239 18.8715C5.72954 18.9337 5.75201 18.9932 5.7889 19.0436C6.30132 19.62 6.39733 19.7483 5.24447 21.1255C4.02732 22.599 3.5149 22.9188 3.48289 22.9188C3.4452 22.9356 3.41158 22.9603 3.38422 22.9912C3.35685 23.0221 3.33639 23.0585 3.32424 23.0979C3.31209 23.1373 3.30852 23.1789 3.31376 23.2198C3.31899 23.2608 3.33292 23.3001 3.35461 23.3352C3.33951 23.4161 3.30668 23.4926 3.25854 23.5593C3.12025 23.7025 2.93842 23.7959 2.74143 23.8249C2.54443 23.8538 2.34341 23.8167 2.16974 23.7193C1.59331 23.431 1.62528 23.2069 1.72131 22.8866C1.76499 22.7523 1.77606 22.6095 1.75358 22.4702C1.74805 21.871 1.78016 21.2722 1.84965 20.6771C1.93998 19.869 1.97212 19.0555 1.9459 18.2428C1.94466 18.1834 1.92195 18.1264 1.88192 18.0825C1.6576 17.7944 1.62556 17.2177 1.62556 16.7376L2.42629 17.5061C2.46741 17.5471 2.51974 17.575 2.57668 17.5864C2.63363 17.5978 2.69272 17.5921 2.74645 17.5701C2.80179 17.5487 2.85109 17.5142 2.89017 17.4696C2.92924 17.4249 2.95686 17.3714 2.97073 17.3138C3.16478 16.5984 3.42207 15.9017 3.73951 15.2318C3.83748 15.4518 4.00671 15.6323 4.2199 15.7442C4.28045 15.7704 4.34646 15.7814 4.41222 15.7763C4.66308 15.7435 4.90368 15.656 5.11695 15.5199C5.62937 15.2636 6.27006 14.9112 7.29463 15.3276C7.679 15.4877 7.9671 15.4877 8.19117 15.3276C8.57555 15.0393 8.47951 14.2705 8.35147 13.3737C8.25518 12.637 8.12688 11.8042 8.35147 11.4201C8.3766 11.3672 8.41226 11.3201 8.45631 11.2816C8.50035 11.243 8.55186 11.2139 8.60758 11.196C8.86366 11.132 9.24829 11.3561 9.63241 11.6124C10.1128 11.9328 10.6892 12.2851 11.0738 11.8687C11.4262 11.4844 11.586 11.164 11.5543 10.8116C11.522 10.3312 11.1699 9.78682 10.4331 9.17837C9.47233 8.3456 8.12714 8.60196 7.10205 9.05035C7.93482 8.24881 9.08798 7.64088 10.8496 7.64088H12.5476C12.1613 7.97004 11.9011 8.42286 11.8111 8.92229C11.7829 9.15314 11.8341 9.38673 11.9563 9.58462C12.0784 9.78251 12.2643 9.9329 12.4833 10.0111L12.5796 10.0752C13.861 10.6839 15.4943 11.4524 14.9819 12.6055C14.5975 13.4703 14.6295 14.7832 15.302 15.4879C15.4681 15.6578 15.6679 15.7912 15.8886 15.8795C16.1093 15.9678 16.3459 16.009 16.5834 16.0006C16.933 15.9904 17.2788 15.9255 17.6083 15.8083C18.6971 15.4239 21.324 14.367 21.8687 12.7975C21.9602 12.5247 21.9847 12.2339 21.9402 11.9496C21.8956 11.6653 21.7832 11.396 21.6126 11.1643C20.8438 10.0111 19.6587 9.88311 18.8579 9.81935C18.6388 9.81231 18.4224 9.76906 18.2175 9.69133C18.2214 9.65737 18.2323 9.62456 18.2495 9.59501C18.4132 9.30031 18.6181 9.03044 18.8579 8.79348C19.1783 8.47312 19.5306 8.08876 19.4663 7.64063H23.8861C24.2646 7.63405 24.6393 7.71777 24.9791 7.88486C25.3189 8.05195 25.614 8.29756 25.84 8.60141C26.4487 9.43418 26.5447 10.6193 26.1283 11.9645C25.2635 14.7829 25.0074 16.0964 25.6798 17.1212C26.1923 17.7942 26.3523 18.5947 25.7439 20.5165M10.0819 21.061C9.85779 21.6697 9.60144 22.3421 9.37738 22.8866H8.5126C9.1213 21.4131 9.60166 19.3954 9.60166 18.2103C10.1061 18.3629 10.5527 18.6643 10.8828 19.0751C10.6905 19.4915 10.4022 20.2282 10.0819 21.061ZM30.8368 15.1355C30.8014 15.1112 30.7615 15.0943 30.7193 15.086C30.6772 15.0776 30.6338 15.0779 30.5918 15.0869C30.5498 15.096 30.5102 15.1135 30.4752 15.1384C30.4402 15.1633 30.4106 15.1951 30.3884 15.2318C30.1641 15.5842 29.908 15.7122 29.6517 15.6162C28.947 15.3922 28.2425 13.8546 28.3385 11.7727C28.4018 9.91494 28.0815 8.69779 27.3774 8.12127C27.1928 7.98058 26.9796 7.88192 26.7528 7.83216C26.5261 7.7824 26.2911 7.78276 26.0645 7.8332C25.4851 7.28617 24.7148 6.98729 23.9181 7.00041H10.8834C6.91182 7.03242 5.56665 9.91512 4.86192 11.4526C4.66986 11.869 4.44554 12.3491 4.18946 12.8298C3.54901 14.1747 2.81228 15.6805 2.49218 16.7053L1.59563 15.8405C1.55374 15.8008 1.50144 15.7737 1.4448 15.7624C1.38816 15.751 1.32951 15.7559 1.27554 15.7765C1.21725 15.7928 1.16494 15.8257 1.12509 15.8712C1.08524 15.9168 1.05957 15.9729 1.0512 16.0329C1.01919 16.1929 0.859182 17.6346 1.33959 18.4031C1.35033 19.1515 1.31823 19.8999 1.24352 20.6446C1.17311 21.272 1.14107 21.9031 1.14752 22.5345C1.14868 22.6104 1.13778 22.686 1.11524 22.7585C1.05122 23.1109 0.89115 23.8156 1.91598 24.2965C2.15355 24.4199 2.41683 24.4857 2.6845 24.4886C2.92425 24.4893 3.16048 24.4313 3.37265 24.3197C3.58482 24.2081 3.76648 24.0462 3.90165 23.8481C3.99743 23.7054 4.05282 23.5394 4.06195 23.3678C4.68429 22.8161 5.2625 22.2166 5.79125 21.5747C7.04041 20.0692 7.10442 19.5885 6.46396 18.8198C6.88035 18.2753 7.71314 18.1473 8.76998 18.1473H8.9623C8.99405 19.4607 8.22555 22.503 7.36077 23.8484C7.32941 23.8959 7.31267 23.9516 7.31267 24.0086C7.31267 24.0655 7.32941 24.1212 7.36077 24.1688C7.39103 24.2179 7.43338 24.2584 7.48383 24.2865C7.53429 24.3145 7.59112 24.3291 7.64883 24.3288H9.28239C9.34421 24.3294 9.40473 24.3114 9.45616 24.2771C9.50759 24.2428 9.54752 24.1938 9.57071 24.1365C9.85906 23.5601 10.2752 22.4069 10.7236 21.3184C10.9479 20.7097 11.2043 20.1012 11.3643 19.6851C11.5842 20.0275 11.7667 20.3926 11.9087 20.7739C12.2611 21.7667 12.1968 23.5283 12.1328 24.137C12.1303 24.2317 12.1649 24.3237 12.2291 24.3933C12.2896 24.4515 12.3692 24.4857 12.4531 24.4894H13.9587C14.0014 24.492 14.0441 24.4855 14.0841 24.4703C14.1241 24.4551 14.1604 24.4316 14.1907 24.4013C14.2209 24.3711 14.2444 24.3348 14.2596 24.2948C14.2748 24.2548 14.2813 24.212 14.2787 24.1693V18.3399L14.4711 18.3719C16.0726 18.4359 17.7058 18.5002 18.6989 18.5322H18.795C19.1519 18.545 19.5086 18.5017 19.8521 18.4039C20.0173 18.5362 20.2006 18.6441 20.3964 18.7243L20.2361 19.0766C20.178 19.2076 20.1668 19.3547 20.2042 19.493C20.2643 19.6274 20.3651 19.7395 20.4925 19.8134C20.6251 19.8707 20.7743 19.8761 20.9108 19.8287C21.0472 19.7812 21.1609 19.6843 21.2293 19.557L21.4533 19.0766C21.611 19.1136 21.7721 19.135 21.934 19.1406V19.5891C21.9313 19.7033 21.9649 19.8154 22.03 19.9094C22.0822 19.979 22.1499 20.0355 22.2277 20.0744C22.3055 20.1133 22.3913 20.1336 22.4784 20.1335C22.5509 20.1324 22.6224 20.1162 22.6883 20.086C22.7543 20.0558 22.8132 20.0122 22.8614 19.958C22.9096 19.9038 22.946 19.8401 22.9683 19.7711C22.9906 19.7021 22.9982 19.6292 22.9908 19.557V19.1086C23.2047 19.0679 23.4103 18.9922 23.5995 18.8846C23.8229 19.3098 23.9436 19.7815 23.9519 20.2618C23.8558 21.0308 23.4074 22.9201 22.7347 24.0092C22.7033 24.0568 22.6866 24.1125 22.6866 24.1695C22.6866 24.2265 22.7033 24.2823 22.7347 24.3299C22.765 24.379 22.8073 24.4196 22.8578 24.4476C22.9083 24.4756 22.9651 24.4902 23.0228 24.4899H24.7526C24.8152 24.4949 24.8778 24.4786 24.9301 24.4438C24.9824 24.4089 25.0214 24.3575 25.041 24.2978C25.041 24.2658 25.7777 22.5998 26.3221 20.9348C26.3411 21.9379 26.1784 22.9363 25.8417 23.8815C25.8233 23.9285 25.8167 23.9793 25.8222 24.0296C25.8278 24.0798 25.8455 24.1279 25.8738 24.1698C25.9019 24.2114 25.9402 24.245 25.9851 24.2675C26.03 24.2899 26.08 24.3004 26.1301 24.2978H27.6996C27.7682 24.2924 27.834 24.2687 27.8903 24.2293C27.9466 24.1898 27.9914 24.136 28.02 24.0735C28.0522 23.9135 28.6924 21.6718 28.8207 20.23C28.9808 18.6285 28.2763 17.0913 27.6679 16.0662C27.0272 15.0091 26.7068 12.4468 26.9311 11.5822C27.2247 10.5052 27.0867 9.35607 26.5465 8.37916C26.7105 8.401 26.8656 8.46715 26.9949 8.57047C27.379 8.85881 27.7954 9.65929 27.7313 11.7092C27.6353 14.2395 28.5321 15.8731 29.4929 16.1934C29.6077 16.2275 29.7258 16.249 29.8453 16.2574C30.073 16.2462 30.2945 16.179 30.49 16.0617C30.6855 15.9444 30.8491 15.7807 30.9662 15.585C31.0028 15.5074 31.0099 15.4192 30.9864 15.3367C30.9628 15.2542 30.9101 15.1831 30.8381 15.1366" fill="white"/>
</svg>
