<svg width="24" height="24" viewBox="0 0 24 24" fill="none" xmlns="http://www.w3.org/2000/svg">
<path d="M16.9378 15.5771H7.65971C7.44918 15.5771 7.24728 15.4935 7.09842 15.3446C6.94956 15.1957 6.86593 14.9939 6.86593 14.7833C6.86593 14.5728 6.94956 14.3709 7.09842 14.222C7.24728 14.0732 7.44918 13.9896 7.65971 13.9896H16.9378C17.1483 13.9896 17.3502 14.0732 17.4991 14.222C17.6479 14.3709 17.7316 14.5728 17.7316 14.7833C17.7316 14.9939 17.6479 15.1957 17.4991 15.3446C17.3502 15.4935 17.1483 15.5771 16.9378 15.5771Z" fill="#B98A67"/>
<path d="M12.2987 23C12.0882 23 11.8863 22.9164 11.7375 22.7675C11.5886 22.6187 11.505 22.4168 11.505 22.2062V14.7833C11.505 14.5728 11.5886 14.3709 11.7375 14.222C11.8863 14.0732 12.0882 13.9896 12.2987 13.9896C12.5093 13.9896 12.7112 14.0732 12.86 14.222C13.0089 14.3709 13.0925 14.5728 13.0925 14.7833V22.2062C13.0925 22.4168 13.0089 22.6187 12.86 22.7675C12.7112 22.9164 12.5093 23 12.2987 23Z" fill="#B98A67"/>
<path d="M22.5056 23C22.295 23 22.0931 22.9163 21.9443 22.7675C21.7954 22.6186 21.7118 22.4167 21.7118 22.2062V12.9281C21.7118 12.7176 21.7954 12.5157 21.9443 12.3668C22.0931 12.218 22.295 12.1343 22.5056 12.1343C22.7161 12.1343 22.918 12.218 23.0668 12.3668C23.2157 12.5157 23.2993 12.7176 23.2993 12.9281V22.2062C23.2993 22.4167 23.2157 22.6186 23.0668 22.7675C22.918 22.9163 22.7161 23 22.5056 23Z" fill="#B98A67"/>
<path d="M16.9378 23C16.8336 23 16.7303 22.9795 16.634 22.9396C16.5377 22.8997 16.4502 22.8412 16.3765 22.7675C16.3028 22.6938 16.2443 22.6063 16.2044 22.51C16.1646 22.4137 16.144 22.3105 16.144 22.2063V17.701H22.5044C22.6087 17.701 22.7119 17.7216 22.8082 17.7614C22.9045 17.8013 22.992 17.8598 23.0657 17.9335C23.1394 18.0072 23.1979 18.0947 23.2378 18.191C23.2777 18.2873 23.2982 18.3906 23.2982 18.4948C23.2982 18.599 23.2777 18.7023 23.2378 18.7986C23.1979 18.8949 23.1394 18.9824 23.0657 19.0561C22.992 19.1298 22.9045 19.1883 22.8082 19.2281C22.7119 19.268 22.6087 19.2886 22.5044 19.2886H17.7316V22.2063C17.7316 22.3105 17.711 22.4137 17.6711 22.51C17.6313 22.6063 17.5728 22.6938 17.4991 22.7675C17.4254 22.8412 17.3379 22.8997 17.2416 22.9396C17.1453 22.9795 17.042 23 16.9378 23Z" fill="#B98A67"/>
<path d="M2.09309 23C1.88257 23 1.68067 22.9163 1.53181 22.7675C1.38295 22.6186 1.29932 22.4167 1.29932 22.2062V12.9281C1.29932 12.7176 1.38295 12.5157 1.53181 12.3668C1.68067 12.218 1.88257 12.1343 2.09309 12.1343C2.30361 12.1343 2.50551 12.218 2.65437 12.3668C2.80323 12.5157 2.88686 12.7176 2.88686 12.9281V22.2062C2.88686 22.4167 2.80323 22.6186 2.65437 22.7675C2.50551 22.9163 2.30361 23 2.09309 23Z" fill="#B98A67"/>
<path d="M7.65971 23C7.55547 23 7.45225 22.9795 7.35595 22.9396C7.25964 22.8997 7.17214 22.8412 7.09843 22.7675C7.02472 22.6938 6.96625 22.6063 6.92636 22.51C6.88647 22.4137 6.86594 22.3105 6.86594 22.2063V19.2886H2.09309C1.98885 19.2886 1.88563 19.268 1.78933 19.2281C1.69302 19.1883 1.60552 19.1298 1.53181 19.0561C1.4581 18.9824 1.39963 18.8949 1.35974 18.7986C1.31985 18.7023 1.29932 18.599 1.29932 18.4948C1.29932 18.3906 1.31985 18.2873 1.35974 18.191C1.39963 18.0947 1.4581 18.0072 1.53181 17.9335C1.60552 17.8598 1.69302 17.8013 1.78933 17.7614C1.88563 17.7216 1.98885 17.701 2.09309 17.701H8.45348V22.2063C8.45348 22.3105 8.43295 22.4137 8.39306 22.51C8.35317 22.6063 8.2947 22.6938 8.22099 22.7675C8.14728 22.8412 8.05978 22.8997 7.96347 22.9396C7.86717 22.9795 7.76395 23 7.65971 23Z" fill="#B98A67"/>
<path d="M10.1918 1C10.9611 1.00055 11.7062 1.26921 12.2987 1.75975C12.8913 1.26921 13.6364 1.00055 14.4056 1C14.8446 1.00103 15.279 1.08916 15.6837 1.25928C16.0884 1.42941 16.4553 1.67814 16.7631 1.99108C17.3841 2.62501 17.7319 3.47707 17.7319 4.36447C17.7319 5.25186 17.3841 6.10392 16.7631 6.73785L12.2987 11.2737L7.8366 6.73785C7.21529 6.10387 6.86728 5.25157 6.86728 4.3639C6.86728 3.47623 7.21529 2.62393 7.8366 1.98995C8.14428 1.67749 8.51085 1.42912 8.91511 1.2592C9.31938 1.08928 9.75331 1.00118 10.1918 1ZM12.2987 4.41096L11.6286 3.37338C11.4901 3.15666 11.3042 2.97416 11.0851 2.83962C10.8659 2.70507 10.619 2.62199 10.3631 2.59662C10.1073 2.57067 9.84906 2.60265 9.6074 2.69021C9.36574 2.77777 9.14691 2.91864 8.96716 3.10237C8.63913 3.44084 8.4557 3.89369 8.4557 4.36503C8.4557 4.83638 8.63913 5.28922 8.96716 5.6277L12.2965 9.01258L15.6303 5.62656C15.958 5.28814 16.1412 4.83554 16.1412 4.36447C16.1412 3.89339 15.958 3.44079 15.6303 3.10237C15.45 2.92009 15.2314 2.78023 14.9904 2.69295C14.7493 2.60567 14.4919 2.57315 14.2367 2.59775C13.9807 2.62313 13.7339 2.70621 13.5147 2.84075C13.2955 2.97529 13.1097 3.15779 12.9712 3.37452L12.2987 4.41096Z" fill="#B98A67"/>
</svg>
