<svg width="32" height="32" viewBox="0 0 32 32" fill="none" xmlns="http://www.w3.org/2000/svg">
<path fill-rule="evenodd" clip-rule="evenodd" d="M18.8146 18.1781L18.9866 18.2009L18.8533 18.3538C18.8265 18.3844 18.7926 18.4255 18.7578 18.4603L18.7571 18.461C18.1878 19.0205 17.6187 19.5846 17.048 20.1431C16.5319 20.6538 15.9589 21.1039 15.3405 21.4844L15.3403 21.4841C14.7543 21.8525 14.1047 22.1086 13.4249 22.2389H13.4244C12.6904 22.3759 11.9315 22.2629 11.2693 21.9178C10.302 21.426 9.55194 20.592 9.16527 19.5781L9.16591 19.5779C9.14974 19.5387 9.14662 19.4954 9.15825 19.4545L9.24778 19.1402L9.36453 19.4454C9.53763 19.8972 9.78695 20.3128 10.0989 20.6754C9.8717 20.3162 9.68127 19.9338 9.53211 19.5336L9.49766 19.4411L9.58655 19.3977L9.61122 19.3858L9.71202 19.3367L9.75817 19.439C9.81527 19.5657 9.87045 19.6913 9.92809 19.8152L9.98657 19.9385L9.98784 19.9409C10.2232 20.455 10.5397 20.928 10.925 21.3417L10.9631 21.3797C11.156 21.5664 11.3893 21.7066 11.6451 21.7893C11.8154 21.8444 11.9925 21.8729 12.1702 21.8746C12.1736 21.8745 12.1772 21.8746 12.1806 21.8746C12.2583 21.8749 12.3362 21.8702 12.4137 21.8601L12.4938 21.8478C13.4714 21.7019 14.4107 21.3643 15.2574 20.8542L15.2587 20.8534L15.2601 20.8525C16.3398 20.2443 17.32 19.4743 18.1666 18.5694L18.1672 18.5688C18.2775 18.4529 18.3785 18.3347 18.4905 18.2119L18.5064 18.1943L18.5285 18.1851L18.5738 18.1658L18.9343 18.0133L18.8146 18.1781ZM16.2226 20.5514C15.7489 20.8693 15.2526 21.1548 14.7368 21.4046L14.7366 21.4044C14.125 21.7169 13.4695 21.9343 12.7928 22.0488C13.5273 22.0517 14.2115 21.81 14.878 21.4593C15.3542 21.1992 15.8042 20.8949 16.2226 20.5514Z" fill="white"/>
<path fill-rule="evenodd" clip-rule="evenodd" d="M24.3136 11.5061C24.3609 11.5096 24.4051 11.5313 24.4371 11.5665C24.563 11.6884 24.685 11.813 24.8152 11.928C24.8621 11.9646 24.9171 11.9895 24.9756 12.0005C25.0214 12.0071 25.0679 12.0075 25.1138 12.0018C25.1627 11.9973 25.2117 12.0089 25.2535 12.0348C25.2953 12.0607 25.3275 12.0995 25.3452 12.1453C25.3676 12.1911 25.3737 12.2431 25.3622 12.2927C25.3507 12.3424 25.3223 12.3867 25.282 12.418C25.1941 12.4849 25.0968 12.5384 24.9932 12.5768C24.5869 12.733 24.1699 12.8713 23.7672 13.0385C23.2153 13.289 22.686 13.5869 22.1855 13.9287C21.7749 14.1925 21.3416 14.4194 20.891 14.6067C20.732 14.672 20.5803 14.7519 20.424 14.8257C20.4002 14.8367 20.3816 14.8563 20.3719 14.8806C20.5555 14.8566 20.7389 14.837 20.9218 14.8106C21.4285 14.7381 21.9341 14.6555 22.4421 14.5946C22.6172 14.582 22.7933 14.5892 22.9668 14.6163C23.2782 14.6662 23.5946 14.6786 23.9091 14.6533C24.0836 14.6414 24.2588 14.6599 24.4269 14.7081C24.808 14.7826 25.2032 14.7165 25.5391 14.5218C25.7159 14.4273 25.8909 14.3285 26.0635 14.2273C26.5073 13.981 27.0065 13.8516 27.5141 13.8509C28.1307 13.8505 28.7451 13.9254 29.3434 14.0744C29.6723 14.1437 30.0048 14.1947 30.3393 14.2269C30.5553 14.2474 30.7715 14.1901 30.949 14.0652C31.1822 13.9181 31.3713 13.7108 31.4968 13.4653C31.5379 13.3939 31.5934 13.3318 31.6599 13.2831C31.6959 13.2494 31.7436 13.2309 31.7928 13.2314C31.842 13.232 31.8891 13.2515 31.9243 13.2858C31.9434 13.2979 31.9599 13.314 31.9725 13.3328C31.9851 13.3517 31.9938 13.3729 31.9976 13.3952C32.0015 13.4175 32.0006 13.4404 31.9951 13.4624C31.9896 13.4843 31.9795 13.5049 31.9655 13.5227C31.8712 13.6829 31.7589 13.8318 31.6308 13.9666C31.4257 14.1561 31.2064 14.3299 30.9747 14.4859C30.8197 14.5838 30.6454 14.6473 30.4637 14.6724C30.2821 14.6974 30.0972 14.6834 29.9214 14.6311C29.5367 14.549 29.1503 14.4678 28.7601 14.4215C28.2405 14.3498 27.7121 14.3748 27.2015 14.4948C27.022 14.5448 26.8487 14.615 26.6851 14.7043C26.0205 15.0482 25.2881 15.2409 24.5402 15.2687C23.6679 15.3057 22.7939 15.3453 21.92 15.381C21.1797 15.4198 20.4432 15.5124 19.7162 15.6579C19.2067 15.7535 18.6903 15.8139 18.1766 15.8905C18.1337 15.8949 18.0915 15.9041 18.0507 15.918C17.5357 16.1015 17.0194 16.2883 16.5046 16.4728C16.4829 16.4811 16.4611 16.4932 16.4393 16.5028C16.742 16.4823 17.0421 16.4506 17.3404 16.443C17.8093 16.4575 18.2759 16.5153 18.7342 16.6157C19.1368 16.6803 19.5429 16.7207 19.9504 16.7363C20.4658 16.7545 20.9819 16.7454 21.4964 16.7088C22.0772 16.6635 22.6548 16.5706 23.2332 16.4911C23.754 16.3914 24.2835 16.3441 24.8137 16.3499C25.2278 16.3889 25.6375 16.4669 26.037 16.5827C26.2916 16.6562 26.5505 16.7143 26.8121 16.7569C27.0115 16.7698 27.2117 16.7613 27.4093 16.7318C27.7161 16.7044 28.0203 16.6581 28.3269 16.6374C28.4946 16.6224 28.663 16.6552 28.8128 16.732C28.9626 16.8089 29.0876 16.9267 29.1733 17.0716C29.1957 17.1285 29.2087 17.1886 29.2116 17.2496C29.1402 17.2529 29.0687 17.2493 28.9981 17.2388C28.9569 17.2305 28.9242 17.1855 28.8892 17.1552C28.8426 17.1182 28.7959 17.0974 28.7467 17.1497C28.6975 17.2019 28.6742 17.2662 28.7301 17.3209C28.7848 17.372 28.8468 17.4149 28.9138 17.4483C29.0094 17.4977 29.1111 17.5333 29.2082 17.5812C29.2356 17.5949 29.2752 17.6306 29.2734 17.6528C29.2721 17.6789 29.2337 17.7123 29.2037 17.7226C29.0997 17.7596 28.9922 17.7862 28.883 17.8019C28.2238 17.8785 27.5564 17.7639 26.9605 17.4717C26.518 17.2627 26.0361 17.1504 25.5468 17.1427C24.9153 17.1222 24.2852 17.1187 23.6539 17.1235C22.8978 17.1323 22.1437 17.2039 21.3995 17.3373C20.9424 17.4078 20.4788 17.4277 20.0174 17.3968C19.405 17.3667 18.7929 17.342 18.1821 17.3037C17.9789 17.2917 17.7779 17.2447 17.5754 17.2201C17.0431 17.1586 16.5038 17.2085 15.9919 17.3666C15.4475 17.5323 14.9154 17.7369 14.3806 17.9365C13.6637 18.2194 12.9204 18.43 12.1617 18.5652C11.5661 18.6575 10.9622 18.685 10.3606 18.6472C9.65232 18.616 8.94772 18.5267 8.25402 18.3801C7.8664 18.2911 7.48821 18.1664 7.10756 18.0486C7.05332 18.0279 6.99488 18.0207 6.93722 18.0273C6.87956 18.034 6.82433 18.0544 6.77624 18.0869C6.41427 18.3201 6.02276 18.5041 5.61213 18.6336C4.48759 18.9938 3.40292 19.4582 2.31779 19.9196C2.02472 20.0441 1.72754 20.1607 1.43185 20.2811C1.35708 20.3084 1.27631 20.3156 1.19792 20.3018C1.1196 20.2879 1.04632 20.2537 0.985472 20.2024C0.958094 20.1879 0.934338 20.1671 0.916144 20.142C0.897977 20.117 0.885712 20.0881 0.880417 20.0576C0.875122 20.0271 0.876844 19.9957 0.885521 19.966C0.894203 19.9362 0.909717 19.9089 0.930605 19.886C0.975924 19.8347 1.0013 19.7688 1.00206 19.7003C1.0028 19.632 0.978784 19.5656 0.934646 19.5134C0.901763 19.4614 0.869374 19.4092 0.8415 19.3558C0.834014 19.3452 0.829418 19.3328 0.828315 19.3199C0.827217 19.307 0.829547 19.294 0.83512 19.2823C0.840708 19.2705 0.849467 19.2604 0.860214 19.2531C0.870941 19.2459 0.883442 19.2417 0.896367 19.2408C1.31039 19.1359 1.7083 18.9754 2.0794 18.764C2.83156 18.3938 3.57666 18.0079 4.32446 17.6286C4.35056 17.6149 4.37514 17.597 4.40102 17.582L4.39549 17.5518L4.18794 17.5531C3.3136 17.5911 2.44768 17.7411 1.61155 17.9995C1.21851 18.1049 0.814282 18.1721 0.413839 18.246C0.303939 18.2574 0.192917 18.255 0.0835758 18.2391C0.0535561 18.2363 0.0274123 18.2009 0 18.1802C0.0204699 18.1528 0.0344511 18.1149 0.0616717 18.1009C0.236935 18.0119 0.410019 17.9187 0.592899 17.8449C2.1364 17.2315 3.78956 16.9416 5.44966 16.9932C5.55219 16.9898 5.65357 16.9698 5.74972 16.934C6.01907 16.8406 6.28479 16.7317 6.55741 16.6446C6.68795 16.6142 6.82073 16.5944 6.95445 16.5851L6.96125 16.5551C6.9214 16.5346 6.88326 16.5138 6.84471 16.4896C6.31048 16.1962 5.80966 15.8457 5.35098 15.4444C5.22296 15.3093 5.10441 15.1656 4.99626 15.0141C4.93246 14.9277 4.86425 14.8443 4.79211 14.7647C4.67232 14.6337 4.51371 14.5446 4.33956 14.5103C4.16536 14.4761 3.98457 14.4985 3.82407 14.5744C3.75446 14.607 3.69198 14.6533 3.64033 14.7102C3.58868 14.7673 3.54886 14.834 3.52316 14.9065C3.44934 15.0738 3.37673 15.2413 3.29051 15.4025C3.25062 15.4852 3.1944 15.5589 3.12548 15.6196C3.05655 15.6803 2.97611 15.7264 2.889 15.7555C2.85247 15.7621 2.81521 15.764 2.77821 15.761C2.77674 15.7241 2.7819 15.6872 2.7933 15.6521C2.88497 15.474 2.9823 15.299 3.07636 15.1209C3.10743 15.0685 3.134 15.0133 3.15568 14.9563C3.30225 14.5289 3.65823 14.3373 4.03992 14.1882C4.15653 14.1593 4.2781 14.1565 4.39592 14.1799C4.49093 14.1985 4.58444 14.2244 4.67536 14.2577C4.93722 14.327 5.16661 14.4861 5.32333 14.7071C5.62098 15.0715 5.97845 15.3827 6.38047 15.6272C6.7959 15.9029 7.23839 16.1357 7.70089 16.3218C7.79255 16.3621 7.89573 16.368 7.99138 16.3384C9.25557 15.9939 10.5206 15.6504 11.7865 15.308C11.9838 15.2547 12.1837 15.2069 12.3782 15.1492C12.7346 15.0647 13.1042 15.0515 13.4657 15.1107C13.9369 15.156 14.4067 15.2063 14.8793 15.2285C15.3832 15.2503 15.8902 15.2645 16.394 15.2423C17.1126 15.2094 17.8293 15.1286 18.5485 15.0916C18.8161 15.071 19.0719 14.9735 19.2854 14.8108C19.7688 14.4781 20.2565 14.148 20.7498 13.8275C20.9225 13.7151 21.1183 13.6371 21.3018 13.5406C21.5936 13.3882 21.8874 13.238 22.1729 13.0747C22.6331 12.832 23.0689 12.5458 23.4744 12.22C23.6456 12.0734 23.7971 11.9021 23.9578 11.7445C24.0277 11.6734 24.1028 11.6075 24.1823 11.5473C24.2192 11.5174 24.2662 11.5025 24.3136 11.5061ZM15.7644 16.6701C15.5577 16.7113 15.3563 16.7607 15.1523 16.7907C14.5578 16.8798 13.962 16.9675 13.3666 17.0455C12.8736 17.1108 12.3804 17.1888 11.8848 17.2152C10.9894 17.2579 10.092 17.2127 9.20546 17.0801C9.0712 17.046 8.93125 17.0395 8.79439 17.061C8.49717 17.1481 8.20892 17.2719 7.9178 17.3838C7.87747 17.4028 7.83811 17.4239 7.79999 17.447L7.81849 17.4678C7.82237 17.4726 7.82482 17.4752 7.82763 17.4765C7.87421 17.4957 7.92077 17.5136 7.96735 17.5314C8.68876 17.8242 9.45106 18.004 10.2273 18.0643C10.86 18.1107 11.4955 18.107 12.1276 18.0533C12.8976 17.9941 13.648 17.7814 14.3344 17.4276C14.8056 17.1783 15.2807 16.9377 15.7548 16.692L15.7644 16.6701ZM16.7824 16.0249C16.3164 16.0511 15.8524 16.077 15.3886 16.1057C14.7771 16.1319 14.1646 16.1204 13.5546 16.0713C13.1654 16.0289 12.7719 16.0452 12.3875 16.1193C11.5193 16.3247 10.6541 16.541 9.78964 16.7535C9.75558 16.7636 9.72252 16.7771 9.69097 16.7935C9.7269 16.8085 9.73897 16.8181 9.75073 16.8181C10.2616 16.8153 10.7742 16.8276 11.2849 16.8071C11.5943 16.7951 11.9024 16.7279 12.2121 16.6948C12.66 16.6454 13.109 16.6016 13.5569 16.5579C14.0528 16.5084 14.5474 16.4623 15.043 16.4126C15.5785 16.3698 16.1087 16.2758 16.6263 16.1319C16.7134 16.1058 16.8006 16.0741 16.8866 16.0447L16.8823 16.0236C16.8495 16.0236 16.8152 16.0223 16.7824 16.0249Z" fill="white"/>
<path fill-rule="evenodd" clip-rule="evenodd" d="M10.7619 10.1816C11.5565 9.96941 12.3893 9.94276 13.1958 10.1038H13.1963C14.0367 10.2744 14.857 10.5321 15.644 10.8728C16.5429 11.2232 17.4135 11.6422 18.2482 12.126C18.695 12.3817 19.1061 12.6952 19.471 13.0579L19.5436 13.131L19.5453 13.1329C19.5732 13.1632 19.6001 13.1939 19.6261 13.2246L19.7018 13.3156L19.7082 13.3235L19.7131 13.3322C19.7247 13.3533 19.7341 13.3756 19.7411 13.3986L19.8149 13.641L19.6148 13.5408L19.5601 13.5993L19.5412 13.6195L19.481 13.6839L19.4055 13.6384C19.3838 13.6253 19.3635 13.6097 19.3451 13.5921L19.3411 13.5882L19.3375 13.5838C18.8287 12.9818 18.2132 12.4788 17.522 12.0998L17.5214 12.0994C16.4434 11.4973 15.2796 11.0633 14.0705 10.8126L14.0684 10.8122L14.0663 10.8115C13.3411 10.6309 12.5954 10.5459 11.8482 10.5587H11.8463C11.2361 10.5583 10.6383 10.7321 10.1235 11.0595C9.67777 11.3721 9.33259 11.8079 9.13018 12.3133L9.12954 12.3153C8.9028 12.8539 8.76451 13.4257 8.72038 14.0085V14.0102C8.68464 14.4002 8.66864 14.7879 8.64383 15.1796L8.62086 15.5424L8.49071 15.3142C8.48412 15.3204 8.47722 15.3262 8.46966 15.3312L8.31824 15.4318L8.30102 15.2508C8.28663 15.1001 8.26368 14.9349 8.257 14.7738L8.25721 14.7736C8.20654 14.0146 8.28143 13.2524 8.47901 12.5177L8.47923 12.5166C8.61435 12.0322 8.84156 11.5783 9.14847 11.1799L9.15102 11.1769C9.56465 10.6778 10.1305 10.3281 10.7619 10.1816ZM13.5708 10.4353C12.9869 10.2856 12.3836 10.2257 11.7816 10.2571C11.2109 10.2851 10.6517 10.4301 10.1393 10.6829L10.139 10.6827C9.44603 11.0341 9.04569 11.6391 8.78695 12.3691C8.64383 12.7726 8.55439 13.1928 8.52027 13.6187C8.57204 13.2986 8.64304 12.9815 8.73336 12.6691C8.87155 12.1962 9.10167 11.7547 9.41047 11.3708L9.41196 11.3691C9.84338 10.8562 10.4418 10.5115 11.102 10.3956C11.7063 10.2835 12.3252 10.2723 12.9332 10.3624L12.933 10.3626C13.2335 10.4012 13.5324 10.4498 13.8294 10.5076C13.7433 10.483 13.6572 10.4586 13.5708 10.4353Z" fill="white"/>
</svg>
