<svg width="24" height="24" viewBox="0 0 24 24" fill="none" xmlns="http://www.w3.org/2000/svg">
<path d="M12.0017 14.1844C12.331 14.1844 12.6528 14.2821 12.9266 14.465C13.2003 14.6479 13.4137 14.9079 13.5397 15.2121C13.6657 15.5163 13.6987 15.851 13.6344 16.1739C13.5702 16.4969 13.4116 16.7935 13.1788 17.0263C12.946 17.2591 12.6494 17.4177 12.3265 17.4819C12.0035 17.5461 11.6688 17.5132 11.3646 17.3872C11.0605 17.2612 10.8005 17.0478 10.6175 16.774C10.4346 16.5003 10.337 16.1784 10.337 15.8492C10.3375 15.4078 10.5131 14.9847 10.8252 14.6726C11.1373 14.3606 11.5604 14.185 12.0017 14.1844ZM12.0017 16.0481C12.041 16.0481 12.0795 16.0364 12.1122 16.0146C12.1449 15.9927 12.1704 15.9616 12.1855 15.9253C12.2005 15.8889 12.2045 15.8489 12.1968 15.8104C12.1891 15.7718 12.1702 15.7363 12.1424 15.7085C12.1145 15.6807 12.0791 15.6617 12.0405 15.6541C12.0019 15.6464 11.9619 15.6503 11.9256 15.6654C11.8892 15.6804 11.8582 15.7059 11.8363 15.7386C11.8144 15.7714 11.8028 15.8098 11.8028 15.8492C11.8028 15.8753 11.8079 15.9012 11.8179 15.9253C11.8279 15.9494 11.8426 15.9714 11.861 15.9898C11.8795 16.0083 11.9014 16.0229 11.9256 16.0329C11.9497 16.0429 11.9756 16.0481 12.0017 16.0481Z" fill="#B98A67"/>
<path d="M8.74033 12.8559C8.29917 12.8554 7.86898 12.7183 7.50899 12.4633C7.14899 12.2083 6.87688 11.848 6.73011 11.432L6.48721 10.7409L7.87028 10.2541L8.11318 10.9451C8.15843 11.0757 8.24325 11.1889 8.35583 11.2691C8.46842 11.3492 8.60318 11.3923 8.74138 11.3923C8.87957 11.3923 9.01434 11.3492 9.12692 11.2691C9.23951 11.1889 9.32432 11.0757 9.36957 10.9451L9.61247 10.2541L10.9955 10.7409L10.7526 11.432C10.6058 11.8483 10.3333 12.2089 9.97292 12.4639C9.6125 12.7189 9.18185 12.8559 8.74033 12.8559Z" fill="#B98A67"/>
<path d="M15.2641 12.8559C14.823 12.8554 14.3928 12.7183 14.0328 12.4633C13.6728 12.2083 13.4007 11.848 13.2539 11.432L13.011 10.7409L14.3941 10.2541L14.637 10.9451C14.6822 11.0757 14.767 11.1889 14.8796 11.2691C14.9922 11.3492 15.127 11.3923 15.2652 11.3923C15.4034 11.3923 15.5381 11.3492 15.6507 11.2691C15.7633 11.1889 15.8481 11.0757 15.8934 10.9451L16.1363 10.2541L17.5193 10.7409L17.2764 11.432C17.1295 11.8483 16.8571 12.2089 16.4967 12.4639C16.1363 12.7189 15.7056 12.8559 15.2641 12.8559Z" fill="#B98A67"/>
<path d="M12.0017 3.00997C13.7961 3.01066 15.5504 3.54084 17.0448 4.53407C18.5392 5.5273 19.7073 6.93943 20.4027 8.59356C21.0412 8.59412 21.6571 8.82979 22.1328 9.25557C22.6085 9.68136 22.9108 10.2674 22.9819 10.9019C23.053 11.5364 22.8879 12.1748 22.5182 12.6953C22.1485 13.2158 21.6 13.582 20.9775 13.7238C20.5966 15.8267 19.4894 17.7291 17.849 19.0991C16.2087 20.469 14.1394 21.2194 12.0022 21.2194C9.86508 21.2194 7.79578 20.469 6.15543 19.0991C4.51508 17.7291 3.40784 15.8267 3.02692 13.7238C2.40267 13.5839 1.85203 13.2186 1.48058 12.6977C1.10914 12.1769 0.943039 11.5373 1.01414 10.9015C1.08524 10.2657 1.38854 9.6786 1.86586 9.25269C2.34319 8.82677 2.96095 8.59206 3.60067 8.59356C4.29613 6.93943 5.46422 5.5273 6.95864 4.53407C8.45305 3.54084 10.2073 3.01066 12.0017 3.00997ZM19.4552 10.2792L19.2312 9.63008C18.7143 8.1235 17.7397 6.81603 16.4436 5.89037C15.1474 4.96471 13.5945 4.46711 12.0017 4.46711C10.4089 4.46711 8.85598 4.96471 7.55983 5.89037C6.26367 6.81603 5.28908 8.1235 4.77225 9.63008L4.54924 10.2782L3.88755 10.0981C3.73294 10.0567 3.57131 10.0485 3.41333 10.0742C3.25535 10.0999 3.10463 10.1588 2.97113 10.2471C2.83762 10.3354 2.72439 10.451 2.6389 10.5864C2.55342 10.7217 2.49763 10.8736 2.47524 11.0321C2.45284 11.1906 2.46435 11.352 2.50899 11.5057C2.55364 11.6594 2.6304 11.8019 2.73421 11.9237C2.83802 12.0455 2.96652 12.1439 3.11119 12.2124C3.25586 12.2808 3.41342 12.3178 3.57345 12.3208H3.62999L4.31681 12.2863L4.39429 12.97C4.60818 14.8373 5.50152 16.5607 6.90414 17.8118C8.30675 19.0629 10.1206 19.7544 12.0001 19.7544C13.8797 19.7544 15.6935 19.0629 17.0961 17.8118C18.4987 16.5607 19.3921 14.8373 19.606 12.97L19.6803 12.3198H20.3347C20.365 12.3181 20.3954 12.3181 20.4258 12.3198C20.7257 12.3153 21.0115 12.192 21.2204 11.9768C21.4293 11.7616 21.5442 11.4722 21.5398 11.1723C21.5353 10.8724 21.4119 10.5866 21.1967 10.3776C20.9815 10.1687 20.6922 10.0539 20.3923 10.0583C20.2988 10.0599 20.206 10.0733 20.1159 10.0981L19.4552 10.2792Z" fill="#B98A67"/>
<path d="M12.0038 8.19254C11.6585 8.19947 11.3153 8.13745 10.9943 8.01011C10.6732 7.88276 10.3808 7.69265 10.1342 7.4509C9.88752 7.20915 9.69157 6.92062 9.5578 6.60221C9.42404 6.2838 9.35513 5.9419 9.35513 5.59653C9.35513 5.25116 9.42404 4.90926 9.5578 4.59085C9.69157 4.27244 9.88752 3.98391 10.1342 3.74216C10.3808 3.50042 10.6732 3.3103 10.9943 3.18296C11.3153 3.05561 11.6585 2.99359 12.0038 3.00052V4.46631C11.8305 4.4665 11.6595 4.50654 11.5041 4.58332C11.3487 4.66011 11.2131 4.7716 11.1076 4.90916C11.0022 5.04672 10.9298 5.20669 10.896 5.37669C10.8622 5.5467 10.868 5.72219 10.9128 5.88962C10.9577 6.05705 11.0404 6.21192 11.1546 6.34228C11.2689 6.47264 11.4115 6.57499 11.5716 6.64143C11.7317 6.70787 11.9049 6.73662 12.0779 6.72545C12.2509 6.71429 12.419 6.66351 12.5692 6.57704L13.3021 7.84599C12.9073 8.0737 12.4595 8.19324 12.0038 8.19254Z" fill="#B98A67"/>
</svg>
