<svg width="24" height="24" viewBox="0 0 24 24" fill="none" xmlns="http://www.w3.org/2000/svg">
<g clip-path="url(#clip0_145_24992)">
<path d="M22.5391 21.7012C22.9803 21.7227 23.3204 22.0978 23.2988 22.5391C23.2772 22.9803 22.9022 23.3204 22.4609 23.2988L1.96094 22.2988C1.51979 22.2771 1.17966 21.9021 1.20117 21.4609C1.22274 21.0198 1.59789 20.6798 2.03906 20.7012L22.5391 21.7012ZM15.1289 14.7041C15.1995 14.7079 15.2971 14.7151 15.4121 14.7295C15.6382 14.7578 15.9543 14.8159 16.2812 14.9385C16.605 15.0599 16.9828 15.2614 17.2852 15.6016C17.6023 15.9584 17.7998 16.4283 17.7998 17C17.7998 17.8306 17.6629 18.6437 17.5312 19.2363C17.4648 19.5354 17.3981 19.7853 17.3477 19.9619C17.3224 20.0502 17.3005 20.1205 17.2852 20.1699C17.2775 20.1946 17.2711 20.2146 17.2666 20.2285C17.2644 20.2353 17.2631 20.2411 17.2617 20.2451C17.2611 20.2471 17.2602 20.2487 17.2598 20.25V20.252L17.2588 20.2529C17.119 20.672 16.6662 20.8985 16.2471 20.7588C15.8281 20.619 15.6016 20.1661 15.7412 19.7471V19.7461C15.7418 19.7444 15.7428 19.7415 15.7441 19.7373C15.747 19.7285 15.7519 19.7144 15.7578 19.6953C15.7698 19.6569 15.787 19.598 15.8086 19.5225C15.8519 19.371 15.9103 19.1519 15.9688 18.8887C16.087 18.3563 16.2002 17.6693 16.2002 17C16.2002 16.8217 16.1477 16.7291 16.0898 16.6641C16.0173 16.5825 15.8948 16.5025 15.7188 16.4365C15.5461 16.3718 15.3616 16.336 15.2129 16.3174C15.1408 16.3084 15.0816 16.3038 15.043 16.3018C15.0243 16.3008 15.0105 16.3 15.0029 16.2998H14.999C14.9991 16.2998 14.999 16.3 14.999 16.2988C14.5577 16.2982 14.2002 15.9414 14.2002 15.5C14.2002 15.0582 14.5583 14.7003 15 14.7002V15.1123L15.001 14.7002H15.042C15.0637 14.7007 15.0936 14.7022 15.1289 14.7041ZM4.08789 4.70508H4.09277C4.09526 4.70536 4.09899 4.70649 4.10352 4.70703C4.11274 4.70808 4.12635 4.70893 4.14355 4.71094C4.17851 4.71502 4.22985 4.72148 4.29492 4.72949C4.42526 4.74553 4.61301 4.76896 4.84375 4.80078C5.3049 4.86439 5.94211 4.96036 6.64355 5.08789C8.01418 5.33711 9.74343 5.72734 10.8574 6.28418C11.3461 6.5285 11.8061 6.74337 12.2432 6.94629C12.6763 7.14737 13.0948 7.34039 13.4824 7.53418C14.2559 7.9209 14.9733 8.34251 15.5654 8.93457L15.5771 8.94629C15.5791 8.94824 15.582 8.95018 15.584 8.95215L15.5957 8.96387C15.5977 8.96586 15.5996 8.96866 15.6016 8.9707C15.6036 8.97273 15.6063 8.97453 15.6084 8.97656C15.6104 8.97859 15.6122 8.98134 15.6143 8.9834C15.6163 8.98542 15.619 8.98723 15.6211 8.98926C15.6231 8.99129 15.6249 8.99402 15.627 8.99609C15.629 8.99816 15.6317 8.99989 15.6338 9.00195C15.6359 9.00402 15.6376 9.00669 15.6396 9.00879C15.6418 9.01093 15.6443 9.01346 15.6465 9.01562C15.6486 9.0177 15.6512 9.01941 15.6533 9.02148L15.6738 9.04199C15.6759 9.04406 15.6776 9.04673 15.6797 9.04883C15.6819 9.05107 15.6852 9.0534 15.6875 9.05566L15.708 9.07617C15.7103 9.07849 15.7125 9.08163 15.7148 9.08398C15.7172 9.0863 15.7203 9.0885 15.7227 9.09082C15.7249 9.09305 15.7272 9.09541 15.7295 9.09766C15.7319 9.10002 15.734 9.10307 15.7363 9.10547C15.7387 9.10785 15.7417 9.10992 15.7441 9.1123C15.7465 9.11469 15.7486 9.1177 15.751 9.12012C15.7534 9.12251 15.7564 9.12456 15.7588 9.12695C15.7612 9.12934 15.7632 9.13235 15.7656 9.13477C15.7681 9.13721 15.771 9.1401 15.7734 9.14258C15.7758 9.14497 15.7788 9.14702 15.7812 9.14941L15.7891 9.15723C15.7915 9.15962 15.7935 9.16261 15.7959 9.16504L15.8506 9.21973C15.8532 9.22235 15.8567 9.22491 15.8594 9.22754C15.8619 9.2301 15.8646 9.23278 15.8672 9.23535C15.8698 9.23801 15.8723 9.24145 15.875 9.24414C15.8776 9.2467 15.8802 9.24938 15.8828 9.25195C15.8855 9.25463 15.8889 9.25709 15.8916 9.25977C15.8943 9.26247 15.8967 9.26583 15.8994 9.26855C15.9021 9.27126 15.9055 9.27366 15.9082 9.27637C15.9109 9.27908 15.9133 9.28242 15.916 9.28516C15.9187 9.28788 15.9221 9.29025 15.9248 9.29297C15.9275 9.29569 15.9299 9.29901 15.9326 9.30176C15.9354 9.30453 15.9386 9.30775 15.9414 9.31055C15.9441 9.31326 15.9475 9.31564 15.9502 9.31836C15.9529 9.32108 15.9553 9.3244 15.958 9.32715L15.9756 9.34473C15.9783 9.34745 15.9816 9.34982 15.9844 9.35254L16.0283 9.39648C16.0312 9.39941 16.0342 9.40329 16.0371 9.40625L16.0547 9.42383C16.0577 9.4268 16.0615 9.42964 16.0645 9.43262C16.0673 9.4355 16.0703 9.43851 16.0732 9.44141C16.0762 9.44438 16.0791 9.44817 16.082 9.45117C16.085 9.45418 16.0888 9.45695 16.0918 9.45996C16.0948 9.46296 16.0976 9.4667 16.1006 9.46973C16.1036 9.47271 16.1073 9.47553 16.1104 9.47852C16.1133 9.4815 16.1162 9.48527 16.1191 9.48828C16.1221 9.49127 16.1259 9.49408 16.1289 9.49707C16.1319 9.50008 16.1347 9.5038 16.1377 9.50684C16.1407 9.50988 16.1444 9.51258 16.1475 9.51562C16.1505 9.51867 16.1532 9.52232 16.1562 9.52539L16.166 9.53516C16.1691 9.53821 16.1727 9.5409 16.1758 9.54395C16.1789 9.54708 16.1824 9.55056 16.1855 9.55371C16.1886 9.55676 16.1913 9.5604 16.1943 9.56348C16.1975 9.56663 16.2009 9.57007 16.2041 9.57324C16.2072 9.57629 16.2108 9.57898 16.2139 9.58203L16.2725 9.64062C16.2757 9.64387 16.279 9.64809 16.2822 9.65137L16.3018 9.6709C16.305 9.67418 16.3092 9.67738 16.3125 9.68066C16.3157 9.68388 16.319 9.68721 16.3223 9.69043C16.3256 9.69373 16.3287 9.69784 16.332 9.70117C16.3352 9.70439 16.3386 9.70771 16.3418 9.71094C16.3451 9.71426 16.3492 9.71737 16.3525 9.7207C16.3559 9.72404 16.359 9.72809 16.3623 9.73145C16.3656 9.73475 16.3697 9.7379 16.373 9.74121C16.3763 9.74442 16.3796 9.74775 16.3828 9.75098C16.3861 9.75428 16.3893 9.75839 16.3926 9.76172C16.3959 9.76503 16.4 9.76817 16.4033 9.77148C16.4066 9.7748 16.4098 9.77889 16.4131 9.78223C16.4165 9.78562 16.4204 9.78955 16.4238 9.79297C16.4272 9.79631 16.4312 9.79939 16.4346 9.80273C16.4379 9.80611 16.441 9.81008 16.4443 9.81348C16.4477 9.81685 16.4517 9.81987 16.4551 9.82324C16.4585 9.82668 16.4624 9.83053 16.4658 9.83398C16.4692 9.83736 16.4722 9.84133 16.4756 9.84473L16.4863 9.85547C16.4897 9.85885 16.4937 9.86186 16.4971 9.86523C16.5005 9.86871 16.5043 9.87249 16.5078 9.87598C16.5112 9.87935 16.5142 9.88332 16.5176 9.88672L16.5605 9.92969C16.5639 9.93306 16.5679 9.93608 16.5713 9.93945L16.5928 9.96094C16.5963 9.96449 16.6 9.96908 16.6035 9.97266L16.6465 10.0156C16.6501 10.0192 16.6546 10.0228 16.6582 10.0264C16.6617 10.0299 16.6654 10.0336 16.6689 10.0371C16.6726 10.0407 16.6761 10.0452 16.6797 10.0488L16.6904 10.0596C16.6941 10.0632 16.6985 10.0667 16.7021 10.0703C16.7057 10.0739 16.7093 10.0775 16.7129 10.0811C16.7165 10.0847 16.72 10.0891 16.7236 10.0928C16.7272 10.0963 16.7308 10.1 16.7344 10.1035C16.738 10.1072 16.7424 10.1106 16.7461 10.1143C16.7498 10.1179 16.7532 10.1223 16.7568 10.126C16.7605 10.1296 16.7649 10.1331 16.7686 10.1367C16.7721 10.1403 16.7758 10.1439 16.7793 10.1475C16.7829 10.1511 16.7864 10.1555 16.79 10.1592C16.7937 10.1628 16.7981 10.1663 16.8018 10.1699C16.8054 10.1736 16.8088 10.178 16.8125 10.1816C16.8162 10.1853 16.8205 10.1887 16.8242 10.1924C16.8279 10.1961 16.8313 10.2004 16.835 10.2041C16.8386 10.2078 16.843 10.2112 16.8467 10.2148C16.8503 10.2185 16.8538 10.2229 16.8574 10.2266C16.8612 10.2303 16.8654 10.2345 16.8691 10.2383C16.8728 10.242 16.8772 10.2454 16.8809 10.249C16.8846 10.2527 16.8879 10.257 16.8916 10.2607C16.8953 10.2644 16.8996 10.2678 16.9033 10.2715C16.9071 10.2752 16.9113 10.2794 16.915 10.2832C16.9187 10.2869 16.9221 10.2912 16.9258 10.2949C16.9295 10.2986 16.9338 10.302 16.9375 10.3057C16.9413 10.3094 16.9454 10.3136 16.9492 10.3174C16.9529 10.3211 16.9563 10.3254 16.96 10.3291L16.9717 10.3408C16.9754 10.3445 16.9797 10.3479 16.9834 10.3516C16.9872 10.3554 16.9913 10.3595 16.9951 10.3633C16.9988 10.367 17.0022 10.3713 17.0059 10.375L17.0293 10.3984C17.033 10.4021 17.0373 10.4055 17.041 10.4092L17.0762 10.4443C17.0799 10.448 17.0832 10.4523 17.0869 10.4561L17.2744 10.6436C17.2783 10.6475 17.2832 10.6514 17.2871 10.6553L17.334 10.7021C17.3379 10.7061 17.3418 10.7109 17.3457 10.7148L17.3691 10.7383C17.3731 10.7422 17.3779 10.7461 17.3818 10.75L17.4053 10.7734C17.4092 10.7774 17.4131 10.7822 17.417 10.7861L17.4404 10.8096C17.4444 10.8135 17.4492 10.8174 17.4531 10.8213C17.457 10.8252 17.461 10.8291 17.4648 10.833C17.4688 10.8369 17.4726 10.8418 17.4766 10.8457L17.5 10.8691C17.5039 10.8731 17.5087 10.8769 17.5127 10.8809C17.5166 10.8847 17.5205 10.8887 17.5244 10.8926C17.5284 10.8965 17.5322 10.9013 17.5361 10.9053C17.54 10.9091 17.544 10.9131 17.5479 10.917C17.5518 10.9209 17.5566 10.9248 17.5605 10.9287C17.5644 10.9326 17.5684 10.9366 17.5723 10.9404C17.5762 10.9444 17.58 10.9492 17.584 10.9531C17.5879 10.957 17.5918 10.961 17.5957 10.9648C17.5997 10.9688 17.6044 10.9726 17.6084 10.9766C17.6123 10.9804 17.6162 10.9844 17.6201 10.9883C17.6241 10.9922 17.6279 10.997 17.6318 11.001C17.6357 11.0048 17.6397 11.0088 17.6436 11.0127C17.6475 11.0166 17.6523 11.0205 17.6562 11.0244C17.6601 11.0283 17.6641 11.0323 17.668 11.0361C17.6719 11.0401 17.6757 11.0449 17.6797 11.0488C17.6836 11.0527 17.6875 11.0567 17.6914 11.0605C17.6954 11.0645 17.7001 11.0683 17.7041 11.0723C17.708 11.0761 17.712 11.0801 17.7158 11.084C17.7198 11.0879 17.7236 11.0927 17.7275 11.0967C17.7314 11.1005 17.7354 11.1045 17.7393 11.1084C17.7432 11.1123 17.748 11.1162 17.752 11.1201C17.7558 11.124 17.7598 11.128 17.7637 11.1318C17.7676 11.1358 17.7714 11.1406 17.7754 11.1445C17.7793 11.1484 17.7832 11.1524 17.7871 11.1562C17.7911 11.1602 17.7958 11.164 17.7998 11.168L17.8232 11.1914C17.8272 11.1954 17.831 11.2001 17.835 11.2041C17.8388 11.208 17.8428 11.212 17.8467 11.2158C17.8506 11.2198 17.8554 11.2236 17.8594 11.2275L17.8711 11.2393C17.875 11.2432 17.8789 11.248 17.8828 11.252C17.8867 11.2558 17.8907 11.2598 17.8945 11.2637C17.8985 11.2676 17.9033 11.2715 17.9072 11.2754L17.9307 11.2988C17.9346 11.3028 17.9385 11.3076 17.9424 11.3115L17.9658 11.335C17.9697 11.3389 17.9746 11.3428 17.9785 11.3467L18.002 11.3701C18.0059 11.374 18.0098 11.3789 18.0137 11.3828L18.0488 11.418C18.0527 11.4219 18.0576 11.4258 18.0615 11.4297L18.1084 11.4766C18.1123 11.4805 18.1162 11.4853 18.1201 11.4893L18.2607 11.6299C18.2645 11.6336 18.2687 11.6369 18.2725 11.6406L18.3076 11.6758C18.3113 11.6795 18.3147 11.6838 18.3184 11.6875L18.3418 11.7109C18.3455 11.7146 18.3498 11.718 18.3535 11.7217L18.377 11.7451C18.3807 11.7488 18.384 11.7531 18.3877 11.7568C18.3915 11.7606 18.3956 11.7648 18.3994 11.7686C18.4031 11.7723 18.4074 11.7756 18.4111 11.7793C18.4149 11.7831 18.4191 11.7872 18.4229 11.791C18.4266 11.7947 18.4299 11.799 18.4336 11.8027C18.4373 11.8064 18.4416 11.8098 18.4453 11.8135C18.4491 11.8172 18.4533 11.8214 18.457 11.8252C18.4607 11.8289 18.4641 11.8332 18.4678 11.8369C18.4715 11.8406 18.4758 11.844 18.4795 11.8477C18.4832 11.8513 18.4866 11.8557 18.4902 11.8594C18.494 11.8631 18.4982 11.8674 18.502 11.8711C18.5056 11.8748 18.51 11.8782 18.5137 11.8818C18.5174 11.8855 18.5207 11.8899 18.5244 11.8936C18.5281 11.8973 18.5324 11.9006 18.5361 11.9043C18.5398 11.908 18.5432 11.9123 18.5469 11.916C18.5506 11.9197 18.5549 11.9231 18.5586 11.9268C18.5623 11.9305 18.5656 11.9348 18.5693 11.9385C18.573 11.9422 18.5774 11.9455 18.5811 11.9492C18.5847 11.9529 18.5881 11.9573 18.5918 11.9609C18.5954 11.9646 18.5999 11.9681 18.6035 11.9717C18.6071 11.9752 18.6107 11.9789 18.6143 11.9824C18.6179 11.9861 18.6214 11.9905 18.625 11.9941C18.6287 11.9978 18.6331 12.0012 18.6367 12.0049C18.6403 12.0084 18.6439 12.0121 18.6475 12.0156C18.6511 12.0193 18.6546 12.0237 18.6582 12.0273C18.6618 12.031 18.6663 12.0345 18.6699 12.0381L18.6914 12.0596C18.695 12.0632 18.6985 12.0677 18.7021 12.0713C18.7057 12.0748 18.7093 12.0785 18.7129 12.082C18.7165 12.0856 18.721 12.0892 18.7246 12.0928L18.8428 12.2109C18.8462 12.2143 18.8492 12.2183 18.8525 12.2217L18.874 12.2432C18.8774 12.2465 18.8814 12.2496 18.8848 12.2529L18.8955 12.2637C18.8989 12.2671 18.9019 12.271 18.9053 12.2744C18.9087 12.2778 18.9126 12.2808 18.916 12.2842C18.9194 12.2876 18.9233 12.2915 18.9268 12.2949C18.9301 12.2983 18.9332 12.3023 18.9365 12.3057C18.9399 12.309 18.9439 12.3121 18.9473 12.3154C18.9506 12.3188 18.9537 12.3228 18.957 12.3262C18.9604 12.3295 18.9644 12.3326 18.9678 12.3359C18.9711 12.3393 18.9742 12.3433 18.9775 12.3467C18.9809 12.35 18.9849 12.3531 18.9883 12.3564C18.9916 12.3598 18.9947 12.3638 18.998 12.3672C19.0014 12.3705 19.0054 12.3736 19.0088 12.377C19.012 12.3802 19.0153 12.3835 19.0186 12.3867C19.0219 12.39 19.025 12.3941 19.0283 12.3975C19.0316 12.4008 19.0357 12.4039 19.0391 12.4072C19.0423 12.4104 19.0456 12.4138 19.0488 12.417C19.0521 12.4203 19.0553 12.4244 19.0586 12.4277L19.0781 12.4473C19.0814 12.4505 19.0856 12.4538 19.0889 12.457L19.1572 12.5254C19.1603 12.5285 19.163 12.5321 19.166 12.5352C19.1692 12.5383 19.1726 12.5418 19.1758 12.5449C19.1788 12.548 19.1825 12.5507 19.1855 12.5537C19.1887 12.5569 19.1922 12.5603 19.1953 12.5635C19.1984 12.5665 19.2011 12.5702 19.2041 12.5732C19.2072 12.5764 19.2108 12.5799 19.2139 12.583C19.2169 12.5861 19.2206 12.5888 19.2236 12.5918C19.2267 12.5949 19.2294 12.5985 19.2324 12.6016C19.2355 12.6046 19.2392 12.6073 19.2422 12.6104C19.2452 12.6134 19.248 12.6171 19.251 12.6201C19.254 12.6231 19.2577 12.6259 19.2607 12.6289C19.2638 12.6319 19.2665 12.6356 19.2695 12.6387C19.2726 12.6417 19.2763 12.6445 19.2793 12.6475C19.2823 12.6505 19.2851 12.6542 19.2881 12.6572C19.291 12.6601 19.294 12.6631 19.2969 12.666C19.2999 12.669 19.3036 12.6718 19.3066 12.6748C19.3095 12.6777 19.3125 12.6807 19.3154 12.6836C19.3184 12.6866 19.3213 12.6904 19.3242 12.6934L19.3945 12.7637C19.3973 12.7664 19.4006 12.7688 19.4033 12.7715C19.4061 12.7743 19.4093 12.7775 19.4121 12.7803C19.4148 12.783 19.4172 12.7863 19.4199 12.7891C19.4227 12.7919 19.4259 12.7951 19.4287 12.7979C19.4314 12.8006 19.4348 12.803 19.4375 12.8057C19.4402 12.8084 19.4426 12.8117 19.4453 12.8145C19.448 12.8172 19.4514 12.8196 19.4541 12.8223C19.4568 12.8249 19.4593 12.8284 19.4619 12.8311C19.4646 12.8337 19.468 12.8362 19.4707 12.8389C19.4734 12.8416 19.4758 12.845 19.4785 12.8477C19.4812 12.8504 19.4846 12.8528 19.4873 12.8555L19.4951 12.8633C19.4978 12.8659 19.5003 12.8694 19.5029 12.8721L19.5107 12.8799C19.5134 12.8825 19.5169 12.8851 19.5195 12.8877L19.5742 12.9424C19.5766 12.9448 19.5787 12.9478 19.5811 12.9502C19.5835 12.9527 19.5864 12.9555 19.5889 12.958C19.5913 12.9604 19.5943 12.9625 19.5967 12.9648C19.5991 12.9672 19.6011 12.9703 19.6035 12.9727C19.606 12.9751 19.6089 12.978 19.6113 12.9805C19.6137 12.9828 19.6168 12.985 19.6191 12.9873C19.6215 12.9897 19.6236 12.9928 19.626 12.9951C19.6283 12.9974 19.6315 12.9996 19.6338 13.002C19.636 13.0042 19.6384 13.0066 19.6406 13.0088C19.643 13.0111 19.6451 13.0142 19.6475 13.0166C19.6498 13.0189 19.6529 13.0211 19.6553 13.0234L19.6689 13.0371C19.6712 13.0394 19.6735 13.0426 19.6758 13.0449L19.7031 13.0723C19.7052 13.0744 19.7079 13.0761 19.71 13.0781C19.7121 13.0803 19.7146 13.0828 19.7168 13.085C19.7189 13.087 19.7206 13.0897 19.7227 13.0918C19.7248 13.0939 19.7273 13.0965 19.7295 13.0986C19.7316 13.1007 19.7342 13.1024 19.7363 13.1045C19.7384 13.1066 19.7401 13.1092 19.7422 13.1113C19.7442 13.1134 19.747 13.1152 19.749 13.1172C19.7511 13.1192 19.7529 13.122 19.7549 13.124C19.7569 13.1261 19.7597 13.1279 19.7617 13.1299C19.7638 13.1319 19.7656 13.1347 19.7676 13.1367L19.7734 13.1426C19.7754 13.1446 19.7783 13.1465 19.7803 13.1484L19.792 13.1602C19.7939 13.1621 19.7959 13.165 19.7979 13.167C19.7997 13.1688 19.8019 13.171 19.8037 13.1729C19.8055 13.1746 19.8078 13.176 19.8096 13.1777L19.8213 13.1895C19.8231 13.1912 19.8244 13.1935 19.8262 13.1953C19.828 13.1971 19.8302 13.1993 19.832 13.2012C19.8338 13.2029 19.8361 13.2043 19.8379 13.2061C19.8396 13.2078 19.8411 13.2102 19.8428 13.2119C19.8445 13.2136 19.8469 13.2151 19.8486 13.2168C19.8503 13.2185 19.8519 13.221 19.8535 13.2227C19.8552 13.2244 19.8577 13.2259 19.8594 13.2275C19.8611 13.2293 19.8626 13.2317 19.8643 13.2334C19.8659 13.235 19.8676 13.2367 19.8691 13.2383C19.8708 13.24 19.8733 13.2415 19.875 13.2432L19.8848 13.2529C19.8864 13.2545 19.8881 13.2572 19.8896 13.2588C19.8911 13.2602 19.8931 13.2613 19.8945 13.2627L19.9092 13.2773C19.9106 13.2788 19.9117 13.2808 19.9131 13.2822C19.9145 13.2837 19.9165 13.2847 19.918 13.2861C19.9194 13.2876 19.9214 13.2895 19.9229 13.291C19.9242 13.2924 19.9254 13.2945 19.9268 13.2959C19.928 13.2972 19.9294 13.2985 19.9307 13.2998C19.932 13.3012 19.9342 13.3024 19.9355 13.3037C19.9369 13.3051 19.9381 13.3072 19.9395 13.3086C19.9407 13.3099 19.9421 13.3112 19.9434 13.3125C19.9447 13.3138 19.9469 13.3151 19.9482 13.3164L19.9678 13.3359C19.9689 13.337 19.9696 13.3387 19.9707 13.3398C19.9719 13.341 19.9734 13.3426 19.9746 13.3438C19.9757 13.3449 19.9774 13.3456 19.9785 13.3467C19.9796 13.3478 19.9804 13.3495 19.9814 13.3506C19.9825 13.3516 19.9843 13.3525 19.9854 13.3535C19.9864 13.3546 19.9873 13.3563 19.9883 13.3574C19.9894 13.3585 19.9911 13.3593 19.9922 13.3604C19.9932 13.3614 19.9941 13.3632 19.9951 13.3643L20.001 13.3701C20.002 13.3711 20.0039 13.3721 20.0049 13.373L20.0107 13.3789C20.0115 13.3797 20.012 13.381 20.0127 13.3818C20.0136 13.3827 20.0147 13.3839 20.0156 13.3848C20.0164 13.3855 20.0177 13.386 20.0186 13.3867C20.0194 13.3876 20.0206 13.3888 20.0215 13.3896C20.0223 13.3904 20.0227 13.3918 20.0234 13.3926C20.0242 13.3934 20.0256 13.3938 20.0264 13.3945C20.0271 13.3953 20.0276 13.3967 20.0283 13.3975C20.029 13.3982 20.0305 13.3987 20.0312 13.3994L20.0332 13.4014L20.0352 13.4043L20.0449 13.4141L20.0469 13.415L20.0488 13.417L20.0498 13.4189L20.0518 13.4199L20.0527 13.4219L20.0547 13.4229L20.0557 13.4238L20.0566 13.4258L20.0615 13.4307H20.0625L20.0635 13.4316V13.4326H20.0645V13.4336H20.0654V13.4346C20.3778 13.747 20.3778 14.253 20.0654 14.5654C19.753 14.8777 19.247 14.8778 18.9346 14.5654H18.9336V14.5645H18.9326V14.5635H18.9316L18.9307 14.5625V14.5615L18.9258 14.5566L18.9238 14.5557L18.9229 14.5547L18.9219 14.5527L18.9199 14.5518L18.9189 14.5498L18.917 14.5488L18.915 14.5469L18.9141 14.5449L18.9043 14.5352L18.9014 14.5332L18.8994 14.5312C18.8987 14.5305 18.8982 14.5291 18.8975 14.5283C18.8967 14.5276 18.8953 14.5271 18.8945 14.5264C18.8938 14.5256 18.8934 14.5242 18.8926 14.5234C18.8918 14.5227 18.8904 14.5223 18.8896 14.5215C18.8888 14.5206 18.8876 14.5194 18.8867 14.5186C18.886 14.5177 18.8856 14.5164 18.8848 14.5156C18.8839 14.5147 18.8827 14.5136 18.8818 14.5127C18.881 14.512 18.8797 14.5115 18.8789 14.5107L18.873 14.5049C18.8721 14.5039 18.8711 14.502 18.8701 14.501L18.8643 14.4951C18.8632 14.4941 18.8614 14.4932 18.8604 14.4922C18.8593 14.4911 18.8585 14.4894 18.8574 14.4883C18.8563 14.4873 18.8546 14.4864 18.8535 14.4854C18.8525 14.4843 18.8517 14.4825 18.8506 14.4814C18.8495 14.4804 18.8478 14.4796 18.8467 14.4785C18.8456 14.4774 18.8449 14.4757 18.8438 14.4746C18.8426 14.4734 18.841 14.4719 18.8398 14.4707C18.8387 14.4696 18.837 14.4689 18.8359 14.4678L18.8164 14.4482C18.8151 14.4469 18.8138 14.4447 18.8125 14.4434C18.8112 14.4421 18.8099 14.4407 18.8086 14.4395C18.8072 14.4381 18.8051 14.4369 18.8037 14.4355C18.8024 14.4342 18.8012 14.432 18.7998 14.4307C18.7985 14.4294 18.7972 14.428 18.7959 14.4268C18.7945 14.4254 18.7924 14.4242 18.791 14.4229L18.7861 14.418C18.7847 14.4165 18.7837 14.4145 18.7822 14.4131C18.7808 14.4117 18.7788 14.4106 18.7773 14.4092L18.7627 14.3945C18.7613 14.3931 18.7602 14.3911 18.7588 14.3896C18.7572 14.3881 18.7545 14.3864 18.7529 14.3848L18.7432 14.375C18.7415 14.3733 18.74 14.3708 18.7383 14.3691C18.7367 14.3676 18.735 14.3659 18.7334 14.3643C18.7317 14.3626 18.7293 14.3611 18.7275 14.3594C18.7259 14.3577 18.7244 14.3552 18.7227 14.3535C18.721 14.3519 18.7185 14.3503 18.7168 14.3486C18.7151 14.3469 18.7136 14.3445 18.7119 14.3428C18.7102 14.3411 18.7078 14.3396 18.7061 14.3379C18.7043 14.3361 18.7029 14.3338 18.7012 14.332C18.6993 14.3302 18.6971 14.328 18.6953 14.3262C18.6935 14.3244 18.6912 14.3231 18.6895 14.3213L18.6777 14.3096C18.676 14.3078 18.6746 14.3055 18.6729 14.3037C18.671 14.3019 18.6688 14.2997 18.667 14.2979C18.665 14.2959 18.6621 14.2939 18.6602 14.292L18.6484 14.2803C18.6465 14.2783 18.6446 14.2754 18.6426 14.2734L18.6367 14.2676C18.6347 14.2656 18.6319 14.2638 18.6299 14.2617C18.6279 14.2597 18.6261 14.2569 18.624 14.2549C18.622 14.2529 18.6192 14.2511 18.6172 14.249C18.6152 14.247 18.6134 14.2442 18.6113 14.2422C18.6092 14.2401 18.6066 14.2384 18.6045 14.2363C18.6024 14.2342 18.6007 14.2316 18.5986 14.2295C18.5965 14.2273 18.5939 14.2248 18.5918 14.2227C18.5897 14.2206 18.587 14.2189 18.585 14.2168C18.5828 14.2146 18.5803 14.2121 18.5781 14.21C18.5761 14.2079 18.5744 14.2052 18.5723 14.2031L18.5449 14.1758C18.5426 14.1735 18.5394 14.1712 18.5371 14.1689L18.5234 14.1553C18.5211 14.1529 18.5189 14.1498 18.5166 14.1475C18.5142 14.1451 18.5111 14.143 18.5088 14.1406C18.5066 14.1384 18.5042 14.136 18.502 14.1338C18.4996 14.1315 18.4974 14.1283 18.4951 14.126C18.4928 14.1236 18.4897 14.1215 18.4873 14.1191C18.485 14.1168 18.4828 14.1137 18.4805 14.1113C18.478 14.1089 18.4751 14.106 18.4727 14.1035C18.4703 14.1011 18.4672 14.0991 18.4648 14.0967C18.4625 14.0943 18.4604 14.0913 18.458 14.0889C18.4555 14.0864 18.4527 14.0835 18.4502 14.0811C18.4478 14.0787 18.4448 14.0766 18.4424 14.0742L18.3877 14.0195C18.3851 14.0169 18.3825 14.0134 18.3799 14.0107L18.3721 14.0029C18.3694 14.0003 18.3659 13.9978 18.3633 13.9951C18.3607 13.9926 18.358 13.9899 18.3555 13.9873C18.3528 13.9846 18.3503 13.9812 18.3477 13.9785C18.345 13.9758 18.3416 13.9734 18.3389 13.9707C18.3362 13.968 18.3337 13.9646 18.3311 13.9619C18.3284 13.9593 18.3249 13.9568 18.3223 13.9541C18.3196 13.9514 18.3172 13.948 18.3145 13.9453C18.3117 13.9426 18.3084 13.9402 18.3057 13.9375C18.303 13.9348 18.3006 13.9314 18.2979 13.9287C18.2951 13.9259 18.2919 13.9227 18.2891 13.9199C18.2863 13.9172 18.283 13.9148 18.2803 13.9121C18.2775 13.9093 18.2743 13.9061 18.2715 13.9033C18.2688 13.9006 18.2664 13.8973 18.2637 13.8945L18.1934 13.8242C18.1904 13.8213 18.1866 13.8184 18.1836 13.8154C18.1807 13.8125 18.1777 13.8095 18.1748 13.8066C18.1718 13.8036 18.169 13.7999 18.166 13.7969C18.1631 13.794 18.1601 13.791 18.1572 13.7881C18.1542 13.7851 18.1505 13.7823 18.1475 13.7793C18.1445 13.7763 18.1417 13.7726 18.1387 13.7695C18.1357 13.7665 18.1319 13.7638 18.1289 13.7607C18.1259 13.7577 18.1231 13.754 18.1201 13.751C18.1171 13.748 18.1134 13.7452 18.1104 13.7422C18.1073 13.7392 18.1046 13.7355 18.1016 13.7324C18.0985 13.7294 18.0949 13.7267 18.0918 13.7236C18.0888 13.7206 18.0861 13.7169 18.083 13.7139C18.0799 13.7108 18.0764 13.7072 18.0732 13.7041C18.0702 13.7011 18.0665 13.6984 18.0635 13.6953C18.0603 13.6922 18.0569 13.6887 18.0537 13.6855C18.0507 13.6825 18.048 13.6788 18.0449 13.6758C18.0418 13.6726 18.0383 13.6692 18.0352 13.666C18.0321 13.663 18.0285 13.6603 18.0254 13.6572L17.957 13.5889C17.9538 13.5856 17.9505 13.5814 17.9473 13.5781L17.9277 13.5586C17.9244 13.5553 17.9203 13.5521 17.917 13.5488C17.9138 13.5456 17.9104 13.5423 17.9072 13.5391C17.9039 13.5357 17.9008 13.5316 17.8975 13.5283C17.8941 13.525 17.89 13.5219 17.8867 13.5186C17.8835 13.5153 17.8802 13.512 17.877 13.5088C17.8736 13.5054 17.8705 13.5014 17.8672 13.498C17.8638 13.4947 17.8598 13.4916 17.8564 13.4883C17.8531 13.4849 17.85 13.4809 17.8467 13.4775C17.8433 13.4742 17.8393 13.4711 17.8359 13.4678C17.8326 13.4644 17.8295 13.4604 17.8262 13.457C17.8228 13.4537 17.8188 13.4506 17.8154 13.4473C17.8121 13.4439 17.809 13.4399 17.8057 13.4365C17.8023 13.4332 17.7983 13.4301 17.7949 13.4268C17.7915 13.4233 17.7876 13.4194 17.7842 13.416C17.7808 13.4126 17.7778 13.4087 17.7744 13.4053C17.771 13.4019 17.7671 13.3989 17.7637 13.3955C17.7602 13.3921 17.7564 13.3882 17.7529 13.3848C17.7496 13.3814 17.7465 13.3774 17.7432 13.374L17.7217 13.3525C17.7183 13.3492 17.7143 13.3462 17.7109 13.3428L17.5928 13.2246C17.5892 13.221 17.5856 13.2165 17.582 13.2129C17.5785 13.2094 17.5748 13.2057 17.5713 13.2021C17.5677 13.1985 17.5632 13.195 17.5596 13.1914L17.5381 13.1699C17.5345 13.1663 17.531 13.1618 17.5273 13.1582C17.5237 13.1546 17.5193 13.1511 17.5156 13.1475C17.5121 13.1439 17.5084 13.1403 17.5049 13.1367C17.5012 13.1331 17.4978 13.1287 17.4941 13.125C17.4905 13.1214 17.4861 13.1179 17.4824 13.1143C17.4789 13.1107 17.4752 13.1071 17.4717 13.1035C17.4681 13.0999 17.4646 13.0954 17.4609 13.0918C17.4573 13.0881 17.4529 13.0847 17.4492 13.0811C17.4455 13.0774 17.4422 13.073 17.4385 13.0693C17.4348 13.0656 17.4305 13.0623 17.4268 13.0586C17.4231 13.0549 17.4197 13.0506 17.416 13.0469C17.4123 13.0432 17.408 13.0398 17.4043 13.0361C17.4006 13.0324 17.3973 13.0281 17.3936 13.0244C17.3899 13.0207 17.3855 13.0174 17.3818 13.0137C17.3782 13.01 17.3748 13.0056 17.3711 13.002L17.3594 12.9902C17.3557 12.9866 17.3513 12.9832 17.3477 12.9795C17.344 12.9758 17.3406 12.9715 17.3369 12.9678C17.3332 12.9641 17.3289 12.9607 17.3252 12.957C17.3214 12.9533 17.3172 12.9491 17.3135 12.9453C17.3098 12.9416 17.3064 12.9373 17.3027 12.9336C17.299 12.9299 17.2947 12.9266 17.291 12.9229L17.2793 12.9111C17.2756 12.9074 17.2723 12.9031 17.2686 12.8994C17.2648 12.8956 17.2606 12.8915 17.2568 12.8877C17.2531 12.884 17.2488 12.8807 17.2451 12.877L17.2217 12.8535C17.218 12.8498 17.2146 12.8455 17.2109 12.8418L17.1875 12.8184C17.1838 12.8147 17.1795 12.8113 17.1758 12.8076L17.1406 12.7725C17.1369 12.7687 17.1336 12.7645 17.1299 12.7607L16.9893 12.6201C16.9854 12.6162 16.9805 12.6123 16.9766 12.6084L16.9297 12.5615C16.9258 12.5576 16.9219 12.5527 16.918 12.5488L16.8828 12.5137C16.8789 12.5098 16.874 12.5059 16.8701 12.502L16.8467 12.4785C16.8428 12.4746 16.8389 12.4697 16.835 12.4658L16.8115 12.4424C16.8076 12.4385 16.8028 12.4346 16.7988 12.4307L16.7754 12.4072C16.7715 12.4033 16.7676 12.3985 16.7637 12.3945C16.7598 12.3907 16.7558 12.3867 16.752 12.3828C16.748 12.3789 16.7432 12.375 16.7393 12.3711C16.7354 12.3672 16.7314 12.3632 16.7275 12.3594C16.7236 12.3554 16.7198 12.3506 16.7158 12.3467C16.712 12.3428 16.708 12.3388 16.7041 12.335C16.7001 12.331 16.6954 12.3272 16.6914 12.3232L16.668 12.2998C16.664 12.2958 16.6602 12.2911 16.6562 12.2871C16.6524 12.2832 16.6484 12.2793 16.6445 12.2754C16.6406 12.2714 16.6358 12.2676 16.6318 12.2637L16.6201 12.252C16.6162 12.248 16.6123 12.2432 16.6084 12.2393C16.6045 12.2354 16.6005 12.2314 16.5967 12.2275C16.5927 12.2236 16.5879 12.2198 16.584 12.2158L16.5723 12.2041C16.5683 12.2001 16.5645 12.1954 16.5605 12.1914C16.5567 12.1875 16.5527 12.1836 16.5488 12.1797C16.5449 12.1757 16.5401 12.1719 16.5361 12.168L16.5244 12.1562C16.5205 12.1523 16.5166 12.1475 16.5127 12.1436C16.5088 12.1397 16.5048 12.1357 16.501 12.1318C16.497 12.1279 16.4922 12.1241 16.4883 12.1201C16.4844 12.1162 16.4804 12.1123 16.4766 12.1084C16.4726 12.1044 16.4688 12.0997 16.4648 12.0957C16.461 12.0918 16.457 12.0879 16.4531 12.084C16.4492 12.08 16.4444 12.0762 16.4404 12.0723C16.4366 12.0684 16.4326 12.0644 16.4287 12.0605C16.4248 12.0566 16.4209 12.0518 16.417 12.0479C16.4131 12.044 16.4091 12.04 16.4053 12.0361C16.4013 12.0322 16.3965 12.0284 16.3926 12.0244C16.3887 12.0205 16.3847 12.0166 16.3809 12.0127C16.3769 12.0087 16.3731 12.0039 16.3691 12L16.3457 11.9766C16.3418 11.9726 16.3369 11.9688 16.333 11.9648C16.3291 11.961 16.3252 11.957 16.3213 11.9531C16.3174 11.9492 16.3135 11.9444 16.3096 11.9404L16.2861 11.917C16.2822 11.9131 16.2774 11.9092 16.2734 11.9053L16.25 11.8818C16.2461 11.8779 16.2422 11.8731 16.2383 11.8691L16.2148 11.8457C16.2109 11.8418 16.2061 11.8379 16.2021 11.834L16.1553 11.7871C16.1514 11.7832 16.1475 11.7783 16.1436 11.7744L15.9561 11.5869C15.9523 11.5832 15.948 11.5799 15.9443 11.5762L15.9092 11.541C15.9055 11.5373 15.9021 11.533 15.8984 11.5293L15.875 11.5059C15.8713 11.5022 15.867 11.4988 15.8633 11.4951L15.8516 11.4834C15.8479 11.4797 15.8445 11.4754 15.8408 11.4717C15.837 11.4679 15.8329 11.4637 15.8291 11.46C15.8254 11.4563 15.8211 11.4529 15.8174 11.4492C15.8136 11.4454 15.8094 11.4413 15.8057 11.4375C15.802 11.4338 15.7986 11.4295 15.7949 11.4258C15.7912 11.4221 15.7869 11.4187 15.7832 11.415L15.7715 11.4033C15.7678 11.3996 15.7644 11.3953 15.7607 11.3916C15.757 11.3879 15.7527 11.3846 15.749 11.3809C15.7453 11.3772 15.742 11.3728 15.7383 11.3691C15.7345 11.3654 15.7303 11.3612 15.7266 11.3574C15.7229 11.3538 15.7185 11.3503 15.7148 11.3467C15.7112 11.343 15.7078 11.3386 15.7041 11.335C15.7004 11.3313 15.6961 11.3279 15.6924 11.3242C15.6887 11.3205 15.6853 11.3162 15.6816 11.3125C15.678 11.3088 15.6736 11.3054 15.6699 11.3018C15.6663 11.2981 15.6628 11.2937 15.6592 11.29C15.6555 11.2864 15.6511 11.2829 15.6475 11.2793C15.6439 11.2758 15.6403 11.2721 15.6367 11.2686C15.6331 11.2649 15.6296 11.2605 15.626 11.2568C15.6223 11.2532 15.6179 11.2498 15.6143 11.2461C15.6106 11.2424 15.6072 11.238 15.6035 11.2344C15.6 11.2308 15.5963 11.2272 15.5928 11.2236C15.5891 11.22 15.5847 11.2165 15.5811 11.2129C15.5775 11.2093 15.5739 11.2057 15.5703 11.2021C15.5667 11.1985 15.5632 11.1941 15.5596 11.1904L15.5488 11.1797C15.5452 11.1761 15.5407 11.1726 15.5371 11.1689C15.5336 11.1654 15.5299 11.1617 15.5264 11.1582C15.5228 11.1546 15.5192 11.1501 15.5156 11.1465L15.4727 11.1035C15.4691 11.1 15.4645 11.0963 15.4609 11.0928L15.4395 11.0713C15.4361 11.0679 15.4331 11.0639 15.4297 11.0605L15.3867 11.0176C15.3833 11.0142 15.3794 11.0112 15.376 11.0078C15.3725 11.0043 15.3687 11.0005 15.3652 10.9971C15.3619 10.9937 15.3588 10.9897 15.3555 10.9863C15.352 10.9829 15.3482 10.979 15.3447 10.9756C15.3413 10.9722 15.3374 10.9692 15.334 10.9658C15.3305 10.9624 15.3267 10.9585 15.3232 10.9551C15.3199 10.9517 15.3169 10.9477 15.3135 10.9443C15.3101 10.941 15.3061 10.9379 15.3027 10.9346C15.2994 10.9312 15.2963 10.9272 15.293 10.9238C15.2896 10.9204 15.2856 10.9165 15.2822 10.9131C15.2789 10.9098 15.2748 10.9066 15.2715 10.9033C15.2682 10.9 15.265 10.8959 15.2617 10.8926C15.2584 10.8893 15.2543 10.8861 15.251 10.8828C15.2478 10.8796 15.2444 10.8763 15.2412 10.873C15.2379 10.8697 15.2348 10.8656 15.2314 10.8623C15.2281 10.859 15.224 10.8559 15.2207 10.8525L15.2188 10.8506L14.2158 12.8574C14.0183 13.2524 13.5377 13.4131 13.1426 13.2158C12.7477 13.0183 12.587 12.5376 12.7842 12.1426L14.0059 9.69824C13.6687 9.44625 13.2634 9.21373 12.7676 8.96582C12.4054 8.78474 12.0109 8.60249 11.5693 8.39746C11.3284 8.28561 11.0756 8.16694 10.8115 8.04102C10.8106 8.04246 10.8095 8.04447 10.8086 8.0459C10.724 8.174 10.6302 8.31256 10.5342 8.45508C10.4371 8.59907 10.3357 8.74957 10.2324 8.90625C9.81442 9.54016 9.38359 10.2453 9.10449 10.9365C8.81911 11.6434 8.7434 12.2123 8.87012 12.6318C8.97918 12.9924 9.29489 13.4218 10.2529 13.7412C11.1064 14.0257 11.7844 14.2675 12.2695 14.5361C12.7839 14.821 13.2045 15.2034 13.3604 15.8135C13.4934 16.3346 13.3931 16.9084 13.2773 17.4492C13.1438 18.0732 12.9772 18.6922 12.7842 19.6572C12.6973 20.0902 12.2759 20.3708 11.8428 20.2842C11.4099 20.1973 11.1292 19.7758 11.2158 19.3428C11.4019 18.4122 11.6084 17.6025 11.7129 17.1143C11.835 16.5434 11.8376 16.3204 11.8096 16.21C11.8041 16.1885 11.7989 16.1038 11.4951 15.9355C11.1616 15.7509 10.6274 15.5522 9.74707 15.2588C8.45548 14.8282 7.64114 14.0947 7.33887 13.0957C7.05453 12.1556 7.28578 11.1673 7.62109 10.3369C7.96292 9.49047 8.46777 8.67555 8.89648 8.02539C9.00462 7.8614 9.10995 7.70557 9.20703 7.56152C9.2482 7.50044 9.28731 7.44112 9.3252 7.38477C8.46593 7.09193 7.37268 6.84688 6.35645 6.66211C5.68323 6.53972 5.06991 6.44809 4.625 6.38672C4.40285 6.35608 4.2231 6.33258 4.09961 6.31738C4.03796 6.3098 3.98986 6.3045 3.95801 6.30078C3.94249 6.29896 3.93062 6.29678 3.92285 6.2959C3.91915 6.29548 3.91584 6.29512 3.91406 6.29492H3.91113C3.47255 6.24578 3.15658 5.8508 3.20508 5.41211C3.25385 4.9732 3.64902 4.65667 4.08789 4.70508ZM15.3643 0.503906C17.0552 0.589399 18.4004 1.98797 18.4004 3.7002L18.3955 3.86426C18.31 5.55516 16.9123 6.90029 15.2002 6.90039L15.0352 6.89551C13.399 6.81236 12.0866 5.50056 12.0039 3.86426L12 3.7002C12 1.93296 13.433 0.500118 15.2002 0.5L15.3643 0.503906ZM15.2002 2.09961C14.3166 2.09973 13.5996 2.81661 13.5996 3.7002C13.5997 4.58369 14.3167 5.29969 15.2002 5.2998C16.0837 5.2997 16.7997 4.5837 16.7998 3.7002C16.7998 2.8166 16.0838 2.09971 15.2002 2.09961Z" fill="#B98A67"/>
</g>
<defs>
<clipPath id="clip0_145_24992">
<rect width="24" height="24" fill="white"/>
</clipPath>
</defs>
</svg>
