<svg width="24" height="24" viewBox="0 0 24 24" fill="none" xmlns="http://www.w3.org/2000/svg">
<path fill-rule="evenodd" clip-rule="evenodd" d="M20.6398 6.96531C19.7629 5.46054 18.5083 4.21087 17 3.34001C15.5036 2.47601 13.8089 2.01449 12.081 2.00045C10.3531 1.98641 8.65113 2.42033 7.14089 3.2599C5.63065 4.09947 4.36373 5.31604 3.46364 6.79101C2.56355 8.26598 2.061 9.94901 2.005 11.676L2 12L2.005 12.324C2.06141 14.0647 2.57146 15.7605 3.48467 17.2435C4.39787 18.7265 5.68256 19.9453 7.21155 20.7793C8.74055 21.6132 10.4608 22.0333 12.2021 21.9981C13.9434 21.9628 15.6452 21.4734 17.1392 20.5783C18.6332 19.6832 19.8676 18.4135 20.72 16.8947C21.5725 15.376 22.0135 13.6609 21.9994 11.9194C21.9854 10.1778 21.5167 8.47009 20.6398 6.96531ZM9.20711 7.79291C8.81658 7.40238 8.18342 7.40238 7.79289 7.79291C7.40237 8.18343 7.40237 8.8166 7.79289 9.20712L10.5858 12L7.79289 14.7929C7.40237 15.1834 7.40237 15.8166 7.79289 16.2071C8.18342 16.5976 8.81658 16.5976 9.20711 16.2071L12 13.4142L14.7929 16.2071C15.1834 16.5976 15.8166 16.5976 16.2071 16.2071C16.5976 15.8166 16.5976 15.1834 16.2071 14.7929L13.4142 12L16.2071 9.20712C16.5976 8.8166 16.5976 8.18343 16.2071 7.79291C15.8166 7.40238 15.1834 7.40238 14.7929 7.79291L12 10.5858L9.20711 7.79291Z" fill="#2E2E1F"/>
</svg>
