<svg width="32" height="32" viewBox="0 0 32 32" fill="none" xmlns="http://www.w3.org/2000/svg">
<path d="M15.5687 25.1296C14.3368 25.13 13.117 24.8871 11.9792 24.415C10.8415 23.9428 9.80814 23.2506 8.93851 22.3782C8.06888 21.5057 7.38008 20.4701 6.91162 19.3308C6.44317 18.1915 6.20429 16.9709 6.20868 15.7391C6.21306 14.5073 6.46064 13.2884 6.9372 12.1525C7.41376 11.0165 8.10992 9.98589 8.98574 9.11964C9.86157 8.2534 10.8998 7.56861 12.0409 7.10457C13.182 6.64053 14.4035 6.40637 15.6353 6.41553C18.1573 6.42666 20.3487 7.33924 22.1473 9.11236C23.9986 10.9378 24.9396 13.1812 24.9424 15.7748C24.9598 17.0032 24.7266 18.2223 24.2569 19.3575C23.7872 20.4928 23.091 21.5203 22.2107 22.3774C20.3853 24.2058 18.152 25.1049 15.5693 25.1296M15.5889 7.25004C10.9437 7.21392 7.06362 11.0287 7.05507 15.7524C7.05041 17.4393 7.5463 19.0897 8.47998 20.4948C9.41365 21.8998 10.7432 22.9962 12.3002 23.6453C13.8573 24.2945 15.5719 24.4671 17.2271 24.1414C18.8823 23.8157 20.4037 23.0062 21.5987 21.8155C22.7937 20.6248 23.6087 19.1064 23.9404 17.4524C24.2721 15.7984 24.1057 14.0831 23.4622 12.5237C22.8187 10.9643 21.727 9.63085 20.3254 8.69209C18.9238 7.75334 17.2752 7.25148 15.5882 7.25004" fill="white"/>
<path d="M27.6078 12.571V12.345C27.6078 10.3427 27.6081 8.34059 27.6088 6.33875C27.606 6.24789 27.6144 6.15702 27.6337 6.06818C27.6564 5.97889 27.7083 5.89977 27.7812 5.84345C27.8541 5.78713 27.9438 5.75686 28.0359 5.75747C28.128 5.75948 28.2168 5.79192 28.2884 5.84973C28.3601 5.90753 28.4106 5.98744 28.4321 6.07698C28.4485 6.16064 28.4553 6.24591 28.4521 6.33112C28.4532 8.339 28.4534 10.3468 28.4529 12.3545V12.6046C28.53 12.5744 28.6049 12.5388 28.677 12.4981C28.8226 12.4113 28.9427 12.2876 29.0252 12.1395C29.1076 11.9914 29.1495 11.8241 29.1466 11.6546C29.1354 11.1592 29.1085 10.6641 29.0883 10.1689C29.0877 10.1518 29.0853 10.1349 29.0848 10.1171C29.0702 9.67281 29.0582 9.22836 29.0403 8.78366C29.0218 8.32264 28.995 7.86188 28.9767 7.40074C28.9604 6.99073 28.9508 6.58059 28.9379 6.17084C28.9326 6.08736 28.9551 6.00448 29.002 5.93518C29.0488 5.86588 29.1174 5.81408 29.1968 5.78789C29.2702 5.75396 29.3525 5.7446 29.4316 5.76121C29.5107 5.77781 29.5823 5.8195 29.6358 5.88007C29.6932 5.94217 29.7331 6.01845 29.7513 6.10106C29.7719 6.21314 29.7826 6.32682 29.7831 6.44077C29.7967 6.71963 29.8083 6.99858 29.8181 7.27762C29.8336 7.72763 29.844 8.17777 29.862 8.62778C29.8795 9.06032 29.9046 9.49259 29.9249 9.925C29.9467 10.386 29.9618 10.8473 29.9886 11.3079C30.0348 11.7535 29.94 12.2022 29.7175 12.591C29.5753 12.8332 29.3768 13.0375 29.1388 13.1866C29.0908 13.2108 29.0519 13.2499 29.0279 13.298C29.0039 13.3461 28.9961 13.4007 29.0056 13.4536C29.0219 13.6293 29.0297 13.806 29.0355 13.9824C29.05 14.4267 29.0596 14.8711 29.0743 15.3158C29.0956 15.9537 29.1195 16.5914 29.1423 17.2293C29.1652 17.8728 29.188 18.5163 29.2109 19.1598C29.2335 19.792 29.2562 20.4242 29.279 21.0562C29.302 21.6997 29.3248 22.3432 29.3476 22.9867C29.3704 23.6246 29.3933 24.2623 29.4164 24.9001C29.4257 25.1506 29.4335 25.4014 29.45 25.651C29.4641 25.8457 29.428 26.0409 29.345 26.2177C29.2621 26.3945 29.1351 26.5471 28.9763 26.6608C28.8093 26.8004 28.6136 26.9015 28.4031 26.9569C28.1926 27.0122 27.9724 27.0205 27.7583 26.9812C27.5442 26.9418 27.3414 26.8558 27.1644 26.7292C26.9873 26.6025 26.8404 26.4384 26.7339 26.2486C26.6485 26.099 26.606 25.9288 26.6112 25.7566C26.6333 25.1929 26.6549 24.6292 26.6759 24.0654C26.6759 24.0483 26.6773 24.0312 26.6779 24.0136C26.6921 23.4837 26.7037 22.9537 26.721 22.4238C26.7421 21.7636 26.7669 21.1024 26.7905 20.4418C26.8126 19.821 26.8349 19.2003 26.8575 18.5796C26.8809 17.9247 26.9041 17.2697 26.9273 16.6147C26.9497 15.9883 26.9704 15.3618 26.9954 14.7354C27.0117 14.3256 27.0315 13.916 27.0551 13.5065C27.066 13.4403 27.0567 13.3724 27.0285 13.3116C27.0002 13.2508 26.9543 13.1998 26.8968 13.1654C26.2535 12.7227 26.014 12.0899 26.0792 11.3271C26.085 11.259 26.0931 11.191 26.0962 11.1228C26.1191 10.6049 26.1415 10.0871 26.1634 9.56924C26.1763 9.26176 26.1865 8.95429 26.1995 8.64681C26.221 8.13453 26.2443 7.62225 26.2658 7.10996C26.2787 6.79679 26.2884 6.48362 26.3031 6.17045C26.3042 6.11487 26.3166 6.06009 26.3394 6.00936C26.3621 5.95864 26.3948 5.91301 26.4356 5.87517C26.4763 5.83734 26.5242 5.80808 26.5765 5.78912C26.6288 5.77017 26.6843 5.7619 26.7398 5.76483C26.7954 5.76775 26.8497 5.7818 26.8997 5.80614C26.9497 5.83048 26.9943 5.86461 27.0308 5.90652C27.0674 5.94842 27.0951 5.99724 27.1124 6.05007C27.1298 6.10291 27.1363 6.15868 27.1316 6.21408C27.1149 6.70958 27.0973 7.20508 27.0788 7.70057C27.0577 8.24147 27.0337 8.78223 27.0112 9.32287C26.9879 9.88077 26.9648 10.4387 26.9418 10.9966C26.9322 11.2296 26.9078 11.4638 26.917 11.6964C26.922 11.8804 26.979 12.0591 27.0815 12.2119C27.184 12.3647 27.3278 12.4853 27.4961 12.5597C27.5114 12.5674 27.5277 12.5729 27.5445 12.5761C27.5656 12.5761 27.5867 12.5741 27.6074 12.57M28.6052 25.3549C28.5824 24.8241 28.5578 24.301 28.5378 23.7776C28.512 23.0889 28.4896 22.4001 28.465 21.7114C28.4438 21.1196 28.4222 20.5277 28.4002 19.9358C28.3757 19.2471 28.3516 18.5583 28.328 17.8696C28.3185 17.6021 28.3073 17.3348 28.2977 17.0669C28.2734 16.3782 28.2494 15.6895 28.2258 15.0007C28.2107 14.5453 28.1988 14.0897 28.1852 13.6341C28.1865 13.6057 28.1842 13.5772 28.1783 13.5493C28.1717 13.5281 28.158 13.5098 28.1395 13.4975C28.1143 13.4808 28.085 13.4711 28.0548 13.4695C28.0246 13.4679 27.9945 13.4743 27.9676 13.4882C27.9408 13.5021 27.9181 13.523 27.902 13.5486C27.8858 13.5742 27.8768 13.6036 27.8759 13.6338C27.8646 13.9187 27.8527 14.2035 27.8425 14.4874C27.8192 15.1306 27.7963 15.7736 27.7738 16.4164C27.7511 17.0539 27.7283 17.6913 27.7054 18.3288C27.6826 18.9663 27.6585 19.6038 27.6374 20.2412C27.6225 20.691 27.6145 21.141 27.5986 21.5907C27.5797 22.12 27.5528 22.649 27.5348 23.1782C27.5165 23.7134 27.5049 24.2489 27.4902 24.7836C27.4902 24.8006 27.488 24.8176 27.4875 24.8353C27.4774 25.1313 27.4674 25.4272 27.4575 25.7232C27.4527 25.7629 27.4571 25.8032 27.4703 25.8409C27.4835 25.8787 27.5052 25.913 27.5336 25.9411C27.8618 26.2457 28.168 26.2584 28.5021 25.9655C28.537 25.9359 28.5646 25.8986 28.5827 25.8566C28.6009 25.8146 28.6091 25.7689 28.6067 25.7232C28.6043 25.5979 28.6067 25.4724 28.6067 25.3538" fill="white"/>
<path d="M2.00124 15.7815C2.00124 12.4396 2.00085 9.09777 2.00007 5.75591C1.99845 5.61327 2.02398 5.47162 2.07529 5.33852C2.10914 5.24048 2.17275 5.15545 2.25726 5.09531C2.34177 5.03518 2.44294 5.00293 2.54666 5.00308C2.74117 4.98896 2.93607 5.02449 3.11309 5.10633C3.29011 5.18817 3.44343 5.31364 3.55867 5.47096C3.70754 5.66648 3.82431 5.88446 3.9046 6.11672C4.12119 6.6992 4.26389 7.30655 4.32936 7.92454C4.36704 8.28703 4.43293 8.64577 4.47643 9.00736C4.52369 9.40287 4.56292 9.79954 4.59852 10.1963C4.63308 10.5819 4.65885 10.9682 4.68836 11.3543C4.69095 11.3883 4.69432 11.4225 4.6951 11.4567C4.70934 12.1005 4.7263 12.7444 4.73614 13.3884C4.74157 13.7467 4.73484 14.1053 4.73381 14.4638C4.73822 14.6554 4.70168 14.8458 4.62665 15.0222C4.55161 15.1985 4.4398 15.3569 4.29868 15.4866C4.18673 15.5892 4.09762 15.7142 4.03715 15.8535C3.97668 15.9929 3.94621 16.1433 3.94771 16.2952C3.94499 16.6537 3.96182 17.0126 3.97464 17.371C3.98202 17.5758 3.99665 17.7805 4.01166 17.9851C4.05542 18.5806 4.10229 19.1772 4.14579 19.7735C4.17336 20.1483 4.19757 20.5233 4.22346 20.8981C4.26498 21.4774 4.30705 22.0566 4.34969 22.6358C4.36186 22.8061 4.37282 22.9766 4.38257 23.1471C4.40989 23.6304 4.44925 24.1135 4.46025 24.5971C4.47864 25.4257 4.07989 25.9953 3.32991 26.3227C3.07843 26.4459 2.80436 26.5161 2.52466 26.5291C2.46478 26.531 2.40525 26.5192 2.35067 26.4945C2.29608 26.4698 2.24789 26.4329 2.2098 26.3867C2.08067 26.2472 2.00664 26.0655 2.0015 25.8754C1.9993 25.7443 2.0024 25.613 2.0024 25.482C2.0024 22.2485 2.0024 19.0151 2.0024 15.7816L2.00124 15.7815ZM2.89932 5.97975L2.85699 5.99787V25.5929C2.87602 25.5997 2.88689 25.6076 2.8966 25.6059C2.9248 25.6032 2.9526 25.5973 2.97946 25.5883C3.13279 25.5322 3.27026 25.4399 3.38006 25.319C3.48987 25.1982 3.56875 25.0526 3.60994 24.8946C3.64702 24.7103 3.64908 24.5206 3.61603 24.3355C3.58586 23.9212 3.56424 23.5058 3.53951 23.0907C3.52773 22.8974 3.51621 22.7041 3.50236 22.511C3.4718 22.085 3.43905 21.6592 3.40863 21.2333C3.38273 20.8641 3.35982 20.4946 3.33224 20.1255C3.289 19.5464 3.24253 18.9676 3.19825 18.3885C3.18349 18.1955 3.16834 18.0023 3.15941 17.809C3.13701 17.3084 3.09623 16.8072 3.10387 16.3072C3.1023 16.0379 3.15701 15.7712 3.26448 15.5243C3.37196 15.2773 3.52984 15.0556 3.72801 14.8732C3.77505 14.8319 3.81311 14.7814 3.83983 14.7248C3.86656 14.6682 3.88137 14.6068 3.88337 14.5442C3.89631 14.2711 3.91418 13.9978 3.91495 13.7246C3.91586 13.4456 3.89774 13.1667 3.88997 12.8876C3.87538 12.3635 3.86149 11.8394 3.84828 11.3153C3.84828 11.2925 3.84621 11.2697 3.8444 11.2471C3.81281 10.8613 3.78433 10.4751 3.74821 10.0898C3.71364 9.72148 3.67571 9.35341 3.63078 8.98626C3.58508 8.61341 3.52398 8.24237 3.4788 7.86951C3.40932 7.30921 3.26637 6.76049 3.05364 6.23751C3.00926 6.14756 2.95765 6.06135 2.89932 5.97975Z" fill="white"/>
<path d="M15.594 8.69199C17.3651 8.73562 18.9289 9.31147 20.2663 10.4812C20.355 10.5453 20.4183 10.6385 20.4451 10.7446C20.4656 10.8226 20.4619 10.9049 20.4347 10.9808C20.4075 11.0566 20.358 11.1225 20.2926 11.1696C20.2277 11.2221 20.1478 11.2526 20.0644 11.2568C19.981 11.261 19.8985 11.2386 19.8286 11.1929C19.7805 11.1626 19.7351 11.1279 19.6932 11.0894C18.8016 10.306 17.7051 9.79321 16.5324 9.61105C16.0369 9.53004 15.5331 9.51264 15.0332 9.55926C13.9025 9.6585 12.8204 10.0653 11.9043 10.7355C10.9882 11.4057 10.273 12.3138 9.83606 13.3614C9.72705 13.6237 9.64484 13.8976 9.55953 14.1689C9.54108 14.253 9.49846 14.3299 9.43691 14.3901C9.37536 14.4502 9.29756 14.4911 9.21308 14.5077C9.14691 14.5196 9.07883 14.5152 9.01475 14.4948C8.95066 14.4745 8.89251 14.4388 8.84532 14.3909C8.79814 14.343 8.76335 14.2843 8.74396 14.22C8.72458 14.1556 8.72118 14.0874 8.73407 14.0214C8.82188 13.6319 8.9528 13.2534 9.1244 12.8928C10.0365 10.9332 11.5235 9.62749 13.5919 8.99429C14.0975 8.83557 14.6223 8.74641 15.1519 8.72928C15.2994 8.72539 15.4465 8.7052 15.5938 8.69251" fill="white"/>
<path d="M22.6636 15.7741C22.6553 17.5383 21.9907 19.2363 20.7993 20.5374C19.9621 21.4659 18.8886 22.1497 17.6931 22.5158C17.6121 22.5416 17.5275 22.5547 17.4424 22.5546C17.359 22.5516 17.2788 22.522 17.2134 22.4703C17.1481 22.4185 17.1009 22.3472 17.0788 22.2668C17.0545 22.1842 17.0569 22.0961 17.0857 22.015C17.1146 21.9339 17.1684 21.864 17.2394 21.8154C17.313 21.7725 17.3916 21.7387 17.4733 21.7146C18.5253 21.3731 19.4684 20.7597 20.2072 19.9366C20.9461 19.1135 21.4544 18.1099 21.6809 17.0273C21.7839 16.5595 21.829 16.0808 21.8151 15.6019C21.7954 14.9231 21.6654 14.252 21.43 13.6149C21.4179 13.583 21.4041 13.5514 21.3945 13.5186C21.3604 13.4174 21.3673 13.3068 21.4137 13.2106C21.4602 13.1144 21.5425 13.0403 21.6431 13.0041C21.6902 12.9828 21.7411 12.9712 21.7928 12.9699C21.8445 12.9687 21.896 12.9779 21.944 12.9969C21.9921 13.016 22.0359 13.0445 22.0727 13.0809C22.1095 13.1172 22.1386 13.1606 22.1583 13.2084C22.2649 13.4722 22.3548 13.7425 22.4272 14.0177C22.5614 14.5012 22.6331 15 22.6406 15.5017C22.6406 15.5924 22.6558 15.683 22.6641 15.7736" fill="white"/>
<path d="M8.9271 15.3711C8.98315 15.3691 9.03902 15.3785 9.09128 15.3989C9.14354 15.4192 9.1911 15.45 9.23102 15.4894C9.27094 15.5288 9.30239 15.5759 9.32344 15.6279C9.34449 15.6799 9.35469 15.7356 9.35342 15.7917C9.36028 16.0077 9.36935 16.224 9.38786 16.439C9.4435 17.0413 9.59335 17.631 9.83191 18.1868C10.1295 18.905 10.5635 19.5588 11.1098 20.1119C11.1464 20.148 11.1801 20.187 11.2106 20.2284C11.2721 20.3082 11.3019 20.408 11.2941 20.5084C11.2862 20.6089 11.2414 20.7029 11.1682 20.7721C11.0911 20.846 10.9887 20.8876 10.8819 20.8884C10.7751 20.8892 10.672 20.8491 10.5938 20.7764C10.4378 20.6262 10.2902 20.4675 10.1517 20.301C9.44328 19.4607 8.94451 18.4642 8.6964 17.3934C8.57317 16.8778 8.51 16.3497 8.50816 15.8195C8.50535 15.7539 8.5166 15.6883 8.54116 15.6273C8.56571 15.5663 8.60302 15.5113 8.65057 15.4659C8.68661 15.4303 8.73018 15.4034 8.77804 15.387C8.8259 15.3705 8.87684 15.3651 8.9271 15.371" fill="white"/>
</svg>
