<svg width="24" height="24" viewBox="0 0 24 24" fill="none" xmlns="http://www.w3.org/2000/svg">
<g clip-path="url(#clip0_145_24994)">
<path d="M7.70933 6.73322H18.6125M14.4458 11.0133L17.7293 14.2968M11.6605 11.0133L8.37695 14.2968M4.7998 17.9334C7.39221 16.8856 10.1694 16.3719 12.9651 16.4231C15.7469 16.3677 18.5105 16.8817 21.0864 17.9334M6.12002 19.5691V21.9M12.9145 18.5274V20.8583M19.7674 19.5691V21.9M11.6608 6.73322H14.446V11.0144H11.6608V6.73322ZM14.4459 2.58058C14.4459 2.87341 14.359 3.15967 14.1963 3.40315C14.0337 3.64664 13.8024 3.83641 13.5319 3.94847C13.2613 4.06053 12.9636 4.08986 12.6764 4.03273C12.3892 3.9756 12.1254 3.83458 11.9183 3.62752C11.7113 3.42045 11.5702 3.15663 11.5131 2.86943C11.456 2.58222 11.4853 2.28452 11.5974 2.01397C11.7094 1.74343 11.8992 1.51219 12.1427 1.3495C12.3862 1.18681 12.6724 1.09998 12.9653 1.09998C13.3579 1.09998 13.7345 1.25597 14.0122 1.53363C14.2899 1.8113 14.4459 2.1879 14.4459 2.58058Z" stroke="#B98A67" stroke-width="1.54" stroke-miterlimit="10" stroke-linecap="round"/>
</g>
<defs>
<clipPath id="clip0_145_24994">
<rect width="24" height="24" fill="white"/>
</clipPath>
</defs>
</svg>
