<svg width="24" height="24" viewBox="0 0 24 24" fill="none" xmlns="http://www.w3.org/2000/svg">
<path d="M12.3622 1L12.9224 1.55179C15.1336 3.73874 16.4603 6.64416 16.6544 9.72472L16.6873 10.2251L16.2337 10.463C14.9884 11.1226 13.853 11.966 12.8668 12.964L12.2998 13.5437L11.7328 12.9617C10.7517 11.9593 9.61528 11.1166 8.3659 10.4653L7.90436 10.224L7.94745 9.71019C8.20772 6.62471 9.57356 3.73095 11.8008 1.5462L12.3622 1ZM15.0271 9.33936C14.7856 7.0901 13.855 4.96648 12.3588 3.25071C10.8398 4.96489 9.87204 7.08483 9.57817 9.34159C10.5587 9.89875 11.4718 10.5639 12.2998 11.3242C13.1322 10.5661 14.0468 9.90045 15.0271 9.33936ZM1.29986 9.36505H2.09367C4.79745 9.36083 7.43337 10.1986 9.62466 11.7587L9.6893 11.8034C10.6718 12.5083 11.5503 13.344 12.2998 14.2865C13.5094 12.756 15.0572 11.5174 16.8257 10.6646C18.5943 9.81182 20.5369 9.36737 22.5059 9.36505H23.2997V10.1469C23.3082 12.8725 22.4487 15.532 20.8423 17.7513C19.292 19.9087 17.1048 21.5436 14.578 22.4337H14.5678C13.8732 22.6697 13.1607 22.8512 12.437 22.9765L12.3043 23L12.1717 22.9788C11.4375 22.8629 10.716 22.6789 10.017 22.4292C7.49211 21.5392 5.30655 19.9051 3.75727 17.7491C2.15132 15.5304 1.29189 12.8717 1.29986 10.1469V9.36505ZM8.3092 12.764C6.69896 11.7152 4.84137 11.0932 2.91583 10.9579C3.0684 13.1751 3.87167 15.3009 5.22797 17.0769C6.58428 18.8528 8.43519 20.2024 10.5557 20.9615C11.1222 21.1636 11.7059 21.3157 12.2998 21.4161C12.8948 21.3063 13.4807 21.1536 14.053 20.9593C16.1723 20.1996 18.022 18.8501 19.3775 17.0746C20.7329 15.2991 21.5357 13.1742 21.6883 10.9579C19.7344 11.0985 17.8512 11.7371 16.2235 12.8109L16.2371 12.8299C16.1623 12.8813 16.0897 12.9237 16.0273 12.9617C15.9703 12.9943 15.9151 13.0297 15.8617 13.0678C14.7229 13.8843 13.7443 14.8979 12.9734 16.0591L12.2998 17.0521L11.6364 16.0546C10.8606 14.887 9.87441 13.869 8.72652 13.0511C8.69023 13.0276 8.64827 13.003 8.60405 12.9762C8.51219 12.9215 8.40786 12.8645 8.299 12.7808L8.3092 12.764Z" fill="#B98A67"/>
</svg>
