<svg width="32" height="32" viewBox="0 0 32 32" fill="none" xmlns="http://www.w3.org/2000/svg">
<path d="M16 0C24.8366 0 32 7.16344 32 16C32 24.8366 24.8366 32 16 32C7.16344 32 0 24.8366 0 16C0 7.16344 7.16344 0 16 0ZM16.0414 5.89609C10.7161 5.89619 6.37813 10.2094 6.37813 15.5141C6.37355 17.2068 6.81829 18.8628 7.66641 20.325L6.29453 25.307L11.4117 23.9641C12.8252 24.7297 14.4146 25.1359 16.032 25.1359H16.0367C21.3668 25.1359 25.7055 20.8227 25.7055 15.518C25.71 12.9488 24.7042 10.5314 22.8781 8.71406C21.0566 6.89668 18.6276 5.89609 16.0414 5.89609ZM16.0414 7.52422C18.1873 7.52422 20.2086 8.35497 21.7242 9.86797C23.2395 11.3809 24.0734 13.3872 24.0734 15.5227C24.0734 19.9325 20.4677 23.5172 16.0414 23.5172H16.0367C14.5954 23.5125 13.182 23.1295 11.9492 22.4008L11.657 22.225L8.61641 23.0188L9.42734 20.0711L9.2375 19.7664C8.43122 18.4934 8.00944 17.0222 8.00938 15.5141C8.00938 11.1043 11.6152 7.51971 16.0414 7.52422ZM12.6211 11.0719C12.4589 11.0719 12.199 11.1313 11.9766 11.3711C11.7541 11.611 11.1336 12.1926 11.1336 13.3781C11.1337 14.5584 11.9992 15.7018 12.1203 15.8641C12.2408 16.0255 13.7936 18.5304 16.2453 19.4945C18.2845 20.2971 18.7019 20.1361 19.1422 20.0945C19.5825 20.053 20.5695 19.5128 20.7734 18.95C20.9727 18.3873 20.9727 17.9077 20.9125 17.8062C20.8522 17.7048 20.6901 17.6449 20.4492 17.525C20.2082 17.4051 19.0217 16.8237 18.7992 16.7406C18.5768 16.6622 18.4146 16.6211 18.257 16.8609C18.0947 17.1009 17.6313 17.6401 17.4922 17.8016C17.3532 17.963 17.2096 17.9815 16.9688 17.8617C16.7278 17.7418 15.9488 17.4881 15.0266 16.6672C14.3082 16.0306 13.8211 15.2414 13.682 15.0016C13.5432 14.7619 13.6686 14.6324 13.7891 14.5125C13.8956 14.4064 14.0303 14.2313 14.1508 14.093C14.2712 13.9547 14.3126 13.8528 14.3914 13.6914C14.4701 13.53 14.4329 13.3918 14.3727 13.2719C14.3121 13.1557 13.8397 11.9663 13.6266 11.4914C13.4458 11.0901 13.2559 11.0812 13.0844 11.0766C12.9454 11.072 12.7832 11.0719 12.6211 11.0719Z" fill="#2E2E1F"/>
</svg>
