<svg width="15" height="13" viewBox="0 0 15 13" fill="none" xmlns="http://www.w3.org/2000/svg">
<path d="M11.6394 8.73066C10.912 11.3398 8.2277 12.6407 5.62343 12.5971C3.50655 12.5608 1.42604 11.8558 0.436706 9.99526C-0.618097 8.00389 0.414883 6.16513 1.65882 4.6389C7.02013 -1.95298 14.3456 -0.281389 14.7675 2.12425C14.9275 3.04726 14.6875 4.09382 13.8945 4.6171C12.3669 5.61278 12.0759 7.15355 11.6394 8.73066ZM12.396 4.76245C13.1162 4.52988 13.8727 3.15627 13.3635 2.59665C12.3378 1.47742 10.6356 1.83353 9.23158 2.4731C10.4755 2.80015 11.3339 3.86851 12.396 4.76245ZM9.55893 7.56055C10.17 6.74655 10.2355 5.45289 9.55893 4.97322C8.10403 3.92666 6.45272 4.26824 5.20878 5.04589C3.96484 5.82355 3.0628 7.03727 3.41925 8.86148C5.39064 9.6682 8.12586 9.47198 9.55166 7.55328L9.55893 7.56055Z" fill="#012E4E"/>
</svg>
