<svg width="26" height="13" viewBox="0 0 26 13" fill="none" xmlns="http://www.w3.org/2000/svg">
<path d="M25.8956 3.42811C27.2979 9.53224 14.2254 15.7649 7.86357 11.7026C5.42146 12.438 2.56206 12.3166 0.817693 10.2605C-0.830907 8.31856 0.229395 5.51994 2.08321 4.18488C3.23245 3.35672 4.79212 3.72082 5.83874 3.05687C9.26591 0.872229 12.741 -0.241508 16.8317 0.0440655C19.1165 0.201131 21.3944 -0.170112 23.4945 0.972181C24.63 1.58616 25.6425 2.27868 25.9092 3.42811H25.8956ZM11.2839 5.29862C12.3374 5.66986 12.8641 6.30526 12.953 7.11201C13.042 7.98301 12.6657 8.61841 12.009 9.33948C15.6004 10.7459 23.9939 6.70507 23.3303 4.31339C22.7078 2.0645 8.97176 0.19399 5.73613 4.27055C5.14099 3.45667 4.67582 3.99926 3.93019 4.32053C2.34316 4.99877 0.694557 6.97636 1.92588 8.75406C2.91777 10.1819 5.32569 9.98916 6.64593 9.45371C6.72802 7.93303 7.05638 6.84785 7.91146 6.09108C8.76654 5.33431 9.9705 4.8417 11.2839 5.30576V5.29862Z" fill="#012E4E"/>
</svg>
