<svg width="268" height="119" viewBox="0 0 268 119" fill="none" xmlns="http://www.w3.org/2000/svg">
<path d="M184.081 6.30571C189.813 5.25919 190.09 5.63705 193.916 7.90434C194.403 8.19506 195.415 7.40371 196.041 7.82524C196.413 8.08117 198.368 10.1364 198.208 11.4004C198.092 12.2798 196.841 12.4539 196.019 12.8028C194.615 16.5093 193.945 20.725 193.393 24.7295C193.022 27.4114 192.338 29.7157 192.367 32.71C194.579 30.9222 196.884 30.3841 199.729 30.7911C199.059 27.7023 199.38 17.1781 202.864 16.7129C203.774 16.5895 204.836 16.9317 205.148 17.9854C206.741 23.4434 207.112 28.2691 204.508 33.6036C209.556 35.7403 212.358 40.021 213.667 45.043C214.976 50.065 215.485 54.3972 214.496 59.3829C213.332 65.2623 210.91 71.9986 204.094 72.2168C204.959 72.6965 205.658 72.7698 205.891 73.4893C206.138 74.2378 205.737 74.7247 205.155 75.4805L217.354 76.5489C221.93 76.9486 226.324 77.5081 230.922 77.6026C231.678 77.6171 232.151 78.0027 232.238 78.5987C232.325 79.1946 231.802 79.8561 231.002 79.9288C229.758 80.0523 228.761 80.7279 227.583 80.837L225.117 81.0625C224.084 81.157 223.262 81.6579 222.055 81.7452C222.695 82.3119 223.603 82.5162 224.433 82.5235C225.633 82.5235 225.749 83.3882 226.44 83.8897C227.328 84.5364 228.426 84.6307 229.212 85.6768C232.194 89.6377 234.413 94.6892 235.476 99.4932C235.592 100.147 234.123 101.768 235.309 102.029C240.059 103.076 244.875 102.066 249.625 102.742C250.956 102.931 252.105 103.672 253.589 103.832L265.745 105.141C266.582 105.228 267.2 105.925 267.302 106.427C267.476 107.313 267.076 108.091 266.036 108.23L249.014 110.432C248.766 110.461 248.861 111.245 249.225 111.274L255.117 111.783C255.655 111.827 255.997 112.372 256.048 112.677C256.361 114.639 250.818 114.102 249.29 113.949L241.208 113.135C230.638 112.066 226.877 114.21 218.432 114.225C217.246 114.225 216.628 113.658 216.147 112.648C211.223 112.996 197.008 114.465 192.92 113.614C191.691 113.36 190.795 113.041 189.442 113.077L175.446 113.411L120.641 114.051L113.438 114.952L90.3418 117.147L74.1709 118.251L69.7119 118.571L42.2646 118.651C41.13 118.651 40.0973 117.976 38.9189 118.303C37.4568 118.717 36.1468 117.823 34.8301 117.83C28.5742 117.866 23.8532 118.804 17.6191 117.902C16.7826 117.779 16.0262 117.837 15.8516 116.943C15.6843 116.115 16.0474 115.395 17.0947 115.228L33.1211 112.641C31.1861 112.481 29.4037 112.779 27.5342 112.902L27.5264 112.873C22.9722 113.186 8.67873 113.374 4.45215 113.055C3.88501 113.011 3.56489 112.481 3.46289 112.14C2.88956 110.247 7.74626 110.597 7.74023 110.599L33.6592 108.207L37.4785 107.996L64.6924 105.409C63.1721 104.552 61.528 105.293 59.8477 105.402C54.6246 105.729 49.401 104.958 44.2725 105.794C42.3449 106.106 41.1519 106.986 39.0645 106.078C37.0931 105.221 34.4299 106.1 32.3203 106.078C30.6691 106.056 29.1921 105.693 27.5264 105.773C23.191 105.976 19.0156 105.686 14.6875 105.468C11.9378 105.33 9.29692 105.663 6.59082 105.104C5.29596 104.835 3.9716 105.562 2.8877 104.733L28.9014 104.399C28.9377 102.815 29.0542 101.645 29.7451 100.242C27.0683 100.86 24.7337 99.4568 24.4209 96.8116C23.999 93.3012 24.7773 89.6017 25.8467 86.2149C26.0505 85.5828 26.9085 85.3934 27.2939 85.3643C27.7449 85.328 28.2397 86.0694 28.7344 86.1348C29.2726 86.2002 29.8325 85.7358 30.1816 85.8809C32.2621 86.7457 30.1818 93.1408 30.9453 96.1934C33.4841 95.4884 36.0669 95.118 38.6348 94.5948C38.7875 91.3753 38.4236 88.4683 39.2236 85.4668C40.5038 88.5482 39.7118 91.404 39.6826 94.42C42.0686 94.2746 44.4182 93.795 46.8623 93.5479L69.2461 91.3028C70.7591 91.1501 72.0903 90.6265 73.6543 90.6192C74.9055 90.6119 76.1063 90.423 77.4375 89.8125L77.9102 65.5821C77.9247 64.7027 79.168 64.0043 78.4551 62.8487L69.4131 65.1163C68.6784 65.298 67.9581 65.7127 67.4707 65.0586C67.0561 64.499 67.1658 63.5689 67.8496 63.1983L72.0977 60.8946C73.225 60.2842 73.7561 58.9685 74.6797 57.9366C83.4964 54.4989 92.3065 51.2643 101.509 48.8223C102.862 48.4663 103.916 48.2197 105.116 48.8809C109.757 45.8939 115.599 45.5229 120.247 48.4297C121.076 48.9457 121.295 49.6795 122.299 49.2725C124.685 48.3131 122.656 44.5929 128.09 41.7149C130.178 40.6103 133.472 42.7323 134.192 44.9053C134.934 45.2251 136.543 44.8109 137.176 44.1641C137.649 39.084 138.936 31.9755 144.784 30.5C147.003 29.9404 148.648 31.7648 149.099 33.9815C151.537 32.7817 169.296 22.6386 170.07 23.3995L171.118 24.4385C171.947 25.2598 173.817 24.7662 174.501 25.711C176.734 28.7924 173.511 31.1767 172.98 35.1739C172.944 35.4211 172.442 35.8641 172.573 36.0166C173.171 36.7066 178.538 35.1158 180.742 35.4864C181.892 26.5688 179.956 24.6276 179.563 16.5313C178.48 16.0376 176.61 17.3889 175.963 15.7178C175.665 14.9474 176.029 14.1334 176.814 13.7627C177.382 13.494 177.949 13.5663 178.538 13.1231C177.607 12.3236 177.032 11.5893 176.967 10.6954C176.705 7.27977 181.659 6.74903 184.081 6.30571ZM179.578 109.313C176.501 107.866 169.175 109.494 165.909 109.676C168.244 109.879 170.507 109.741 172.9 109.625L172.907 109.632L179.578 109.313ZM223.08 107.575C221.982 107.43 221.043 106.899 220.235 107.51C223.196 108.178 226.906 108.142 229.481 107.844C227.343 107.313 225.342 107.88 223.08 107.575ZM85.1846 105.859C83.5769 105.656 80.4707 106.202 78.8994 106.405C79.7149 106.493 85.7447 106.957 85.1846 105.859ZM98.0898 54.9854C97.4498 56.1699 96.6128 56.9763 95.7109 57.4415C95.6818 59.1203 96.7362 61.3739 95.8633 62.9219C94.6559 63.2126 93.7468 64.1572 92.874 65.4288L92.4004 58.5323C91.0693 58.9683 89.9636 59.266 88.9453 59.8038C88.7635 61.0174 89.6221 62.1151 89.3604 63.336C89.0985 64.5568 87.8109 65.8001 86.5889 65.9239C84.5156 66.1346 85.6425 61.7227 85.2715 61.0323C84.2094 61.3375 82.6897 61.3816 82.0859 62.0284C81.0823 63.729 82.7115 65.4439 83.9336 66.5049C83.9772 73.4674 84.4061 80.9821 84.748 88.1553L85.0684 94.835C85.112 95.7288 85.0171 96.5867 84.5225 97.2334C83.9842 96.7901 83.395 96.3755 82.8203 96.7315C82.4639 99.8857 83.1689 98.7596 80.2373 102.001C79.7058 102.582 77.7942 101.703 77.7139 100.969C77.4884 98.9339 78.0987 96.8699 77.3496 94.9659C76.5712 94.4499 74.8326 95.0162 74.3379 95.7139C76.2293 97.887 75.9963 100.772 74.5195 103.403L82.5293 103.266C82.6675 102.437 82.646 101.971 82.8643 101.208C84.9827 100.67 98.3437 96.9792 98.1182 100.111C97.9651 102.233 95.405 99.5953 94.4375 104.195C93.761 105.467 89.2876 104.617 88.1016 105.627C89.0254 106.237 90.0728 105.555 91.1348 105.54L102.949 105.395C100.781 104.283 100.017 102.495 99.3838 100.431C98.7437 98.3304 98.3804 96.615 99.5879 94.5147C100.795 92.4144 103.262 90.6775 106.092 90.961L106.084 90.9463C108.514 91.1862 110.267 92.7418 110.726 94.9512C111.344 97.9456 110.354 103.2 107.408 105.439C111.445 105.569 114.762 105.758 118.821 105.38C114.064 102.945 112.406 97.8795 114.988 93.4463C115.912 91.8622 117.593 91.8334 119.135 91.252C121.23 90.4599 123.121 89.9 125.397 91.0625C126.809 91.782 127.994 93.3448 128.686 95.2852C129.748 89.3547 134.506 83.6567 140.646 85.6553C141.351 85.8878 142.115 85.9386 142.726 85.7715C140.922 84.7177 138.855 82.9156 136.993 83.4825C133.574 84.5072 130.25 85.2194 126.838 86.0479C127.092 86.7165 127.1 87.7917 126.278 87.7774C118.342 87.6248 116.334 89.0932 110.15 88.2647C107.401 87.8941 104.818 88.8747 102.047 88.6495L102.796 89.3252C100.759 89.0709 98.9624 89.1661 96.8965 89.4786C97.0798 90.1102 102.286 88.8828 101.931 90.917C101.843 91.4112 101.247 91.8544 100.606 91.8399C97.0419 91.7454 93.8117 92.3341 90.4727 93.5333C89.6215 93.8384 87.847 94.0351 87.5195 92.9307C86.974 91.0775 93.2807 90.2999 95.4414 89.4932C93.47 88.701 91.3023 89.3473 89.3164 88.7295C88.5381 88.4897 87.8469 87.4505 86.8213 87.2325C86.6394 82.93 86.5006 78.4456 87.2354 74.1358C87.4318 72.9875 88.087 72.1224 87.4541 70.8506C90.2693 70.1747 92.7354 69.0264 95.5215 68.8301C96.9254 68.7284 96.6274 71.1347 97.1875 72.1231C97.7113 67.8569 97.7402 63.4157 97.6602 58.9024C97.6312 57.4999 98.5335 56.5332 98.0898 54.9854ZM128.81 98.2071C128.373 101.318 127.442 103.491 125.34 105.591C129.913 105.809 130.562 106.259 133.961 104.489C131.455 102.891 130.067 101.032 128.81 98.2071ZM156.038 79.3907C154.11 79.2817 152.422 79.7827 150.538 79.9571L149.985 85.8663C149.818 87.6467 149.23 89.2746 149.324 91.1641C149.346 91.6583 149.2 92.1964 148.851 92.5235C148.632 92.7268 148.153 92.6907 147.724 92.8868C147.302 98.2768 148.224 99.1287 145.007 104.268L151.608 103.883C150.91 102.487 149.753 101.485 149.614 99.9004C149.076 93.5411 149.52 90.3576 155.456 86.1641L156.038 79.3907ZM45.1602 99.21C45.7348 100.896 45.7343 102.313 45.1523 104.028L53.5254 103.934H53.5186C52.3402 101.841 52.6161 100.06 54.0273 98.1846L45.1602 99.21ZM67.0488 96.5137C65.5724 96.4701 64.234 96.6076 62.7939 96.8692C63.7105 99.3183 63.4626 101.557 61.957 103.592C63.6954 103.759 64.8884 103.658 66.5176 103.513C64.5317 101.078 65.0994 98.5123 67.0488 96.5137ZM166.244 103.476L173.293 103.171C172.791 102.183 172.173 101.63 172.027 100.583C173.038 101.419 173.795 102.509 175.104 103.142C174.85 101.645 174.151 100.656 174.508 99.6895L174.516 99.6827C175.243 101.122 175.491 102.611 176.749 103.047C177.731 103.388 179.847 103.541 180.793 103.011C182.466 102.059 183.034 99.8709 183.659 98.1485C177.476 97.1819 173.228 97.6986 167.103 96.6739L166.244 103.476ZM185.66 103.156C186.561 103.243 187.07 103.446 188.071 103.056C187.143 101.46 186.772 100.233 186.278 98.7666L185.66 103.156ZM39.2383 98.2872C37.8126 97.8657 36.7139 98.2504 35.5137 98.7881C36.6849 99.8565 36.4668 101.049 36.8887 102.495C37.2596 100.729 37.9364 99.508 39.2383 98.2872ZM206.363 84.4268C209.236 88.1767 209.302 96.2433 211.28 97.0801C216.045 99.0933 221.014 99.9077 225.902 101.347C227.706 101.877 229.373 102.742 231.228 101.877C229.889 99.3916 229.067 97.0733 228.114 94.7041L224.316 85.2706C217.733 85.5176 213.048 84.6012 206.363 84.4268ZM59.5195 101.172C59.5265 100.213 57.905 99.4206 57.4902 99.9073C56.7919 100.736 57.1488 101.899 57.8398 102.103C58.3782 102.262 59.5127 102.32 59.5273 101.165L59.5195 101.172ZM206.072 95.8663C205.352 97.952 204.632 99.6167 204.319 102.029L214.423 101.957C211.361 99.7989 207.688 100.482 207.091 97.6768C206.945 96.9864 206.669 96.2805 206.072 95.8663ZM71.8066 99.5665C71.5157 98.9125 70.3376 98.5051 69.7119 99.1006C69.2027 99.5803 69.3766 100.496 69.6895 100.918C69.9513 101.267 70.6284 101.855 71.334 101.71C72.1338 101.543 72.0756 100.17 71.8066 99.5665ZM221.901 89.6817C221.938 89.2093 223.058 88.4894 223.531 88.751C225.022 90.9749 225.611 93.7734 226.375 96.3897H226.368C226.717 97.5743 227.837 99.7109 226.637 100.271C226.142 100.503 225.255 100.22 225.044 99.5225C224.171 96.6299 221.785 91.2951 221.901 89.6817ZM140.703 92.5674C139.379 91.6009 137.582 92.6835 136.862 93.9844C135.997 95.5542 135.982 97.2915 136.331 99.043C138.637 99.7625 140.733 98.374 141.097 95.8448L141.089 95.8526C141.242 94.7697 141.598 93.2288 140.703 92.5674ZM198.427 93.6133C196.113 94.0276 194.404 95.1404 193.407 96.9864C194.571 98.2289 196.077 98.7662 197.706 98.6573C198.426 96.7822 198.943 95.234 198.427 93.6133ZM216.816 87.2471C218.264 88.4826 218.199 89.9142 218.628 91.295C219.232 93.2064 220.723 97.3715 218.999 98.1055C218.526 98.309 217.827 98.4831 217.435 97.6836C216.94 96.6807 216.969 95.5537 216.605 94.4854C215.798 92.0944 215.522 89.5363 216.816 87.2471ZM157.675 90.7715C156.082 90.9169 153.143 94.2026 153.885 96.2012C154.627 98.1997 157.566 98.2648 158.934 96.9639C160.301 95.663 160.709 94.0421 159.385 91.9854C158.941 91.295 158.453 90.6989 157.675 90.7715ZM115.454 97.4219C115.411 96.2081 118.763 91.4774 117.425 92.2041C115.57 93.3089 114.909 95.467 115.454 97.4219ZM210.647 88.4532C210.902 88.1551 211.536 87.1239 211.979 87.669L211.972 87.6758C213.507 89.5727 215.667 95.394 214.074 97.2256C213.834 97.5018 213.093 97.0804 212.903 96.6299C212.27 95.1037 209.905 89.3108 210.647 88.4532ZM194.972 89.8711C193.248 91.3683 191.967 93.6645 192.629 96.1065L195.852 92.545H195.858C196.535 91.7966 195.517 90.3802 194.972 89.8711ZM183.339 15.4053C185.769 21.7937 186.002 28.3129 185.675 35.0137C185.617 36.1692 184.983 37.0272 184.045 37.4415C187.711 40.8498 175.694 40.4719 171.3 42.754C165.306 45.8647 163.538 57.1003 162.789 63.336C162.323 55.9374 161.516 50.3559 166.674 43.8077C162.556 44.4327 159.028 45.7912 155.136 46.627L143.926 49.0479C137.626 53.1397 136.739 61.4608 138.041 68.5176C134.993 62.7616 135.182 56.206 138.594 50.4209C135.626 51.2422 133.276 51.0756 130.701 51.3663C127.537 51.7224 124.699 53.103 121.491 53.7862C119.447 56.7296 117.352 59.9569 117.469 63.6416L117.891 76.9561C137.423 74.456 154.94 69.9934 174.646 68.1983C174.705 65.1387 175.396 62.2316 176.741 59.4336C177.832 57.1734 178.597 53.5242 180.75 54.1856C183.805 55.1232 178.626 58.1835 177.709 66.6719H177.724C177.433 69.4046 179.528 67.8715 179.39 69.6739C179.353 70.1389 178.953 70.495 178.393 70.5967C177.331 70.7857 177.767 72.1517 177.207 72.6387C176.465 73.2783 175.679 73.6057 175.687 74.7032C175.046 73.3588 175.17 72.0868 174.436 70.9532C173.163 70.5026 167.758 72.6538 169.802 72.1377C166.375 72.9953 162.963 73.1108 159.639 74.1719C161.319 74.0629 162.644 74.6598 164.019 74.667L170.412 74.7178C171.387 74.7251 172.493 74.2738 173.185 75.3204C172.719 75.8726 171.933 75.7492 171.147 75.8799L171.7 80.5538C172.202 84.8125 171.823 88.9331 171.787 93.4317L182.619 94.6309C182.372 91.8257 182.386 89.1585 181.921 86.4405C181.688 85.0814 181.28 83.8383 181.2 82.3702L180.546 70.2627C180.393 67.5083 181.543 58.7429 183.688 59.2588C185.136 59.6077 182.874 61.5844 183.368 63.6846C184.663 61.686 185.886 60 187.93 58.4883C184.794 49.9561 188.839 40.203 188.89 37.6446C189.057 29.5483 189.661 21.8953 191.821 13.7627L183.339 15.4053ZM197.35 88.7227C196.906 88.7445 196.15 88.7733 195.873 89.2598C195.611 89.7175 196.142 90.4299 196.164 90.9532C196.222 92.1886 196.753 92.3995 197.721 92.2833C198.688 92.167 198.718 91.4696 198.623 90.1905H198.616C198.543 89.1948 198.099 88.6791 197.35 88.7227ZM71.1152 69.0489C72.832 68.5474 73.9672 68.9399 75.1748 70.5606C74.5419 70.4516 74.3596 71.4104 73.7559 71.6866C67.2742 74.6954 51.9758 76.9342 45.2324 79.7032C51.5831 78.9619 56.974 77.0723 63.0264 75.9385C61.8187 77.2903 52.6019 79.9143 52.2236 80.3721C52.079 80.5465 52.7619 80.8149 52.7842 81.0401C53.0606 84.1869 52.8711 87.3268 52.1729 90.4083C52.0783 90.8295 51.6133 90.4886 51.4385 90.4229C50.4913 90.0834 51.3265 82.04 51.8867 80.4297C48.536 81.3567 30.7202 88.0074 30.3711 84.0059C30.2256 82.3416 32.3423 82.9445 35.7539 81.462C38.2491 80.3791 41.9886 79.6446 41.3994 78.1983C41.1514 77.5886 38.6129 79.3027 37.7256 77.5079C41.0063 75.4657 44.6072 74.7607 48.1426 73.5616C51.9835 72.2534 55.7009 70.5818 59.8037 70.2911C61.5932 70.1675 63.2299 69.6664 64.9248 69.71C65.6377 69.7318 66.2342 70.4872 67.1289 70.2256L71.1152 69.0489ZM185.951 89.42C186.81 86.8618 187.937 84.9069 189.777 83.3516C188.599 83.0827 187.566 83.5183 186.656 82.8497C185.828 82.2391 186.147 80.8224 187.049 80.2627V80.2696C188.649 79.2739 190.156 79.6091 191.669 79.253C190.018 78.7951 188.322 79.667 186.838 79.1583L184.925 78.504L185.951 89.42ZM66.1035 76.7813C66.1985 76.4616 67.3183 76.2805 67.3838 76.6729C67.5003 77.4182 68.1034 89.0716 66.3506 89.4131C65.3105 88.2941 66.205 76.4445 66.1035 76.7813ZM168.914 76.0547C168.092 75.9893 167.546 76.5493 167.233 76.92C166.725 77.5231 167.037 78.228 167.146 78.962L168.688 89.2891C169.547 87.1888 168.929 85.561 169.285 83.795C168.871 81.2004 168.732 78.7729 168.914 76.0547ZM88.1016 71.1924L88.8438 86.3243C91.6588 86.535 94.2194 86.3245 96.998 85.8594H96.9912L94.6562 70.5674L88.1016 71.1924ZM98.249 82.3926C97.6016 81.5568 98.0163 80.5022 97.4053 79.3975C97.2307 81.5488 97.0495 83.5843 97.2969 85.9463L103.443 85.4375C103.937 85.394 104.069 85.2415 104.142 85.1036C105.131 83.1633 101.698 85.0083 100.505 84.9288C99.4792 80.4227 100.127 76.0108 99.7119 71.294L98.249 82.3926ZM163.778 77.9229C162.076 78.0174 160.723 78.446 159.086 78.8458L158.366 84.711C160.49 84.4566 162.323 84.5069 164.396 85.3135L164.403 85.3067C163.952 82.4506 163.633 80.51 163.778 77.9229ZM146.399 81.2217C144.159 81.6578 142.18 82.0729 139.809 82.9014C141.998 83.759 143.948 84.8927 146.56 85.2198C146.858 83.8171 146.567 82.6971 146.399 81.2217ZM212.721 83.3077C211.622 82.0871 210.022 82.3193 208.531 82.3702L197.655 82.7706C198.514 84.4709 199.998 83.1483 202.9 84.878C203.73 83.5843 204.625 83.4824 206.218 83.6641H206.21C208.392 83.9112 210.48 83.2569 212.721 83.3077ZM235.127 78.9258C237.498 77.8213 240.386 78.1628 242.408 79.6817C243.194 80.2704 243.208 81.5056 242.932 82.334C242.706 83.0099 242.052 84.0348 240.822 84.42V84.4268C238.589 85.1245 235.985 84.4855 234.355 82.8868C233.33 81.8838 233.832 79.5291 235.127 78.9258ZM102.439 58.7432C102.294 61.3595 102.069 63.9108 102.062 66.6143L102.018 83.8311C103.32 83.395 104.426 83.2207 105.444 82.3995C103.953 82.6902 101.923 81.5853 102.526 80.1827L102.52 80.1758C107.212 79.1874 109.984 78.5547 114.581 77.4864C113.759 71.4687 113.912 65.4438 116.108 59.7823C116.763 58.0889 118.058 56.8457 118.188 54.7598L102.439 58.7432ZM187.944 59.4551C185.427 62.7764 183.943 66.8171 183.71 70.9014C183.652 71.868 184.947 73.0536 184.271 74.2891C189.075 73.8752 191.846 72.1755 197.496 71.919C191.261 68.5928 191.099 65.1923 187.944 59.4551ZM105.364 65.3057C106.579 64.5933 110.566 62.5733 111.795 63.5762C112.95 64.5211 107.299 66.0611 106.571 66.1846C106.251 66.2425 106.135 65.2624 105.364 65.3057ZM199.357 39.7305C196.666 39.6289 194.608 41.0024 194.004 43.8077C192.469 50.9882 193.939 58.583 197.547 65.044C200.355 65.4435 202.748 64.2294 204.61 62.0928V62.086C206.931 56.25 208.421 49.4328 206.697 43.5459C205.119 40.9442 202.34 39.8468 199.357 39.7305ZM117.563 51.1192C112.697 48.4665 101.385 50.0505 101.552 56.6856C103.108 56.206 104.236 55.6614 105.393 55.0655L103.88 54.6875C108.463 52.827 112.428 52.6236 117.563 51.1192ZM129.974 43.6036C128.119 43.9451 126.365 45.6393 126.234 47.6016C128.388 47.2818 130.082 46.6127 131.894 45.7842C131.486 44.9993 130.81 43.5165 129.974 43.6036ZM142.246 37.085C141.271 39.2072 140.652 40.9881 140.507 43.2266C142.34 42.9432 143.533 42.6156 145.09 42.0997C144.326 40.1666 143.89 38.2915 142.246 37.085ZM197.161 35.5225C193.902 35.9586 191.436 38.6115 190.716 41.584C192.578 38.9822 194.484 36.8961 197.161 35.5225ZM153.434 33.8438C154.918 34.2435 155.82 33.2185 157.151 33.3711C154.649 34.7884 152.11 35.7617 149.287 36.7647C149.193 38.2183 148.902 39.5926 149.513 41.1407C151.63 40.3339 153.529 40.3775 155.158 39.629C155.558 39.1565 155.158 37.6368 156.133 37.3897L166.069 34.8614C163.836 33.4369 163.146 31.3726 163.611 28.7491L153.434 33.8438ZM168.921 28.087C168.113 28.9809 167.001 30.2095 167.357 31.2706C167.634 32.0918 169.321 31.8954 169.823 31.2413C169.94 29.8751 169.823 28.8573 168.921 28.087Z" fill="#012E4E"/>
</svg>
