<svg width="38" height="20" viewBox="0 0 38 20" fill="none" xmlns="http://www.w3.org/2000/svg">
<path d="M30.265 16.329C22.3067 18.9962 8.55057 22.5284 1.83621 16.1981C-0.0915382 14.3739 -0.273399 12.2445 0.25764 9.86789C1.9817 2.19312 10.2383 0.972127 16.778 2.38208C20.8299 -1.30996 28.3736 -0.299735 31.9308 2.62191C35.99 5.95056 33.473 11.1979 30.5341 14.185C33.6913 13.9669 35.379 11.7502 37.7723 10.0205C36.2737 13.0948 33.553 15.2388 30.265 16.3362V16.329ZM16.8217 16.5106L28.1263 14.9553C30.9124 12.7677 34.0986 6.57559 30.3377 4.43159C27.1515 2.61465 23.0414 2.20765 19.6442 3.92285C20.5462 5.18017 21.1573 6.15406 20.9754 7.5204C20.859 8.39253 20.3935 9.57718 19.2659 10.0569C17.9783 10.6092 16.5816 10.3185 15.6796 9.4609C14.7775 8.6033 14.7339 7.14248 14.6757 5.71799C11.344 4.53334 3.38567 5.5799 3.45842 10.442C3.53116 15.3042 13.0026 17.0412 16.8144 16.5179L16.8217 16.5106Z" fill="#012E4E"/>
</svg>
