<svg width="72" height="44" viewBox="0 0 72 44" fill="none" xmlns="http://www.w3.org/2000/svg">
<path d="M31.5668 35.6737C24.1759 41.4298 15.5047 45.1073 6.11333 42.2656C2.67249 41.2263 -0.382805 38.3846 0.0391165 34.6199C0.373744 31.6546 1.05028 28.5004 2.43243 25.8767C4.54204 21.8576 8.04108 18.1874 12.1875 16.6539L18.6837 14.241C23.5285 12.4459 28.4315 11.3266 33.4727 13.0854C35.1968 10.4472 37.5683 8.82651 39.6779 6.72612C43.6352 2.78699 48.4073 0.279602 54.0523 0.0615684C56.3583 -0.0329128 58.7225 -0.243679 60.5557 1.48605C62.789 3.58644 63.2255 6.63891 62.8035 9.85127C65.1605 9.22624 67.4738 8.93553 69.3215 10.3309C72.5441 12.7511 72.3186 19.1468 70.4127 22.7661C69.0523 25.3462 66.9864 26.9887 64.8477 28.9219C57.8205 35.2812 48.7419 38.9151 39.2051 38.1229C36.4626 37.8976 33.8947 37.3598 31.5814 35.681L31.5668 35.6737ZM30.0537 33.6751C29.2826 29.8522 30.7739 25.666 35.0222 25.4697C36.0115 25.4261 37.2409 25.884 37.6556 26.6762C38.0993 27.512 37.9829 28.5803 37.3646 29.3653L34.1129 33.4861C37.8884 35.4993 41.8602 35.3394 45.7958 34.46C52.7138 32.9047 59.159 29.954 64.2875 25.0845C66.5936 22.8897 68.4122 20.2951 68.3758 17.0682C68.3613 15.8399 68.2303 14.5463 67.3065 13.9648C66.5063 13.4561 65.6115 12.8383 64.5058 13.1218C60.8904 14.0448 58.5989 17.3298 57.2313 15.1277C56.031 13.1945 59.0644 11.1086 55.9073 11.0141C56.4093 10.5054 57.3477 11.0941 57.9151 10.6725C59.5882 9.42247 59.7628 7.54738 59.239 5.70137C57.8642 0.839221 51.2516 2.85966 48.1963 4.51672C43.4097 7.11132 38.9068 9.99663 35.4587 14.3936C38.303 16.683 39.3287 20.3169 37.6338 23.3548C36.9354 24.6121 35.2186 24.9319 34.0111 24.5322C32.9635 24.1833 31.7996 23.4929 31.2467 22.2428C30.4175 20.3678 30.9703 18.3328 31.5668 16.3196C26.8602 14.0375 20.8878 15.7309 16.6032 18.4709C12.3185 21.2108 8.32478 23.6964 5.124 27.621C2.94892 30.281 3.42177 35.2231 6.04786 37.4325C8.95767 39.889 13.0678 39.1913 16.2904 38.043C18.2909 37.3308 19.673 36.1824 21.8554 35.7246C19.8694 37.8468 17.2797 38.7552 14.8136 40.5431C20.1895 40.0489 26.1255 37.4688 30.061 33.6823L30.0537 33.6751ZM34.9858 21.9957C35.8442 20.4114 35.5096 18.6089 34.0692 17.3589C33.2763 17.795 33.2109 18.8997 33.1818 19.7791C33.1527 20.6585 33.4145 21.5233 34.9786 21.9957H34.9858Z" fill="#012E4E"/>
</svg>
