<svg width="32" height="32" viewBox="0 0 32 32" fill="none" xmlns="http://www.w3.org/2000/svg">
<path d="M15.75 1C20.6767 1 24.1356 1.95713 26.0381 3.84375L26.2168 4.03125C26.6206 4.43265 26.9419 4.9101 27.1611 5.43555C27.3804 5.96114 27.494 6.52524 27.4951 7.09473L27.4971 24.6104C27.5125 24.9954 27.4473 25.3799 27.3057 25.7383C27.1639 26.0968 26.9485 26.4219 26.6738 26.6924C26.0286 27.2418 25.2047 27.5368 24.3574 27.5215C24.2809 27.5215 24.2283 27.5166 24.2051 27.5166H23.7627L25.5977 29.8447C25.6571 29.9174 25.7017 30.0009 25.7285 30.0908C25.7553 30.1809 25.7641 30.2757 25.7539 30.3691C25.7437 30.4625 25.7154 30.5535 25.6699 30.6357C25.6244 30.7179 25.562 30.7895 25.4883 30.8477C25.4145 30.9058 25.3298 30.9495 25.2393 30.9746C25.1488 30.9997 25.0541 31.006 24.9609 30.9941C24.8677 30.9823 24.7777 30.9523 24.6963 30.9053C24.615 30.8583 24.5441 30.7954 24.4873 30.7207L23.9199 30.001H7.57715L7.00977 30.7207C6.95295 30.7955 6.88111 30.8583 6.7998 30.9053C6.71852 30.9522 6.62825 30.9823 6.53516 30.9941C6.44204 31.006 6.34728 30.9997 6.25684 30.9746C6.16633 30.9495 6.08157 30.9058 6.00781 30.8477C5.93423 30.7896 5.8726 30.7177 5.82715 30.6357C5.78165 30.5536 5.75334 30.4625 5.74316 30.3691C5.73301 30.2757 5.74176 30.1809 5.76855 30.0908C5.79535 30.0008 5.83991 29.9174 5.89941 29.8447L7.7334 27.5195H6.44238C5.79488 27.5188 5.17367 27.2606 4.71582 26.8027C4.25824 26.345 4.00081 25.7244 4 25.0771V7.03809C4.01362 5.91086 4.46751 4.83323 5.26465 4.03613C7.11965 2.02116 10.6471 1.00003 15.75 1ZM8.69531 28.5859H22.8057L21.9629 27.5186H9.53613L8.69531 28.5859ZM5.41699 25.0752C5.41699 25.3477 5.52608 25.6091 5.71875 25.8018C5.91131 25.9942 6.1721 26.1024 6.44434 26.1025H24.251C24.7754 26.1336 25.2936 25.9753 25.7109 25.6562C25.843 25.5178 25.9445 25.353 26.0088 25.1729C26.073 24.9927 26.0986 24.8011 26.084 24.6104H26.0859V18.3125H5.41699V25.0752ZM9.65527 20.123C10.0847 19.9451 10.5578 19.8986 11.0137 19.9893C11.4695 20.0799 11.8882 20.3042 12.2168 20.6328C12.5454 20.9614 12.7697 21.3802 12.8604 21.8359C12.9509 22.2916 12.9043 22.7641 12.7266 23.1934C12.5487 23.6228 12.2469 23.9899 11.8604 24.248C11.4739 24.5062 11.0194 24.6436 10.5547 24.6436C9.93174 24.6434 9.33409 24.3965 8.89355 23.9561C8.45297 23.5155 8.20519 22.917 8.20508 22.2939C8.20509 21.8293 8.34347 21.3747 8.60156 20.9883C8.85965 20.6021 9.22622 20.3009 9.65527 20.123ZM20.0449 20.123C20.4743 19.9452 20.9475 19.8986 21.4033 19.9893C21.8591 20.08 22.2779 20.3042 22.6064 20.6328C22.935 20.9615 23.1584 21.3802 23.249 21.8359C23.3396 22.2917 23.2931 22.764 23.1152 23.1934C22.9374 23.6226 22.6364 23.9899 22.25 24.248C21.8636 24.5061 21.409 24.6436 20.9443 24.6436C20.3212 24.6434 19.7228 24.3958 19.2822 23.9551C18.8419 23.5144 18.5947 22.9169 18.5947 22.2939C18.5948 21.8292 18.7321 21.3747 18.9902 20.9883C19.2484 20.6019 19.6157 20.3009 20.0449 20.123ZM10.5547 21.3594C10.3071 21.3596 10.0696 21.4578 9.89453 21.6328C9.71938 21.808 9.6212 22.0462 9.62109 22.2939C9.62108 22.4788 9.67566 22.6597 9.77832 22.8135C9.88092 22.967 10.0267 23.0864 10.1973 23.1572C10.3682 23.228 10.5569 23.247 10.7383 23.2109C10.9196 23.1748 11.0861 23.0858 11.2168 22.9551C11.3475 22.8244 11.4366 22.6578 11.4727 22.4766C11.5087 22.2951 11.4898 22.1064 11.4189 21.9355C11.3481 21.7648 11.228 21.6192 11.0742 21.5166C10.9203 21.4139 10.7397 21.3592 10.5547 21.3594ZM20.9443 21.3594C20.8216 21.3594 20.6993 21.3837 20.5859 21.4307C20.4728 21.4776 20.3698 21.5462 20.2832 21.6328C20.1964 21.7196 20.128 21.8231 20.0811 21.9365C20.0341 22.0498 20.0098 22.1713 20.0098 22.2939C20.0097 22.4788 20.0643 22.6597 20.167 22.8135C20.2696 22.9671 20.4153 23.0874 20.5859 23.1582C20.7568 23.229 20.9455 23.247 21.127 23.2109C21.3083 23.1748 21.4747 23.0858 21.6055 22.9551C21.7362 22.8243 21.8252 22.6579 21.8613 22.4766C21.8974 22.2953 21.8792 22.1072 21.8086 21.9365C21.7378 21.7658 21.6176 21.6193 21.4639 21.5166C21.3101 21.414 21.1292 21.3594 20.9443 21.3594ZM5.41602 16.8994H26.084L26.085 9.48047H5.41602V16.8994ZM15.75 2.41699C9.96292 2.41699 7.44322 3.7949 6.34863 4.95117C5.78231 5.48193 5.44674 6.21379 5.41406 6.98926V8.06738H26.083L26.084 7.03906C26.0722 6.64536 25.9818 6.25725 25.8193 5.89844C25.6569 5.53987 25.4256 5.2167 25.1377 4.94824C24.039 3.7928 21.5176 2.41702 15.75 2.41699ZM18.5166 4.68652C18.7042 4.68662 18.884 4.76093 19.0166 4.89355C19.1492 5.02619 19.2236 5.20602 19.2236 5.39355C19.2236 5.58124 19.1493 5.76182 19.0166 5.89453C18.884 6.02702 18.704 6.10147 18.5166 6.10156H12.9844C12.7969 6.10149 12.617 6.02707 12.4844 5.89453C12.3517 5.76186 12.2773 5.58118 12.2773 5.39355C12.2775 5.2061 12.3518 5.02612 12.4844 4.89355C12.617 4.76101 12.7969 4.68659 12.9844 4.68652H18.5166Z" fill="white"/>
</svg>
